<svg width="118" height="141" xmlns="http://www.w3.org/2000/svg"><path d="M115.527 109.882c-2.119 4.926-4.626 9.46-7.532 13.63-3.96 5.683-7.203 9.617-9.702 11.801-3.874 3.586-8.025 5.423-12.47 5.527-3.19 0-7.038-.914-11.517-2.768-4.494-1.845-8.624-2.759-12.4-2.759-3.961 0-8.208.914-12.752 2.76-4.55 1.853-8.215 2.82-11.018 2.915-4.262.183-8.51-1.706-12.751-5.675-2.707-2.376-6.092-6.449-10.148-12.22-4.351-6.161-7.928-13.307-10.73-21.453C1.504 92.84 0 84.32 0 76.07c0-9.449 2.029-17.599 6.092-24.428 3.193-5.486 7.442-9.813 12.759-12.99 5.317-3.177 11.062-4.796 17.25-4.9 3.385 0 7.824 1.055 13.341 3.126 5.502 2.079 9.034 3.133 10.583 3.133 1.158 0 5.082-1.233 11.734-3.69 6.29-2.278 11.6-3.222 15.95-2.85 11.786.957 20.64 5.634 26.53 14.059-10.541 6.428-15.756 15.432-15.652 26.982.095 8.997 3.338 16.483 9.71 22.428 2.889 2.759 6.114 4.891 9.703 6.406-.778 2.271-1.6 4.447-2.473 6.536zM88.496 2.82c0 7.051-2.56 13.635-7.662 19.73-6.157 7.244-13.604 11.43-21.68 10.77a22.093 22.093 0 0 1-.162-2.672c0-6.77 2.928-14.014 8.128-19.938 2.596-2.999 5.897-5.493 9.9-7.482C81.017 1.269 84.796.186 88.35 0c.103.943.147 1.885.147 2.82z" fill="#FFF"/></svg>