<svg width="141" height="141" xmlns="http://www.w3.org/2000/svg"><g fill="none" fill-rule="evenodd"><path d="M7.009 87.052c-.018-.035-.018-.07-.018-.104 0 .052 0 .07.018.104zM13 68.37c-.69 1.532-1.356 3.081-2 4.63.667-1.549 1.333-3.098 2-4.63-.184-.134-.253-.252-.253-.37.023.118.092.236.253.37zm-.104-.37a2.2 2.2 0 0 0 .173-.823c.017-.064.017-.129.035-.177-.018.065-.018.113-.035.177 0 .275-.069.549-.173.823zm-.913.086c0-.051.017-.12.034-.172-.017.069-.034.12-.034.172zM7.13 88.046L7.078 88c.017.03.034.045.052.045z"/><path d="M7.035 87.043c-.035-.034-.052-.052-.07-.086 0 .017.035.052.07.086zm25.844-60.836c.121-.103.19-.242.242-.414a.722.722 0 0 1-.242.414zM15 66c.975-3.05 1.803-6.155 2.72-9.242.088-.253.191-.505.28-.758-.089.253-.192.505-.28.758-.917 3.087-1.745 6.21-2.72 9.242zm89 5c-2.155.085-4.31.119-6.465.288-.85.204-1.72.424-2.535.712.815-.288 1.666-.508 2.535-.712 2.137-.17 4.292-.203 6.465-.288zm36.086-27c-.051.333-.12.667-.172.98v0c.051-.313.103-.647.172-.98zm-.879 3c-.138.344-.276.672-.414 1 .138-.328.276-.672.414-1zM.965 120c.018-.323.052-.677.07-1-.018.323-.052.677-.07 1zm16.992-65.957a.208.208 0 0 0 .086-.086c-.017.034-.052.052-.086.086zM19 53c.667-1.672 1.333-3.328 2-5-.667 1.656-1.333 3.328-2 5zM6 90c-.333.663-.692 1.337-1 2 .333-.663.667-1.325 1-2zm132.991-42.93c0-.053 0-.105.018-.14-.018.035-.018.087-.018.14zM25.017 36.956z"/><path d="M103 71.035c.658-.018 1.342-.035 2-.07-.658.035-1.342.052-2 .07zM33 25zm73 96c.13.185.26.355.45.483.521.84 1.028 1.678 1.55 2.517-.522-.839-1.029-1.678-1.55-2.517A2.07 2.07 0 0 1 106 121zm-10.922-20.827c-.052-.104-.104-.225-.156-.346.052.121.104.225.156.346zM94 72.147c.324-.104.676-.19 1-.294-.324.104-.676.19-1 .294zm-75.991-18.19c0 .034-.018.052-.018.086 0-.017.018-.052.018-.086zM1.043 115c-.034.34-.069.66-.086 1 .017-.318.052-.66.086-1zm-.026 5H.983h.034zm.147-8c-.12.672-.224 1.328-.328 2 .104-.672.207-1.344.328-2zm23.888-74.112c-.035.069-.07.155-.104.224.035-.069.07-.155.104-.224zM3.078 110c0 .368-.035.71-.156 1 .121-.316.156-.658.156-1zm-2.009 10.13c-.052-.087-.086-.173-.138-.26.052.087.086.173.138.26zm88.922-34.173c0 .034 0 .052.018.086 0-.034-.018-.052-.018-.086zM94.793 101c.155.315.31.648.414 1a5.023 5.023 0 0 0-.414-1zm-4.836-16c0 .1.017.2.017.333.017.234.052.434.07.667-.018-.233-.053-.433-.07-.667-.017-.133-.017-.233-.017-.333zm15.002 34c.155-.318.052-.66 0-1 .052.34.155.682 0 1zm.047-1.957v-.086c-.017.017-.017.052 0 .086zM90.94 88c-.035.029-.087.043-.104.071.12.315.224.615.328.929-.104-.314-.224-.614-.328-.929.017-.014.069-.042.104-.071zm5.043 13.948c.017.035.034.07.034.104 0-.035 0-.07-.034-.104z"/><path d="M71.77 134.13c.121-1.757.363-3.514.466-5.287.208-3.6.45-7.181.587-10.78.121-3.186.156-6.354.07-9.54-.087-2.979-.553-5.94-1.07-8.903-.519-3.013-1.244-5.975-2.107-8.885-.656-2.221-1.536-4.391-2.4-6.56-1.242-3.135-2.848-6.114-4.54-9.024-1.173-2.015-2.52-3.926-3.728-5.924-1.433-2.393-2.745-4.873-3.85-7.439-1.45-3.375-2.503-6.905-3.262-10.487-.225-1.033-.26-2.1-.294-3.168 1.9 2.686 3.694 5.424 5.749 7.973 2.485 3.082 5.092 6.01 8.32 8.351 1.968 1.43 4.178 2.17 6.44 2.893 3.055.982 6.23 1.43 9.373 1.98 2.365.414 4.747.638 7.129.93 2.503.293 4.989.569 7.492.793.829.068 1.692 0 2.52.086 2.054-.173 4.109-.207 6.163-.293h.052c.431-.017.88-.035 1.312-.069l.725-.052c.915-.069 1.83-.155 2.744-.292 7.078-1 13.655-3.203 19.438-7.543 2.538-1.911 4.575-4.288 6.525-6.733.76-.947 1.606-1.963 2.003-3.048.448-1.257 1.087-2.445 1.484-3.72.121-.378.242-.74.38-1.118.138-.38.276-.74.414-1.103 0-.034-.017-.068-.017-.103 0-.052 0-.103.017-.138.018-.051.052-.086.087-.12l.051-.155a.76.76 0 0 1 .035-.345c.034-.103.086-.223.155-.31v-.017c.052-.292.121-.585.173-.86.483-2.05.777-4.116.466-6.234-.155-1.05-.621-1.946-1.347-2.721-.448-.396-1-.637-1.553-.878-2.106-.138-4.264-.052-6.215-1.05-1.225-.466-2.45-.879-3.66-1.396-.776-.327-1.656-.55-2.468-.895-2.572-1.068-5.144-2.152-7.63-3.427-4.989-2.548-9.77-5.39-13.948-9.144-1.243-1.119-2.33-2.376-3.47-3.581-2.606-2.756-5.955-4.236-9.529-5.27-5.765-1.67-11.686-2.014-17.659-1.945-2.935.034-5.852.172-8.77.55-.534.07-.897-.103-1.294-.464-3.28-3.186-6.94-5.838-11.255-7.491a18.77 18.77 0 0 0-4.85-1.137c-2.608-.24-4.178.672-5.3 3.066-.95 2.032-1.295 4.201-1.502 6.405a41.256 41.256 0 0 0-.018 7.302c.035.361.07.723-.224 1.05-1.416 1.619-2.71 3.34-4.005 5.063-.777 1.033-1.536 2.083-2.296 3.117a.778.778 0 0 1-.241.413c-.035.034-.087.069-.121.103-1.174 1.464-2.193 3.065-3.194 4.632-1.174 1.843-2.244 3.789-3.332 5.7a5.384 5.384 0 0 1-.345.517c-.12.155-.241.344-.362.516-.018.052-.018.104-.035.138a.131.131 0 0 1-.034.086l-.104.258c-.034.07-.069.155-.103.224-.121.224-.26.448-.432.637-.76 1.447-1.588 2.842-2.279 4.34-.19.396-.328.826-.535 1.223-.12.24-.276.464-.466.654-.052.241-.12.465-.207.689-.259.654-.639 1.274-.932 1.911-.777 1.843-1.554 3.668-2.33 5.51v.104c0 .034-.018.051-.018.086-.017.034-.034.069-.086.086-.018.017-.035.034-.07.034h-.017c-.034.052-.086.104-.12.173 0 .12-.018.24-.018.344l.052.103h-.12v.018c.068.378.017.723-.26.981-.034.035-.086.069-.138.103-.103.242-.224.483-.328.724-1.07 2.927-2.037 5.906-3.176 8.816-.155.414-.328.827-.5 1.24 0 .017-.018.035-.018.052-.017.069-.017.12-.034.19 0 .31-.07.602-.173.877-.104.276-.224.551-.345.827a215.847 215.847 0 0 0-1.502 4.735c-1.45 4.753-2.78 9.54-4.022 14.345-.018.034-.018.069-.035.103-.034.103-.086.19-.12.293l-.26 1.085c-.069.275-.12.533-.19.809-.224.947-.466 1.911-.673 2.858-.12.534-.241 1.068-.345 1.585-.846 3.995-1.76 7.99-2.417 12.036-.19 1.189-.362 2.36-.57 3.548a.324.324 0 0 0 .018.19c.034.085.103.171.12.275v.137c0 .242-.034.465-.155.655a.773.773 0 0 1-.19.224c-.051.327-.12.671-.172.998-.121.724-.225 1.43-.328 2.153-.07.517-.138 1.05-.207 1.567-.035.258-.07.5-.087.758-.103.86-.19 1.722-.259 2.583-.017.051-.017.12-.034.172-.017.172-.052.361-.07.534.035.12.087.224.122.344v.017c.052.086.086.172.138.259l-.104.051c-.017-.103-.017-.206-.034-.31v-.017h-.139c-.38 3.1-.586 6.216-.724 9.333-.104 2.721-.328 5.442-.156 8.163.07 1.05.225 2.1.328 3.168h69.74c.035-2.29.467-4.563.64-6.87zM3.877 112.035a.675.675 0 0 1-.138-.172c-.017-.035.034-.086.052-.138.051.052.103.12.155.172-.034.052-.052.104-.069.138zm-2.873 7.955v0s-.017 0 0 0z" fill="#FDFDFD" fill-rule="nonzero"/><circle fill="#FDFDFD" fill-rule="nonzero" cx="1" cy="120" r="1"/><path d="M105 71.026l1-.052-1 .052zm34.026-25.104l-.052.156.052-.156zM103.974 71h.052-.052zM21 45c.407-.29.74-.632 1-1-.26.342-.593.684-1 1zm4.819-8l.362-1-.362 1z" fill="#BE1419" fill-rule="nonzero"/><path fill="#BE1419" fill-rule="nonzero" d="M18.0086341 54L17.9913659 54 17.9913659 54 18.0086341 54z"/><path d="M17.991 54.173c0-.121.018-.242.018-.346 0 .121-.018.225-.018.346z" fill="#BE1419" fill-rule="nonzero"/><circle fill="#BE1419" fill-rule="nonzero" transform="rotate(-73.477 32.912 25.64)" cx="32.912" cy="25.64" r="1"/><path d="M113.712 131.14a1303.41 1303.41 0 0 0-4.06-6.361c-.208-.328-.432-.672-.64-1-.621-1.017-1.226-2.034-1.848-3.051a2.428 2.428 0 0 1-.536-.586c-.138-.207-.276-.466-.414-.69-.138-.327-.294-.638-.432-.965-.587-.707-1.088-1.483-1.555-2.293-.466-.793-.898-1.603-1.365-2.396-1.796-3.034-3.662-6.033-5.217-9.188-.242-.482-.916-.827-.64-1.534-.38.034-.293-.293-.362-.5-.121-.241-.225-.465-.346-.707-.103-.327-.259-.62-.414-.93-.052-.087-.087-.173-.138-.26-.035-.05-.052-.103-.087-.154-.052-.104-.12-.224-.173-.328-.051-.103-.103-.224-.155-.345a2.504 2.504 0 0 1-.207-.724c-.691-1.137-1.123-2.396-1.555-3.654-.38-1.052-.812-2.086-1.158-3.137-.362-1.104-.69-2.224-1.036-3.345-.104-.379-.225-.74-.328-1.12-.087-.569-.173-1.155-.26-1.724-.017-.12-.051-.224-.069-.345 0-.051-.017-.103-.017-.172-.017-.017-.017-.052-.035-.069 0-.017-.017-.052-.017-.086-.017 0-.017 0-.034-.017-.035-.018-.052-.035-.07-.052-.017-.035-.034-.07 0-.12v-.518a1.053 1.053 0 0 1-.086-.207c-.052-.12-.103-.224-.103-.345-.018-1.896-.225-3.81.051-5.654.329-2.068 1.279-3.964 2.92-5.412.432-.38.898-.69 1.382-.949.19-.103.397-.19.587-.293.139-.069.277-.12.415-.172.777-.293 1.59-.517 2.419-.724-.847-.086-1.693-.017-2.523-.086-2.505-.224-5.01-.5-7.497-.793-2.384-.276-4.786-.517-7.135-.931-3.145-.552-6.323-1-9.381-1.982-2.263-.724-4.475-1.466-6.444-2.896-3.23-2.362-5.857-5.293-8.327-8.361C54.697 53.43 52.9 50.706 51 48c.035 1.069.07 2.138.294 3.172.76 3.603 1.814 7.12 3.265 10.498 1.105 2.568 2.418 5.05 3.852 7.447 1.192 2 2.557 3.913 3.732 5.93 1.693 2.913 3.3 5.895 4.544 9.033.863 2.172 1.744 4.326 2.4 6.567.865 2.914 1.59 5.878 2.109 8.895.518 2.965.984 5.913 1.07 8.912.087 3.172.052 6.361-.068 9.55-.139 3.603-.38 7.206-.588 10.791-.103 1.759-.345 3.517-.466 5.292-.173 2.31-.588 4.586-.553 6.913H120c-.64-1.017-1.296-2.051-1.918-3.068-1.434-2.293-2.92-4.534-4.37-6.792z" fill="#D6D6D6" fill-rule="nonzero"/><path d="M89.957 84.896c.034.07.069.139.086.208a1.056 1.056 0 0 0-.086-.208zM91.13 88c-.087-.66-.173-1.34-.26-2 .087.66.173 1.34.26 2zm3.663-15.914c.138-.069.276-.12.414-.172-.138.051-.276.103-.414.172zm.293 28.078c-.051-.104-.12-.224-.172-.328.051.104.12.224.172.328zm-.017.966c-.052-.087-.086-.173-.138-.26.052.087.104.173.138.26zM105 118c-.756-.617-1.4-1.293-2-2 .6.692 1.244 1.368 2 2z" fill="#D6D6D6" fill-rule="nonzero"/><path d="M105 117.043v-.086.086zM6.94 87.147c.034-.104.086-.19.12-.294-.034.104-.086.207-.12.294zM.87 118c.07-.667.173-1.333.26-2l-.26 2zm5.225-29c-.07.34-.12.66-.19 1 .052-.34.12-.68.19-1zM3.06 110.138c-.017-.103-.086-.173-.12-.276.034.103.086.19.12.276zM1.104 114c-.07.66-.139 1.34-.208 2 .07-.66.139-1.34.208-2z" fill="#BE1419" fill-rule="nonzero"/><path d="M25 37.257c-.318-.022-.794-.632-.924.109-.072.414-.231 1.329.346 1.634.13-.261.26-.523.361-.806.03-.087.058-.196.087-.283l.087-.327c.014-.044.014-.087.029-.11 0-.108.014-.152.014-.217zm.052-.387l-.104.26c.035-.07.07-.156.104-.26z" fill="#DD3E39" fill-rule="nonzero"/><path d="M25.017 36.93c-.017.053-.017.105-.034.14.017-.053.034-.087.034-.14zM22 45c-.482.04-.198.61-.51.689-.907.238-.24.887-.425 1.311.24-.503.552-.967.765-1.47A3.83 3.83 0 0 0 22 45zm.104 0zM136.9 35c-.315 0-.608.05-.901.164.67.213 1.32.459 1.885.836.272-.836.105-1-.984-1z" fill="#DD3E39" fill-rule="nonzero"/><path d="M12.512 67.384c.073.343-.341.646-.463.97a.611.611 0 0 0-.049.202c0 .141.073.282.268.444.171-.323.342-.646.488-.97.146-.323.244-.666.244-1.03-.17.121-.341.242-.488.384z" fill="#D2302E" fill-rule="nonzero"/><path d="M18.185 55c-.518.206-.121.714-.397 1 .051-.032.086-.063.138-.095.276-.238.328-.556.259-.905z" fill="#D6D6D6" fill-rule="nonzero"/><path d="M17.857 56c.276-.263.328-.614.259-1 .069.386.017.737-.26 1zM3.165 110c-.432.237-.346.627-.328 1 .069-.068.138-.136.19-.22.12-.187.155-.407.155-.644-.017-.034-.017-.085-.017-.136zM3 109.93v0z" fill="#D6D6D6" fill-rule="nonzero"/><path d="M140.003 44c-.051.34-.12.68-.172 1 .397-.08.431-.28.172-1zm-.15 2c.587-.128.121-.667.19-1a2.42 2.42 0 0 0-.155.462c-.035.179-.052.359-.035.538z" fill="#DD3E39" fill-rule="nonzero"/><path d="M139.986 46.173zM33.185 26c-.397-.033-.38.5-.363.999.052-.067.087-.133.121-.2.121-.2.207-.466.242-.799z" fill="#DD3E39" fill-rule="nonzero"/><path d="M2.905 111.983c.035.069.086.12.138.172a1.19 1.19 0 0 0 .052-.138c-.052-.052-.104-.103-.155-.172 0 .051-.035.103-.035.138z" fill="#D6D6D6" fill-rule="nonzero"/><path d="M138.965 46.819a.2.2 0 0 0-.086.12c-.018.052-.018.087-.018.139 0 .034 0 .069.018.103.241-.051.397-.138.086-.362z" fill="#DD3E39" fill-rule="nonzero"/><path d="M138.991 46.948c0 .035 0 .07.018.104-.018-.035-.018-.07-.018-.104z" fill="#DD3E39" fill-rule="nonzero"/><path d="M.965 120.155l.104-.051c-.052-.087-.086-.173-.138-.26.017.104.017.208.034.311z" fill="#D6D6D6" fill-rule="nonzero"/><path d="M1.004 119.991s-.017 0 0 0v0z" fill="#D6D6D6" fill-rule="nonzero"/><path d="M.994 119.994c.017 0 .017.017 0 0 .017.017.017.017 0 0 .017.017.017 0 0 0z" fill="#D6D6D6" fill-rule="nonzero"/><path d="M.983 119.845c.017.103.017.207.034.31-.017-.103-.017-.207-.034-.31zm16.93-65.69c.018-.017.052-.017.07-.034a.208.208 0 0 0 .086-.086c.017-.018.017-.052.017-.087v-.103c-.051.103-.12.207-.172.31z" fill="#D6D6D6" fill-rule="nonzero"/><path d="M17.965 54.017c.018-.017.052-.017.07-.034-.018.017-.035.017-.07.034zm.035-.965v-.104.104zM.948 119.827c0 .121-.017.225-.017.346h.138c-.034-.121-.086-.225-.12-.346zm.035.173h0z" fill="#D6D6D6" fill-rule="nonzero"/><path d="M.94 119.827c.034.121.086.225.12.346-.034-.121-.086-.225-.12-.346z" fill="#D6D6D6" fill-rule="nonzero"/><path fill="#D6D6D6" fill-rule="nonzero" d="M0.926 119.926H1.9260000000000002V120.926H0.926z"/><path d="M.994 120s.017 0 0 0c.017 0 .017 0 0 0zm17.018-66.06c-.07.017-.087.051-.07.12h.122c-.018-.051-.035-.086-.052-.12z" fill="#D6D6D6" fill-rule="nonzero"/><path d="M17.974 53.948l.052.104-.052-.104z" fill="#D6D6D6" fill-rule="nonzero"/><path d="M18.07 53.914c-.104 0-.173.051-.122.172.052-.051.087-.12.121-.172z" fill="#D6D6D6" fill-rule="nonzero"/><path d="M18.06 53.914c-.034.051-.086.103-.12.172.051-.051.086-.12.12-.172zM1.026 118.905c-.017.017-.052.035-.052.052 0 .052.017.086.017.138.018-.07.035-.12.035-.19z" fill="#D6D6D6" fill-rule="nonzero"/><path d="M1.017 118.914c-.017.051-.017.12-.034.172a.51.51 0 0 0 .034-.172z" fill="#D6D6D6" fill-rule="nonzero"/><path d="M91 86.92c-.094-.426-.264-.877-.302-1.327-.019-.285-.075-.45-.189-.522-.037-.024-.056-.047-.094-.047S90.34 85 90.302 85H90v.711c.038.095.075.166.113.261 0 .047 0 .071.02.119a.2.2 0 0 0 .037.094c.019.048.056.095.075.166 0 .024-.037.048-.056.071.019.166.056.309.075.475.245-.119.453.26.736.023zm-.052-1.929c.035 0 .07.018.104.018-.035 0-.07 0-.104-.018zm-1 .009h.104-.104z" fill="#CA2525" fill-rule="nonzero"/><path d="M90.957 84.983c.034.017.069.017.086.034a.132.132 0 0 0-.086-.034zM89.94 85h.12-.12z" fill="#CA2525" fill-rule="nonzero"/><path d="M95 98.363c-1.055-.07-.898-.608-.866-1.09C94.228 96.227 94.024 96 93 96c.394 1.033.787 2.066 1.417 3-.047-.269.142-.439.583-.637z" fill="#D2302E" fill-rule="nonzero"/><path d="M95.957 102.35a.534.534 0 0 0-.095-.224c-.039-.05-.077-.075-.115-.1-.02 0-.039-.025-.058-.025-.21-.025-.478.325-.689.275.077.299-.02.748.402.723.345 0 .728-.075.555-.649zm-.009-.385c.035.018.07.035.104.07-.052-.035-.087-.052-.104-.07z" fill="#BE1419" fill-rule="nonzero"/><path d="M96 101.904c-.306-.017-.694.224-1 .19.306.034.667-.207 1-.19z" fill="#BE1419" fill-rule="nonzero"/><path d="M95.935 101.175c-.096-.122-.387-.195-.935-.17.226.34.42.655.645.995.194-.267.355-.486.355-.68 0-.048 0-.097-.065-.145z" fill="#BE1419" fill-rule="nonzero"/><path d="M96 102.063c-.103-.087-.414-.139-1-.121.586-.018.897.017 1 .12z" fill="#BE1419" fill-rule="nonzero"/><path d="M92.063 86.078c-.035-.051-.087-.12-.121-.172.034.069-.087.241.12.172z" fill="#D2302E" fill-rule="nonzero"/><path d="M106.983 120c.09-.538-.214-1.056-.018-1.614.09-.28-.196-.538-.518-.28-.161.14-.215.4-.447.42.143.258.286.537.429.796.143.26.322.499.554.678z" fill="#CA2525" fill-rule="nonzero"/><path d="M90.032 86.035c-.017-.035-.034-.07-.069-.121 0 .051.017.103.017.172.035-.017.07-.051.052-.051z" fill="#D2302E" fill-rule="nonzero"/><path d="M89.961 85.905c-.034.052-.034.086 0 .12.017.018.052.035.07.053.016 0 .016 0 .034.017-.035-.07-.07-.12-.104-.19z" fill="#D2302E" fill-rule="nonzero"/><path d="M89.983 85.991c.017 0 .017.018.034.018 0 0-.017 0-.034-.018z" fill="#D2302E" fill-rule="nonzero"/><path d="M90.035 86.026a.238.238 0 0 1-.07-.052c.018.035.052.052.07.052zM12.043 67.009c-.017-.018-.017-.052-.034-.07-.018.018-.052.035-.052.052a.13.13 0 0 0 .034.07c.018 0 .035-.035.052-.052zm.894-.09c.035.05.087.12.121.172-.034-.035.087-.225-.12-.173z" fill="#D2302E" fill-rule="nonzero"/><path d="M6.111 87c.017-.556.035-.778.035-1-.519.133-.225.422-.035 1z" fill="#CA2525" fill-rule="nonzero"/></g></svg>