<svg width="120" height="140" xmlns="http://www.w3.org/2000/svg"><g fill="#FFF"><path d="M61.143 80.288c-.32.952-.593 1.949-1.003 2.856-2.097 4.668-4.012 9.428-6.474 13.87-1.778 3.264-5.06 4.443-8.844 4.579-6.61.181-12.993-.59-19.193-3.037-12.218-4.85-19.467-13.78-22.065-26.518-1.277-6.21-2.37-12.42-3.42-18.63-1.002-6.03 3.329-10.88 9.483-10.88h22.339c6.838 0 10.212-3.309 10.257-10.153.046-7.163.274-14.37-.045-21.532C41.858 3.409 46.144.191 52.572.009c3.191-.09 6.474.499 9.665 1.134 3.693.77 6.018 3.445 7.385 6.799.639 1.586 1.55 2.13 3.146 2.402 8.434 1.406 16.914 2.72 25.256 4.488 11.9 2.538 16.732 8.386 18.692 20.308 3.1 18.857 3.693 37.804 3.054 56.843-.273 8.567-1.048 17.134-4.057 25.339-5.152 14.052-17.689 23.073-32.14 22.665-7.66-.227-14.498-2.81-19.102-9.338-3.83-5.394-3.92-11.333-.912-17.135 3.146-5.983 8.297-9.066 15.09-9.338 2.69-.09 4.832 1.587 5.197 3.808.456 2.81-.957 4.941-3.83 5.848-.5.136-1.002.317-1.55.362-2.507.363-4.24 1.723-4.923 4.125-.684 2.403.182 4.488 1.915 6.165 4.878 4.896 13.95 4.125 18.92-1.541 6.29-7.162 4.558-17.996-3.739-24.16-3.556-2.63-7.659-3.446-11.899-4.08-4.285-.635-8.16-2.267-11.58-4.941-3.054-2.357-4.877-5.485-6.017-9.474zm36.973-12.375c5.607.045 6.337-.59 5.561-3.355-.82-2.9-4.011-5.076-7.932-5.44-3.237-.316-6.565 1.406-7.796 4.035-.912 1.859-.547 2.947 1.505 3.355 3.373.68 6.792 1.088 8.662 1.405z"/><path d="M37.56 5.6v16.869c0 2.88.09 5.805 0 8.685-.137 4.709-1.954 6.4-6.587 6.446H6.4a6677.582 6677.582 0 0 1 31.16-32z"/></g></svg>