<svg height="2496" viewBox="135.688 36.52 511.623 510.753" width="2500" xmlns="http://www.w3.org/2000/svg"><g stroke-width=".094"><path d="m391.6 36.6c1.4.8 2.6 2 3.7 3.2 41.3 41.5 82.7 83 123.899 124.6-26 25.6-51.6 51.6-77.399 77.3-9.7 9.8-19.601 19.4-29.2 29.4-7.2-17.4-14.1-34.9-21-52.4 0-18.2.1-36.4 0-54.7-.1-42.4-.2-84.9 0-127.4z" fill="#dd4b39" stroke="#dd4b39"/><path d="m263.5 164h128.1c.1 18.3 0 36.5 0 54.7-7.1 17.2-14 34.5-20.8 51.9-2.2-1.2-3.8-3-5.5-4.8l-101.4-101.4z" fill="#ef851c" stroke="#ef851c"/><path d="m519.199 164.4.4-.3c-.1 42.6-.1 85.3 0 127.9h-55.1c-17.2-7.2-34.601-13.8-51.9-20.9 9.6-10 19.5-19.6 29.2-29.4 25.801-25.7 51.4-51.7 77.4-77.3z" fill="#7e3794" stroke="#7e3794"/><path d="m242.6 185.5c7.2-6.9 13.9-14.3 21.3-21.1l101.4 101.4c1.7 1.8 3.3 3.6 5.5 4.8-2.3 1.7-5.2 2.3-7.8 3.5-14.801 6-29.801 11.6-44.5 18-18.301-.2-36.601-.1-54.9-.1-42.6-.1-85.2.2-127.8-.1 35.5-35.6 71.2-71 106.8-106.4z" fill="#ffbb1b" stroke="#ffbb1b"/><path d="m263.6 292c18.3 0 36.6-.1 54.9.1 17.3 7.1 34.6 13.8 51.899 20.8-28.399 28.8-57.099 57.2-85.599 85.9-7.2 6.8-13.7 14.3-21.3 20.7 0-42.5-.1-85 .1-127.5z" fill="#1a8763" stroke="#1a8763"/><path d="m464.5 292h55.1c42.5.1 85.1-.1 127.6.1-27.3 27.7-55 55.1-82.399 82.6-15.2 15.1-30.2 30.399-45.4 45.3-34-34.4-68.5-68.4-102.6-102.8-1.4-1.5-2.9-2.8-4.601-3.8 2.9-1.801 6.101-2.7 9.2-4 14.4-5.8 28.799-11.4 43.1-17.4z" fill="#427fed" stroke="#427fed"/><path d="m370.4 312.9c7.3 17.399 13.9 35 21.2 52.399-.1 18.2 0 36.5-.1 54.7v88c-.2 13.1.3 26.2-.2 39.2-2.101-1-3.4-2.9-5.101-4.5-40.899-41.099-81.699-82.199-122.699-123.199 7.6-6.4 14.1-13.9 21.3-20.7 28.5-28.7 57.2-57.1 85.6-85.9z" fill="#65b045" stroke="#65b045"/><path d="m412.199 313.4c1.7 1 3.2 2.3 4.601 3.8 34.1 34.4 68.6 68.4 102.6 102.8-42.7-.1-85.3.1-127.899 0 .1-18.2 0-36.5.1-54.7 6.699-17.3 13.899-34.5 20.598-51.9z" fill="#43459d" stroke="#43459d"/></g></svg>