<svg width="194" height="33" xmlns="http://www.w3.org/2000/svg"><g transform="translate(-.006 -.001)"><path d="M10.806.001c-5.9 0-10.8 4.7-10.8 10.6v.4c-.2 5.8 4.4 10.7 10.2 10.9h.3c1 0 2-.2 2.9-.7h.1l-7.2 10.5h3.6l7.8-11.5c1.8-2.8 3.7-5.5 3.7-9.1 0-6.2-4.3-11.1-10.6-11.1zm0 19c-4.4 0-7.5-3.7-7.5-8s3-8 7.5-8c4.3-.1 7.5 3.6 7.5 7.9 0 4.3-3 8.1-7.5 8.1z"/><path d="M22.6062829 3.50102914L29.8062829 3.50102914 29.8062829 31.8010291 32.9062829 31.8010291 32.9062829 3.30102914 40.0062829 3.30102914 40.0062829 0.601029139 22.6062829 0.601029139z"/><path d="M58.706.001c-9-.1-16.4 7.1-16.5 16.2v.1c0 8.9 7.8 16 16.5 16s16.5-7.2 16.5-16.1c-.1-9.1-7.5-16.3-16.5-16.2zm0 29.4c-7.3 0-13.2-5.9-13.4-13.1 0-7.4 5.9-13.4 13.3-13.5 7.4-.1 13.4 5.9 13.5 13.3-.1 7.4-6.1 13.3-13.4 13.3zm30.4-18.9c-1.8.1-3.7.6-5.3 1.5l1.6-8.6h11.5v-2.8h-14.2l-2.8 15.4 2.4.8c1.5-2.1 3.9-3.5 6.4-3.6 4.4 0 7.4 4 7.4 8.1s-3.1 8-7.4 8c-4.3 0-7.2-3.5-7.5-7.5h-3.1c.6 4.4 2.8 8.1 7.1 9.7 1.1.5 2.4.7 3.6.7 6 0 10.8-4.9 10.8-10.9.2-5.8-4.4-10.7-10.3-10.9l-.2.1z"/><path d="M58.506 4.501c-.8 0-1.4.5-1.5 1.3V15.101h-5.8c-.8.1-1.4.8-1.3 1.6.1.7.6 1.3 1.3 1.3h7.3c.8 0 1.4-.7 1.4-1.5v-10.5c0-.8-.6-1.4-1.3-1.5h-.1z"/><path d="M119.906283 27.1010291L108.406283 0.601029139 103.706283 0.601029139 103.706283 31.8010291 106.806283 31.8010291 106.806283 3.90102914 106.906283 3.90102914 118.506283 31.7010291 121.106283 31.7010291 132.806283 3.90102914 132.906283 3.90102914 132.906283 31.7010291 136.106283 31.7010291 136.106283 0.601029139 131.306283 0.601029139z"/><path d="M162.506 12.801h-.1c-2-3-5.4-4.8-9-4.7-6.7-.2-12.3 5.1-12.5 11.8-.2 6.7 5.1 12.3 11.8 12.5h.7c3.6.1 7-1.6 9-4.5h.1v4.1h3v-23.3h-3v4.1zm-9.1 16.9c-5 .1-9.2-3.8-9.4-8.9v-.4c-.2-5.1 3.8-9.5 9-9.7 5.2-.2 9.5 3.8 9.7 9v.6c0 5.1-4.1 9.3-9.3 9.4 0-.1 0-.1 0 0zm28.9-.2c-5.2.2-9.6-3.9-9.8-9.1-.2-5.2 3.9-9.6 9.1-9.8h.6c3.4 0 6.6 1.9 8.1 4.9h3.2c-2.7-6.3-10.1-9.2-16.4-6.5-4.5 1.9-7.4 6.3-7.5 11.2 0 6.7 5.5 12.1 12.2 12.1h.3c5.4 0 9.1-2.6 11.5-7.3v-.1h-3.2c-1.5 3-4.7 4.8-8.1 4.6z"/></g></svg>