<svg width="142" height="19" xmlns="http://www.w3.org/2000/svg"><g><path d="M11.523 13.837c-.31 1.179-.56 2.419-.621 3.163l-3.606-.93.124-1.365h-.062c-1.12.807-2.55.993-4.104.62-2.611-.682-3.668-2.976-3.108-4.96.87-3.287 4.227-4.093 8.766-2.915l.062-.186c.187-.682.063-1.799-1.865-2.295-1.306-.372-2.86-.31-3.793 0l-.062-2.728c.995-.248 2.922-.434 5.285.124 4.29 1.116 4.974 3.969 4.166 7.007l-1.182 4.465zM8.415 9.868C6.3 9.31 4.56 9.434 4.187 10.923c-.249.992.31 1.674 1.181 1.922.995.248 1.99-.186 2.425-.93.124-.186.187-.434.249-.682l.373-1.365zm12.53-7.236c-.296 1.12-1.245 1.805-2.55 1.431-1.185-.311-1.778-1.431-1.482-2.552C17.21.391 18.218-.23 19.403.08c1.246.373 1.78 1.431 1.542 2.552m-4.803 2.49l3.795 1.057L16.795 19 13 17.942l3.142-12.82zm22.041 7.334c0 .95 0 1.9.211 2.427h-2.85l-.21-1.055h-.106c-.634.844-1.69 1.266-2.956 1.266-2.11 0-3.272-1.477-3.272-3.166 0-2.64 2.428-3.906 6.017-3.906v-.105c0-.528-.317-1.373-1.9-1.373-1.056 0-2.111.317-2.85.74l-.634-2.112c.74-.422 2.111-.95 4.011-.95 3.378 0 4.54 2.006 4.54 4.434v3.8zm-3.06-2.428c-1.69 0-2.956.422-2.956 1.583 0 .845.527 1.267 1.266 1.267.74 0 1.478-.528 1.69-1.161 0-.211.105-.317.105-.528-.106 0-.106-1.161-.106-1.161zm4.96-2.006c0-1.372 0-2.428-.105-3.483h2.744l.106 1.478c.739-1.056 1.9-1.69 3.378-1.69 2.216 0 4.222 1.9 4.222 5.279 0 3.694-2.322 5.488-4.645 5.488-1.266 0-2.216-.527-2.639-1.16V19h-3.166V8.022h.105zm3.167 2.428c0 .211 0 .422.106.633.21.845.95 1.478 1.9 1.478 1.372 0 2.216-1.161 2.216-2.85s-.739-2.85-2.11-2.85c-.95 0-1.69.633-1.9 1.583 0 .212-.106.423-.106.528v1.478h-.106zm9.078-2.428c0-1.372 0-2.428-.106-3.483h2.85l.106 1.478c.739-1.056 1.9-1.69 3.378-1.69 2.216 0 4.222 1.9 4.222 5.279 0 3.694-2.322 5.488-4.645 5.488-1.266 0-2.216-.527-2.639-1.16V19h-3.166V8.022zm3.166 2.428c0 .211 0 .422.106.633.211.845.95 1.478 1.9 1.478 1.372 0 2.217-1.161 2.217-2.85s-.74-2.85-2.111-2.85c-.95 0-1.69.633-1.9 1.583 0 .212-.106.423-.106.528l-.106 1.478z"/><path d="M64.572 0H67.739V14.883H64.572z"/><path d="M72.489 10.767c.105 1.372 1.372 2.005 2.85 2.005 1.055 0 2.005-.105 2.85-.422l.422 2.111c-1.055.422-2.322.633-3.694.633-3.484 0-5.49-2.005-5.49-5.277 0-2.64 1.584-5.49 5.173-5.49 3.272 0 4.539 2.534 4.539 5.173 0 .528-.106 1.056-.106 1.267H72.49zm3.8-2.217c0-.739-.317-2.111-1.795-2.111-1.372 0-1.9 1.267-2.005 2.111h3.8zm8.022-6.756c0 .845-.633 1.584-1.689 1.584-1.055 0-1.689-.74-1.689-1.584 0-.95.634-1.583 1.69-1.583 1.055 0 1.688.633 1.688 1.583m-3.378 2.85H84.1v10.24h-3.167V4.643zm4.961 3.273c0-1.267 0-2.323-.105-3.273h2.744l.106 1.478h.211c.422-.633 1.478-1.689 3.167-1.689 2.11 0 3.694 1.373 3.694 4.434v6.122h-3.167v-5.7c0-1.372-.422-2.217-1.583-2.217-.844 0-1.372.634-1.689 1.161-.105.211-.105.528-.105.845v5.91H86l-.106-7.071zm11.717 4.222c.633.317 1.795.739 2.745.739.95 0 1.372-.317 1.372-.845 0-.527-.317-.844-1.478-1.16-2.111-.74-2.956-1.9-2.956-3.062 0-1.9 1.69-3.378 4.223-3.378 1.16 0 2.216.317 2.85.634l-.528 2.216c-.422-.21-1.372-.633-2.217-.633-.739 0-1.266.317-1.266.844 0 .528.422.74 1.688 1.162 1.9.633 2.745 1.688 2.745 3.166 0 1.9-1.478 3.378-4.433 3.378-1.373 0-2.534-.317-3.273-.739l.528-2.322zm12.245-10.345c0 .845-.634 1.584-1.69 1.584-1.055 0-1.688-.74-1.688-1.584 0-.95.633-1.583 1.689-1.583 1.055 0 1.689.633 1.689 1.583m-3.273 2.85h3.167v10.24h-3.167V4.643zM122.1 0v11.822c0 1.161 0 2.322.106 3.061h-2.85l-.106-1.477h-.106c-.633 1.16-1.9 1.688-3.166 1.688-2.428 0-4.434-2.11-4.434-5.277 0-3.484 2.112-5.49 4.645-5.49 1.267 0 2.217.423 2.744 1.162V0h3.167zm-3.272 8.972V8.34c-.211-.845-.845-1.583-1.9-1.583-1.478 0-2.217 1.266-2.217 2.955s.845 2.85 2.217 2.85c.95 0 1.689-.633 1.9-1.583 0-.211.105-.528.105-.74V8.973h-.105zm8.022 1.795c.106 1.372 1.372 2.005 2.85 2.005 1.056 0 2.006-.105 2.85-.422l.422 2.111c-1.055.422-2.322.633-3.694.633-3.484 0-5.49-2.005-5.49-5.277 0-2.64 1.584-5.49 5.173-5.49 3.272 0 4.539 2.534 4.539 5.173 0 .528-.106 1.056-.106 1.267h-6.544zm3.694-2.111c0-.74-.316-2.112-1.794-2.112-1.372 0-1.9 1.267-2.006 2.112h3.8zm4.645-.634c0-1.478 0-2.533-.106-3.378h2.745l.105 1.9h.106c.528-1.477 1.794-2.11 2.744-2.11.317 0 .423 0 .634.105v2.955c-.211 0-.528-.105-.845-.105-1.16 0-2.005.633-2.216 1.583 0 .211-.106.422-.106.74v5.171h-3.167l.106-6.86z"/></g></svg>