<svg viewBox="0 0 188 33.1" xmlns="http://www.w3.org/2000/svg"><path d="M32.4 16.5c0 9-7.3 16.2-16.2 16.2S0 25.4 0 16.5 7.3.3 16.2.3s16.2 7.2 16.2 16.2" fill="#ecb360"/><path d="M28.1 14.9c0 8.1-6.3 14.6-14 14.6S0 22.9 0 14.9C0 6.8 6.3.3 14 .3s14.1 6.5 14.1 14.6" fill="#d76835"/><path d="M29.2 13.3c0 7.2-5.6 13-12.4 13-6.9 0-12.4-5.8-12.4-13S10 .3 16.8.3s12.4 5.8 12.4 13" fill="#d33a41"/><path d="M28.1 14.3c0 6.6-5.1 11.9-11.3 11.9S5.4 20.9 5.4 14.3 10.5 2.4 16.7 2.4c6.3.1 11.4 5.4 11.4 11.9" fill="#b6cb46"/><path d="M27 15.4c0 6-4.8 10.8-10.8 10.8S5.4 21.4 5.4 15.4 10.2 4.6 16.2 4.6 27 9.4 27 15.4" fill="#66ad4a"/><path d="M22.7 13.3c0 4.8-3.9 8.6-8.6 8.6S5.4 18 5.4 13.3c0-4.8 3.9-8.6 8.6-8.6 4.8-.1 8.7 3.8 8.7 8.6" fill="#aed7dc"/><path d="M23.8 12.2c0 4.2-3.4 7.6-7.6 7.6s-7.6-3.4-7.6-7.6c0-4.2 3.4-7.6 7.6-7.6s7.6 3.4 7.6 7.6" fill="#5bb1cf"/><path d="M23.8 12.7c0 3.9-2.9 7-6.5 7s-6.5-3.1-6.5-7 2.9-7 6.5-7 6.5 3.1 6.5 7" fill="#25a8c3"/><path d="M21.6 13.8c0 3.3-2.4 5.9-5.4 5.9s-5.4-2.7-5.4-5.9c0-3.3 2.4-5.9 5.4-5.9s5.4 2.6 5.4 5.9" fill="none"/><path d="M16.2 19.7c-3 0-5.4-2.7-5.4-5.9 0-3.3 2.4-5.9 5.4-5.9s5.4 2.7 5.4 5.9-2.4 5.9-5.4 5.9z" fill="#1b1a18"/><path d="M19.2 12.1c-.5.9-1.5 1.4-2.3 1.1-.7-.2-.9-1.1-.4-2s1.5-1.4 2.3-1.1c.7.2.9 1.1.4 2" fill="#fffffe"/><path d="M164.7 22.6c-.3-.7-.4-1.6-.4-2.9s.1-2.1.4-2.9c.7-2.1 2.6-3.2 5.1-3.2 1.9 0 3.3.7 4.3 1.8.1.1.1.2 0 .3l-1.6 1.3c-.1.1-.3.1-.4 0-.6-.7-1.3-1-2.3-1-1.1 0-2 .5-2.3 1.5-.2.6-.3 1.3-.3 2.1 0 .9.1 1.6.3 2.2.4 1 1.2 1.5 2.3 1.5 1 0 1.7-.4 2.3-1 .1-.1.2-.1.4 0l1.6 1.3c.1.1.1.2 0 .3-1 1.1-2.5 1.8-4.3 1.8-2.5.1-4.4-1-5.1-3.1m19.5 2.9c-.2 0-.3-.1-.4-.2l-3.2-4.9-1.7 1.8v3.1c0 .1-.1.2-.3.2h-2.4c-.2 0-.3-.1-.3-.2v-16c0-.1.1-.2.3-.2h2.4c.2 0 .3.1.3.2v9.5l4.3-4.7c.2-.2.3-.2.5-.2h2.6c.2 0 .2.1.1.2l-4 4.3 4.5 6.9c.1.1 0 .2-.1.2zM45.7 23h3.7c1.7 0 2.7-.9 2.7-2.3s-1-2.3-2.7-2.3h-3.7c-.1 0-.2 0-.2.1v4.3c.1.2.1.2.2.2zm3.6-7.1c1.5 0 2.5-.9 2.5-2.2s-1-2.2-2.5-2.2h-3.5c-.1 0-.2 0-.2.1v4c0 .1.1.1.2.1h3.5zm-6.8-6.6c0-.1.1-.2.3-.2h6.5c3.7 0 5.5 1.7 5.5 4.4 0 1.9-.9 2.9-2 3.5 1.1.4 2.4 1.7 2.4 3.7 0 3.3-2.2 4.8-6 4.8h-6.3c-.2 0-.3-.1-.3-.2zm14.8 16.2c-.2 0-.3-.1-.3-.2V14.1c0-.1.1-.2.3-.2h2.4c.2 0 .3.1.3.2v1c.6-.9 1.7-1.5 3.2-1.5 1 0 2 .4 2.6 1 .1.1.2.2.1.3l-1.4 1.6c-.1.1-.2.1-.4 0-.6-.3-1.2-.6-1.8-.6-1.6 0-2.3 1.1-2.3 2.9v6.3c0 .1-.1.2-.3.2zm16.4-3.7c.2-.6.3-1.2.3-2.2s-.1-1.5-.3-2.1c-.4-1-1.2-1.5-2.3-1.5s-2 .6-2.3 1.5c-.2.6-.3 1.2-.3 2.1 0 1 .1 1.5.3 2.2.4 1 1.2 1.5 2.3 1.5s2-.5 2.3-1.5zm-7.4.8c-.3-.8-.4-1.6-.4-2.9s.1-2.1.4-2.9c.7-2 2.6-3.2 5.1-3.2s4.4 1.2 5.1 3.2c.3.8.4 1.6.4 2.9s-.1 2.1-.4 2.9c-.7 2-2.6 3.2-5.1 3.2s-4.4-1.2-5.1-3.2zm23.2 2.9c-.2 0-.3-.1-.3-.2l-2.4-7.4h-.1l-2.4 7.4c-.1.1-.2.2-.3.2h-2.1c-.2 0-.3-.1-.3-.2l-3.9-11.2c-.1-.1 0-.2.2-.2h2.5c.2 0 .3.1.3.2l2.4 7.7h.1l2.4-7.7c0-.1.2-.2.3-.2h1.9c.2 0 .3.1.3.2l2.5 7.7h.1l2.3-7.7c.1-.2.2-.2.3-.2h2.5c.2 0 .2.1.2.2l-3.9 11.2c-.1.1-.2.2-.3.2zm6.8-1.6c-.1-.1-.1-.2 0-.3l1.5-1.4c.1-.1.3-.1.4 0 .9.8 2.3 1.3 3.6 1.3 1.5 0 2.3-.6 2.3-1.4 0-.7-.4-1.1-2.1-1.3l-1.3-.1c-2.5-.2-3.8-1.4-3.8-3.4 0-2.2 1.7-3.7 4.8-3.7 1.9 0 3.6.6 4.7 1.4.1.1.1.2.1.3l-1.3 1.4c-.1.1-.2.1-.4 0-.8-.5-2-1-3.3-1s-1.9.5-1.9 1.2.4 1.1 2 1.2l1.3.1c2.6.2 3.8 1.5 3.8 3.4 0 2.3-1.8 3.9-5.2 3.9-2.4.3-4.1-.7-5.2-1.6m20.1-6.5c-.3-.9-1.3-1.5-2.4-1.5-1.2 0-2.1.6-2.5 1.5-.1.3-.2.6-.2 1 0 .1.1.1.2.1h4.9c.1 0 .2 0 .2-.1 0-.4-.1-.7-.2-1zm-7.5 5.1c-.3-.7-.4-1.6-.4-2.9 0-1.2.2-2.1.4-2.9.7-2 2.6-3.2 5.1-3.2 2.6 0 4.4 1.2 5.1 3.2.3.8.4 1.6.4 3.5 0 .1-.1.2-.3.2h-7.7c-.1 0-.2 0-.2.1 0 .3.1.6.2.9.4 1.1 1.4 1.8 2.8 1.8s2.3-.5 2.9-1.1c.1-.1.3-.1.4 0l1.5 1.3c.1.1.1.2 0 .3-1.1 1.2-2.8 2-5.1 2-2.6.1-4.4-1.1-5.1-3.2zm12.7 3c-.2 0-.3-.1-.3-.2V14.1c0-.1.1-.2.3-.2h2.4c.2 0 .3.1.3.2v1c.6-.9 1.7-1.5 3.2-1.5 1 0 2 .4 2.6 1 .1.1.2.2.1.3l-1.4 1.6c-.1.1-.2.1-.4 0-.6-.3-1.2-.6-1.8-.6-1.6 0-2.3 1.1-2.3 2.9v6.3c0 .1-.1.2-.3.2zm9-1.9c-.1-.1-.2-.2-.1-.4l1.6-1.7c.1-.1.2-.1.3 0 1.1.8 2.8 1.7 4.8 1.7 2.1 0 3.3-1 3.3-2.4 0-1.2-.8-2-3.2-2.3l-.9-.1c-3.4-.4-5.3-2-5.3-4.7 0-3 2.3-5 5.9-5 2.2 0 4.3.7 5.7 1.6.1.1.2.2.1.3l-1.2 1.8c-.1.1-.2.1-.4.1-1.4-.9-2.7-1.3-4.2-1.3-1.8 0-2.8.9-2.8 2.2 0 1.1.9 1.9 3.2 2.2l.9.1c3.4.4 5.2 1.9 5.2 4.8s-2.2 5.1-6.6 5.1c-2.4.2-4.9-.8-6.3-2m18.4 2.1c-2.5 0-3.5-1.1-3.5-3.4v-6.1c0-.1-.1-.1-.2-.1h-.8c-.2 0-.3-.1-.3-.2v-1.6c0-.1.1-.2.3-.2h.8c.1 0 .2 0 .2-.1v-3.2c0-.1.1-.2.3-.2h2.4c.2 0 .3.1.3.2V14c0 .1.1.1.2.1h1.7c.2 0 .3.1.3.2v1.6c0 .1-.1.2-.3.2h-1.7c-.1 0-.2 0-.2.1v6c0 .8.4 1.1 1.2 1.1h.6c.2 0 .3.1.3.2v1.9c0 .1-.1.2-.3.2zm10.7-4.1v-.9c0-.1-.1-.1-.2-.1h-2.1c-1.9 0-2.7.5-2.7 1.6 0 1 .7 1.4 2.1 1.4 1.9 0 2.9-.7 2.9-2zm.3 3.9c-.2 0-.3-.1-.3-.2v-.8c-.6.8-1.8 1.4-3.5 1.4-2.3 0-4.2-1.1-4.2-3.6s1.9-3.7 5-3.7h2.5c.1 0 .2 0 .2-.1v-.6c0-1.3-.7-1.9-2.8-1.9-1.4 0-2.2.4-2.8.8-.1.1-.3.1-.4 0l-1-1.6c-.1-.1-.1-.2.1-.3 1-.7 2.4-1.1 4.4-1.1 3.8 0 5.2 1.2 5.2 4.1v7.6c0 .1-.1.2-.3.2z"/></svg>