<svg enable-background="new 0 0 641.7 100" viewBox="0 0 641.7 100" xmlns="http://www.w3.org/2000/svg"><path d="m0 0h641.7v100h-641.7z" fill="none"/><path d="m0 100h641.2v-100h-641.2z"/><path d="m78.3 44.3h-60v12.9h60zm-60-6.5h54.3v-8.3h-54.3zm0-14.2h39.5v-5.6h-39.5zm50.6 40.1h-50.6v7.6h50.5zm-11.1 18.3h-39.5v-4.8h39.5zm537.9-58.2h7.8v30.4l12-14.8h8.5l-13.1 15.4 14.2 18.2h-9l-12.6-16.5v16.5h-7.8zm-39.8 15.6h7.8v5.3c1.6-3.3 5.3-6 10.9-6 6.8 0 11.5 3.9 11.5 13.2v21.1h-7.8v-20.5c0-5.1-2.1-7.4-6.7-7.4-4.4 0-7.9 2.7-7.9 8v19.9h-7.8zm-39.9 21.5v-21.5h7.8v20.6c0 5.1 2.1 7.4 6.6 7.4 4.2 0 7.8-2.7 7.8-8v-20h7.8v33.6h-7.8v-5.3c-1.7 3.3-5.2 5.9-10.7 5.9-6.5 0-11.5-3.7-11.5-12.7m-21.9-15.7h-4.6v-5.9h4.6v-4.5c0-7.4 4.1-11.4 11.3-11.4 1.9 0 3 .2 4.4.6v6c-.9-.3-2.1-.6-3.5-.6-3.2 0-4.4 2.1-4.4 5v4.8h7.7v5.9h-7.7v27.9h-7.8zm-18.8 11.1v-.5c0-7.4-3.4-11.1-9.1-11.1s-9.1 4-9.1 11.3v.5c0 7.4 3.7 10.9 8.7 10.9 5.5.1 9.5-3.5 9.5-11.1m-26.1.4v-.5c0-10.7 6.4-17.6 15.1-17.6 5.5 0 8.9 2.5 10.7 5.9v-20.7h7.8v49.2h-7.8v-5.7c-1.8 3.3-6.1 6.3-11.1 6.3-8.3 0-14.7-5.9-14.7-16.9m-37.6-17.3h7.8v5.3c1.6-3.3 5.3-6 10.9-6 6.8 0 11.5 3.9 11.5 13.2v21.1h-7.8v-20.5c0-5.1-2.1-7.4-6.7-7.4-4.4 0-7.9 2.7-7.9 8v19.9h-7.8zm-17.4 16.9v-.5c0-7.5-3.5-11.1-8.7-11.1-5.3 0-8.8 4-8.8 11.3v.5c0 7.4 3.7 10.9 8.4 10.9 5 .1 9.1-3.5 9.1-11.1m-25.5.4v-.5c0-10.7 6.8-17.6 14.9-17.6 5.1 0 8.4 2.4 10.4 5.8v-5.1h7.8v33.7h-7.8v-5.5c-1.9 3.3-6 6.2-10.7 6.2-7.9-.1-14.6-6-14.6-17m-15.7-32.9h7.8v49.2h-7.8zm-39.9 0h7.8v20.9c1.6-3.3 5.3-6 10.9-6 6.8 0 11.5 3.9 11.5 13.2v21.1h-7.8v-20.5c0-5.1-2.1-7.4-6.7-7.4-4.4 0-7.9 2.7-7.9 8v19.9h-7.8zm-39.9 32.8v-.5c0-10.7 7.6-17.4 17-17.4 7.5 0 14.5 3.3 15.4 12.6h-7.6c-.6-4.5-3.6-6.4-7.7-6.4-5.3 0-9.1 4.1-9.1 11.1v.5c0 7.3 3.6 11.2 9.3 11.2 4.1 0 7.7-2.4 8.1-7.2h7.1c-.6 7.7-6.4 13.2-15.6 13.2-9.6-.1-16.9-6.4-16.9-17.1m-32.8 5.9h7.3c.4 3.4 2.1 5.4 6.7 5.4 4.2 0 6-1.5 6-4.3s-2.3-3.8-7.2-4.6c-8.9-1.4-12.2-3.9-12.2-10.2 0-6.8 6.3-10.1 12.6-10.1 6.9 0 12.4 2.6 13.2 10.2h-7.2c-.6-3.1-2.4-4.5-6-4.5-3.3 0-5.3 1.6-5.3 4s1.6 3.4 6.9 4.3c7.9 1.2 12.6 3.2 12.6 10.3 0 6.8-4.8 10.7-13.4 10.7-8.6-.1-13.7-4-14-11.2m-19.8 1.1v-18.4h-4.5v-5.9h4.5v-7.3h7.8v7.4h7.4v5.9h-7.4v17.7c0 3 1.4 4.3 3.9 4.3 1.5 0 2.7-.2 3.8-.6v6.2c-1.2.5-2.9.8-5.3.8-6.7-.1-10.2-3.7-10.2-10.1m-40.8-2.7v-21.5h7.8v20.6c0 5.1 2.1 7.4 6.6 7.4 4.2 0 7.8-2.7 7.8-8v-20h7.8v33.6h-7.8v-5.3c-1.7 3.3-5.2 5.9-10.7 5.9-6.5 0-11.5-3.7-11.5-12.7m-15-8.2c-.4-5.8-3.3-8.4-8.2-8.4-4.7 0-7.8 3.2-8.6 8.4zm-24.9 3.8v-.5c0-10.4 7.1-17.4 16.7-17.4 8.4 0 15.9 5 15.9 17v2.3h-24.6c.3 6.4 3.5 10 9.3 10 4.7 0 7.1-1.9 7.7-5.1h7.5c-1.1 7.1-6.8 10.9-15.4 10.9-9.9-.1-17.1-6.5-17.1-17.2m-30.1 9.7c10.3 0 15.2-5.9 15.2-16.1v-.5c0-9.9-4.5-15.9-15.3-15.9h-5v32.5zm-13.6-39.2h14c16 0 23.8 9.1 23.8 22.5v.6c0 13.4-7.8 22.9-23.9 22.9h-13.9z" fill="#fff"/></svg>