<svg enable-background="new 0 0 1630.9 359.4" viewBox="0 0 1630.9 359.4" xmlns="http://www.w3.org/2000/svg"><path d="m351.5 121.8c-23.2-68.2-84.7-116.1-156.6-121.8l-7.2 89.8c49.5 4 86.4 47.5 82.4 97s-47.5 86.4-97 82.4-86.4-47.5-82.4-97c2.9-35.9 26.9-66.5 61-78 .1 0 .2-.1.3-.1l-28.6-85.4c-.2.1-.5.2-.7.2-94.4 31.8-145.1 134-113.2 228.1s134.3 144.7 228.7 112.9 145.2-133.9 113.3-228.1z"/><path d="m123.1 8.6 53.9 31.5-25.2 54-56.9-28.3z"/><path d="m607.6 221.7c0-12.8 0-31.7-5.6-51.7-10.4-38.1-38.5-75-95.9-75-67 0-106.3 48.9-106.3 109.9 0 55.7 32.5 109.5 105.5 109.5 51.3 0 74.6-25.7 81.8-33.7 12.4-14.4 15.2-24.1 18.1-32.1l-59.8-4.4c-3.6 6.8-12 22.5-38.5 22.5-12.4 0-25.3-3.2-35.3-17.6-7.2-10-8.4-19.3-9.6-27.3zm-145.2-44.5c2.8-10.4 9.6-36.1 42.9-36.1 4.8 0 21.3 0 32.5 15.2 5.6 8 6.8 14.8 7.6 20.9zm159.6 79.4c0 15.2 1.2 30.9 14 42.5 13.2 12 33.3 12.4 43.7 12.4 9.6 0 18.5-.4 28.1-1.2v-46.5c-20.9 0-26.5-1.6-26.5-19.7l2.4-219h-59.7zm223.8-231v89c-9.2-7.2-24.1-18.9-49.7-18.9-53.3 0-91.9 42.9-91.9 109.5 0 68.6 39.7 108.7 89.4 108.7 11.2 0 27.7-2 42.1-12.4 6.8-4.4 9.2-8 12.4-12.8v20.1h57.4v-283.2zm-81 178.9c0-14.4 2.4-29.3 8.8-40.1 9.6-16 23.7-20.1 33.3-20.1 32.9 0 40.9 31.3 40.9 60.6 0 15.6-1.2 59.8-40.9 59.8-9.6 0-23.7-2-33.3-19.3-8-13.3-8.8-32.5-8.8-40.9m157 104.2h58.6v-207.7h-58.6zm0-229.8h58.6v-53.3h-58.6zm213.2 229.8h57.8v-208.1h-56.6v26.9c-10.4-20.1-28.5-31.7-51.3-31.7-39.3 0-90.6 30.5-90.6 112.3 0 65 36.9 105.1 86.2 105.1 33.7 0 47.3-17.6 54.5-27.3zm-.4-106.2c0 18.9-2.8 36.9-15.2 50.5-10.4 10.8-22.1 11.6-25.7 11.6-11.6 0-24.9-6.4-32.9-24.5-4.8-10.4-6.4-22.9-6.4-35.7 0-16 2.4-32.5 12.4-45.7 7.2-9.2 18.5-15.2 29.3-15.2 9 .1 17.5 3.9 23.7 10.4 7.6 7.6 14.8 21.7 14.8 48.6m71.6-101.5v207.8h60.6v-67.8c0-53.3.8-63.8 9.6-75.4 7.6-10 19.7-15.2 37.3-15.2 4.7-.1 9.4.3 14 1.2v-53.8c-4-.4-8-.8-10-.8-32.9 0-45.3 17.6-53.7 38.1v-34.1zm136.1 207.7h58.6v-207.7h-58.6zm0-229.8h58.6v-53.3h-58.6zm184.3 16.1c-71.8 0-110.7 48.5-110.7 110.3 0 58.6 35.3 109.5 103.9 109.5 61.8 0 111.1-41.7 111.1-110.7 0-55.8-34.5-109.1-104.3-109.1m43.7 107.5c0 11.2-.8 30.1-10.8 44.9-8 12.1-21.6 19.4-36.1 19.2-13.6 0-37.3-5.6-44.5-38.9-1.6-7.7-2.4-15.5-2.4-23.3 0-14.4 2-44.1 25.3-57 7.6-4 16-5.2 22.9-5.2 10 0 24.5 2.4 35.3 18.5 9.5 14.1 10.3 29.7 10.3 41.8"/></svg>