<svg height="432" width="436" xmlns="http://www.w3.org/2000/svg" fill="#FFF"><path d="M218 2.999l-9.27 28.532 14.266 4.635z"/><path d="M218 2.999l9.27 28.532-14.266 4.635z"/><path d="M246.533 23.73h-30v15z"/><path d="M246.533 23.729l-24.27 17.634-8.818-12.136z"/><path d="M235.634 57.272l-9.27-28.532-14.266 4.635z"/><path d="M235.634 57.271l-24.27-17.633 8.817-12.135z"/><path d="M189.467 23.73h30v15z"/><path d="M189.467 23.729l24.27 17.634 8.818-12.136z"/><path d="M200.366 57.272l9.27-28.532 14.266 4.635z"/><path d="M200.366 57.271l24.27-17.633-8.817-12.135zM218 362.999l-9.27 28.532 14.266 4.635z"/><path d="M218 362.999l9.27 28.532-14.266 4.635z"/><path d="M246.533 383.73h-30v15z"/><path d="M246.533 383.729l-24.27 17.634-8.818-12.136z"/><path d="M235.634 417.272l-9.27-28.532-14.266 4.635z"/><path d="M235.634 417.271l-24.27-17.633 8.817-12.135z"/><path d="M189.467 383.73h30v15z"/><path d="M189.467 383.729l24.27 17.634 8.818-12.136z"/><path d="M200.366 417.272l9.27-28.532 14.266 4.635z"/><path d="M200.366 417.271l24.27-17.633-8.817-12.135zM38 182.999l-9.27 28.532 14.266 4.635z"/><path d="M38 182.999l9.27 28.532-14.266 4.635z"/><path d="M66.533 203.73h-30v15z"/><path d="M66.533 203.729l-24.27 17.634-8.818-12.136z"/><path d="M55.634 237.272l-9.27-28.532-14.266 4.635z"/><path d="M55.634 237.271l-24.27-17.633 8.817-12.135z"/><path d="M9.467 203.73h30v15z"/><path d="M9.467 203.729l24.27 17.634 8.818-12.136z"/><path d="M20.366 237.272l9.27-28.532 14.266 4.635z"/><path d="M20.366 237.271l24.27-17.633-8.817-12.135zm89.996-155.843l24.27-17.634-8.816-12.135z"/><path d="M110.363 81.428l9.27-28.532 14.266 4.635z"/><path d="M99.464 47.885l24.27 17.634 8.817-12.136z"/><path d="M99.464 47.885h30v15z"/><path d="M127.997 27.155l-9.27 28.532 14.265 4.635z"/><path d="M127.997 27.155l9.27 28.532-14.266 4.635z"/><path d="M145.631 81.428l-24.27-17.634 8.816-12.135z"/><path d="M145.63 81.428l-9.27-28.532-14.266 4.635z"/><path d="M156.53 47.885L132.258 65.52l-8.817-12.136z"/><path d="M156.53 47.885h-30v15zm-76.74 99.383l-9.27-28.531-14.266 4.635z"/><path d="M79.79 147.268l-24.27-17.633 8.817-12.136z"/><path d="M44.522 147.268l24.27-17.633-8.816-12.136z"/><path d="M44.522 147.268l9.27-28.531 14.266 4.635z"/><path d="M33.623 113.726l24.27 17.633 8.818-12.135z"/><path d="M33.623 113.726h30v15z"/><path d="M90.689 113.726l-24.27 17.633-8.817-12.135z"/><path d="M90.689 113.726h-30v15z"/><path d="M62.156 92.996l9.27 28.531-14.265 4.636z"/><path d="M62.156 92.996l-9.27 28.531 14.266 4.636zM90.64 293.738h-30v15z"/><path d="M90.64 293.738L66.368 311.37l-8.817-12.135z"/><path d="M79.74 327.28l-9.27-28.531-14.266 4.635z"/><path d="M79.741 327.28l-24.27-17.633 8.816-12.136z"/><path d="M44.472 327.28l24.27-17.633-8.816-12.136z"/><path d="M44.472 327.28l9.271-28.531 14.266 4.635z"/><path d="M62.106 273.008l9.27 28.531-14.265 4.636z"/><path d="M62.107 273.008l-9.27 28.531 14.265 4.636z"/><path d="M33.574 293.738h30v15z"/><path d="M33.574 293.738l24.27 17.633 8.817-12.135zm122.972 65.888h-30v15z"/><path d="M156.546 359.625l-24.27 17.634-8.818-12.135z"/><path d="M145.647 393.168l-9.27-28.532-14.266 4.636z"/><path d="M145.647 393.168l-24.27-17.634 8.817-12.135z"/><path d="M110.379 393.168l24.27-17.634-8.817-12.135z"/><path d="M110.379 393.168l9.27-28.532 14.266 4.636z"/><path d="M128.013 338.895l9.27 28.532-14.265 4.635z"/><path d="M128.013 338.895l-9.27 28.532 14.266 4.635z"/><path d="M99.48 359.626h30v15z"/><path d="M99.48 359.625l24.27 17.634 8.818-12.135zM398 182.999l9.27 28.532-14.266 4.635z"/><path d="M398 182.999l-9.27 28.532 14.266 4.635z"/><path d="M369.467 203.73h30v15z"/><path d="M369.467 203.729l24.27 17.634 8.818-12.136z"/><path d="M380.366 237.272l9.27-28.532 14.266 4.635z"/><path d="M380.366 237.271l24.27-17.633-8.817-12.135z"/><path d="M426.533 203.73h-30v15z"/><path d="M426.533 203.729l-24.27 17.634-8.818-12.136z"/><path d="M415.634 237.272l-9.27-28.532-14.266 4.635z"/><path d="M415.634 237.271l-24.27-17.633 8.817-12.135zM325.638 81.428l-24.27-17.634 8.816-12.135z"/><path d="M325.637 81.428l-9.27-28.532-14.266 4.635z"/><path d="M336.536 47.885l-24.27 17.634-8.817-12.136z"/><path d="M336.536 47.885h-30v15z"/><path d="M308.003 27.155l9.27 28.532-14.265 4.635z"/><path d="M308.003 27.155l-9.27 28.532 14.266 4.635z"/><path d="M290.369 81.428l24.27-17.634-8.816-12.135z"/><path d="M290.37 81.428l9.27-28.532 14.266 4.635z"/><path d="M279.47 47.885l24.271 17.634 8.817-12.136z"/><path d="M279.47 47.885h30v15zm76.74 99.383l9.27-28.531 14.266 4.635z"/><path d="M356.21 147.268l24.27-17.633-8.817-12.136z"/><path d="M391.478 147.268l-24.27-17.633 8.816-12.136z"/><path d="M391.478 147.268l-9.27-28.531-14.266 4.635z"/><path d="M402.377 113.726l-24.27 17.633-8.818-12.135z"/><path d="M402.377 113.726h-30v15z"/><path d="M345.311 113.726l24.27 17.633 8.817-12.135z"/><path d="M345.311 113.726h30v15z"/><path d="M373.844 92.996l-9.27 28.531 14.265 4.636z"/><path d="M373.844 92.996l9.27 28.531-14.266 4.636zM345.36 293.738h30v15z"/><path d="M345.36 293.738l24.271 17.633 8.817-12.135z"/><path d="M356.26 327.28l9.27-28.531 14.266 4.635z"/><path d="M356.259 327.28l24.27-17.633-8.816-12.136z"/><path d="M391.528 327.28l-24.27-17.633 8.816-12.136z"/><path d="M391.527 327.28l-9.27-28.531-14.266 4.635z"/><path d="M373.894 273.008l-9.27 28.531 14.265 4.636z"/><path d="M373.893 273.008l9.27 28.531-14.265 4.636z"/><path d="M402.426 293.738h-30v15z"/><path d="M402.426 293.738l-24.27 17.633-8.817-12.135zm-122.972 65.888h30v15z"/><path d="M279.454 359.625l24.27 17.634 8.818-12.135z"/><path d="M290.353 393.168l9.27-28.532 14.266 4.636z"/><path d="M290.353 393.168l24.27-17.634-8.817-12.135z"/><path d="M325.621 393.168l-24.27-17.634 8.817-12.135z"/><path d="M325.621 393.168l-9.27-28.532-14.266 4.636z"/><path d="M307.987 338.895l-9.27 28.532 14.265 4.635z"/><path d="M307.987 338.895l9.27 28.532-14.266 4.635z"/><path d="M336.52 359.626h-30v15z"/><path d="M336.52 359.625l-24.27 17.634-8.818-12.135z"/></svg>