<svg width="50" height="49" xmlns="http://www.w3.org/2000/svg"><g transform="translate(-64 -192)" fill="none" fill-rule="evenodd"><path fill="#000" d="M0 0H1024V304H0z"/><g transform="translate(64 192)" fill="#FFF" fill-rule="nonzero"><path d="M24.1707317 6L26 4.5974026 27.8292683 6 27.097561 3.74025974 29 2.25974026 26.6585366 2.25974026 26 0 25.2682927 2.33766234 23 2.25974026 24.8292683 3.74025974z"/><path d="M12.1707317 10L14 8.61538462 15.8292683 10 15.1707317 7.76923077 17 6.30769231 14.7317073 6.30769231 14 4 13.3414634 6.30769231 11 6.30769231 12.902439 7.76923077z"/><path d="M5 12L4.34146341 14.3376623 2 14.3376623 3.90243902 15.7402597 3.17073171 18 5 16.5974026 6.82926829 18 6.17073171 15.7402597 8 14.3376623 5.73170732 14.3376623z"/><path d="M3 26.6153846L4.82926829 28 4.17073171 25.6923077 6 24.3076923 3.73170732 24.3076923 3 22 2.34146341 24.3076923 0 24.3076923 1.90243902 25.6923077 1.17073171 28z"/><path d="M5.73170732 34.3076923L5 32 4.34146341 34.3076923 2 34.3076923 3.90243902 35.6923077 3.17073171 38 5 36.6153846 6.82926829 38 6.17073171 35.6923077 8 34.3076923z"/><path d="M14.7317073 42.3076923L14 40 13.3414634 42.3076923 11 42.3076923 12.902439 43.6923077 12.1707317 46 14 44.6153846 15.8292683 46 15.1707317 43.6923077 17 42.3076923z"/><path d="M26.7317073 45.3076923L26 43 25.2682927 45.3076923 23 45.3076923 24.8292683 46.6923077 24.1707317 49 26 47.5384615 27.8292683 49 27.097561 46.6923077 29 45.3076923z"/><path d="M36.7037037 42.3076923L36.037037 40 35.2962963 42.3076923 33 42.3076923 34.8518519 43.6923077 34.1111111 46 36.037037 44.6153846 37.8888889 46 37.1481481 43.6923077 39 42.3076923z"/><path d="M45.6585366 34.3076923L45 32 44.2682927 34.3076923 42 34.3076923 43.8292683 35.6923077 43.1707317 38 45 36.6153846 46.8292683 38 46.097561 35.6923077 48 34.3076923z"/><path d="M50 24.3076923L47.7317073 24.3076923 47 22 46.2682927 24.3076923 44 24.3076923 45.902439 25.6923077 45.1707317 28 47 26.5384615 48.8292683 28 48.1707317 25.6923077z"/><path d="M43.1707317 18L45 16.6153846 46.8292683 18 46.097561 15.6923077 48 14.3076923 45.6585366 14.3076923 45 12 44.2682927 14.3076923 42 14.3076923 43.8292683 15.6923077z"/><path d="M36 4L35.2682927 6.30769231 33 6.30769231 34.8292683 7.76923077 34.1707317 10 36 8.61538462 37.8292683 10 37.097561 7.76923077 39 6.30769231 36.6585366 6.30769231z"/></g></g></svg>