<svg width="587" height="310" fill="none" xmlns="http://www.w3.org/2000/svg"><path d="M262.844 109.291a150.726 150.726 0 0 0-5.104 20.786 134.994 134.994 0 0 0-1.29 9.453c-1.088 23.218 1.197 34.146 1.197 34.146 3.299 24.176 12.678 47.91 27.088 68.641 27.254 39.231 72.511 67.665 128.567 67.683 37.204 0 63.518-15.866 68.272-18.39l9.859 13.009h95.287l-42.309-58.893s28.672-37.426 28.783-86.184c.24-95.784-66.854-157.976-160.445-158.123-54.213-.092-100.207 26.369-128.161 65.066-9.416 13.046-16.806 27.493-21.744 42.806zm223.577 66.615l-8.127-10.983h-96.669l39.305 56.774c-40.908 8.016-79.568-26.24-78.997-66.043.571-40.669 33.39-71.129 72.659-70.87 43.064.294 86.054 46.749 71.829 91.122z" fill="#000"/><path d="M284.608 66.375a195.351 195.351 0 0 0-3.004-4.128C258.423 31.4 218.141.074 155.581 0 82.056-.092 25.319 49.072 6.597 109.236a97.04 97.04 0 0 0-.645 2.175c-.018.037-.018.073-.037.11C2.064 124.973 0 139.18 0 153.867c.147 14.041 1.972 27.493 5.289 40.208 11.811 43.912 42.53 80.14 82.996 99.58.331.148.645.314.976.461.203.092.406.184.627.295 20.417 9.287 43.34 14.465 67.701 14.649 51.633-.423 97.296-25.705 125.452-64.384.59-.811 1.143-1.64 1.714-2.451a154.106 154.106 0 0 0 13.931-24.397c8.882-19.478 13.857-41.075 13.857-63.85 0-8.164-.645-16.161-1.861-23.974H167.853v72.695h39.379c0 1.769-20.196 21.394-50.491 21.394-33.334 0-71.055-26.314-71.81-68.476-.793-43.672 37.002-72.29 71.81-71.055 28.268 1.014 39.066 9.085 54.84 24.619l45.994.037h5.307c20.749.018 40.448.018 42.861.018-.7-2.672-1.658-5.712-2.893-8.992-3.648-9.656-9.619-21.615-18.242-33.87z" fill="#000"/></svg>