<svg viewBox="0 0 1080 1080" xmlns="http://www.w3.org/2000/svg" fill-rule="evenodd" clip-rule="evenodd" stroke-linejoin="round" stroke-miterlimit="2"><g transform="scale(1.40625)"><clipPath id="a"><path d="M0 0h768v768H0z"/></clipPath><g fill-rule="nonzero" clip-path="url(#a)"><path d="M383.983 767.979C596.057 767.979 768 596.104 768 384.104 768 171.979 596.058-.021 383.983-.021 171.873-.021 0 171.979 0 384.104c0 212 171.874 383.875 383.983 383.875" fill="#ED1C24"/><path d="M259.929 212.515c-72.442-2.811-92.051 100.11-96.521 117.687-.237 1.253-.847 1.694-.847 1.694-22.352-3.048-34.713-7.62-34.713-7.62l-5.08 14.393c15.07 7.146 37.253 9.314 37.253 9.314-4.335 27.669-26.247 79.587-26.247 79.587s-19.439-5.927-44.027-5.927c-31.97 0-43.214 15.037-44.027 24.554-2.099 24.655 29.16 36.407 50.801 36.407 42.232 0 64.347-22.861 64.347-22.861s118.229 44.874 242.148 44.874c162.189 0 298.876-43.18 298.876-43.18l-4.234-15.24s-99.06 34.51-288.715 32.173c-130.828-1.592-231.142-39.793-231.142-39.793s3.793-6.774 5.927-11.007c13.106-26.721 28.787-80.434 28.787-80.434s89.747-25.129 89.747-96.521c0-22.589-21.573-37.186-42.333-38.1zm3.386 20.32c13.92 0 18.932 11.007 17.78 21.167-6.773 59.639-66.04 73.66-66.04 73.66s14.326-94.827 48.26-94.827zm143.935 49.107c-15.071 0-25.401 6.198-25.401 20.32 0 14.292 12.057 17.78 25.401 17.78 13.377 0 26.246-5.757 26.246-20.32 0-14.596-15.341-17.78-26.246-17.78zm200.661 51.647c-43.282 0-66.718 37.321-67.734 59.267-.203 4.775-.846 5.08-.846 5.08-1.016 1.152-15.918 18.627-34.714 18.627-15.037 0-17.78-12.26-17.78-20.32 0-8.738 7.451-43.18 27.94-43.18 11.142 0 17.78 9.313 17.78 9.313l5.927-19.474s-9.347-7.552-28.787-7.62c-41.859-.033-70.104 30.955-71.12 59.268-.204 4.233-.915 5.655-.847 5.926-1.389 1.694-11.176 13.547-24.554 13.547-9.144 0-9.313-7.01-9.313-10.16 0-4.301 17.78-66.041 17.78-66.041l-47.414.847-16.086 60.114s-26.417 18.593-62.654 21.167c-18.695 1.287-25.4-10.262-25.4-16.934v-2.54c.033 0 7.857.847 13.546.847 4.471 0 60.114-4.301 60.114-38.1 0-19.338-19.609-26.247-44.027-26.247-45.144 0-77.047 27.737-77.047 60.96 0 30.311 25.874 43.181 59.267 43.181 37.897 0 75.354-22.861 75.354-22.861s2.269 22.861 32.173 22.861c30.853 0 55.034-22.861 55.034-22.861s13.344 22.014 44.027 22.014c31.361 0 55.034-25.4 55.034-25.4s8.738 23.707 39.794 23.707c24.282 0 37.253-15.241 37.253-15.241s6.774 15.241 27.94 15.241c25.841 0 44.874-17.781 44.874-17.781l-4.233-15.24s-9.822 7.62-16.934 7.62c-5.385 0-8.467-4.369-8.467-9.313.001-11.108 17.781-66.041 17.781-66.041l-43.181.847-1.693 6.774s-6.435-11.854-28.787-11.854zm-306.495 16.934c6.367.372 11.209 4.673 11.006 9.313-1.05 30.074-38.1 25.4-38.1 25.4s5.453-36.034 27.094-34.713zm314.962.846c8.907 0 13.547 7.078 13.547 12.7 0 1.152-5.047 52.494-30.481 52.494-11.65 0-11.853-13.242-11.853-16.933 0-9.788 7.688-48.261 28.787-48.261zM81.281 440.27c2.211-.223 4.004-.136 5.926 0 18.525 1.016 34.714 7.62 34.714 7.62s-19.067 14.766-34.714 15.24c-11.955.373-19.473-7.417-19.473-11.853 0-7.366 6.912-10.337 13.547-11.007z" fill="#fff"/></g></g><path fill="none" d="M0 0h1080v1080H0z"/></svg>