<svg enable-background="new 0 0 600 274" viewBox="0 0 600 274" xmlns="http://www.w3.org/2000/svg"><path d="m600 224c0 13.1-4.3 25.6-12.1 34.8-7.7 9.2-18.2 14.4-29.1 14.4l-558.8.8v-274h600z" fill="#100f14"/><g fill="#fff"><path d="m119.7 157h-55.6v-138.5h-47.4v176.6h94.2z"/><path d="m123.2 18.5h47.3v176.5h-47.3z"/><path d="m312.1 195.1v-176.6h-45.9v79.8l-48.7-79.8h-38.8v176.6h46.1v-81.2l49 81.2z"/><path d="m402 18.5v121.4c0 10.4-4.7 20.1-17 20.1s-18-9.7-18-20.1v-121.4h-46.8v114.8c0 18.5 4 32.7 13.5 43.8 14 16.3 31 21.5 51.4 21.5 19.6 0 37.9-5.7 50.9-21.3 9.7-12.1 13.5-25.1 13.5-44v-72.5l-24.4-42.3zm131.1 85.9 49.7-85.9h-49.2l-25.1 50.9-24.6-50.9h-49.9l15.4 26.6v-.2l34.5 59.4-49.9 90.6h49.9l24.6-52.8 25.1 52.8h49.2z"/><path d="m554.9 255.1h13.4v-38.5h14.3v-11.1h-42v11.1h14.3zm-32.4-18.8 4.8-13.7h.1l4.6 13.7zm-18.6 18.8h12.2l3.2-9.3h15.6l3 9.3h13.5l-17.6-49.8h-12.5zm-53.9 0h11.9v-31.4h.1c1.1 6.5 1.7 8.7 2.8 12.8l5.1 18.6h11.8l5.2-18.6c1.1-3.8 1.9-7 2.7-12.1h.1v30.7h13v-49.6h-18.2l-7.9 33.7h-.1l-8.7-33.7h-17.8zm-29.6-27.5v-11.3h5.8c5.5 0 7.9 1.5 7.9 5.6 0 4.2-2.4 5.7-7.9 5.7zm-13.1 27.5h13.1v-17.2h3.7l9.6 17.2h14.2l-10.5-19c6.5-2.2 9.8-6.7 9.8-14.5 0-11.9-7.8-16.2-20.5-16.2h-19.4zm-26.3-9.8c-7 0-11-5.9-11-15s4-14.7 11-14.7 10.9 5.6 10.9 14.7c.1 9.1-3.9 15-10.9 15zm0 10.7c11.9 0 24.4-7.6 24.4-25.8s-12.4-25.8-24.4-25.8-24.4 7.6-24.4 25.8c0 18.3 12.4 25.8 24.4 25.8zm-57.2-.9h13.4v-18.1h14.6v-10.5h-14.6v-9.9h20.9v-11.1h-34.3z"/></g></svg>