<svg width="651" height="47" xmlns="http://www.w3.org/2000/svg" xmlns:xlink="http://www.w3.org/1999/xlink"><defs><path id="a" d="M502 0L651 0 651 47 502 47z"/></defs><g fill="none" fill-rule="evenodd"><path d="M457.994 32.812h-1.034V15.069h1.034c6.076 0 9.782 2.735 9.782 9.175 0 6.016-4.253 8.568-9.782 8.568zM415.28 21.024h-1.153v-7.778h1.275c2.857 0 5.347.426 5.347 3.95 0 3.403-2.734 3.828-5.469 3.828zm-44.173 8.932l3.039-13.976h.607c.305 1.945.608 3.95 1.096 5.894l1.943 8.082h-6.685zm-40.525 2.856c-5.042 0-8.566-3.585-8.566-8.81 0-4.862 3.282-8.933 8.566-8.933 5.288 0 8.568 4.071 8.568 8.933 0 5.225-3.523 8.81-8.568 8.81zm-46.015 2.795h-1.884v-7.595h1.64c2.673 0 6.927-.061 6.927 3.767 0 3.767-3.949 3.828-6.683 3.828zm-1.884-23.819h1.155c2.43 0 5.528-.243 5.528 3.16 0 3.159-2.734 3.402-5.165 3.402h-1.518v-6.562zM457.266.729h-16.955v44.904l-9.353-13.975c-.913-1.337-1.945-2.066-2.797-2.734v-.365c6.198-2.066 8.872-4.983 8.872-11.91 0-11.545-8.749-15.92-19.079-15.92h-20.113v40.186L383.503.729h-18.411l-9.544 27.467a26.22 26.22 0 0 0 .375-4.437C355.923 9.358 344.498 0 330.582 0c-13.913 0-25.337 9.358-25.337 23.759 0 2.056.229 3.993.65 5.811-1.228-3.104-3.832-5.296-7.353-6.541v-.364c4.01-1.277 6.016-5.226 6.016-9.237 0-10.572-9.054-12.699-17.926-12.699H267.25v44.544l.034 1.271h22.628c8.022 0 16.772-3.219 16.772-12.638 0-.781-.072-1.519-.197-2.224 3.306 9.885 12.852 15.592 24.095 15.592 9.762 0 18.242-4.302 22.473-11.902l-3.882 11.172h17.622l1.336-5.712h12.578l1.519 5.712h31.899V31.839h.303l7.291 14.705h39.675c13.429 0 23.03-8.628 23.03-22.238 0-16.833-11.787-23.577-27.16-23.577zM83.913 32.812c-5.043 0-8.568-3.585-8.568-8.81 0-4.862 3.281-8.933 8.568-8.933 5.286 0 8.567 4.071 8.567 8.933 0 5.225-3.525 8.81-8.567 8.81zm84.941-16.65h-10.209V.729h-51.159v13.817C103.768 5.498 94.575 0 83.913 0 69.998 0 58.574 9.358 58.574 23.759c0 .576.023 1.14.058 1.698L54.565.729H37.613l-5.165 17.986c-.547 1.944-.851 4.07-1.155 6.075h-.425L24.548.729H7.414L0 46.544h16.102l1.944-19.565c.183-1.823.305-3.707.426-5.53h.547c.122 1.945.547 3.768 1.033 5.713l5.955 19.382h9.722l6.623-20.538c.486-1.457.79-3.038 1.094-4.557h.303l2.248 25.095H62.1l-2.633-16.012c2.929 10.592 12.773 16.742 24.446 16.742 13.975 0 25.338-8.811 25.338-23.515 0-2.946-.484-5.675-1.363-8.161l8.773-.407v31.353h16.649V15.191l9.294.404v30.949h16.041v-15.92h10.209v15.92h16.041V.729h-16.041v15.433z" fill="#0A0B09"/><path fill="#0A0B09" d="M205.855 29.531L218.675 29.531 218.675 17.621 205.855 17.621 205.855 13.246 219.893 13.246 219.893 0.729 189.085 0.729 189.085 46.544 220.377 46.544 220.377 34.028 205.855 34.028 205.855 29.531"/><path d="M241.642 21.024h-1.154v-7.778h1.276c2.856 0 5.346.426 5.346 3.95 0 3.403-2.733 3.828-5.468 3.828zm24.791 24.249l-9.114-13.615c-.912-1.337-1.945-2.066-2.794-2.734v-.365c6.198-2.066 8.87-4.983 8.87-11.91 0-11.545-8.75-15.92-19.08-15.92h-20.111v45.815h16.284V31.839h.305l7.29 14.705h18.383l-.033-1.271z" fill="#0A0B09"/><mask id="b" fill="#fff"><use xlink:href="#a"/></mask><path d="M584.284 17c-.666 3.1-2.062 6.65-2.844 10.089 4.305.063 8.844-.833 13.27-1.103.6-.82.894-1.946 1.221-3.042.886 1.282 1.51 3.683.677 5.528-6.722-.096-11.553 5.521-18.146 5.528-2.953.005-5.463-1.73-4.064-5.114 1.975-4.774 6.871-8.109 9.886-11.886" fill="#0A0B09" mask="url(#b)"/><path d="M604.861 6.42c-1.683.203-2.877 2.042-3.977 2.65.08-.009.156-.02.13-.135.203-.903.587-1.624.664-2.648-8.82-3.103-17.403 1.436-23.72 4.9-5.052 2.772-9.56 6.026-12.722 9.272 1.143-1.947 2.356-3.874 3.711-5.694 1.37-1.848 2.9-3.52 4.108-5.165-2.64-.691-5.29-1.422-7.954-1.987-3.786-.808-9.055-2.142-12.191-.398-.907.503-1.65 1.743-2.518 1.854-.716.094-1.9-.43-2.784-.529-3.239-.36-6.218-.06-9.144.53-2.74.548-8.536 1.522-9.277 4.104-.477 1.658.584 3.264.397 4.904-.18 1.614-1.731 3.747-2.516 5.034-.964 1.576-1.944 2.973-3.58 3.706-.992-4.934.086-9.323.929-13.51.518-2.579 1.566-5.217.664-7.815-2.526-.351-4.656 1.648-7.157 2.647-4.702 1.88-9.938 3.594-10.602 9.009-.375 3.048.77 4.988 1.59 7.154 1.753 4.651 3.922 8.589 6.494 12.185-.7 1.29-2.353 1.626-2.52 3.441.748 1.06 2.307 1.198 3.844 1.195 4.448-.01 8.095-2.247 11.397-4.108 7.191-4.042 12.024-10.27 17.096-16.157.892-1.038 1.625-2.285 2.785-2.915 1.14 5.233-1.077 8.03-2.654 12.318-.606 1.652-2.523 6.821-1.59 9.27 1.025 2.694 9.75 2.81 12.062 1.064 1.166-.88 1.628-2.87 2.254-4.108.799-1.589 1.49-2.964 2.12-4.37.034 5.802 4.347 7.506 9.011 8.742 9.912 2.618 19.903-2.06 25.311-5.297-.677 4.3.995 4.73 4.374 5.431 8.739 1.803 17.54-.278 24.65-1.989 6.516-1.57 11.757-2.677 12.723-9.141-1.044-.901-3.65-.79-5.433-.53-5.255.77-10.345 3.427-17.36 2.916-1.282-.094-4.046-.541-4.244-1.324-.308-1.223 1.88-2.078 3.714-2.384 5.26-.89 12.86.008 17.092-1.591 2.034-.767 4.487-2.98 4.24-5.432-.162-1.655-2.322-2.52-4.373-2.646-5.798-.362-9.942 3.02-16.03 1.854.762-.963.898-2.544 1.853-3.313 4.451-.091 8.776.792 12.989.53 5.855-.366 9.157-2.83 11.927-6.092.297-.353 1.04-.731.794-1.324C631.266 8.98 617.4 4.885 604.86 6.42m46.116.53c.16.64-.553 1.253-.925 1.723-3.118 3.918-6.578 8.55-10.734 11.522.302 1.56.141 3.628-.4 4.768 1.089 1.39 2.243 2.707 2.915 4.506-.884 4.7-2.941 8.345-6.225 10.729-3.21 2.323-7.544 3.24-12.462 4.37-9.506 2.19-25.15 4.352-32.202-1.326-7.638 4.478-23.074 5.072-30.215-.263-5.08 6.423-25.109 5.859-22.13-6.887-3.713 2.808-9.205 6.687-14.448 8.874-6.076 2.533-17.584 2.251-16.434-6.357.138-1.026.573-1.606 1.06-2.517-1.778-3.102-2.9-5.252-3.974-7.95-1.03-2.584-2.602-5.525-2.786-9.138-.383-7.68 5.605-12.55 11.535-14.835 3.026-1.17 5.483-2.858 8.48-3.71 4.478-1.275 8.32 1.188 8.613 5.3 5.206-1.546 11.547-3.25 18.422-2.252 5.474-4.256 16.166-1.626 23.193.395 1.589.457 3.728 1.641 4.902 1.59.998-.04 2.797-1.392 3.842-1.854 4.931-2.184 11.376-4.51 18.421-3.312 1.335.226 2.556.934 3.976 1.062.965.087 2.142-.216 3.183-.264C623.05.32 636.76 4.737 650.977 6.95" fill="#0A0B09" mask="url(#b)"/><path d="M600.349 12c1.259 1.52 4.013 1.455 5.651 2.573-2.211.601-4.997.601-7 1.427.471-1.31.896-2.67 1.349-4" fill="#0A0B09" mask="url(#b)"/></g></svg>