<?xml version="1.0" encoding="UTF-8" standalone="no"?><!DOCTYPE svg PUBLIC "-//W3C//DTD SVG 1.1//EN" "http://www.w3.org/Graphics/SVG/1.1/DTD/svg11.dtd"><svg width="100%" height="100%" viewBox="0 0 1336 500" version="1.1" xmlns="http://www.w3.org/2000/svg" xmlns:xlink="http://www.w3.org/1999/xlink" xml:space="preserve" xmlns:serif="http://www.serif.com/" style="fill-rule:evenodd;clip-rule:evenodd;stroke-linejoin:round;stroke-miterlimit:1.41421;"><g><path d="M225.703,129.366c-24.871,-20.318 -59.64,-29.541 -100.552,-26.684c-18.691,1.306 -62.378,11.051 -83.726,15.894c-22.786,5.169 -28.957,17.604 -31.873,32.666l-9.552,49.357c0,0 43.633,-14.929 70.521,-21.474l-20.734,27.701c-4.672,6.24 -8.194,16.833 -8.194,24.64l0,268.534l36.787,-14.432c20.988,-7.613 30.492,-26.349 30.492,-44.721l0,-63.042c14.268,5.598 32.149,8.006 50.918,6.697c34.394,-2.404 64.427,-18.819 84.566,-46.22c20.55,-27.955 29.848,-65.074 26.892,-107.344c-3.167,-45.296 -18.491,-79.47 -45.545,-101.572Zm774.01,247.688l-27.989,0c-13.199,0 -25.499,-8.748 -30.561,-20.684c-16.022,16.967 -38.616,25.544 -67.408,25.544c-32.403,0 -59.302,-12.698 -77.794,-36.724c-18.126,-23.549 -27.707,-57.713 -27.707,-98.799c0,-42.886 9.444,-78.733 27.312,-103.667c18.666,-26.047 46.038,-39.815 79.158,-39.815c23.383,0 45.718,8.403 61.524,22.386l0,-125.295l22.393,0c22.646,0 41.072,18.422 41.072,41.067l0,335.987Zm-250.012,0l-27.989,0c-13.199,0 -25.499,-8.748 -30.562,-20.684c-16.021,16.967 -38.616,25.544 -67.407,25.544c-32.402,0 -59.303,-12.698 -77.794,-36.724c-18.125,-23.549 -27.707,-57.713 -27.707,-98.799c0,-42.886 9.445,-78.733 27.313,-103.666c18.665,-26.048 46.037,-39.816 79.156,-39.816c23.384,0 45.719,8.403 61.525,22.386l0,-125.295l22.392,0c22.647,0 41.073,18.422 41.073,41.067l0,335.987Zm-452.758,-190.682c0,0 68.896,-28.725 102.322,-28.725c8.928,0 35.181,0.002 37.802,41c-15.582,1.492 -38.995,5.076 -62.873,11.289c-57.073,14.575 -89.806,48.352 -89.806,92.669c0,43.927 35.583,78.337 81.009,78.337c34.345,0 58.472,-7.306 76.286,-23.423c6.799,11.379 20.128,19.54 33.201,19.54l25.975,0l0,-190.399c0,-48.529 -41.35,-83.72 -99.656,-83.72c0,0 -6.038,0 -6.091,0.048c0,0 -20.296,-0.075 -48.945,7.585c0,0 -39.527,10.112 -43.357,35.85c-3.83,25.738 -5.87,39.948 -5.87,39.948l0.003,0.001Zm932.647,139.141c-21.63,0 -46.29,-10.846 -53.77,-34.459c19.93,-1.936 56.73,-6.061 89.29,-19.97c44.31,-18.921 66.77,-49.378 66.77,-90.527c0,-50.403 -35.52,-79.31 -97.45,-79.31c-37.12,0 -70.39,14.562 -93.66,41.003c-22.42,25.464 -34.77,60.79 -34.77,99.47c0,85.45 46.99,138.531 122.62,138.531c26.78,0 61.62,-9.026 63,-9.389c17.75,-4.404 28.31,-15.022 32.29,-32.462l11.83,-51.883c0,0 -42.19,38.996 -106.15,38.996Zm-141.62,-127.153c-0.02,-77.397 -0.04,-156.758 -0.04,-156.881c0,-21.755 -15.82,-41.456 -41.15,-41.456l-22.331,-0.014c0,0 0.031,90.379 0.051,178.765c0.02,77.397 0.05,156.759 0.05,156.882c0,21.755 15.82,41.455 41.15,41.455l22.32,0.014c0,0 -0.03,-90.378 -0.05,-178.765Zm-148.45,40.168c0,59.651 -17.182,88.647 -52.527,88.647c-47.95,0 -53.496,-47.822 -53.496,-83.793c0,-25.194 4.93,-83.793 50.592,-83.793c48.229,0 55.431,49.458 55.431,78.939Zm-252.604,0c0,59.651 -17.182,88.647 -52.528,88.647c-47.952,0 -53.497,-47.822 -53.497,-83.793c0,-25.194 4.93,-83.793 50.594,-83.793c48.229,0 55.431,49.458 55.431,78.939Zm-249.638,50.484c0,18.77 -27.456,37.193 -55.431,37.193c-16.489,0 -34.143,-10.264 -34.143,-25.543c0,-15.288 5.328,-25.857 32.64,-34.664c20.98,-7.017 40.24,-10.66 56.934,-13.082l0,36.096Zm-284.128,32.062c-18.403,1.291 -33.64,-3.002 -44.278,-12.419l0,-138.277c12.755,-2.679 22.118,-4.339 26.11,-4.619c40.797,-2.853 65.961,21.287 69.105,66.22c2.059,29.44 -5.938,85.947 -50.937,89.095Zm1115.27,-139.809c0,36.725 -51.85,50.397 -98.72,55.248c2.55,-49.022 28.08,-81.381 65.12,-81.381c12.99,0 33.6,7.095 33.6,26.133Z" style="fill:#000;"/></g></svg>