<?xml version="1.0" encoding="utf-8"?>
<!-- Generator: Adobe Illustrator 21.0.0, SVG Export Plug-In . SVG Version: 6.00 Build 0)  -->
<svg version="1.1" id="Layer_1" xmlns="http://www.w3.org/2000/svg" xmlns:xlink="http://www.w3.org/1999/xlink" x="0px" y="0px"
	 viewBox="0 0 141.6 50.5" style="enable-background:new 0 0 141.6 50.5;" xml:space="preserve">
<style type="text/css">
	.st0{fill:#FFFFFF;}
</style>
<g>
	<path d="M0.2,10.4c0.4,0.1,0.8-0.1,1.1-0.3c1.8-1,3.7-1.7,5.5-2.6c2.2-1.1,4.4-2.1,6.6-3.1c2.2-1,4.5-2.1,6.7-3.1
		c0.7-0.3,1.5-0.7,2.2-1C23.8,0.9,25,1.4,26.3,2c1.4,0.7,2.8,1.4,4.2,2c1.1,0.4,2.1,1.1,3.2,1.5c1.2,0.5,2.3,1.2,3.5,1.6
		c1.2,0.5,2.3,1.1,3.5,1.6c1.2,0.5,2.3,1,3.4,1.6c0.1,0.1,0.2,0.2,0.4,0.3c-0.1,0.6,0.2,1.2-0.2,1.8c-0.1,0.1,0,0.3,0,0.5
		c-0.1,1-0.1,2-0.3,2.9c-0.3,1.4-0.4,2.8-0.7,4.1c-0.4,1.6-0.7,3.3-1.3,4.9c-0.2,0.5-0.3,1.1-0.5,1.6c0-0.3,0-0.5-0.1-0.8
		c-0.1-1.2,0-2.4-0.3-3.5c-0.6-2.3-1.1-4.6-2.5-6.6c-0.6-0.9-1.2-1.8-2-2.7c-0.4-0.4-0.7-0.9-1.1-1.3c-1.7-1.5-3.5-2.9-5.7-3.7
		c-1.2-0.5-2.4-1.1-3.7-1.1c-0.6-0.5-1.4-0.1-2.1-0.4c-0.6-0.3-1.4-0.1-2.1-0.1c-1.7,0.1-3.4,0.4-5,0.9c-1.2,0.4-2.3,0.9-3.4,1.3
		c-1,0.4-1.9,1.2-2.8,1.9c-0.7,0.5-1.3,1-1.8,1.6c-1.6,1.7-3,3.6-3.9,5.8C4.5,19,4,20.2,3.8,21.6c-0.3,1.6-0.5,3.1-0.5,4.7
		c0,0.1-0.1,0.1-0.1,0.2c-0.7-1.7-1-3.5-1.6-5.2c0-1.1-0.3-2.2-0.5-3.3c-0.2-1.2-0.2-2.5-0.6-3.7c-0.1-0.4,0-1,0-1.4
		c0-0.1-0.1-0.2-0.2-0.3C0.2,11.8,0.2,11.1,0.2,10.4z"/>
	<path d="M141.6,26c-1.2,0-2.5,0-3.7,0c0,0-0.1-0.1-0.1-0.1c0,0,0-0.1,0-0.1c0-2.3,0-4.6,0-7c-0.8,0.5-1.1,1.3-1.7,1.9
		c-0.6,0.6-1,1.3-1.5,1.9c-0.6,0-1.2,0-1.8,0c-0.5-0.6-1.1-1.3-1.6-1.9c-0.5-0.6-1-1.2-1.5-1.9c0,2.3,0,4.6,0,6.8
		c-0.2,0.1-0.3,0.2-0.4,0.4c-1.2,0-2.4,0-3.7,0c0-4.6,0-9.2,0-13.8c1.1,0,2.3,0,3.6,0c1.4,1.9,2.9,3.9,4.5,5.9c1.5-1.9,3-3.9,4.5-6
		c1.1,0,2.3,0,3.5,0C141.6,16.7,141.6,21.4,141.6,26z"/>
	<path d="M22.3,50.5c-1.1-0.8-2.4-1.6-3.5-2.4c-0.4-0.3-0.7-0.8-1.3-0.9c-1.4-1.3-3-2.4-4.3-3.8c-0.7-0.8-1.4-1.6-2.3-2.7
		c1.6,0.8,2.9,1.8,4.4,2.3c1.5,0.5,3,1.1,4.5,1.2c1.7,0.2,3.3,0.3,5,0c1.6-0.3,3.1-0.7,4.6-1.2c1.5-0.5,2.8-1.4,4.4-2.3
		c-0.2,0.4-0.3,0.6-0.4,0.7c-0.6,0.7-1.3,1.4-1.9,2.1c-0.9,1-2,1.8-3,2.6c-0.5,0.4-1,0.8-1.5,1.2c-1.4,1.1-2.8,2.2-4.4,3
		c0,0,0,0.1,0,0.1C22.5,50.5,22.4,50.5,22.3,50.5z"/>
	<path d="M54.3,26c-1.4,0-2.6,0-3.8,0c0-4.7,0-9.4,0-14.1c0.5,0,1.1,0,1.6,0c0.8,0,1.6,0,2.4,0c1,0,2.1,0,3.1,0.3
		c1.7,0.4,3.1,1.4,3.8,3.1c0.2,0.5,0.2,1.1,0.2,1.6c0,0.4-0.1,0.8-0.2,1.3c-0.3,1.1-1.1,1.7-1.9,2.5c0.1,0.3,0.1,0.7,0.3,0.9
		c1,1.4,1.7,2.9,2.6,4.3c0,0,0,0.1-0.1,0.1c0,0-0.1,0-0.1,0.1c-1.4,0-2.7,0-4.1,0c-0.9-1.5-1.8-3-2.7-4.5c-0.4,0-0.8,0-1.2,0
		C54.3,22.9,54.3,24.4,54.3,26z M54.2,15.4c0,0.9,0,1.8,0,2.6c1,0,1.9,0,2.6,0c0.7-0.3,1.1-0.7,1.2-1.5c-0.2-0.3-0.5-0.8-0.8-1.2
		C56.3,15.4,55.3,15.4,54.2,15.4z"/>
	<path d="M74.4,12.1c0,1,0,2,0,3c-0.1,0.1-0.2,0.2-0.3,0.3c-1.9,0-3.8,0-5.8,0c0,0.6,0,1.2,0,1.9c1.8,0,3.6,0,5.5,0
		c0,1.1,0,2.2,0,3.4c-1.8,0-3.6,0-5.5,0c0,0.7,0,1.3,0,1.9c2.1,0,4.2,0,6.4,0c0,1.2,0,2.3,0,3.4c-3.4,0-6.8,0-10.2,0
		c-0.1-0.1-0.2-0.2-0.3-0.3c0-4.5,0-9,0-13.5"/>
	<path d="M34.8,21c-0.6,0.7-1.1,1.4-1.7,2c-0.6,0.6-1.3,1.1-2,1.7c-0.2-0.6-0.4-1.2-0.6-1.8c-0.8-0.3-1.6,0-2.3,0.2
		c-1.9,0.5-3.7,1.2-5.4,2.1c-1.1,0.6-2,1.3-3,2c-1,0.7-1.9,1.6-2.7,2.5c-1.2,1.4-2.4,2.9-2.9,4.8c-0.5,0.3-0.2,0.8-0.4,1.3
		c-0.2,0.4,0,1-0.1,1.5c0,0.5,0.1,0.9,0.2,1.3c0.2,0.4,0.3,0.8,0.5,1.2c0.1,0.2,0.1,0.3,0.1,0.6c-0.7-0.4-1.3-0.8-1.9-1.2
		c-0.5-0.4-1-0.8-1.4-1.1c-0.6-1.3-0.5-2.5-0.4-3.7c0.1-1,0.4-2,0.9-3c0.7-1.4,1.4-2.7,2.4-3.9c0.6-0.7,1.1-1.3,1.7-1.9
		c1.3-1.1,2.5-2.2,4-3c0.8-0.4,1.6-0.9,2.4-1.3c1.5-0.7,3-1.3,4.6-1.7c0.5-0.1,1.1-0.2,1.5-0.2c0.3-0.1,0.5-0.2,0.7-0.3
		c-0.2-0.4-0.4-0.8-0.6-1.3c0.5-0.3,1,0,1.4,0.2C31.6,18.8,33.3,19.7,34.8,21z"/>
	<path d="M116.8,26c-1.5,0-2.8,0-4,0c-0.1,0-0.2,0-0.3,0c-0.3-0.8-0.6-1.6-0.9-2.3c-1.4,0-2.8,0-4.2,0c-0.3,0.8-0.6,1.5-0.9,2.3
		c-1.4,0-2.7,0-4,0c-0.2-0.4,0-0.7,0.1-1.2c0.5-1,0.9-2,1.2-3.1c0.4-1.2,0.9-2.4,1.3-3.6c0.4-1.1,0.9-2.3,1.3-3.4
		c0.3-0.8,0.6-1.7,0.9-2.5c1.4,0,2.8,0,4.3,0C113.2,16.7,115,21.3,116.8,26z M108.5,20.2c0.7,0,1.3,0,1.9,0
		c-0.5-0.8-0.4-1.9-1.1-2.6C109,18.5,108.7,19.3,108.5,20.2z"/>
	<path d="M83.3,22.6c1.2,0,2.7,0.2,3.9-0.9c0.9,1,1.7,2.1,1.8,2.9c-0.9,0.8-2,1.2-3.1,1.5c-0.1,0-0.1,0.1-0.2,0.1
		c-2.1,0.2-4.1-0.1-5.8-1.2c-1.3-0.9-2.4-2.1-3-3.6c-0.2-0.4-0.3-0.9-0.3-1.3c-0.1-1.4,0-2.7,0.5-4c0.2-0.4,0.4-0.9,0.7-1.3
		c1.4-1.6,3-2.7,5.1-3c0.5-0.1,1-0.2,1.6-0.2c1.5,0,2.8,0.6,4,1.3c0.3,0.2,0.7,0.4,0.5,0.9c-0.6,0.8-1.1,1.6-1.7,2.4
		c-1-0.5-1.8-1-2.9-0.9c-1.9,0.1-2.8,0.7-3.7,2.4c-0.1,0.1-0.1,0.3-0.2,0.5c0,0.9-0.1,1.9,0.5,2.9C81.4,21.8,82.3,22.2,83.3,22.6z"
		/>
	<path d="M17.8,15.6c-0.4-0.2-0.7-0.5-1-0.7c0.4-0.3,0.9-0.4,1.4-0.4c0.8,0,1.5-0.1,2.3,0c1,0.1,1.9,0.3,2.9,0.5
		c0.1,0,0.2,0.2,0.4,0.3c-0.6,1.4-1.2,2.8-1.7,4.3c-0.7-0.2-0.8-0.9-1.3-1.3c-1.7,0.8-3.3,1.8-4.8,2.9c-1.4,1.1-2.7,2.3-3.8,3.7
		c-1.2,1.4-2.1,3-2.8,4.7c-0.4,1-0.6,2.1-0.9,3.1c-0.2,0.6,0,1.3,0,2.1C7.7,34,7.3,33.3,7,32.5c-0.1-0.3-0.2-0.6-0.3-0.9
		c-0.2-0.6-0.7-1.2-0.2-1.9c0.1-1.8,1-3.4,1.7-5c0.4-0.7,0.9-1.4,1.3-2.1c1.1-1.5,2.4-2.8,3.7-3.9c1.2-1.1,2.5-2.1,4-2.7
		C17.5,15.9,17.6,15.7,17.8,15.6z"/>
	<path d="M95.2,22.6c2,0,3.9,0,5.8,0c0,1.1,0,2.2,0,3.2c-0.9,0.2-6.4,0.2-9.8,0.1c0-4.6,0-9.2,0-13.9c1.3,0,2.6,0,4,0
		C95.2,15.6,95.2,19,95.2,22.6z"/>
	<path d="M29.5,27.9c-0.6,2-1.4,3.7-2.8,5.4c0-0.7,0-1.3,0-1.9c-1.2,0.2-2,1-2.9,1.7c-0.8,0.6-1.9,1.1-2.3,2.2
		c-0.9,0.7-1.2,1.8-1.8,2.9c0,0.4,0,0.9,0,1.4c0,1,0.4,1.6,1.3,2c0.3,0.1,0.6,0.3,0.9,0.4c0.3,0.1,0.6,0.1,0.9,0.2
		c-1.3,0.3-2.5,0-3.8-0.2c-1.3-0.8-1.4-0.8-2-1.8c-0.2-0.3-0.3-0.6-0.4-1c-0.5-2.2,0.4-4,1.5-5.6c0.9-1.4,2.1-2.5,3.4-3.5
		c1.2-0.9,2.4-1.8,3.8-2.4c0.1-0.1,0.2-0.2,0.4-0.4c-0.2-0.5-0.3-0.9-0.6-1.6C26.8,26.3,28.2,27,29.5,27.9z"/>
	<path d="M30.2,10.3c-0.6,0-1.3,0.3-1.8-0.2c-1.2,0.1-2.4-0.3-3.5,0.2c-0.1,0.1-0.3,0-0.5,0c-1.4,0.1-3.3,0.5-4.9,1.1
		c-2,0.7-3.8,1.6-5.6,2.8c-1.7,1.1-3.2,2.5-4.6,4c-1,1.2-1.9,2.4-2.6,3.8c-0.4,0.7-0.7,1.5-1.1,2.3c-0.1-0.7-0.1-1.2,0.1-1.9
		c0.2-0.8,0.3-1.6,0.6-2.4c0.7-1.9,1.6-3.7,2.8-5.3c0.5-0.7,1.1-1.3,1.7-1.9c0.2-0.2,0.4-0.4,0.6-0.6c1.5-1,2.9-2,4.5-2.7
		c0.6-0.2,1.3-0.2,1.8-0.7c1.2,0,2.3-0.6,3.5-0.5c0.9,0.1,1.8,0,2.6,0c1.2,0,2.2,0.3,3.3,0.6C28.2,9.4,29.2,9.8,30.2,10.3z"/>
	<path d="M83.3,34.4c0,1.6,0,3,0,4.4c-0.2,0.1-0.3,0.3-0.4,0.4c-0.7-0.1-1.5,0.2-2.2-0.3c0-3,0-6,0-9c0.8,0,1.5,0,2.3,0
		c0.9,1.4,1.9,2.8,2.8,4.2c0,0,0,0,0.1-0.1c0,0,0-0.1,0-0.1c0-1.4,0-2.7,0-4.1c0.9,0,1.7,0,2.6,0c0,3,0,6,0,9
		c-0.4,0.6-1.1,0.2-1.6,0.3c-0.8-0.2-1.1-0.9-1.5-1.5C84.8,36.7,84.1,35.6,83.3,34.4z"/>
	<path d="M118.6,12.1c1.3,0,2.6,0,4,0c0,4.5,0,9.1,0,13.6c-0.1,0.1-0.2,0.2-0.3,0.3c-1.2,0-2.4,0-3.7,0
		C118.6,21.4,118.6,16.7,118.6,12.1z"/>
	<path d="M67.9,29.9c0,3,0,6,0,9c-0.7,0.6-1.5,0.1-2.2,0.3c-0.2-0.2-0.3-0.3-0.4-0.4c0-1,0-2.1,0-3.2c-0.9,0-1.9,0-2.8,0
		c0,1.1,0,2.1,0,3.2c-0.2,0.1-0.3,0.2-0.4,0.4c-0.7-0.1-1.5,0.3-2.2-0.3c0-3,0-6,0-9c0.9,0,1.7,0,2.6,0c0,1.1,0,2.2,0,3.3
		c1,0,1.9,0,2.9,0c0-1.1,0-2.2,0-3.3C66.1,29.9,67,29.9,67.9,29.9z"/>
	<path d="M31.5,39.5c0.9-0.9,1.7-1.6,1.9-2.8c-0.3-0.2-0.6-0.5-0.9-0.7c-2.5-0.4-4.4,0.9-6,2.8c-0.1,0.4-0.2,0.8-0.3,1
		c0.3,0.3,0.6,0.6,0.9,0.9c0,0.1-0.1,0.2-0.1,0.2c0.9-0.1,1.7-0.1,2.6-0.2c-1.9,0.8-3.8,1.6-6,0.8c-0.3-0.3-0.6-0.6-1-1
		c0.1-0.5,0-1,0.2-1.5c0.3-1.1,1-2,1.9-2.8c0.6-0.5,1.2-0.9,1.8-1.4c1.3-0.9,3.4-1.8,4.8-2.1c1.9-0.3,2.4-0.3,3.6,0.2
		c0.6,0.2,0.7,0.7,0.8,1.1c0.1,0.5,0,1,0,1.4C34.2,37.7,32.9,39.1,31.5,39.5z"/>
	<path d="M69.9,29.9c2.3,0,4.6,0,6.9,0c0,0.7,0,1.4,0,2.1c-1.4,0-2.8,0-4.2,0c0,0.4,0,0.8,0,1.2c1.2,0,2.5,0,3.8,0
		c0,0.8,0,1.6,0,2.4c-1.2,0-2.5,0-3.8,0c0,0.4,0,0.8,0,1.2c1.4,0,2.8,0,4.1,0c0.1,0.2,0.2,0.3,0.4,0.4c0,0.6,0,1.1,0,1.7
		c-0.1,0.1-0.2,0.2-0.3,0.3c-2.2,0-4.3,0-6.5,0c-0.1-0.1-0.2-0.2-0.3-0.3C69.9,35.9,69.9,32.9,69.9,29.9z"/>
	<path d="M93.4,32c0,0.5,0,0.8,0,1.2c1.2,0,2.3,0,3.5,0c0,0.8,0,1.6,0,2.4c-1.2,0-2.3,0-3.5,0c0,0.4,0,0.8,0,1.2c1.4,0,2.8,0,4.2,0
		c0,0.7,0,1.4,0,2.1c-0.1,0.1-0.2,0.2-0.3,0.3c-2.2,0-4.4,0-6.6,0c0-3.1,0-6.2,0-9.3c2.2,0,4.4,0,6.7,0c0,0.7,0,1.4,0,2.1
		C96.1,32,94.8,32,93.4,32z"/>
	<path d="M23.9,16.9c0.3-0.8,0.5-1.4,0.7-2.1c-0.6-0.5-1.5-0.6-2.4-0.9c0.2-0.1,0.4-0.3,0.6-0.4c0.3-0.1,0.5,0,0.8-0.1
		c0.7-0.2,1.4-0.4,2.1-0.4c0.6,0,1.1-0.2,1.7-0.2c0.6,0,1.2-0.1,1.8,0c1.2,0.2,2.4,0.2,3.6,0.6c0.4,0.1,0.8-0.1,1.1,0.3
		c0.8,0,1.2,0.5,1.6,1c0.8,0.9,1.4,1.9,1.9,2.9c0.1,0.2,0.1,0.4,0.1,0.8c-1.3-1-2.7-1.4-4-2c-0.7,0.1-1.4-0.3-2.2-0.3
		c-1,0-2.1,0.1-3.1,0c-0.6,0-1.2,0.3-1.8,0.3c-0.6,0-1.2,0.2-1.7,0.4C24.6,16.9,24.3,16.9,23.9,16.9z"/>
	<path d="M50.4,32c0-0.8,0-1.5,0-2.2c2.6,0,5.2,0,7.8,0c0,0.7,0,1.4,0,2.1c-0.8,0-1.7,0-2.5,0c0,2.3,0,4.6,0,6.8
		c-0.2,0.1-0.3,0.2-0.4,0.4c-0.7-0.1-1.5,0.3-2.2-0.3c0-2.3,0-4.6,0-6.9C52.2,32,51.3,32,50.4,32z"/>
	<path d="M104,38.9c-1.1,0.4-1.4,0.5-2.7,0c0-2.2,0-4.5,0-6.8c-0.9,0-1.7,0-2.6,0c0-0.7,0-1.4,0-2.2c2.6,0,5.2,0,7.8,0
		c0,0.7,0,1.4,0,2.1c-0.8,0-1.7,0-2.5,0C104,34.3,104,36.6,104,38.9z"/>
	<path d="M38.4,29.3c0,0.7,0,1.4,0,2c-0.6,1.2-1.2,2.3-1.8,3.5c-0.2-0.6,0.1-0.9,0.3-1.3c0-0.4,0-0.9,0-1.5c0-0.9-0.5-1.5-1.2-1.9
		c-0.5-0.3-1.1-0.5-1.7-0.5c-0.7,0-1.4-0.1-2,0c-0.8,0.1-1.6,0.3-2.5,0.4c0.3-0.9,0.6-1.7,0.9-2.5c-0.5-0.3-1.1-0.7-1.7-1.1
		c0.7-0.2,1.3-0.5,2-0.5c0.7,0,1.3-0.3,2.1-0.2c1.6,0.2,3.1,0.6,4.4,1.6c0.2,0.2,0.3,0.4,0.5,0.6C37.9,28.4,38.1,28.8,38.4,29.3z"/>
	<path d="M39.3,26.7c-0.9-2.3-2.8-3.2-5-3.8c0.6-0.7,1-1.3,1.5-1.9c0-0.8-1.1-0.6-1.2-1.4c1.8,0.4,3.4,1.2,4.5,2.6
		C39.6,23.7,39.3,25.2,39.3,26.7z"/>
	<path d="M31.7,39.5c-0.1,0.1-0.1,0.1-0.2,0.2c0,0-0.1-0.1-0.1-0.1C31.5,39.5,31.6,39.5,31.7,39.5C31.7,39.4,31.7,39.4,31.7,39.5z"
		/>
	<path class="st0" d="M54.2,15.4c1.1,0,2,0,3.1,0c0.3,0.4,0.6,0.8,0.8,1.2c-0.1,0.8-0.5,1.2-1.2,1.5c-0.7,0-1.6,0-2.6,0
		C54.2,17.2,54.2,16.3,54.2,15.4z"/>
	<path class="st0" d="M108.5,20.2c0.3-0.9,0.6-1.7,0.9-2.6c0.6,0.8,0.6,1.8,1.1,2.6C109.8,20.2,109.1,20.2,108.5,20.2z"/>
</g>
</svg>
