<svg xmlns="http://www.w3.org/2000/svg" viewBox="0 0 602.4 134.6"><path d="M373.4 86.4L329.1 29h-11v77.1h11.4v-59l46.4 59h9.8V29H374v57.5h-.6v-.1zm-112-14.5h40V61.8h-40V38.5h45.1v-10H250v77.3h56.8V95.7h-45.4V71.9zm-46.7-9.6c-15.5-3.9-19.8-6.8-19.8-13.9s5.9-11 14.3-11c7.6.4 14.9 3 21 7.6l5.9-8.4c-7.6-6.1-17.2-9.4-27-9.3-12.6-1.7-24.1 7.1-25.8 19.7 0 .2-.1.4-.1.6v1.7c0 12.7 9.2 18.6 25.7 22.8 14.3 3.4 18.5 6.3 18.5 13.5S221.5 97 212.2 97c-9.2 0-18.1-3.5-24.8-9.8l-6.7 8c8.7 7.7 20 11.7 31.6 11.4 16.4 0 27-9.3 27-22.8-.4-11.4-7.6-17.7-24.9-21.5h.3zM588.6 29l-23.3 36.3L542 29h-13.1l30.3 46.4v30.5h11.4V75.4L601 29h-12.4zM393.5 39.1h25.3v66.8h11.4V39.1h25.5V28.6h-62.2v10.5zM509 75.8c11.1-2.1 19-12 18.5-23.3 0-14.7-11-24-28.3-24h-34.5v77.4h11.4v-28h19.4l19.4 27.8h13.5l-21.1-29.5 1.7-.4zm-32.7-7.6V39.1h21.5c11.4 0 17.7 5.1 17.7 14.3s-6.7 14.8-17.7 14.8h-21.5zM88 7.9C84.2 1.3 75.8-1 69.2 2.8l-.1.1C67 4.2 65.3 5.9 64 8L44.6 41.7l5.1 3c28.1 16.1 46 45.4 47.6 77.7H83.4c-1.9-27.3-17.2-51.8-40.9-65.5l-5.1-3L18.8 85l5.1 3c12.2 7.2 20.5 19.6 22.3 33.7h-31c-1.2.1-2.3-.8-2.5-2-.1-.5.1-.9.4-1.3l8.8-15.2c-3-2.6-6.4-4.6-10.1-5.9l-8.9 15.2c-3.9 6.6-1.6 15.1 5 19H8c2.1 1.2 4.4 1.8 6.8 1.7h43.4v-5.9c-.1-18.3-8.9-35.5-23.6-46.4l6.7-11.7c19.2 13.2 30.7 35 30.8 58.3v5.6h37.1v-5.9C109 90.9 90.6 57 60.3 37l13.9-24c.8-1.1 2.2-1.5 3.4-.9.4 0 .4.4.9.9l60.7 104.9c.5 1.1.1 2.3-.9 3-.4 0-.9.4-1.2.4h-14.8v11.4h14.3c7.6-.1 13.8-6.3 13.9-13.9.1-2.4-.5-4.7-1.7-6.7L88 7.9z"/></svg>