<svg xmlns="http://www.w3.org/2000/svg" viewBox="0 0 468 194.3"><path d="M467 100.4c0-33.2-16.1-59.4-46.8-59.4-30.9 0-49.6 26.2-49.6 59.2 0 39 22.1 58.8 53.7 58.8 15.4 0 27.1-3.5 35.9-8.4v-25.9c-8.8 4.4-18.9 7.1-31.8 7.1-12.6 0-23.7-4.4-25.2-19.7h63.4c.1-1.8.4-8.6.4-11.7zm-64.1-12.3c0-14.7 9-20.8 17.1-20.8 7.9 0 16.3 6.1 16.3 20.8h-33.4zM320.5 41c-12.7 0-20.9 6-25.4 10.1l-1.7-8h-28.5v151.3l32.4-6.9.1-36.7c4.7 3.4 11.5 8.2 23 8.2 23.2 0 44.4-18.7 44.4-59.8-.2-37.7-21.6-58.2-44.3-58.2zm-7.8 89.4c-7.7 0-12.2-2.7-15.3-6.1l-.1-48.1c3.4-3.8 8-6.4 15.4-6.4 11.8 0 20 13.2 20 30.2 0 17.4-8 30.4-20 30.4zm-92.4-97.1l32.6-7V0l-32.6 6.9v26.4zm0 9.9h32.6v113.5h-32.6V43.2zm-34.9 9.6l-2.1-9.6h-28v113.5h32.4V79.8c7.7-10 20.6-8.2 24.6-6.7V43.2c-4.1-1.6-19.3-4.4-26.9 9.6zM120.5 15l-31.7 6.7-.1 103.9c0 19.2 14.4 33.3 33.6 33.3 10.6 0 18.4-1.9 22.7-4.3v-26.3c-4.2 1.7-24.6 7.7-24.6-11.5v-46H145V43.2h-24.6l.1-28.2zM32.8 76.1c0-5.1 4.2-7 11-7 9.9 0 22.3 3 32.2 8.3V47c-10.8-4.3-21.4-6-32.2-6C17.5 41 0 54.7 0 77.7c0 35.8 49.3 30.1 49.3 45.5 0 6-5.2 7.9-12.5 7.9-10.8 0-24.5-4.4-35.4-10.4v30.9c12.1 5.2 24.3 7.4 35.4 7.4 27 0 45.5-13.4 45.5-36.6-.1-38.6-49.5-31.7-49.5-46.3z"/></svg>