<svg width="623" height="85" xmlns="http://www.w3.org/2000/svg"><g fill="none"><path d="M122 .3v22.74h15.539v59.964h26.263V.3m44.347 31.43h-12.29V23h6.184V.3h-32.409v82.704h26.224V51.73h12.29v31.274h26.303V.3h-26.302m32.056 82.704h48.651v-22.78h-23.562v-9.629h14.99V31.73h-14.99v-8.69h23.562V.3h-48.651m255.51 27.985c0-17.848-13.19-27.985-31.9-27.985h-29.238v82.665h26.263V61.79l15.03 21.175h29.63L484.207 51.26c7.672-4.188 11.508-11.82 11.508-22.976m-34.953 9.16V22.061c3.64 0 8.102 1.096 9.433 5.088.117.352.196.744.313 1.135 0 .04 0 .118.04.157.038.391.117.86.117 1.33 0 6.146-5.597 7.672-9.903 7.672m-119.888 13.23h-.234l-1.88-6.81-5.87-20.784h10.333L350.033.3h-52.448l30.06 82.665h26.929l3.248-8.846s14.404-39.062 22.271-60.355v69.2h48.652v-22.78h-23.563v-9.628h14.952V31.73h-14.952v-8.69h23.563V.26h-72.684l-15.187 50.414zM623 23.08V.339h-48.652v82.665H623v-22.78h-23.602v-9.629h14.991V31.808H599.4V23.08" fill="#000"/><path d="M569.3 65.665v-33.7h-37.106v18.787h13.816v6.693c-1.056.94-3.327 1.448-5.675 1.448-9.629 0-16.752-7.593-16.752-16.87 0-9.276 6.928-17.495 16.556-17.495 5.832 0 19.649.039 19.649.039V.065h-6.302c-11.742 0-23.445-.94-34.209 4.618-8.493 4.384-15.225 11.82-18.787 20.667-2.075 5.205-3.131 10.842-3.131 16.439C497.359 65.234 515.755 85 539.59 85c11.82 0 23.367-4.423 29.669-9.942.04-5.714.04-6.575.04-9.393" fill="#000"/><path fill="#D4D4D4" d="M92.5561 0L49 75.5555556 16.3513 18.8888889 59.8878 18.8888889 65.3317 9.44444444 0 9.44444444 43.5463 85 54.4439 85 98 9.44444444z"/><path fill="#363636" d="M82.1414609 0L49.5609568 56.25 27.8536523 18.7694704 17 18.7694704 49.5609568 75 93 0z"/><path fill="#000" d="M0 9.33333333L65.5970481 9.33333333 43.7280854 46.6472828 49.199016 56 82 0 5.46601068 0z"/></g></svg>