<svg id="Layer_1" xmlns="http://www.w3.org/2000/svg" viewBox="0 0 85.5 85.5"><style>.st0{fill:#fff}.st1{fill:#363636}.st2{fill:#222}</style><circle class="st0" cx="42.8" cy="42.8" r="42.2"/><path d="M31.4 26.4c-1.8 2.3-5.2 6.9-8.3 13.5-.1.2-.2.5-.3.7-2 4.3-3.5 8.8-4.5 13.4-.1.6-.3 1.2-.4 1.8 0 .3-.1.5-.1.8-.1.5-.2.9-.2 1.4-.1.5-.1.9-.2 1.4 0 .3-.1.7-.1 1-.1.9-.2 1.7-.2 2.6 0 .3 0 .6-.1.9 0 .6 0 1.2-.1 1.8v.5c0 3.5.2 7 .8 10.4C7.3 69 .6 56.7.6 42.8c0-.8 0-1.6.1-2.4.8-.7 1.6-1.4 2.4-2l.2-.2c.6-.4 1.1-.9 1.7-1.3.3-.2.6-.5.9-.7.2-.1.4-.3.6-.4.5-.3.9-.6 1.3-.8.1-.1.3-.2.4-.3 6.9-4.3 14.6-7 23.2-8.3z"/><path class="st1" d="M51.2 24.8c-2.1-.3-5.5-.7-9.9-.7-9.3 0-21.8 1.8-33.7 9.1-.1 0-.1.1-.2.1-.5.3-1.1.7-1.6 1-.2.1-.3.2-.5.3-.5.4-1 .7-1.6 1.1-.3.2-.6.4-.9.7-.2.2-.4.3-.6.5-.5.4-1 .8-1.4 1.2 1.6-14.4 10.5-26.7 22.9-33 5.1 1.7 9.8 4.1 14.2 7.1.1.1.2.1.2.2.4.3.9.6 1.3.9.3.2.6.4.9.7.8.6 1.5 1.2 2.3 1.8l.1.1c2.2 1.9 4.3 3.9 6.2 6.1l.4.4c.3.3.6.7.9 1 .2.3.5.6.7.9.1.2.2.4.3.5zm8.4 56.6c-5.3 2.4-11 3.6-16.8 3.6-8.3 0-16.4-2.4-23.2-7-.8-3.7-1.1-7.5-1.1-11.2v-.3-1.7-1-.3c.4-7.1 2.2-13.6 4.4-19 1.1 2.8 3.6 8.4 8 14.6 5.3 7.4 14.5 17.1 28.7 22.3z"/><path class="st2" d="M62.6 41.1c-1.1-2.8-3.6-8.4-8-14.6C49.2 19 40.1 9.3 25.8 4.1 31.1 1.8 36.9.6 42.7.6 51 .6 59 3 65.8 7.5 68.1 18.6 67 30 62.6 41.1zm22.1 6.3c-1.6 14.4-10.5 26.7-22.9 33C51 76.8 41.7 70.2 34.3 60.7c2 .3 5.5.7 9.9.7 1.8 0 3.8-.1 5.9-.2h.4c10.2-.9 22.9-4.3 34.2-13.8z"/><path d="M85 42.8c0 .8 0 1.6-.1 2.4-8.5 7.6-18.9 12.3-30.8 14 1.9-2.4 5.5-7.3 8.7-14.2 3.8-8.4 7.6-21.2 5-36.1C78.2 16.5 85 28.8 85 42.8z"/></svg>