<?xml version="1.0" encoding="UTF-8"?>
<!DOCTYPE svg PUBLIC "-//W3C//DTD SVG 1.1//EN" "http://www.w3.org/Graphics/SVG/1.1/DTD/svg11.dtd">
<!-- Creator: CorelDRAW X7 -->
<svg xmlns="http://www.w3.org/2000/svg" xml:space="preserve" width="7.5in" height="7.5in" version="1.1" style="shape-rendering:geometricPrecision; text-rendering:geometricPrecision; image-rendering:optimizeQuality; fill-rule:evenodd; clip-rule:evenodd"
viewBox="0 0 7500 7500"
 xmlns:xlink="http://www.w3.org/1999/xlink">
 <defs>
  <style type="text/css">
   <![CDATA[
    .fil0 {fill:none}
    .fil1 {fill:#548D1D}
    .fil2 {fill:white}
   ]]>
  </style>
 </defs>
 <g id="Layer_x0020_1">
  <metadata id="CorelCorpID_0Corel-Layer"/>
  <rect class="fil0" width="7500" height="7500"/>
  <g id="_2419942821424">
   <path class="fil1" d="M6757 4500c-414,1661 -2096,2672 -3757,2257 -1661,-414 -2672,-2096 -2257,-3757 414,-1661 2096,-2671 3757,-2257 1661,414 2672,2096 2257,3757l0 0z"/>
   <g>
    <path class="fil2" d="M4796 2725c-137,-394 -518,-446 -967,-378l-135 -560 -340 82 131 546c-90,21 -181,45 -271,69l-133 -549 -340 83 134 559 -687 166 88 365c0,0 250,-66 247,-60 139,-34 203,36 233,102l369 1533c5,45 -4,121 -100,144 5,3 -248,60 -248,60l30 423 688 -163 136 566 341 -82 -135 -560c94,-21 185,-42 273,-63l134 557 341 -82 -136 -565c565,-171 931,-412 851,-962 -64,-443 -314,-587 -658,-587 173,-148 254,-355 154,-644l0 0zm-185 1326c102,423 -634,550 -865,606l-180 -750c231,-56 939,-297 1046,144l-1 0zm-414 -1021c93,386 -522,487 -715,533l-164 -681c193,-46 782,-253 879,148l0 0zm0 0l0 0 0 0z"/>
   </g>
  </g>
 </g>
</svg>
