<?xml version="1.0" encoding="UTF-8"?>
<!DOCTYPE svg PUBLIC "-//W3C//DTD SVG 1.1//EN" "http://www.w3.org/Graphics/SVG/1.1/DTD/svg11.dtd">
<!-- Creator: CorelDRAW X7 -->
<svg xmlns="http://www.w3.org/2000/svg" xml:space="preserve" width="7.5in" height="7.5in" version="1.1" style="shape-rendering:geometricPrecision; text-rendering:geometricPrecision; image-rendering:optimizeQuality; fill-rule:evenodd; clip-rule:evenodd"
viewBox="0 0 7500 7500"
 xmlns:xlink="http://www.w3.org/1999/xlink">
 <defs>
  <style type="text/css">
   <![CDATA[
    .fil0 {fill:none}
    .fil1 {fill:#F7931A}
    .fil2 {fill:white}
   ]]>
  </style>
 </defs>
 <g id="Layer_x0020_1">
  <metadata id="CorelCorpID_0Corel-Layer"/>
  <rect class="fil0" width="7500" height="7500"/>
  <g id="_2419942107232">
   <path class="fil1" d="M6757 4500c-414,1661 -2096,2671 -3757,2257 -1661,-414 -2671,-2096 -2257,-3757 414,-1660 2096,-2672 3757,-2257 1660,414 2672,2096 2257,3757l0 0z"/>
   <g>
    <path class="fil2" d="M5117 3308c62,-412 -252,-634 -682,-782l140 -559 -341 -84 -136 544c-89,-23 -181,-44 -272,-64l136 -548 -339 -85 -140 559 -686 -170 -90 363c0,0 252,58 247,62 138,34 163,125 158,197l-381 1531c-17,42 -60,105 -156,81 3,5 -247,-62 -247,-62l-169 390 685 173 -141 565 340 85 139 -559c93,25 183,48 271,70l-139 556 340 85 141 -564c580,110 1017,65 1200,-459 148,-422 -7,-666 -312,-825 222,-51 389,-197 434,-499l0 -1zm-777 1090c-106,423 -817,194 -1047,137l186 -749c231,58 970,172 861,612l0 0zm105 -1096c-96,385 -688,189 -880,142l169 -680c192,48 811,138 711,538l0 0zm0 0l0 0 0 0z"/>
   </g>
  </g>
 </g>
</svg>
