<?xml version="1.0" encoding="utf-8"?>
<!-- Generator: Adobe Illustrator 21.0.0, SVG Export Plug-In . SVG Version: 6.00 Build 0)  -->
<svg version="1.1" id="Layer_1" xmlns="http://www.w3.org/2000/svg" xmlns:xlink="http://www.w3.org/1999/xlink" x="0px" y="0px"
	 viewBox="0 0 720 160" style="enable-background:new 0 0 720 160;" xml:space="preserve">
<style type="text/css">
	.st0{fill:#FFFFFF;}
</style>
<g>
	<g>
		<path class="st0" d="M71.4,26.7H11.8v106.6h88.4V55.8L71.4,26.7L71.4,26.7z M72.6,34.2l19.7,20H72.6V34.2z M16.2,30.9h52.1v27.6
			h27.6v70.4H16.2L16.2,30.9L16.2,30.9z"/>
		<path class="st0" d="M82.3,75.9H21.7V36.6h41.1v2.8H24.6V73h57.6 M30.4,114.2V93.7H48v11.6h-9.2v-2.8h6.3v-5.9H33.4v17.6"/>
		<path class="st0" d="M56,64v-5.6h7V45.6H30.8v22h2.8v-19h26.5v6.9H39.3v2.9h13.9v8.5h29.2V64 M75.2,93.7H53.5v2.9h2.5v17.5H59
			V96.7h16.2"/>
		<path class="st0" d="M75.2,105.5v-2.9h-9.9v11.7h9.9v-3h-6.9v-5.8 M90.2,105.5v-2.9h-9.3v11.6h0.2v0.1h9.1v-3h-6.4v-5.8
			 M80.9,93.7h9.3v2.9h-9.3V93.7z"/>
		<path class="st0" d="M24.6,120.4V87.7h65.6V64.1h-2.9v20.7H24.6v-3.3h-2.9v41.9H91v-2.9"/>
	</g>
	<g>
		<path class="st0" d="M153.2,80c0-21.6,16.6-37.3,38.8-37.3c11.8,0,21.9,4.2,28.7,12.1L212,63c-5.3-5.7-11.8-8.5-19.4-8.5
			c-15,0-25.9,10.6-25.9,25.5c0,14.9,10.9,25.5,25.9,25.5c7.6,0,14.1-2.8,19.4-8.6l8.7,8.3c-6.7,7.9-16.9,12.1-28.8,12.1
			C169.8,117.3,153.2,101.6,153.2,80z"/>
		<path class="st0" d="M293.4,116.2L278.6,95c-0.9,0.1-1.9,0.1-2.8,0.1h-16.4v21.1H246V43.8h29.8c19,0,30.8,9.7,30.8,25.8
			c0,11-5.6,19-15.4,22.9l16.7,23.8H293.4z M275.2,55.2h-15.7V84h15.7c11.8,0,17.9-5.4,17.9-14.5S287,55.2,275.2,55.2z"/>
		<path class="st0" d="M364.3,90.7v25.6h-13.5V90.9l-28.5-47.1h14.4L358,79.1l21.4-35.3h13.2L364.3,90.7z"/>
		<path class="st0" d="M473.5,69.5c0,15.9-11.8,25.8-30.8,25.8h-16.4v20.9h-13.5V43.8h29.8C461.7,43.8,473.5,53.5,473.5,69.5z
			 M460,69.5c0-9.1-6.1-14.4-17.9-14.4h-15.7v28.8h15.7C453.9,83.9,460,78.7,460,69.5z"/>
		<path class="st0" d="M512,55.2h-24V43.8h61.5v11.4h-24v61.1H512V55.2z"/>
		<path class="st0" d="M626.4,104.9v11.3h-54.3V43.8H625v11.3h-39.4v18.8h35V85h-35v20H626.4z"/>
		<path class="st0" d="M708.2,104.9v11.3h-54.3V43.8h52.9v11.3h-39.4v18.8h35V85h-35v20H708.2z"/>
	</g>
</g>
</svg>
