<svg xmlns="http://www.w3.org/2000/svg" width="791.9" height="226.8"><path fill="#FFF" d="M126.7 0H0v226.8h188V62L126.6 0zm2.6 16l42 42.5h-42V16zM9.3 9H120v58.6h58.6v149.8H9.2V9.2z"/><path fill="#FFF" d="M149.8 104.7H21V21h87.4v6H27.2v71.6h122.6M39.5 186.2v-43.6H77v24.7H57.5v-6h13.3v-12.5h-25v37.4"/><path fill="#FFF" d="M94 79.3v-12h14.8v-27H40.3V87h6V46.6h56.3v14.6H58.4v6.2h29.5v18h62v-6M134.7 142.6h-46v6.2h5.4V186h6.2V149h34.5"/><path fill="#FFF" d="M134.7 167.7v-6.2h-21v24.8h21V180H120v-12.3M166.6 167.7v-6.2h-19.8v24.6h.5v.2h19.3V180H153v-12.3M146.8 142.6h19.8v6.2h-19.8z"/><path fill="#FFF" d="M27.2 199.4v-69.7h139.6V79.5h-6.2v44H27.2v-7H21v89.1h147.3v-6.2M255.6 163.7c-7-8-10.7-18.4-11.2-31.7l-.2-14c0-6.6 0-11.4.2-14.5.5-13.2 4.3-23.8 11.2-31.6 7-8 17.4-12 31.2-12 8.3-.2 16.4 1.6 23.8 5.3 5.7 3 10.6 7.6 14 13 3 5 4.6 10.7 5 16.4v.3c0 .8-.3 1.6-1 2-.6.7-1.5 1-2.3 1h-3c-2 0-3.2-1.2-3.6-3.5-2-9-5.8-15.4-11-19.2-6.5-4-14-6-21.6-5.6-10 0-17.8 3-23.3 8.5s-8.5 14.4-9 26v27.1c.5 11.7 3.4 20.4 9 26 5.5 5.7 13.3 8.6 23.4 8.6 7.6.3 15.2-1.7 21.6-5.7 5.4-3.8 9-10.2 11-19.3.5-2.2 1.7-3.3 3.6-3.3h3c1 0 2 .3 2.6 1 .6.4 1 1.3.8 2.2-.3 5.6-2 11-5 16-3.3 5.7-8.2 10.2-14 13.2-7.3 3.7-15.4 5.6-23.7 5.3-14 0-24.4-4-31.4-11.8zM352 173c-.6-.8-1-1.7-1-2.7v-76c0-1 .4-2 1-2.7.8-.7 1.7-1 2.7-1h2.5c2-.2 3.7 1.4 3.7 3.4V101.6c3.8-7.3 11-11 21.7-11h6c1.7-.2 3.3 1.2 3.4 3v2.8c.3 1.8-1 3.4-3 3.5h-7.4c-10.5-.8-19.8 7-20.7 17.8-.2 1-.2 2 0 3v49.7c0 1-.4 2-1 2.5-1 .7-1.8 1-2.8 1h-2.5c-1 0-2-.3-2.6-1zM422 203.3c-.7-.6-1-1.4-1-2.3 0-1 .5-2 1-3l12.2-29-30.5-72c-.5-1-.8-2-1-3 0-1.7 1.4-3 3-3h3.4c1.7-.2 3.2.8 3.8 2.3l27 63.4 27.5-63.4c.6-1.5 2-2.4 3.7-2.4h3c1.7 0 3 1.3 3 3 0 1-.4 2-.8 3l-45 104.8c-.7 1.5-2 2.5-3.7 2.4h-3c-1 0-2-.3-2.6-1zM493.2 203.3c-.7-.7-1-1.6-1-2.6V94c0-1.8 1.3-3.3 3-3.5H498.6c2 0 3.4 1.4 3.5 3.2v8c6.3-8.5 16.4-13.2 27-12.6 11.4 0 20 3.6 25.4 11 5.7 7.8 8.8 17.2 8.8 27v10.5c0 9.7-3.2 19-9 27-5.3 7.3-13.8 11-25.3 11-10.6.5-20.7-4.2-27-12.7v38c0 1.7-1.3 3.3-3 3.4h-3.2c-1 0-2-.3-2.6-1zM547 158c4.2-6.4 6.4-13.8 6.4-21.4l.2-4.5c.3-8.3-1.7-16.8-5.8-24.2-4-6.4-10.5-9.5-20-9.5-7.2-.5-14.4 2.6-19 8.4-4.2 5.6-6.6 12.5-6.8 19.6l-.2 6 .2 6.3c0 4.5 1 9 3 13s5 7.7 8.7 10.2c4.2 2.8 9.2 4.2 14.3 4 8.6.2 15-2.4 19-8zM595.2 166.7c-3.6-6-5.3-12.8-5-19.6V100h-12.5c-1.8 0-3.3-1.2-3.5-3V94c0-1.8 1.3-3.3 3-3.5h13v-27c0-1.7 1.3-3.3 3-3.4H596.6c1.8 0 3.4 1.4 3.5 3.2v27.4h19.8c2-.2 3.4 1.2 3.6 3V96.3c0 1.8-1.3 3.4-3 3.5H600v46.6c-.3 4.7.8 9.4 3 13.6 2.3 3 6 5 10 4.5h8.6c1.8 0 3.4 1.3 3.5 3v2.8c.2 1.8-1.2 3.4-3 3.5H612c-8 0-13.5-2.4-16.8-7zM644.7 165.4c-6.5-7.4-10.3-17-10.6-26.8v-12.8c.5-10 4.2-19.3 10.6-26.8 6.3-6.8 15.3-10.5 24.6-10 10-.6 19.6 3.5 26 11 6.2 7.4 9.3 17.5 9.3 30.3v2.4c0 1-.3 2-1 2.5-.8.7-1.7 1-2.7 1h-57v1.6c.2 4.8 1.4 9.6 3.5 14 2 4.2 5 7.7 8.7 10.4 3.8 2.7 8.4 4 13 4 5 0 10-1 14.4-3.5 3-1.8 5.8-4.2 8-7 .5-1 1.3-1.7 2-2.4 1-.4 1.8-.6 2.7-.5h2.7c1 0 1.7.3 2.4.8s1 1.3 1 2c-.4 3.2-2 6-4.2 8.2-3.3 3.5-7.3 6.3-11.8 8.2-5.3 2.4-11 3.6-16.8 3.5-9.3.4-18.2-3.3-24.5-10zm50-38.2v-.6c.4-7.4-2-14.7-7-20.4-4.5-5.3-11.4-8.3-18.5-8-7-.3-14 2.7-18.5 8-4.7 5.8-7 13-6.8 20.4v.6h50.8zM732 165.4c-6.4-7.4-10-17-10.5-26.8v-12.8c.4-10 4-19.3 10.5-26.8 6.4-6.8 15.4-10.5 24.7-10 10-.6 19.5 3.5 26 11 6.2 7.4 9.2 17.5 9.2 30.3v2.4c0 1-.4 2-1 2.5-.8.7-1.8 1-2.8 1h-57v1.6c.3 4.8 1.5 9.6 3.6 14 2 4.2 5 7.8 8.7 10.4 3.8 2.7 8.4 4 13 4 5 0 10-1 14.4-3.5 3-1.8 5.7-4.2 7.8-7 .7-1 1.4-1.7 2.2-2.4.8-.4 1.7-.6 2.7-.5h2.5c1 0 1.7.3 2.4.8.6.5 1 1.3 1 2-.5 3.2-2 6-4.3 8.2-3.3 3.5-7.3 6.3-11.8 8.2-5.3 2.4-11 3.6-17 3.5-9 .4-18-3.3-24.4-10zm50.2-38.2v-.6c.3-7.4-2.2-14.7-7-20.4-4.6-5.3-11.5-8.3-18.6-8-7-.3-14 2.7-18.5 8-4.5 5.8-7 13-6.7 20.4v.6h51z"/></svg>