<svg xmlns="http://www.w3.org/2000/svg" width="506.9" height="612"><g fill="#1C1B1A"><path d="M341.8 0H0v612h507V167.5L341.7 0zm7.2 43l113.3 115H349V43zM25 25h299v157.8h158V587H25V25z"/><path d="M404.3 282.5H56.8v-226h235.7V73h-219v193h330.8M106.6 502.5V384.8h101v66.7h-52.5v-16.7h36v-33.4h-67.8v101"/><path d="M253.4 214v-32.2h40.3V109h-185v125.2h16.6V125.7H277v39.5H157.2v16.6h79.6v48.8h167.5V214m-40.8 170.8h-124v16.6H254V502h16.6V401.5h93"/><path d="M363.5 452.5v-16.7H308v.2h-1.5v66h.3v.3h56.7v-16.6h-40.3v-33.2m126.4 0v-16.7h-50.8v.2H396l-.2 66h1.7v.3h52v-16.6h-37l.2-33.2M396 384.8h53.6v16.6H396z"/><path d="M73.4 538V350H450V214.7h-16.6v119h-360V314H56.8v240.5H454V538"/></g></svg>