<?xml version="1.0" encoding="UTF-8"?>
<!DOCTYPE svg PUBLIC "-//W3C//DTD SVG 1.1//EN" "http://www.w3.org/Graphics/SVG/1.1/DTD/svg11.dtd">
<svg version="1.1" xmlns="http://www.w3.org/2000/svg" xmlns:xlink="http://www.w3.org/1999/xlink" x="0" y="0" width="676" height="100" viewBox="0, 0, 676, 100">
  <g id="Background">
    <rect x="0" y="0" width="676" height="100" fill="#000000" fill-opacity="0"/>
  </g>
  <g id="Layer_1">
    <path d="M0.004,100 L100.001,100 L100.001,0.006 L0.004,0.006 z" fill="#000000"/>
    <path d="M108.503,100 L675.497,100 L675.497,0.002 L108.503,0.002 z" fill="#000000"/>
    <path d="M82.002,44.304 L22.003,44.304 L22.003,57.208 L82.002,57.208 z M22.003,37.785 L76.344,37.785 L76.344,29.47 L22.003,29.47 z M22.003,23.557 L61.46,23.557 L61.46,18.005 L22.003,18.005 z M72.545,63.731 L21.999,63.731 L21.999,71.341 L72.545,71.341 z M61.457,82.005 L21.999,82.005 L21.999,77.25 L61.457,77.25 z" fill="#FFFFFF"/>
    <path d="M629.944,23.785 L637.73,23.785 L637.73,54.155 L649.76,39.356 L658.247,39.356 L645.191,54.797 L659.344,73.004 L650.338,73.004 L637.73,56.469 L637.73,73.004 L629.944,73.004 z M590.183,39.356 L597.969,39.356 L597.969,44.697 C599.574,41.416 603.306,38.647 608.841,38.647 C615.593,38.647 620.352,42.574 620.352,51.837 L620.352,73.004 L612.57,73.004 L612.57,52.547 C612.57,47.463 610.51,45.149 605.878,45.149 C601.5,45.149 597.969,47.848 597.969,53.189 L597.969,73.004 L590.183,73.004 z M550.295,60.907 L550.295,39.356 L558.077,39.356 L558.077,60.008 C558.077,65.091 560.197,67.405 564.702,67.405 C568.882,67.405 572.548,64.707 572.548,59.366 L572.548,39.356 L580.333,39.356 L580.333,73.004 L572.548,73.004 L572.548,67.73 C570.879,71.011 567.341,73.649 561.873,73.649 C555.248,73.649 550.295,69.854 550.295,60.907 M528.384,45.209 L523.815,45.209 L523.815,39.356 L528.384,39.356 L528.384,34.855 C528.384,27.454 532.497,23.464 539.704,23.464 C541.571,23.464 542.728,23.658 544.146,24.109 L544.146,30.156 C543.246,29.835 542.019,29.581 540.607,29.581 C537.45,29.581 536.166,31.638 536.166,34.534 L536.166,39.356 L543.821,39.356 L543.821,45.209 L536.166,45.209 L536.166,73.004 L528.384,73.004 z M509.595,56.342 L509.595,55.827 C509.595,48.426 506.184,44.761 500.518,44.761 C494.793,44.761 491.452,48.751 491.452,56.021 L491.452,56.533 C491.452,63.934 495.181,67.472 500.201,67.472 C505.605,67.472 509.595,63.867 509.595,56.342 M483.472,56.727 L483.472,56.212 C483.472,45.466 489.84,38.647 498.592,38.647 C504.06,38.647 507.471,41.159 509.338,44.503 L509.338,23.785 L517.123,23.785 L517.123,73.004 L509.338,73.004 L509.338,67.345 C507.535,70.69 503.224,73.649 498.271,73.649 C489.84,73.649 483.472,67.663 483.472,56.727 M445.902,39.356 L453.684,39.356 L453.684,44.697 C455.292,41.416 459.025,38.647 464.556,38.647 C471.312,38.647 476.074,42.574 476.074,51.837 L476.074,73.004 L468.289,73.004 L468.289,52.547 C468.289,47.463 466.228,45.149 461.597,45.149 C457.222,45.149 453.684,47.848 453.684,53.189 L453.684,73.004 L445.902,73.004 z M428.464,56.342 L428.464,55.827 C428.464,48.363 424.989,44.761 419.775,44.761 C414.434,44.761 410.963,48.751 410.963,56.021 L410.963,56.533 C410.963,63.934 414.695,67.472 419.387,67.472 C424.411,67.472 428.464,63.867 428.464,56.342 M402.983,56.727 L402.983,56.212 C402.983,45.466 409.742,38.647 417.845,38.647 C422.992,38.647 426.277,41.092 428.206,44.44 L428.206,39.356 L435.992,39.356 L435.992,73.004 L428.206,73.004 L428.206,67.472 C426.34,70.753 422.16,73.649 417.524,73.649 C409.675,73.649 402.983,67.663 402.983,56.727 M387.288,23.785 L395.074,23.785 L395.074,73.004 L387.288,73.004 z M347.326,23.785 L355.119,23.785 L355.119,44.697 C356.724,41.416 360.456,38.647 365.991,38.647 C372.747,38.647 377.506,42.574 377.506,51.837 L377.506,73.004 L369.72,73.004 L369.72,52.547 C369.72,47.463 367.663,45.149 363.031,45.149 C358.657,45.149 355.119,47.848 355.119,53.189 L355.119,73.004 L347.326,73.004 z M307.438,56.6 L307.438,56.085 C307.438,45.406 315.026,38.647 324.42,38.647 C331.885,38.647 338.898,41.991 339.798,51.259 L332.269,51.259 C331.627,46.754 328.668,44.888 324.551,44.888 C319.21,44.888 315.414,49.005 315.414,55.954 L315.414,56.469 C315.414,63.804 319.016,67.663 324.741,67.663 C328.862,67.663 332.4,65.218 332.848,60.459 L339.992,60.459 C339.413,68.178 333.557,73.649 324.42,73.649 C314.772,73.649 307.438,67.345 307.438,56.6 M274.686,62.516 L282.02,62.516 C282.408,65.927 284.144,67.924 288.712,67.924 C292.896,67.924 294.759,66.442 294.759,63.613 C294.759,60.847 292.508,59.817 287.555,58.981 C278.676,57.563 275.395,55.055 275.395,48.751 C275.395,41.991 281.699,38.647 288.003,38.647 C294.889,38.647 300.357,41.222 301.193,48.814 L293.99,48.814 C293.344,45.727 291.609,44.309 288.003,44.309 C284.659,44.309 282.666,45.918 282.666,48.299 C282.666,50.747 284.274,51.707 289.612,52.61 C297.528,53.834 302.224,55.76 302.224,62.904 C302.224,69.72 297.398,73.649 288.779,73.649 C280.09,73.649 275.01,69.66 274.686,62.516 M254.899,63.613 L254.899,45.209 L250.397,45.209 L250.397,39.356 L254.899,39.356 L254.899,31.955 L262.685,31.955 L262.685,39.356 L270.082,39.356 L270.082,45.209 L262.685,45.209 L262.685,62.904 C262.685,65.864 264.099,67.218 266.544,67.218 C268.089,67.218 269.246,67.021 270.34,66.569 L270.34,72.746 C269.119,73.198 267.447,73.582 265.066,73.582 C258.374,73.582 254.899,69.981 254.899,63.613 M214.076,60.907 L214.076,39.356 L221.861,39.356 L221.861,60.008 C221.861,65.091 223.985,67.405 228.49,67.405 C232.67,67.405 236.336,64.707 236.336,59.366 L236.336,39.356 L244.122,39.356 L244.122,73.004 L236.336,73.004 L236.336,67.73 C234.664,71.011 231.125,73.649 225.657,73.649 C219.032,73.649 214.076,69.854 214.076,60.907 M199.086,52.674 C198.698,46.884 195.738,44.309 190.912,44.309 C186.217,44.309 183.067,47.463 182.291,52.674 z M174.187,56.533 L174.187,56.021 C174.187,45.597 181.328,38.647 190.912,38.647 C199.277,38.647 206.805,43.6 206.805,55.633 L206.805,57.884 L182.164,57.884 C182.421,64.255 185.639,67.857 191.428,67.857 C196.127,67.857 198.571,65.994 199.15,62.71 L206.678,62.71 C205.584,69.787 199.855,73.649 191.237,73.649 C181.328,73.649 174.187,67.151 174.187,56.533 M144.075,66.248 C154.369,66.248 159.325,60.329 159.325,50.165 L159.325,49.65 C159.325,39.741 154.82,33.758 144.011,33.758 L139.058,33.758 L139.058,66.248 z M130.5,27.002 L144.463,27.002 C160.482,27.002 168.264,36.139 168.264,49.523 L168.264,50.102 C168.264,63.483 160.482,73.004 144.332,73.004 L130.5,73.004 z" fill="#FFFFFF"/>
  </g>
</svg>
