<svg xmlns="http://www.w3.org/2000/svg" viewBox="0 0 2100.04 359.41"><title>ft-logo</title><path d="M351.5,122.4A180.65,180.65,0,0,0,194.9.6l-7.2,89.8a90,90,0,1,1-36,4.4c0.1,0,.2-0.1.3-0.1L123.4,9.3a1.85,1.85,0,0,1-.7.2C28.3,41.3-22.4,143.5,9.5,237.6S143.8,382.3,238.2,350.5,383.4,216.6,351.5,122.4Z" transform="translate(0.04 -0.6)" style="fill:#000000"/><polygon points="123.14 8.6 177.04 40.1 151.84 94.1 94.94 65.8 123.14 8.6" style="fill:#000000"/><path d="M0,0" transform="translate(0.04 -0.6)" style="fill:none"/><path d="M607.6,222.3c0-12.8,0-31.7-5.6-51.7-10.4-38.1-38.5-75-95.9-75-67,0-106.3,48.9-106.3,109.9,0,55.7,32.5,109.5,105.5,109.5,51.3,0,74.6-25.7,81.8-33.7,12.4-14.4,15.2-24.1,18.1-32.1l-59.8-4.4c-3.6,6.8-12,22.5-38.5,22.5-12.4,0-25.3-3.2-35.3-17.6-7.2-10-8.4-19.3-9.6-27.3H607.6v-0.1ZM462.4,177.8c2.8-10.4,9.6-36.1,42.9-36.1,4.8,0,21.3,0,32.5,15.2,5.6,8,6.8,14.8,7.6,20.9h-83ZM622,257.2c0,15.2,1.2,30.9,14,42.5,13.2,12,33.3,12.4,43.7,12.4,9.6,0,18.5-.4,28.1-1.2V264.4c-20.9,0-26.5-1.6-26.5-19.7l2.4-219H624Zm223.8-231v89c-9.2-7.2-24.1-18.9-49.7-18.9-53.3,0-91.9,42.9-91.9,109.5,0,68.6,39.7,108.7,89.4,108.7,11.2,0,27.7-2,42.1-12.4,6.8-4.4,9.2-8,12.4-12.8v20.1h57.4V26.2H845.8Zm-81,178.9c0-14.4,2.4-29.3,8.8-40.1,9.6-16,23.7-20.1,33.3-20.1,32.9,0,40.9,31.3,40.9,60.6,0,15.6-1.2,59.8-40.9,59.8-9.6,0-23.7-2-33.3-19.3-8-13.3-8.8-32.5-8.8-40.9m157,104.2h58.6V101.6H921.8V309.3Zm0-229.8h58.6V26.2H921.8V79.5ZM1135,309.3h57.8V101.2h-56.6v26.9c-10.4-20.1-28.5-31.7-51.3-31.7-39.3,0-90.6,30.5-90.6,112.3,0,65,36.9,105.1,86.2,105.1,33.7,0,47.3-17.6,54.5-27.3v22.8Zm-0.4-106.2c0,18.9-2.8,36.9-15.2,50.5-10.4,10.8-22.1,11.6-25.7,11.6-11.6,0-24.9-6.4-32.9-24.5-4.8-10.4-6.4-22.9-6.4-35.7,0-16,2.4-32.5,12.4-45.7,7.2-9.2,18.5-15.2,29.3-15.2a33.45,33.45,0,0,1,23.7,10.4c7.6,7.6,14.8,21.7,14.8,48.6m71.6-101.5V309.4h60.6V241.6c0-53.3.8-63.8,9.6-75.4,7.6-10,19.7-15.2,37.3-15.2a67.47,67.47,0,0,1,14,1.2V98.4c-4-.4-8-0.8-10-0.8-32.9,0-45.3,17.6-53.7,38.1V101.6h-57.8Zm136.1,207.7h58.6V101.6h-58.6V309.3Zm0-229.8h58.6V26.2h-58.6V79.5Zm184.3,16.1c-71.8,0-110.7,48.5-110.7,110.3,0,58.6,35.3,109.5,103.9,109.5,61.8,0,111.1-41.7,111.1-110.7,0-55.8-34.5-109.1-104.3-109.1m43.7,107.5c0,11.2-.8,30.1-10.8,44.9a42.56,42.56,0,0,1-36.1,19.2c-13.6,0-37.3-5.6-44.5-38.9a114.47,114.47,0,0,1-2.4-23.3c0-14.4,2-44.1,25.3-57,7.6-4,16-5.2,22.9-5.2,10,0,24.5,2.4,35.3,18.5,9.5,14.1,10.3,29.7,10.3,41.8m65.2,106.2h59.8V249.5h-59.8v59.8Zm272.2-87c0-12.8,0-31.7-5.6-51.7-10.4-38.1-38.5-75-95.9-75-67,0-106.3,48.9-106.3,109.9,0,55.7,32.5,109.5,105.5,109.5,51.3,0,74.6-25.7,81.8-33.7,12.4-14.4,15.2-24.1,18.1-32.1l-59.8-4.4c-3.6,6.8-12,22.5-38.5,22.5-12.4,0-25.3-3.2-35.3-17.6-7.2-10-8.4-19.3-9.6-27.3h145.6v-0.1Zm-145.2-44.5c2.8-10.4,9.6-36.1,42.9-36.1,4.8,0,21.3,0,32.5,15.2,5.6,8,6.8,14.8,7.6,20.9h-83Zm147.4,60.5c0,9.2.4,22.1,9.2,36.9,13.6,23.7,36.5,32.1,50.1,35.3,10,2.8,23.3,4.8,39.7,4.8,48.5,0,91.1-20.1,91.1-69.8,0-48.1-43.7-58.6-70.6-65-5.6-1.2-29.3-6.8-34.1-8-16.4-4-22.1-8.4-22.1-16.8,0-10.8,8.4-16.8,28.5-16.8,22.9,0,30.9,11.6,31.7,12.8,3.2,4.8,4,10.4,5.2,17.2l55.4-2.8c-1.6-24.1-10.4-42.1-30.1-54.9-17.6-12-39.7-15.6-60.2-15.6-26.5,0-47.7,6-62.6,16.4-22.9,16.4-24.9,37.7-24.9,49.3,0,46.5,37.7,55.8,61.4,61.8,6,1.6,33.3,8,38.9,9.6,12.8,3.2,23.3,6.8,23.3,19.3,0,18.1-21.3,19.3-29.3,19.3-38.9,0-42.1-19.7-44.5-34.5Z" transform="translate(0.04 -0.6)" style="fill:#000000"/></svg>