<?xml version="1.0" encoding="utf-8"?>
<svg version="1.1" id="Layer_1" xmlns="http://www.w3.org/2000/svg" xmlns:xlink="http://www.w3.org/1999/xlink" x="0px" y="0px"
viewBox="0 0 128 128" style="enable-background:new 0 0 128 128;" xml:space="preserve">
<style type="text/css">.st0{fill:#FFFFFF;}</style>
<path class="st0" d="M2.4,22v83.9H126V22H2.4z M123.6,103.5H4.8V24.3h118.8V103.5z"/>
<g>
	<polygon class="st0" points="61.7,41.5 64.2,39.7 66.7,41.5 65.7,38.6 68.3,36.7 65.1,36.7 64.2,33.8 63.2,36.8 60.1,36.7 62.6,38.6"/>
	<polygon class="st0" points="48.7,45 51.2,43.2 53.7,45 52.8,42.1 55.3,40.2 52.2,40.2 51.2,37.2 50.3,40.2 47.1,40.2 49.7,42.1"/>
	<polygon class="st0" points="41.7,46.8 40.8,49.8 37.6,49.8 40.2,51.6 39.2,54.5 41.7,52.7 44.2,54.5 43.3,51.6 45.8,49.8 42.7,49.8"/>
	<polygon class="st0" points="38.2,65.7 40.7,67.5 39.8,64.5 42.3,62.7 39.2,62.7 38.2,59.7 37.3,62.7 34.1,62.7 36.7,64.5 35.7,67.5"/>
	<polygon class="st0" points="42.7,75.7 41.7,72.7 40.8,75.7 37.6,75.7 40.2,77.5 39.2,80.5 41.7,78.7 44.2,80.5 43.3,77.5 45.8,75.7"/>
	<polygon class="st0" points="52.2,85.2 51.2,82.2 50.3,85.2 47.1,85.2 49.7,87 48.7,90 51.2,88.2 53.7,90 52.8,87 55.3,85.2"/>
	<polygon class="st0" points="65.2,88.7 64.2,85.7 63.2,88.7 60.1,88.7 62.6,90.5 61.7,93.5 64.2,91.6 66.7,93.5 65.7,90.5 68.3,88.7"/>
	<polygon class="st0" points="78.1,85.2 77.2,82.2 76.2,85.2 73.1,85.2 75.6,87 74.6,90 77.2,88.2 79.7,90 78.7,87 81.2,85.2"/>
	<polygon class="st0" points="87.6,75.7 86.7,72.7 85.7,75.7 82.6,75.7 85.1,77.5 84.2,80.5 86.7,78.7 89.2,80.5 88.2,77.5 90.8,75.7"/>
	<polygon class="st0" points="94.2,62.7 91.1,62.7 90.1,59.7 89.1,62.7 86,62.7 88.6,64.5 87.6,67.5 90.1,65.6 92.6,67.5 91.7,64.5"/>
	<polygon class="st0" points="84.2,54.5 86.7,52.7 89.2,54.5 88.2,51.5 90.8,49.7 87.6,49.7 86.7,46.7 85.7,49.7 82.6,49.7 85.1,51.5"/>
	<polygon class="st0" points="77.2,37.2 76.2,40.2 73.1,40.2 75.6,42.1 74.7,45 77.2,43.2 79.7,45 78.7,42.1 81.3,40.2 78.1,40.2"/>
</g>
</svg>
