<svg xmlns="http://www.w3.org/2000/svg" viewBox="0 0 397.7 149.5"><path d="M0 104.2V98c.1-.4.2-.9.2-1.4.8-11.3 2.7-22.4 6.1-33.2 3.5-11.1 7.8-21.9 14.6-31.5C31 17.6 44.6 9.6 62.4 9.5h211c.9 0 1.3-.3 1.8-1 2.2-3 5.2-4.4 8.9-3.9 5.7.8 9.1 5.6 8.1 11.5-.2 1.3.2 1.7 1.4 1.7 1.3 0 2.7-.1 4 0s2-.4 2.7-1.5c12.5-19.5 40.4-22.1 55.7-5.1 1.2 1.3 2.3 1.9 4 2.1 7.7.9 14.7 3.6 20.7 8.6 9 7.5 13.6 17.4 15.8 28.7 1.7 9 1.2 18.1.1 27.1-1.3 11.1-4.1 21.8-8.1 32.2-4.1 10.9-9.9 20.8-18.5 28.8-7.6 7.1-16.3 10.7-26.9 10.6-51.5-.2-103-.1-154.5 0H44.3c-2.5 0-5.1 0-7.6-.3-9.1-.9-17.1-4.2-23.6-10.9-6.6-6.9-10.3-15.3-12-24.6-.5-3.1-.7-6.2-1.1-9.3zm193.1 43.2v-.1h151.8c2.3 0 4.6-.1 6.9-.5 7.9-1.5 14.3-5.7 19.8-11.3 7.4-7.5 12.4-16.5 16-26.4 4.8-13.2 8-26.8 8.6-41 .4-8.6-.1-16.9-3-25-5.6-16.4-16.6-26.4-34.2-28.5-1.5-.2-2.4-.7-3.4-1.8-7.7-8.6-17.5-12.3-28.8-11.2-20.1 2-33.8 20.8-29.9 40.6 2.8 14 14 24.7 28.6 27 13.6 2.2 28-5 34.6-17.3 5-9.3 5.6-19 1.9-28.9-.2-.5-.1-1-.2-1.6.5 0 1.1-.1 1.6.1 2.1.9 4.4 1.8 6.4 3 7.3 4.4 11.5 11.2 13.8 19.2 3 10.3 3.6 20.9 2.6 31.6-.9 9.1-2.8 17.9-6.3 26.4-3.5 8.3-7.1 16.5-12.6 23.7-6.4 8.4-14.5 13.4-25.4 13.4-98.1 0-196.1.1-294.2.2-3.8 0-7.6-.4-11.4-1.1-10.8-2.1-19-7.9-23.7-18.1C10 114 8.9 108 8.9 101.7c0-9.9 1.6-19.6 4.1-29.1 2.9-11 6.9-21.6 13-31.3C31.9 32 39.7 25 50.3 21.4c6.5-2.2 13.2-2.7 20-2.7 68.1.1 136.2.1 204.2.1 1.1 0 1.9.3 2.7 1.1 3.3 3.5 8.7 3.3 11.9-.3 3.2-3.5 2.7-9-1.1-11.9-3.7-2.9-9.1-2.1-11.7 1.8-.8 1.2-1.6 1.5-2.8 1.5-64.5-.1-129-.1-193.5-.1-5.6 0-11.3-.1-16.9 0-3.8.1-7.5.4-11.2 1.1-12.1 2.4-21.3 9.3-28.6 18.9-6 7.9-10 16.8-13.4 26C5.7 68.3 3.3 80 2 92c-1 9.3-.7 18.4 2.1 27.4 2.8 9.3 7.9 17.1 16.3 22.2 6.7 4.1 14.1 5.6 21.9 5.7h150.1c.1.1.4.1.7.1zm-108.7-38c-.7 2.8-1.4 6.3-2.2 9.7s-1.6 6.8-2.4 10.3h15c.3 0 .9-.5 1-.8.4-1.2.6-2.5 1-4 .4.5.7.8 1 1.2 1.9 2.4 4.3 3.7 7.3 4.2 7.7 1.2 14.2-1.2 19.4-6.9.8-.9 1.5-1.9 2.3-2.9.1.1.2.3.2.4 1 4.9 4.2 7.7 8.9 8.7 6.8 1.5 13.7 1.5 20.5.3 4.8-.8 9.2-2.7 12.5-6.5.7-.7 1.3-1.6 2-2.5 2.5 6.3 7.4 9 13.7 9.5 3.8.3 7.6.3 11.4.1 7.3-.4 13.6-3.1 18.7-8.3.2-.2.5-.5 1-.9-.7 3.1-1.3 5.8-2 8.7 5.5 0 10.8 0 16.1-.1.3 0 .9-.6 1-1l1.8-7.5c1.1-4.6 1.9-9.2 4.1-13.4 2-3.8 5.2-6.5 10.7-4.4.4.1 1.1-.1 1.3-.4.7-.8 1.3-1.8 2.1-2.9.1.5.3.8.4 1.1 2.1 9.2 4.3 18.3 6.4 27.5.2.9.6 1.2 1.5 1.2h12.3c.8 0 1.3-.3 1.8-1 4.2-6.1 8.5-12.1 12.7-18.1l.9-1.2c0 .7-.1 1.4-.2 2-1.9 9.3 2.9 16.8 11.9 18.5 6.7 1.2 13.4 1 20-.6 6-1.5 10.6-5.1 14.6-9.8-.4-.1-.7-.3-1-.3-4.8-.4-9.5-.8-14.3-1.2-.5 0-1.2.3-1.6.7-2.7 2.2-5.8 3.3-9.3 2.5-3-.7-4.6-3.5-3.7-6.6h1.8c9.5 0 19.1 0 28.7.1 1 0 1.5-.2 1.6-1.3.2-1.8.7-3.6.9-5.4.8-7.1-1.9-12.6-8.1-15.2-2.7-1.1-5.7-1.6-8.6-1.9-7.9-.9-15.4.3-22.2 4.7-.2.1-.5.2-1 .5 1.2-1.7 2.1-3 3.1-4.5-.4-.1-.6-.1-.7-.1h-15.4c-.5 0-1.1.4-1.4.9-2.7 4.6-5.4 9.1-8.1 13.7-1.5 2.6-3 5.3-4.6 7.9-.1 0-.2 0-.3-.1-.8-7.5-1.6-14.9-2.5-22.5-3.3 0-6.6.1-9.9 0-1.8-.1-3.5-.2-5.3-.6-4.8-.9-8.9 0-12.3 3.7l-1.2 1.5c-.1-.1-.2-.2-.4-.3.3-1.4.6-2.8.9-4.4-5.1 0-10 0-15 .1-.3 0-.9.6-1 1-.8 3.3-1.5 6.5-2.3 9.9-.1-.3-.3-.4-.3-.5-1.3-5.6-5-8.8-10.4-10.3-6-1.6-12.1-1.7-18.1-.4-7.9 1.6-14.1 5.7-18.2 12.8-1 1.7-1.6 3.6-2.4 5.4-1.1-.7-2.2-1.8-3.5-2.3-2.9-1-5.9-1.7-8.9-2.3-2.9-.6-5.9-.9-8.9-1.4-.6-.1-1.5-.8-1.6-1.3-.1-.6.4-1.6.9-2 2-1.6 4.3-1.4 6.6-1 1.8.3 3.1 1.4 3.2 3.5 5.4-.4 10.7-.9 16-1.3-.3-4.9-3.9-9-8.8-10-6.6-1.3-13.3-1.3-19.9.1-4.6.9-8.7 2.8-11.5 6.8-4.6 6.7-1.6 13.3 5.1 15 1 .3 2.1.6 3.1.8 3.9.8 7.9 1.5 11.7 2.3.8.2 1.9 1 2.1 1.7.4 1.1-.6 2-1.5 2.6-1.8 1.2-3.9 1.3-6 1.2-3-.1-4.2-1.1-5-3.9-.1-.3-.7-.8-1-.8-2.7.2-5.3.5-8 .7-2.2.2-4.4.3-6.6.5 0-.2-.1-.3 0-.3.2-.4.4-.8.6-1.3 2.1-4.5 3.3-9.2 3-14.2-.3-4.4-2.3-7.8-6.1-10-4.4-2.5-9.1-2.5-13.8-1.2-2.4.6-4.5 1.8-6.8 2.8 1.3-5.5 2.6-11.2 3.8-16.8-.3-.1-.5-.1-.7-.1-5.1 0-10.2 0-15.3-.1-1 0-1.1.6-1.2 1.2-.9 3.9-1.8 7.8-2.6 11.6l-1.7 7.3c-.2-.8-.2-1.2-.2-1.5.1-9.3-4.9-16-13.9-18.5-6.6-1.8-13.4-1.9-20.1-.6-12.1 2.4-20.9 9-25.6 20.5-2.1 5.2-3.3 10.6-2.5 16.1 1.1 8.1 5.9 13.3 13.9 15.4 5.5 1.5 11.2 1.6 16.8 1.1 9.3-1 17.3-4.5 23.3-11.8 2.2-2.6 3.8-5.9 5.5-8.5zm71.3-50.7h-.3c-.1-1.5-.2-2.9-.2-4.4-.4-8.1-.9-16.1-1.2-24.1-.1-1.1-.4-1.5-1.6-1.5-6.8.1-13.6.1-20.3 0-1.2 0-1.5.5-1.7 1.5-3.4 15.4-6.8 30.9-10.2 46.3-.4 1.6-.6 3.2-1 4.9 4.5 0 8.8-.1 13.1 0 1.3 0 1.8-.4 2-1.6 2.4-10.9 4.7-21.7 7.1-32.5.1-.7.4-1.3.5-2 .8 11.6 1.4 23.1 1.9 34.6.1 1.2.3 1.6 1.6 1.6 3.3-.1 6.7-.1 10 0 1.3 0 2-.4 2.6-1.6 5.4-11.1 10.9-22.1 16.4-33.1.2-.4.4-.9.7-1.3.1 0 .1.1.2.1-2.7 11.9-5.3 23.8-8 35.8H182c3.8-17.4 7.7-34.8 11.5-52.2-.4-.1-.6-.1-.9-.1-7-.1-14-.1-21.1-.1-1 0-1.4.5-1.8 1.3L164 41.7c-2.7 5.7-5.5 11.3-8.3 17zm-85.9-9.6c.6-3.5 1.3-7.2 2-10.9-3.3 0-6.4 0-9.5.1-.3 0-.9.7-1 1.2l-1.5 7.8h-5.2c.6-3 1.1-6 1.7-9.2-3 1.3-5.6 2.7-8.3 3.6-2.5.8-3.9 2.2-4 4.9 0 .3-.6.8-1 .9-.9.1-1.8 0-2.8 0-.4 2.5-.9 4.8-1.3 7.3h3.6c-.1.6-.2 1.1-.2 1.6-.5 3.5-1.2 7-1.6 10.5-.2 2.7 1.3 4.5 4 4.9 2.1.3 4.3.3 6.5.2 3-.1 5.9-.4 8.9-.6 1.9-.1 3.8 0 5.8 0 .4-2.3.8-4.4 1.2-6.6.4-2.4.9-4.8 1.5-7.2.5-1.9 1.7-3.2 3.8-3.5 1.9-.2 3 .9 2.7 2.7-.4 2.8-1 5.5-1.5 8.3-.3 2-.7 3.9-1 5.9h10.3c.5-2.8 1-5.3 1.5-8.2 1.4 5.7 4.4 8.1 10.4 8.5 1.7.1 3.5.1 5.2 0 5.1-.2 9.5-1.9 12.9-5.7.4-.5.8-1 1.3-1.6-3-.2-5.7-.4-8.4-.7-1.3-.1-2.4.2-3.5 1-.9.7-2.2 1-3.4 1.1-2.5.2-4.1-1.5-3.8-4.1h1.5c5.8-.1 11.5-.2 17.2-.2.9 0 1.4-.2 1.4-1.2.1-1.1.3-2.2.4-3.4.3-5.2-2.4-8.9-7.5-9.9-2.6-.5-5.2-.7-7.8-.5-3.5.1-7 1.1-9.8 3.4-1.9 1.6-3.4 3.5-4.9 5.1 0-.3.1-1 .1-1.7 0-3.6-1.8-5.9-5.4-6.5-1.3-.2-2.8-.3-4.1.1-2 .8-4.2 1.8-6.4 2.6zm160 32.3c-.1-2.2-.4-4.3-.1-6.2.7-4.3 1.8-8.5 2.7-12.8.6-3.3 1.4-6.6 1.5-9.8.1-4.5-2.3-7.5-6.6-8.9-1.8-.6-3.8-.9-5.8-1.1-5.1-.5-10.1-.5-15.2.2-3.5.5-6.9 1.6-9.9 3.6-2.9 2-4.7 4.7-6 8.1 4.7.5 9.2.9 13.7 1.4 1 .1 1.6-.1 2.2-1 2-2.9 7.7-4.4 10.8-2.9 1.1.5 1.2 1.4 1.2 2.5 0 1-.5 1.4-1.4 1.6-2.2.5-4.4 1.2-6.6 1.7-4.7 1-9.4 1.8-14 2.9-4.9 1.2-8.6 3.9-10.3 8.9-2 5.8.6 10.7 6.6 12 7.1 1.6 13.9.7 20.2-3.3.5-.3.9-.6 1.5-.9.1.9.3 1.7.4 2.4.2 1.1.7 1.6 2 1.6 2.8-.1 5.5 0 8.3 0h4.8zM279 67.7c-4.9-.5-9.5-1-14.1-1.4-.5 0-1.3.4-1.5.8-1.8 2.7-4.1 4.3-7.3 4.7-3.9.5-7.5-1.1-7.5-5.5-.1-3.8 1-7.2 3.5-10.2 1.3-1.5 3-2.6 5-3 4-.7 7.8-.1 8.2 4.4 0 .1.1.1.2.3 5-.6 10.1-1.3 15.2-1.9-.4-6.1-3.8-10.6-9.5-12.3-5.4-1.6-10.9-1.6-16.5-.9-5.8.7-10.8 3.1-15 7.1-4.5 4.2-6.4 9.6-7.3 15.5-1.1 7 2.9 13.9 10.5 15.8 6.9 1.7 13.8 1.8 20.7-.1 6.9-2 12-6.5 15.4-13.3zm87.2 35.9c2.4-3.4 4.8-6.7 7.2-10 .1-.2.2-.4.4-.7-2.4-1.6-5-2.3-7.7-2.3-4.4-.1-7.8 2.1-10.8 5.2.3-1.4.6-2.8.9-4.4h-1.6c-4.1 0-8.3.1-12.4-.1-1.4 0-1.8.5-2.1 1.7-2.5 11-5 21.9-7.5 32.9-.3 1.2-.5 2.3-.7 3.6.5 0 .9.1 1.2.1h14.8c.3 0 .9-.6 1-1 .5-1.8.8-3.6 1.3-5.3 1.3-4.8 2.3-9.7 4.1-14.3 2.2-6.2 5.6-7.5 11.9-5.4z"/><path d="M311.3 38.1c.2-7.5 3.3-13.1 9.2-17.1 1.6-1.1 3.2-.8 4 .7.7 1.4.4 2.6-1.3 3.7-3.4 2.2-5.5 5.3-6.5 9.2-2 8.3 4 16.7 12.5 17.7 8.7 1.1 15.8-5.7 16.4-12.9.5-5.9-1.6-10.4-6.3-13.8-1-.7-1.7-1.6-1.3-2.8.3-.8 1-1.6 1.8-1.9.6-.3 1.6 0 2.2.4 5.6 3.8 8.6 9.1 8.9 15.9.4 9.4-6.1 17.7-15.4 19.9-10.6 2.5-21.9-4.7-23.8-15.5-.3-1.3-.4-2.6-.4-3.5z"/><path d="M333.9 19.2c-.2 6.5-.4 13.3-.6 20-.1 1.7-1.1 2.8-2.7 2.8s-2.9-1.2-2.9-2.8c0-2.1.2-4.1.2-6.2l.3-18.3c0-1.4.5-2.6 1.9-3.2 1.1-.4 2.3-.3 3 .8.4.5.6 1.3.6 1.9.2 1.6.2 3.2.2 5zM43.5 107.8c.3-3.8 1.3-8.2 3.6-12.3 3-5.2 9-7.7 14.8-6.4 4.1.9 6.4 3.5 6.3 8-.1 5.4-1.5 10.6-4.6 15.1-2.4 3.5-6 4.9-10.1 5.2-1 .1-2 .1-3-.1-5.1-1-7.1-3.5-7-9.5zm56.7 5.7c.7-2.3 1.2-4.7 2.2-6.9 1.1-2.5 3.2-4.1 6-4.7 4.1-.8 6.6 1.2 6.3 5.4-.2 3-1 5.9-2.8 8.4-1.4 2-3.5 3.1-5.9 3.3-3.3.3-5.3-1.9-5.3-5.4-.2 0-.4-.1-.5-.1zm117 .9c-.3 1.3-.5 2.6-.9 3.8-.1.3-.7.7-1.1.7-4.6-.4-9.2-.8-13.9-1.2-.4 0-1 .3-1.3.6-2.3 1.9-4.8 3-7.9 2.7-3.9-.2-5.8-2.6-5.3-6.7l30.4.1zm87.7-7.5c1.2-4.9 6.5-8 11.1-6.8 2.9.8 4.1 3.3 3.3 6.8h-14.4zm-101.7-.2h-14.4c1-5.1 7.2-8.6 12.2-6.3 2 .9 2.7 3 2.2 6.3zm-150-52h5.3c-.6 3.4-1.2 6.7-1.8 9.8-1.1.2-2.1.4-3.1.6-1.9.2-2.2-.1-1.9-2 .5-2.7 1-5.5 1.5-8.4zm43 1.7c.7-3 3.7-4.8 6.6-4.1 1.8.4 2.4 1.7 2.1 4.1h-8.7zM216 63.9c.1 4-2.7 7.8-7 9.1-1.6.4-3.3.6-4.9.4-2.1-.2-3.1-2.1-1.9-3.9.7-1.1 2-1.9 3.2-2.6.8-.5 1.7-.7 2.7-.9 2.5-.8 5.2-1.4 7.9-2.1z"/></svg>