<svg viewBox="0 0 697.5 149.2" xmlns="http://www.w3.org/2000/svg"><path d="M240.6 25.1l-.7 3.5h-.2c-.9-2-3.4-4.7-9-4.7-9 0-18.2 7-20.3 18-1.7 9.6 2.9 18.1 13.6 18.1 3.9 0 8.4-1.5 10.8-4.8h.2l-.7 3.6h10l6.3-33.7zm-3.2 16.8c-.7 3.3-3.8 8.7-10 8.7-6.1 0-7.4-5.4-6.9-8.5.7-3.8 4.1-8.7 10-8.7 5.7 0 7.6 4.5 6.9 8.5zm18.8-16.8h9.4l-.7 3.5h.2c1.2-1.6 3.5-4.7 9.3-4.7l-1.9 10.2c-4.7.1-8.2 1-9.1 6.2L260 58.8h-10zm25-13.1h10.1l-4.7 25.3h.2l11.6-12.2h11.9l-15.4 14.8 8.8 18.9h-11.4l-6.5-16.2h-.2l-2.9 16.2h-10.2z"/><path d="M326.4 23.9c-10.2 0-19.3 8.8-21 18.2-1.9 10 4.9 17.9 14.5 17.9 3.4 0 7-1 10.1-3.1 3.2-1.9 6.1-4.8 8.4-8.6h-10.3c-1.7 1.7-3.6 3.1-6.7 3.1-3.9 0-6.9-2.3-6.7-6.4H340c.3-.8.5-1.4.7-2.6 2-10.3-4-18.5-14.3-18.5zm-10.2 14.3c.8-2 3.5-5.8 8.8-5.8s6.5 3.8 6.5 5.8zM197.1 12l-17.8 26.7h-.1V12h-8.6l-31.5 46.8h12.2L169 32.1h.2v26.7h8.6l17.7-26.7h.2v26.7h10.1V12zm169.3 13.1H360l1.9-10H353l-.7 3.8c-.8 4.4-3.5 5.7-7.2 6.1h-.1l-1.5 7.6h5l-4.8 26h10l4.8-26h6.4zm155.8 21C518.9 53.7 511 60 501.9 60c-10.2 0-16.5-8.1-14.7-18.1 1.9-9.9 11-17.9 21.1-17.9 8.9 0 15 6 15.2 14.2h-10.2c-.7-2.3-2.2-4.7-6.4-4.7-4.7-.2-8.7 3.7-9.6 8.5-.9 4.9 1.6 8.6 6.4 8.6 4.1 0 6.7-2.4 8.1-4.5zM438.7 0l-19.6 12h5.5l-17.7 26.7h-.2V12H398l-17.7 26.7h-.2V12H370v46.8h8.8l17.7-26.7h.2v26.7h8.7L436.8 12h5zm19.2 58.8h-10l.7-3.6h-.2c-2.3 3.3-6.9 4.8-10.8 4.8-10.7 0-15.3-8.4-13.6-18.1 2-11 11.2-18 20.3-18 5.5 0 8.1 2.7 9 4.7h.2l.7-3.5h10zm-17-8.2c6.3 0 9.4-5.4 10-8.7.7-4-1.2-8.5-6.9-8.5-5.8 0-9.3 4.8-10 8.7-.5 3.1.8 8.5 6.9 8.5zm48.4-25.5H483l1.9-10H476l-.7 3.8c-.8 4.4-3.5 5.7-7.2 6.1h-.1l-1.4 7.6h5l-4.8 26h10l4.8-26h6.4zM531.7 12h10l-3.1 16.7h.2c2.2-3.1 5.1-4.7 9.5-4.7 3.2 0 6.9 1.2 8.5 3.8 2.2 3.3 1.9 6.3.8 12.3l-3.4 18.8h-10l3.4-18.3c.3-1.6 1.3-7.1-4.1-7.1-5.7 0-6.6 5.1-6.9 6.7l-3.4 18.6h-10zM176.1 89.2l-10.3 53.7c-.7 3.5-2.1 4.1-4.7 4.1h-.7v2.2h12.7V147h-.3c-3.1 0-3.8-.7-3.8-2.5 0-.5.1-1 .2-1.8l1.4-7.9h10.1l1.4 7.9c.1.7.2 1.3.2 1.8 0 1.7-.9 2.5-4 2.5h-.4v2.2h45.3v-20.5h-2v.2c0 8.6-2.1 17.7-10.1 17.7h-4.4V95.4c0-2.4 1.3-3.3 3.3-3.3h1.4v-2.2h-17.7v2.2h1.6c2 0 3.3.9 3.3 3.3v48.2c0 2.5-1.3 3.3-3.3 3.3h-1.2c-1.4 0-3.1-1.1-3.7-4.3l-10.6-53.5zm474.4 0l-10.3 53.7c-.7 3.5-2.2 4.1-4.8 4.1h-.7v2.2h12.7V147h-.3c-3.1 0-3.8-.7-3.8-2.5 0-.5.1-1 .2-1.8l1.4-7.9H655l1.4 7.9c.1.7.2 1.3.2 1.8 0 1.7-.9 2.5-4 2.5h-.4v2.2h45.3v-20.4h-2v.2c0 8.5-2.1 17.6-10.1 17.6H681V95.4c0-2.4 1.3-3.3 3.3-3.3h1.4v-2.2h-17.6v2.2h1.6c2 0 3.3.9 3.3 3.3v48.2c0 2.5-1.3 3.3-3.3 3.3h-1.2c-1.4 0-3.1-1.1-3.7-4.3l-10.6-53.5zm-368 .1c-6.6 0-12.1 4.6-12.1 13.6 0 8.7 5.2 13.9 10.7 18.1 6.2 4.7 10.5 9.6 10.5 16.5 0 6.3-2.4 9.4-7.9 9.4-3.6 0-10.8-3.3-10.8-17.6v-.6h-2v20.4h1.5l1.4-3.1c2.6 1.8 5 3.6 10.4 3.6 7.4 0 13.8-4.3 13.8-14.9 0-10.8-5.2-16.3-12-21.6-6.1-4.8-9.4-7.9-9.4-13.5 0-4.7 2.2-7.6 6.4-7.6 6.6 0 9.9 6.7 9.9 17.8v.6h2V89.9h-1.5l-1.5 2.9c-1.4-1.3-3.9-3.5-9.4-3.5zm235.4 0c-10.1 0-15.4 13.1-15.4 30s5.5 30.3 15.4 30.3c10.1 0 15.6-13.4 15.6-30.3s-5.6-30-15.6-30zm-518 .5v20.6h2v-.2c0-10.1 3.6-17.8 7.8-17.8h1.5v51.2c0 2.4-1.3 3.4-3.3 3.4H6.4v2.2h18.2V147h-1.9c-2 0-3.3-1-3.3-3.4V92.4h1.8c4.2 0 7.8 8.2 7.8 17.8v.2h2V89.8zm32.2 0V92h1.6c2 0 3.3 1 3.3 3.4v48.1c0 2.4-1.3 3.4-3.3 3.4h-1.6v2.2h17.8v-2.2h-1.5c-2 0-3.3-1-3.3-3.4v-23.3h13v23.3c0 2.4-1.3 3.4-3.3 3.4h-1.5v2.2H71v-2.2h-1.5c-2 0-3.3-1-3.3-3.4V95.4c0-2.4 1.3-3.4 3.3-3.4H71v-2.2H53.3V92h1.5c2 0 3.3 1 3.3 3.4V117h-13V95.4c0-2.4 1.3-3.4 3.3-3.4h1.5v-2.2zm40.8 0V92h1.6c2 0 3.2.9 3.2 3.4v48.1c0 2.4-1.2 3.4-3.2 3.4H73v2.2h30.2v-20.3h-2v.2c0 11.1-4.1 17.5-10.7 17.5h-4.7v-26.9h1.3c3.9 0 5.6 3.9 5.6 11.4v.2h2v-25.7h-2v.2c0 7.7-1.8 11.3-5.6 11.3h-1.3V92.4h5c6.7 0 10.4 5.5 10.4 17.6v.2h2V89.8zm44.1 0V92h.2c3 0 4 .7 4.7 4.1l10.6 53.6h3.3l6.9-34.2h.1l6.7 34.2h3.3l10.8-52.2c1-4.9 2.5-5.4 5.3-5.4h.6v-2.2h-13.4v2.2h.5c3.1 0 3.9 1 3.9 3.4 0 .4-.1.9-.2 1.4l-6.4 34.7h-.2L147 97c-.1-.7-.2-1.3-.2-1.9 0-2 .6-3 3.6-3h.3v-2.2h-15.9v2.2h.4c2.4 0 3.1 1.1 3.6 4.1l2.3 12-4.4 23.8h-.1l-6.7-36.2c-.1-.4-.1-1-.1-1.3 0-1.6.6-2.4 2.9-2.4h.3v-2.2h-16zm107.6 0V92h1.6c2 0 3.3.9 3.3 3.3v48.3c0 2.5-1.3 3.3-3.3 3.3h-2.1v2.2H254v-20.4h-2v.2c0 8.5-2.1 17.6-10.1 17.6h-4.4V95.3c0-2.4 1.3-3.3 3.3-3.3h1.4v-2.2zm73.6 0v20.6h2v-.2c0-10.1 3.6-17.8 7.8-17.8h1.6v51.2c0 2.4-1.3 3.4-3.3 3.4h-1.7v2.2h18.2V147H321c-2 0-3.3-1-3.3-3.4V92.4h1.8c4.2 0 7.8 8.2 7.8 17.8v.2h2V89.8zm33.1 0V92h1.7c2 0 3.3.9 3.3 3.4v48.1c0 2.4-1.3 3.4-3.3 3.4h-1.7v2.2h18.1v-2.2h-2.1c-2 0-3-1-3-3.4v-23.4h2.1c3.4 0 5.6 1.6 5.9 7.4l.5 11.1c.3 7.4 2.4 11 7.3 11s6.7-3.6 6.7-8.6v-3h-2.5v2.2c0 3.9-.3 5-1.8 5-1.2 0-1.5-.8-1.6-3.3l-.7-13c-.3-5.6-4.8-9.3-9.7-9.8v-.1c6-1.2 12.8-4.9 12.8-14.7 0-9.4-6.1-14.4-15.9-14.4zm36 0V92h1.6c2 0 3.2.9 3.2 3.4v48.1c0 2.4-1.2 3.4-3.2 3.4h-1.5v2.2h30.2v-20.3h-2v.2c0 11.1-4.1 17.5-10.7 17.5h-4.7v-26.9h1.3c3.9 0 5.6 3.9 5.6 11.4v.2h2v-25.7h-2v.2c0 7.7-1.8 11.3-5.6 11.3h-1.3V92.4h5c6.7 0 10.4 5.5 10.4 17.6v.2h2V89.8zm32.3 0V92h1.6c2 0 3.2.9 3.2 3.4v48.1c0 2.4-1.2 3.4-3.2 3.4h-1.6v2.2h30.3v-20.3h-2v.2c0 11.1-4 17.5-10.7 17.5h-4.7v-26.9h1.3c3.9 0 5.6 3.9 5.6 11.4v.2h2v-25.7h-2v.2c0 7.7-1.8 11.3-5.6 11.3h-1.3V92.4h5c6.7 0 10.4 5.5 10.4 17.6v.2h2V89.8zm32.9 0v20.6h2v-.2c0-10.1 3.6-17.8 7.8-17.8h1.5v51.2c0 2.4-1.3 3.4-3.3 3.4h-1.7v2.2H457V147h-1.9c-2 0-3.3-1-3.3-3.4V92.4h1.8c4.2 0 7.8 8.2 7.8 17.8v.2h2V89.8zm52.6 0V92h1.5c2 0 3.2.9 3.2 3.4v43c0 6.4-1.3 8.5-5.2 8.5-4 0-6.4-3.6-6.4-6.6 2.7-.4 4.8-1.9 4.8-5.5 0-2.8-1.7-4.5-4-4.5-2.2 0-5.1 1.9-5.1 6.5 0 8.4 5.4 12.8 10.7 12.8 7.4 0 13.3-3.5 13.3-12.8V95.4c0-2.5 1.3-3.4 3.3-3.4h1.5v-2.2zm48.3 0V92h1.6c2 0 3.2.9 3.2 3.4v40.5c0 8.2 5.3 13.8 14.3 13.8 8.5 0 11.1-5.9 11.1-13.8V96.3c0-2.7 1.1-4.3 3-4.3h3.1c2 0 3.2 1 3.2 3.4v48.1c0 2.4-1.3 3.4-3.3 3.4h-1.7v2.2H586v-2.2h-2.1c-2 0-3-1-3-3.4v-23.4h2.2c3.4 0 5.6 1.5 5.9 7.4l.5 11.1c.3 7.4 2.4 11 7.3 11s6.7-3.6 6.7-8.6v-3H601v2.2c0 3.9-.3 5-1.8 5-1.2 0-1.5-.8-1.6-3.3l-.7-13c-.3-5.6-4.8-9.3-9.7-9.8v-.1c6-1.2 12.8-4.9 12.8-14.7 0-9.4-6.1-14.4-15.9-14.4h-27.8v2.2h1.7c1.9 0 2.9 1.5 2.9 4.3v40.1c0 7.3-2.8 10.6-7.3 10.6s-7.1-3.9-7.1-10.6v-41c0-2.5 1.2-3.4 3.2-3.4h1.1v-2.2zm70.2 0V92h2.1c2.1 0 2.9 1.6 2.9 3.7v46.9c0 2.9-1.5 4.3-3.3 4.3h-1.7v2.2h12.5v-2.2h-1.5c-1.9 0-3.3-1.4-3.3-4.3v-40h.1l18.5 46.8h2.9V96.3c0-2.9 1.5-4.3 3.3-4.3h1.5v-2.2h-12.5V92h1.6c1.9 0 3.3 1.4 3.3 4.3V128h-.1l-15-38.2zM517.9 92c4.2 0 6.5 3.1 6.5 13.4v28.1c0 9.6-2.1 13.5-6.5 13.5s-6.3-3.7-6.3-13.6v-27.8c0-10.6 2.1-13.6 6.3-13.6zm-173.6.4h1.9c5 0 8.7 2.7 8.7 12 0 9.5-3.1 13.1-8.4 13.1h-2.2zm236.6 0h1.9c5 0 8.6 2.7 8.6 12 0 9.5-3.1 13.1-8.4 13.1h-2.2V92.4zm-405.4 13.3h.1L180 132h-9zm474.3 0h.2l4.4 26.3h-9.1z"/></svg>