<svg id="Layer_1" data-name="Layer 1" xmlns="http://www.w3.org/2000/svg" viewBox="0 0 440 300"><defs><style>.cls-1{fill:#fff;}</style></defs><title>Artboard 1</title><path class="cls-1" d="M302.46,5H183.6c-40.45,0-41.7,31.43-41.7,38.59s-.62,146.24-.62,202.25c0,53.21,48.54,49.17,48.54,49.17H296.24C431.29,295,440,188.57,440,159.32v-22.4C435.33,20.85,340.73,5,302.46,5M272.59,215.64H246.45l-.31-131h28s58.18-4.67,58.18,63.79-59.74,67.21-59.74,67.21"/><path class="cls-1" d="M.32,147.49l108.28-42.94-.62,146s1.56,49.66-53.21,49.66S.45,254,.45,254Z"/><path class="cls-1" d="M108.61,69.09.32,112,.94,49.66S-.61,0,54.15,0s54.32,46.24,54.32,46.24Z"/></svg>