<svg viewBox="0 0 1025.2 240" xmlns="http://www.w3.org/2000/svg"><circle cx="120" cy="120" r="120"/><path d="M136 60H78v120h24v-36h34c23.2 0 42-18.8 42-42s-18.8-42-42-42zm0 60h-34V84h34c9.9 0 18 8.1 18 18s-8.1 18-18 18z" fill="#fff"/><path d="M320 160V80h36.8c17.1 0 26.4 11.5 26.4 25.3 0 13.7-9.4 25.2-26.4 25.2h-20V160zm46-54.7c0-6.6-5.1-10.6-11.7-10.6h-17.7v21.1h17.7c6.7 0 11.7-4 11.7-10.5zm27.3 54.7v-58.3h15v7.7c4.1-5 11.1-9.1 18.2-9.1v14.6c-1.1-.2-2.4-.4-4.1-.4-5 0-11.6 2.8-14 6.5v39zm38.8-29.9c0-16.1 11.3-29.8 30-29.8 18.9 0 30.2 13.7 30.2 29.8S481 160 462.1 160c-18.7 0-30-13.8-30-29.9zm44.6 0c0-8.8-5.2-16.5-14.6-16.5-9.3 0-14.5 7.7-14.5 16.5 0 9 5.2 16.6 14.5 16.6 9.4 0 14.6-7.7 14.6-16.6zm65.9 29.9v-8.7C538.1 157 532 160 525 160c-14.3 0-25.2-10.8-25.2-29.9 0-18.5 10.7-29.8 25.2-29.8 6.7 0 13.1 2.8 17.6 8.7V80h15.1v80zm0-19.8v-20.1c-2.5-3.8-7.9-6.5-12.8-6.5-8.6 0-14.5 6.7-14.5 16.5 0 9.9 5.9 16.6 14.5 16.6 4.9 0 10.4-2.7 12.8-6.5zM611 160v-8.6c-3.9 4.2-10.7 8.6-20 8.6-12.5 0-18.4-6.8-18.4-17.9v-40.4h15v34.5c0 7.9 4.1 10.5 10.5 10.5 5.8 0 10.4-3.2 13-6.5v-38.5h15V160zm26.2-29.9c0-17.4 12.7-29.8 30.2-29.8 11.7 0 18.7 5.1 22.5 10.3l-9.8 9.2c-2.7-4-6.8-6.1-12-6.1-9.1 0-15.4 6.6-15.4 16.5s6.4 16.6 15.4 16.6c5.2 0 9.3-2.4 12-6.2l9.8 9.2c-3.8 5.2-10.8 10.4-22.5 10.4-17.5-.2-30.2-12.6-30.2-30.1zm65.5 14.2v-29.6h-9.4v-13.1h9.4V86.1h15v15.6h11.5v13.1h-11.5v25.6c0 3.7 1.9 6.4 5.2 6.4 2.2 0 4.4-.8 5.2-1.8l3.2 11.4c-2.2 2-6.2 3.7-12.5 3.7-10.5-.1-16.1-5.5-16.1-15.8zM825.1 160v-34.5H788V160h-16.7V80H788v30.9h37.1V80h16.8v80zm70.4 0v-8.6c-3.9 4.2-10.7 8.6-20 8.6-12.5 0-18.4-6.8-18.4-17.9v-40.4h15v34.5c0 7.9 4.1 10.5 10.5 10.5 5.8 0 10.4-3.2 13-6.5v-38.5h15V160zm68.2 0v-35.8c0-7.9-4.1-10.6-10.5-10.6-5.9 0-10.4 3.3-13 6.6V160h-15v-58.3h15v7.3c3.7-4.2 10.7-8.7 19.9-8.7 12.6 0 18.6 7.1 18.6 18.1V160zm32.9-15.7v-29.6h-9.4v-13.1h9.4V86.1h15v15.6h11.5v13.1h-11.5v25.6c0 3.7 1.9 6.4 5.2 6.4 2.2 0 4.4-.8 5.2-1.8l3.2 11.4c-2.2 2-6.2 3.7-12.5 3.7-10.5-.1-16.1-5.5-16.1-15.8z"/></svg>