<svg version="1" xmlns="http://www.w3.org/2000/svg" width="2730.667" height="2730.667" viewBox="0 0 2048.000000 2048.000000"><path d="M976 .6c-2.5.2-12.4.8-22 1.4-144.9 9-291.9 51.9-422.8 123.6-65.8 36.1-132.3 83.3-191.2 135.8-28 24.9-72.5 70.8-98.6 101.6C108.6 519.8 25.7 714.4 5.1 917.5 1 957.8.5 969.4.5 1024s.5 66.2 4.6 106.5c20.6 203.1 103.5 397.7 236.3 554.5 26.1 30.8 70.6 76.7 98.6 101.6 80.8 72 171.4 130.9 266.5 173.1 109.2 48.5 218 76.1 339.5 85.9 26.4 2.1 102.4 3 130.2 1.5 132.8-7.3 252.7-36.4 372.3-90.6 169.1-76.6 318.9-203.4 423.8-358.5 39.1-57.9 69.2-113.5 96.2-177.5 7.8-18.6 21.5-53.7 21.5-55.1 0-.2-131.4-.4-292.1-.4h-292.1l-16.7 16.8c-42.7 43.3-87.2 75.5-140.6 101.7-70.2 34.5-144.5 51.6-224 51.6-35.2 0-60.7-2.1-91.5-7.7-126.8-23-240.1-92.8-317.5-195.5-59-78.3-93-168.2-101.6-268.4-2.4-28.8-1.3-72.9 2.7-104.5 7-55.7 24.4-113 49.5-163.1C638.5 651.1 774 549.4 933 520.6c30.8-5.6 56.3-7.7 91.5-7.7 46.1 0 84.8 4.9 128.4 16.1 89.8 23.3 169.4 69.5 236.2 137.2l16.7 16.8h292.1c160.7 0 292.1-.2 292.1-.4 0-.3-2.9-8.1-6.4-17.5-29.1-77-65.4-147.1-111.3-215.1-91.4-135.2-217.1-249.2-360.2-326.7C1395.2 60 1270 20.6 1139.5 6.1 1099.4 1.6 1083 .8 1031 .5c-27.8-.1-52.5-.1-55 .1z"/><path d="M1499.6 835.1c13.9 35.2 25.5 78 30.5 112.6l1.1 8.3H2045v-5.3c0-19.1-9.4-91.5-16.3-124.7l-1.3-6.5-267.1-.3-267.1-.2 6.4 16.1zM1530.1 1100.2c-5 34.7-16.6 77.5-30.5 112.7l-6.4 16.1 267.1-.2 267.1-.3 1.3-6.5c6.9-33.2 16.3-105.6 16.3-124.8v-5.2h-513.8l-1.1 8.2z"/></svg>