<svg viewBox="0 0 24 30" xmlns="http://www.w3.org/2000/svg"><g fill="#fff"><path d="m22.2 1h-10.2-10.2c-.5 0-.8.3-.8.8v26.4c0 .5.4.8.8.8h10.2 10.2c.5 0 .8-.3.8-.8v-26.4c0-.5-.4-.8-.8-.8zm-.7 26.4h-8.7v-7.1c0-.5-.3-.8-.8-.8s-.8.4-.8.8v7.2h-8.7v-24.9h8.7v7.1c0 .5.3.8.8.8s.8-.4.8-.8v-7.2h8.7z"/><path d="m545.9 338h-10.6c-.4 0-.8-.3-.8-.8v-26.4c0-.5.3-.8.8-.8h10.6c.4 0 .8.3.8.8v10.9c0 .4-.3.8-.8.8s-.8-.3-.8-.8v-10.1h-9.1v24.9h9v-1.2c0-.4.3-.8.8-.8s.8.3.8.8v2c.1.4-.3.7-.7.7z"/><path d="m546.6 326.3v5c0 .4-.3.8-.8.8-.4 0-.8-.3-.8-.8v-5c0-.4.3-.8.8-.8.4 0 .8.3.8.8z"/><path d="m14.5 15.8h-5c-.4 0-.8-.3-.8-.8 0-.4.3-.8.8-.8h5c.4 0 .8.3.8.8 0 .4-.3.8-.8.8z"/></g></svg>