<svg enable-background="new 0 0 24 30" viewBox="0 0 24 30" xmlns="http://www.w3.org/2000/svg"><g fill="#fff"><path d="m16.9 29h-10.6c-.4 0-.8-.3-.8-.8v-26.4c0-.5.3-.8.8-.8h10.6c.4 0 .8.3.8.8v10.9c0 .4-.3.8-.8.8s-.8-.3-.8-.8v-10.1h-9.1v24.9h9v-1.2c0-.4.3-.8.8-.8s.8.3.8.8v2c.1.4-.3.7-.7.7z"/><path d="m16.9 23c-.4 0-.8-.3-.8-.8v-5c0-.4.3-.8.8-.8s.8.3.8.8v5c0 .5-.4.8-.8.8z"/><path d="m16.9 23c-.4 0-.8-.3-.8-.8v-5c0-.4.3-.8.8-.8s.8.3.8.8v5c0 .5-.4.8-.8.8z"/><path d="m19.3 20.6h-5c-.4 0-.8-.3-.8-.8 0-.4.3-.8.8-.8h5c.4 0 .8.3.8.8 0 .4-.3.8-.8.8z"/></g></svg>