<?xml version="1.0" encoding="utf-8"?>
<!-- Generator: Adobe Illustrator 22.0.1, SVG Export Plug-In . SVG Version: 6.00 Build 0)  -->
<svg version="1.1" xmlns="http://www.w3.org/2000/svg" xmlns:xlink="http://www.w3.org/1999/xlink" x="0px" y="0px" width="295px"
	 height="97px" viewBox="0 0 295 97" style="enable-background:new 0 0 295 97;" xml:space="preserve">
<style type="text/css">
	.st0{fill:#121212;}
</style>
<g id="Ebene_1">
	<path class="st0" d="M66.9,51.7c1-0.5,2.1-1.1,3.1-1.6c0.4-0.2,1.8-0.7,2-1.1c0.1-0.2,0-0.8,0-1.1c0-0.8,0-1.6,0-2.4
		c0-5.7,0-11.4,0-17.1c0-5.6,0-11.1,0-16.7c0-0.7,0-1.5,0-2.2c0-0.1,0.1-0.8,0-0.9c-0.1-0.1-0.9,0-1,0c-0.7,0-1.5,0-2.2,0
		c-0.8,0-0.7,0.1-1.2,0.7c-1.9,2.5-3.8,5-5.7,7.6c-0.9,1.2-1.8,2.3-2.6,3.5c-0.6,0.8-0.6,0.9-1.7,0.9c0.1-2.2,0.2-4.4,0.3-6.6
		c0.1-1.6,0.1-3.2,0.2-4.8c0-0.6,0.1-1.2,0.1-1.8c0-0.2-0.1-0.8,0-0.9c0.2-0.3,2-0.1,2.5-0.1c2.4,0,4.8,0,7.2,0c6.5,0,13.1,0,19.6,0
		c2.7,0,5.3,0,8,0c0.9,0,1.7,0,2.6,0c0.2,0,1.1-0.1,1.3,0c0.2,0.1,0.1,0.7,0.1,1c0.1,1.3,0.1,2.7,0.2,4c0.1,2.9,0.2,5.7,0.4,8.6
		c0,0.2,0,0.4,0,0.6c-0.5,0-0.9,0.1-1.3-0.2c-0.4-0.3-0.7-0.9-1-1.3c-1.2-1.6-2.4-3.3-3.7-4.9c-1.2-1.6-2.4-3.2-3.6-4.8
		c-0.2-0.3-0.5-1-0.9-1.2c-0.3-0.2-0.9-0.1-1.3-0.1c-0.5,0-1,0-1.6,0c-0.2,0-1-0.1-1.2,0c-0.1,0.1,0,0.1-0.1,0.3
		c-0.2,0.8,0,1.8,0,2.6c0,3.6,0,7.1,0,10.7c0,8,0,16.1,0,24.1c0,0.7-0.2,1.7,0,2.4c0.2,0.7,1.8,1.2,2.5,1.5c0.7,0.4,1.9,0.7,2.5,1.3
		c0.2,0.2,0.4,1.2,0.2,1.5c-0.1,0.1-0.6,0-0.7,0c-0.6,0-1.2,0-1.8,0c-4.1,0-8.2,0-12.3,0c-2,0-4,0-5.9,0c-0.7,0-1.4,0-2,0
		c-0.2,0-0.9,0.1-1,0C66.8,52.8,66.9,52,66.9,51.7z M104,49.9c0-4.9,0-9.8,0-14.6c0-8,0-15.9,0-23.9c0-1.3,0-2.6,0-3.9
		c0-0.6,0.2-1.5,0-2.1c-0.2-0.7-1.4-0.8-2.1-1.1c-0.4-0.1-1.7-0.4-1.9-0.8c0-0.1,0-0.8,0-0.8c0,0,0.2,0,0.3,0
		c0.4-0.2,1.2-0.2,1.7-0.3c0.9-0.2,1.8-0.3,2.6-0.5c2-0.4,4.1-0.8,6.1-1.1c1.2-0.2,2.4-0.5,3.6-0.7c0.3,0,1.5-0.2,1.6,0
		c0.1,0.1,0,0.5,0,0.6c0,6.7,0,13.4,0,20.1c0,0.2,0,0.4,0,0.6c3.8-3.8,10.4-5.9,15.7-4.6c4.6,1.1,6.1,5.4,6.1,9.8
		c0.1,5.6,0,11.1,0,16.7c0,1.5,0,3,0,4.5c0,0.5-0.2,1.7,0,2.2c0.1,0.2,0.5,0.3,0.7,0.5c0.7,0.4,1.5,0.8,2.2,1.2
		c0.1,0.1,0.4,0.2,0.4,0.3c0.1,0.1,0.1,1,0,1.1c-0.1,0.2-0.1,0.1-0.4,0.1c-1.1,0.2-2.3,0-3.3,0c-1.7,0-3.5,0-5.2,0
		c-3.1,0-6.2,0-9.2,0c-0.1,0-0.6,0.1-0.7,0c-0.1-0.1-0.1-1.2,0-1.3c0.3-0.4,1.5-0.8,1.9-1.1c0.3-0.2,1.2-0.5,1.4-0.8
		c0.2-0.3,0-1.4,0-1.7c0-1.4,0-2.7,0-4.1c0-5.8,0.1-11.7,0-17.5c0-1.7-0.3-3.7-2-4.6c-0.9-0.5-2.1-0.6-3.1-0.6
		c-0.8,0-1.6,0.2-2.3,0.4c-0.6,0.2-1.7,0.6-2.1,1.1c-0.3,0.4-0.1,1-0.1,1.5c0,1.2,0,2.5,0,3.7c0,6.6,0,13.3,0,19.9
		c0,0.5-0.2,1.5,0,1.9c0.1,0.2,0.5,0.4,0.8,0.5c0.7,0.4,1.6,0.8,2.3,1.2c0.1,0.1,0.3,0.1,0.3,0.2c0.1,0.1,0.1,1,0,1.1
		c-0.1,0.1-0.2,0.1-0.4,0.1c-1.1,0.1-2.3,0-3.4,0c-3.6,0-7.1,0-10.7,0c-1.2,0-2.5,0-3.7,0c-0.1,0-0.6,0.1-0.7,0
		c-0.1-0.1,0-1.1,0.1-1.3c0.3-0.4,1.4-0.8,1.8-1C103,50.5,103.5,50.2,104,49.9z M151.5,36.1c0.2,4.4,1.6,9.3,5.6,11.7
		c2.1,1.2,4.7,1.6,7.1,1.4c2.9-0.3,5.3-1.7,7.8-3c0,0.4,0.1,1.1,0,1.5c-0.2,0.4-0.7,0.9-1,1.2c-0.4,0.4-0.9,0.9-1.4,1.3
		c-1.7,1.4-3.6,2.4-5.6,3.1c-3.8,1.3-8.2,1.2-12.1,0.2c-3.1-0.8-5.9-2.3-8-4.7c-2.1-2.4-3.3-5.5-3.8-8.7c-1.1-6.9,0.2-14.8,5.9-19.4
		c5-4,13-4.8,18.9-2.4c7.2,2.9,8.4,11.1,8.4,17.9c-6.4,0-12.8,0-19.1,0C153.3,36.1,152.4,36.1,151.5,36.1z M151.3,34.4
		c2-0.1,4-0.2,6.1-0.4c1.2-0.1,2.5-0.1,3.7-0.2c0.2,0,0.7,0,0.9-0.1c0.3-0.2,0.1-2.2,0.1-2.6c-0.1-3.6-0.2-8-2.3-11.1
		c-1.5-2.2-3.8-1.8-5.2,0.2C151.7,24.1,151.3,29.9,151.3,34.4L151.3,34.4z M-0.1,70.9c0-5.6,1.1-11.4,4.2-16.1c3-4.6,7.8-7.6,13-9.1
		c6.3-1.8,13.3-1.6,19.8-0.4c1.4,0.3,2.8,0.6,4.1,1c0.2,0.1,1.1,0.3,1.2,0.5c0,0.1,0,0.2,0,0.3c0.3,1.2,0.1,2.7,0.1,3.9
		c0.1,3.1,0.1,6.3,0.2,9.4c-0.4,0-1.1,0.1-1.4,0c-0.2-0.1-0.4-0.6-0.5-0.8c-0.8-1.2-1.6-2.4-2.3-3.7c-1.7-2.7-3.5-5.4-5.2-8.1
		c-0.9-1.5-3.4-1.5-5-1.5c-1.8,0-3.6,0.3-5.1,1.2c-3.4,2.1-5,6.2-5.9,9.9c-1.4,5.9-1.3,12.1-1,18.1c0.3,4.6,0.7,9.5,2.5,13.7
		c1.1,2.6,3,4.9,5.9,5.5c0.9,0.2,1.8,0.2,2.8,0.1c0.6-0.1,2.7-0.2,3-0.8c0.1-0.2,0-0.7,0-0.9c0-0.6,0-1.1,0-1.7c0-3.5,0-7,0-10.6
		c0-1.4,0-2.7,0-4.1c0-0.7,0.2-1-0.4-1.4c-0.7-0.4-1.5-0.8-2.2-1.3c-0.5-0.3-1.5-0.6-1.8-1c-0.2-0.2-0.3-1.3-0.1-1.5
		c0.1-0.2,0.1-0.1,0.4-0.1c0.9-0.2,2.1,0,3,0c1.6,0,3.2,0,4.9,0c3.5,0,7.1,0,10.6,0c1,0,2.1-0.1,3.1,0c0.1,0,0.4,0,0.4,0
		c0.1,0.1,0.1,1.5,0,1.7c-0.2,0.3-1.2,0.7-1.6,0.9c-0.7,0.4-1.5,0.8-2.2,1.3c-0.8,0.4-0.7,0.4-0.7,1.3c0,3.1,0,6.3,0,9.4
		c0,1.7,0,3.4,0,5.1c0,0.6,0,1.2,0,1.8c0,0.2,0.1,0.7,0,0.9c-0.2,0.5-2.3,0.8-2.9,1c-1.7,0.5-3.5,0.9-5.3,1.2
		c-3.5,0.6-7,0.8-10.5,0.7c-5.6-0.2-11.5-1.4-16.1-4.8c-4-2.9-6.6-7.3-7.8-12.1C0.2,77-0.1,73.9-0.1,70.9z M46,61.8
		c0-0.2-0.1-1,0-1.1c0.1-0.1,0.2,0,0.3-0.1c0.6-0.3,1.4-0.3,2.1-0.4c2.3-0.4,4.6-0.8,7-1.2c1.8-0.3,3.6-0.7,5.3-0.9
		c0.5-0.1,1.1-0.1,1.6,0.1c0.5,0.1,0.3,0,0.4,0.4c0.2,1.2,0,2.6,0,3.8c0,2.2,0,4.4,0,6.6c0,4.8,0,9.5,0,14.3c0,2.5-0.7,7.1,1.7,8.6
		c1.2,0.8,2.9,0.8,4.3,0.5c1.1-0.2,3.2-1,3.6-2.2c0.1-0.3,0-0.7,0-1c0-0.7,0-1.4,0-2.1c0-4.6,0-9.2,0-13.9c0-2.1,0-4.3,0-6.4
		c0-0.7,0-1.4,0-2.1c0-0.2,0.1-0.8,0-1C72,63.4,71,63.1,70.7,63c-0.6-0.2-1.1-0.5-1.7-0.7c-0.2-0.1-0.9-0.2-1-0.4
		c-0.1-0.1-0.1-1,0-1.1c0.1-0.1,0.1,0,0.2-0.1c0.5-0.3,1.4-0.2,1.9-0.3c4.1-0.7,8.3-1.6,12.5-2.2c0.5-0.1,1-0.1,1.5,0
		c0.5,0.1,0.3-0.1,0.4,0.4c0.2,1,0,2.4,0,3.5c0,4.5,0,9,0,13.5c0,4.4,0,8.9,0,13.3c0,0.7,0,1.3,0,2c0,0.3-0.1,0.8,0,1.2
		c0.1,0.3,0,0.2,0.5,0.4c1,0.4,2.1,0.9,3.1,1.3c0.3,0.1,0.4,0.1,0.5,0.3c0.1,0.2,0.1,0.9,0,0.9c-0.2,0.2-1.2,0.1-1.4,0.2
		c-2.2,0.3-4.4,0.5-6.7,0.8c-2,0.2-4,0.5-5.9,0.7c-0.4,0.1-0.8,0.1-1.2,0c-0.2,0-0.8,0-0.9-0.1c-0.1-0.2,0-1,0-1.2
		c0-0.6,0-1.2,0-1.7c0-0.3,0.2-1.1,0-1.4c-0.2-0.3-0.6,0.1-0.9,0.3c-0.8,0.7-1.7,1.4-2.6,1.9c-3.3,2-7.4,2.9-11.2,2.1
		c-2.8-0.6-5.2-2.2-6.4-4.9c-0.9-1.9-1.1-4-1.1-6c0-4,0-8,0-11.9c0-2.3,0-4.6,0-6.8c0-0.8,0-1.5,0-2.3c0-0.2,0.1-0.8,0-1
		c-0.2-0.3-1.4-0.6-1.7-0.8C47.6,62.5,46.8,62.2,46,61.8z M140.3,58c0.2,0,1.1,0,1.2,0.2c0.1,0.1,0,0.8,0,0.9c0,1.4,0,2.8,0,4.3
		c0,1.5,0,3,0,4.5c0,0.3-0.1,0.8,0,1.1c0,0,0,0.2,0,0.2c0.4,0.4,0.5-0.9,0.6-1c0.9-3.7,2.6-8,6.4-9.5c0.7-0.3,1.4-0.4,2.1-0.5
		c0.6,0,2.3-0.2,2.6,0.3c0.1,0.2,0,0.7,0,0.9c0,0.6,0,1.3,0,1.9c0,2.8,0,5.5,0,8.3c-2.4-0.5-5.1-0.4-7.4,0.1c-1.1,0.2-2.1,0.5-3.1,1
		c-0.5,0.2-0.6,0.1-0.7,0.5c-0.1,0.4,0,1.1,0,1.5c0,0.9,0,1.9,0,2.8c0,4.8,0,9.5,0,14.3c0,0.7,0,1.5,0,2.2c0,0.2-0.1,0.5,0,0.7
		c0.2,0.3,0.9,0.5,1.2,0.6c0.5,0.3,1.1,0.6,1.6,0.9c0.2,0.1,0.5,0.2,0.6,0.4c0.1,0.1,0.1,1.3,0,1.4c-0.1,0.1-0.7,0-0.9,0
		c-0.8,0-1.7,0-2.5,0c-2.4,0-4.8,0-7.3,0c-2.3,0-4.5,0-6.8,0c-0.5,0-1.4,0.2-1.8,0c-0.1,0-0.2,0-0.3,0c-0.1-0.1,0-1.2,0-1.3
		c0.2-0.6,1.5-1,2.1-1.3c0.4-0.2,1.2-0.5,1.4-0.9c0.1-0.2,0-0.8,0-1c0-0.7,0-1.4,0-2.1c0-8.6,0-17.1,0-25.7c0-0.1,0.1-0.6,0-0.7
		c-0.1-0.1-0.6-0.2-0.8-0.2c-0.6-0.2-1.2-0.4-1.8-0.5c-0.6-0.2-2.1-0.3-1.6-1.3c0.1-0.3,0.5-0.2,0.9-0.3c4.4-0.8,8.7-1.6,13.1-2.4
		C139.5,58.1,139.9,58.1,140.3,58z M178,58.9c0-2.7,0-5.4,0-8c0-0.8,0-1.5,0-2.3c0-0.3,0.1-0.9,0-1.2c-0.1-0.2-0.5-0.3-0.8-0.4
		c-0.8-0.3-1.6-0.6-2.5-0.9c-0.6-0.2-0.9-0.1-0.9-0.8c0-0.6-0.1-0.4,0.4-0.5c1.1-0.4,2.4-0.4,3.5-0.6c3.3-0.6,6.5-1.2,9.8-1.8
		c0.7-0.1,1.4-0.3,2.1-0.2c0.8,0.1,0.9-0.1,0.9,0.6c0.1,1.6,0,3.3,0,4.9c0,6.4,0,12.9,0,19.3c0,6.5,0,13,0,19.5c0,1.7,0,3.3,0,5
		c0,0.4-0.1,0.4,0.2,0.6c0.6,0.4,1.6,0.6,2.2,0.8c0.4,0.1,1.5,0.3,1.7,0.6c0.1,0.1,0.1,1.2,0,1.3c-0.1,0.1-0.7,0.1-0.8,0.1
		c-1.4,0.2-2.7,0.4-4.1,0.5c-3.1,0.4-6.2,0.8-9.4,1.2c-0.5,0.1-1.7,0.3-1.9-0.1c-0.2-0.4,0-1.7,0-2.1c0-0.3,0.2-1.6,0-1.8
		c-0.2-0.2-2.4,1.8-2.7,2c-1.2,0.8-2.5,1.4-3.9,1.8c-2.2,0.6-4.7,0.6-6.9,0.1c-9.6-2.2-11.6-13.6-10.8-21.9c0.4-4.4,1.8-8.8,4.8-12
		c2.8-2.9,6.6-4.4,10.5-4.7C172.4,57.6,175.3,57.8,178,58.9z M178,90.8c0-8.2,0-16.4,0-24.6c0-1.5,0-3.1,0-4.6
		c0-0.6-0.1-0.7-0.8-1.1c-1.4-0.8-3.2-1.1-4.7-0.5c-2.3,0.9-3.4,3.6-4,5.8c-1.2,4-1.3,8.3-1.2,12.5c0.1,3.6,0.2,8,2.2,11.2
		C171.3,92.3,175.4,93,178,90.8z M211.1,58c0.5,0.1,1.1-0.1,1.3,0.4c0.1,0.3,0,1,0,1.3c0,1.9,0,3.8,0,5.6c0,5.5,0,10.9,0,16.4
		c0,2.3,0,4.7,0,7c0,0.8,0,1.6,0,2.3c0,0.4-0.1,1,0,1.4c0.1,0.4,0.5,0.5,0.9,0.7c0.6,0.3,1.1,0.6,1.7,0.9c0.2,0.1,0.8,0.3,0.9,0.6
		c0,0.1,0.1,1.3,0,1.4c0,0-0.3,0-0.3,0c-0.6,0.1-1.4,0-2.1,0c-5.1,0-10.1,0-15.2,0c-0.4,0-1.5,0.2-1.8,0c-0.2-0.1-0.3-1.3-0.1-1.5
		c0.2-0.3,0.9-0.5,1.2-0.6c0.6-0.3,1.2-0.7,1.8-1c0.5-0.3,0.4-0.2,0.4-0.6c0.2-1.5,0-3.2,0-4.7c0-2.6,0-5.2,0-7.9
		c0-4.8,0-9.6,0-14.4c0-0.4,0.1-1.1,0-1.5c-0.1-0.4-0.6-0.4-1-0.6c-0.7-0.3-1.3-0.5-2-0.8c-0.2-0.1-1-0.2-1.2-0.5
		c-0.1-0.1-0.1-1.1,0-1.2c0.1-0.1,0.3,0,0.4-0.1c0.8-0.3,1.7-0.3,2.6-0.5c1.3-0.2,2.5-0.5,3.8-0.7c2.5-0.4,4.9-0.9,7.4-1.3
		C210.3,58.2,210.7,58.1,211.1,58z M212.5,48.7c-0.2,6-8.3,8.6-12,3.9c-1.7-2.2-1.8-5.2-0.3-7.5c1.5-2.3,4.4-3.3,7.1-2.7
		C210.3,43,212.5,45.6,212.5,48.7z M256.3,92.6c0-8,0-16,0-24.1c0-1.5,0-3.1,0-4.6c0-0.1,0.1-0.6,0-0.7c-0.1-0.2-0.7-0.3-0.9-0.3
		c-0.6-0.2-1.2-0.4-1.8-0.6c-0.3-0.1-1.1-0.2-1.3-0.5c-0.2-0.2-0.1-0.7-0.1-1c0-0.6,0.2-0.5,0.8-0.6c2.2-0.4,4.4-0.8,6.6-1.2
		c2.2-0.4,4.4-0.8,6.6-1.2c0.4-0.1,0.7-0.2,1.1-0.2c0.2,0,1.2,0,1.4,0.1c0.1,0.1,0,0.7,0,0.9c0,0.6,0,1.2,0,1.9c0,0.3-0.2,1.2,0,1.5
		c0.2,0.4,0.6,0,0.9-0.3c0.9-0.7,1.8-1.3,2.8-1.8c3.6-2,7.9-2.9,12-2.3c2.8,0.4,5.1,1.9,6.1,4.6c0.7,1.9,0.8,3.9,0.8,5.9
		c0,4.3,0,8.5,0,12.8c0,2.4,0,4.9,0,7.3c0,0.9,0,1.8,0,2.7c0,0.4-0.1,1.1,0,1.5c0.1,0.4,0.4,0.5,0.9,0.7c0.5,0.3,1.1,0.6,1.6,0.9
		c0.2,0.1,0.9,0.3,1,0.6c0.1,0.2,0.1,1.2,0,1.3c-0.1,0.2,0.1,0-0.2,0.1c-0.4,0.2-1.3,0-1.8,0c-4.8,0-9.5,0-14.3,0
		c-0.6,0-2.9,0.3-3.2-0.1c-0.1-0.1-0.1-1.2,0-1.4c0.1-0.2,0.7-0.4,0.9-0.5c0.6-0.3,1.1-0.6,1.7-0.9c0.2-0.1,0.8-0.3,0.9-0.5
		c0.1-0.2,0-0.6,0-0.8c0-0.7,0-1.5,0-2.2c0-2.3,0-4.7,0-7c0-4.5,0-9,0-13.5c0-1.6,0.1-3.4-0.9-4.8c-0.8-1.2-2.2-1.5-3.6-1.6
		c-1.1,0-2.1,0.1-3.1,0.4c-0.5,0.2-2,0.6-2.3,1.2c-0.1,0.2,0,0.6,0,0.8c0,0.7,0,1.4,0,2.1c0,2.2,0,4.4,0,6.6c0,4.9,0,9.9,0,14.8
		c0,0.8,0,1.6,0,2.4c0,0.3-0.1,1,0,1.3c0.1,0.4,0.7,0.5,1,0.7c0.5,0.3,1.1,0.6,1.6,0.9c0.2,0.1,0.6,0.3,0.7,0.4
		c0.1,0.1,0.1,1.3,0,1.4c0,0.1-0.1,0-0.2,0c-0.4,0.2-1.4,0-1.8,0c-2.3,0-4.7,0-7,0c-2.5,0-4.9,0-7.4,0c-0.8,0-1.6,0-2.4,0
		c-0.5,0-0.6,0.1-0.7-0.2c-0.1-0.2-0.1-1.1,0-1.3c0.1-0.2,0.7-0.4,0.9-0.5C254.6,93.6,255.4,93.1,256.3,92.6z M235.1,74.2
		c0-2.6,0.1-5.3-0.1-8c-0.3-2.9-1.1-6.1-4.4-6.7c-1-0.2-2.8-0.5-3.5,0.3c-0.7,0.7-1.2,1.7-1.8,2.5c-1.7,2.3-3.4,4.6-5.1,6.9
		c-0.3,0.4-0.6,1.2-1,1.4c-0.1,0.1-1.1,0.1-1.1,0c-0.1-0.1,0-0.8,0-1c0-2.7,0-5.4,0-8.1c0-0.3-0.1-0.8,0-1.1c0.2-0.5,2.4-0.8,2.9-1
		c2.8-0.7,5.7-1.2,8.6-1.4c4.1-0.3,8.7-0.2,12.5,1.6c3,1.4,4.9,3.9,5.4,7.1c0.3,1.6,0.2,3.4,0.2,5c0,5.6,0,11.2,0,16.8
		c0,1.1,0,2.1,0,3.2c0,0.3-0.2,1.1,0,1.3c0.1,0.1,0.6,0.2,0.7,0.2c0.8,0.2,1.5,0.4,2.3,0.6c0.5,0.1,0.6,0.1,0.6,0.6
		c0,0.5,0.1,0.5-0.5,0.7c-0.7,0.3-1.4,0.6-2.1,0.8c-3.7,1.1-9.5,1.4-12.2-2c-0.2-0.3-0.8-1.6-1.1-1.7c-0.4-0.1-1.6,1.5-2,1.8
		c-1.6,1.4-3.7,2.2-5.8,2.5c-3.9,0.5-8.1-0.3-10.5-3.7c-2-2.9-2.4-7.4-0.9-10.6c2.7-6.1,10.7-6.7,16.5-7.7
		C233.4,74.5,234.2,74.3,235.1,74.2z M235.1,90.8c0-4.9,0-9.9,0-14.8c-3,0.2-6.1,0.4-7.2,3.7c-0.8,2.2-0.8,4.8-0.5,7.1
		c0.2,1.6,0.6,3.6,2.1,4.6C231.1,92.5,233.8,92.3,235.1,90.8z M108.5,74.2c0-2.6,0.1-5.3-0.1-8c-0.3-2.9-1.1-6.1-4.4-6.7
		c-1-0.2-2.8-0.5-3.5,0.3c-0.7,0.7-1.2,1.7-1.8,2.5c-1.7,2.3-3.4,4.6-5.1,6.9c-0.3,0.4-0.6,1.2-1,1.4c-0.1,0.1-1.1,0.1-1.1,0
		c-0.1-0.1,0-0.8,0-1c0-2.7,0-5.4,0-8c0-0.3-0.1-0.8,0-1.1c0.2-0.5,2.3-0.8,2.9-1c2.8-0.7,5.7-1.2,8.5-1.4c4.1-0.3,8.7-0.2,12.5,1.6
		c3,1.4,4.9,3.9,5.4,7.1c0.3,1.6,0.2,3.4,0.2,5c0,5.6,0,11.2,0,16.8c0,1.1,0,2.1,0,3.2c0,0.3-0.2,1.1,0,1.3c0.1,0.1,0.6,0.2,0.7,0.2
		c0.8,0.2,1.5,0.4,2.3,0.6c0.5,0.1,0.6,0.1,0.6,0.6c0,0.5,0.1,0.5-0.5,0.7c-0.7,0.3-1.4,0.6-2.1,0.8c-3.7,1.1-9.5,1.4-12.2-2
		c-0.2-0.3-0.8-1.6-1.1-1.7c-0.4-0.1-1.6,1.5-1.9,1.8c-1.6,1.4-3.7,2.2-5.8,2.5c-3.9,0.5-8.1-0.3-10.5-3.7c-2-2.9-2.4-7.4-0.9-10.6
		c2.7-6.1,10.7-6.7,16.4-7.7C106.8,74.5,107.6,74.3,108.5,74.2z M108.5,90.8c0-4.9,0-9.9,0-14.8c-3,0.2-6.1,0.4-7.2,3.7
		c-0.8,2.2-0.8,4.8-0.5,7.1c0.2,1.6,0.6,3.6,2.1,4.6C104.5,92.5,107.2,92.3,108.5,90.8z"/>
</g>
<g id="Ebene_2">
</g>
</svg>
