<svg xmlns="http://www.w3.org/2000/svg" viewBox="0 0 51.8 48.7"><path d="M15.8 15.6c0 1.1-.9 2-2 2s-2-.9-2-2V6c0-3.3 2.7-6 6-6h28c3.3 0 6 2.7 6 6v36.7c0 3.3-2.7 6-6 6H15.5c-1.1 0-2-.9-2-2s.9-2 2-2h30.3c1.1 0 2-.9 2-2V6c0-1.1-.9-2-2-2h-28c-1.1 0-2 .9-2 2v9.6zm1.9 19.6c.9-1.2 2.3-2 4-2 2.7 0 5 2.2 5 5s-2.2 5-5 5c-2.3 0-4.3-1.6-4.8-3.8v-.1l-2.6-5.9-2.6 5.9v.1c-.5 2.2-2.5 3.8-4.8 3.8-2.7 0-5-2.2-5-5s2.2-5 5-5c1.6 0 3 .8 4 2l2.1-4.9-4.9-10.8c-.3-.6 0-1.4.6-1.6.6-.3 1.4 0 1.6.6l3.8 8.7 3.8-8.7c.3-.6 1-.9 1.6-.6.6.3.9 1 .6 1.6l-4.7 10.8 2.3 4.9zm-8.5 3c0-1.4-1.1-2.5-2.5-2.5s-2.5 1.1-2.5 2.5 1.1 2.5 2.5 2.5 2.5-1.1 2.5-2.5zm14.9 0c0-1.4-1.1-2.5-2.5-2.5s-2.5 1.1-2.5 2.5 1.1 2.5 2.5 2.5 2.5-1.1 2.5-2.5z"/><path d="M37.2 5.9c-4.8 0-8.8 3.9-8.8 8.8s3.9 8.8 8.8 8.8 8.8-3.9 8.8-8.8-4-8.8-8.8-8.8zm-4.3 8.7c0-1.2.1-2.3.4-3.3h3.5v6.5h-3.5c-.3-.9-.4-2-.4-3.2zm4.7-7.8c1.3.3 2.5 1.7 3.2 3.8h-3.2V6.8zm-.9 0v3.8h-3.2c.7-2.1 1.9-3.6 3.2-3.8zm0 11.9v3.8c-1.3-.3-2.5-1.7-3.2-3.8h3.2zm.9 3.8v-3.8h3.2c-.7 2.1-1.9 3.6-3.2 3.8zm0-4.6v-6.5H41c.3 1 .4 2.1.4 3.3S41.3 17 41 18h-3.4zm4.3-6.5h2.5c.4 1 .7 2.1.7 3.3s-.3 2.3-.7 3.3h-2.5c.2-1 .4-2.1.4-3.3s-.2-2.3-.4-3.3zm2.1-.8h-2.3c-.4-1.4-1.1-2.6-1.9-3.4 1.8.6 3.2 1.8 4.2 3.4zm-9.5-3.4c-.8.8-1.5 2-1.9 3.4h-2.3c1-1.6 2.5-2.8 4.2-3.4zm-4.6 4.2h2.5c-.2 1-.4 2.1-.4 3.3s.1 2.3.4 3.3h-2.5c-.4-1-.7-2.1-.7-3.3s.3-2.3.7-3.3zm.4 7.3h2.3c.4 1.4 1.1 2.6 1.9 3.4-1.7-.6-3.2-1.8-4.2-3.4zm9.5 3.4c.8-.8 1.5-2 1.9-3.4H44c-1 1.6-2.4 2.8-4.2 3.4z"/></svg>