<svg id="Layer_1" xmlns="http://www.w3.org/2000/svg" viewBox="0 0 990.8 595.8"><style>.st0{fill:#e6e8ec}.st1{fill:#363636}.st2{fill:#f5f5f5}</style><path class="st0" d="M162.2 140.1h625.3v377.8H162.2V140.1z"/><path class="st1" d="M787.5 519.1H161V45.9h626.5v473.2zm-624.1-2.4H785V48.3H163.4v468.4z"/><circle class="st1" cx="191.1" cy="72.5" r="12.1"/><circle class="st1" cx="224.9" cy="72.5" r="12.1"/><circle class="st1" cx="258.7" cy="72.5" r="12.1"/><path class="st1" d="M346 199.1h257.6v2.9H346v-2.9zm0 20.3h257.6v2.9H346v-2.9zm0 20.3h257.6v2.9H346v-2.9zm0 41.5h257.6v2.9H346v-2.9zm0 20.3h257.6v2.9H346v-2.9zm0 20.2h257.6v2.9H346v-2.9zm-11.4 68.9H615v163H334.6v-163z"/><path class="st2" d="M417.7 522.5h-.1c-1.2.2-2.4.4-3.6.5-.4 0-.8.1-1.2.1-.4 0-.8.1-1.3.1-.7 0-1.4.1-2.1.1h-3.7c-28-1.5-49.4-25.4-47.9-53.4s25.4-49.4 53.4-47.9c8 .4 15.8 2.7 22.7 6.8-24.2 14-32.5 45.1-18.5 69.3 4.4 7.7 10.8 14 18.5 18.5-5.1 2.8-10.6 4.8-16.2 5.9z"/><path class="st2" d="M493.9 512.3c1.9 1.5 4 2.9 6.1 4.2-7.7 4.5-16.4 6.8-25.3 6.8h-.7c-28-.3-50.4-23.3-50.1-51.3.3-28 23.3-50.4 51.3-50.1 8.7.1 17.3 2.5 24.8 6.8-24.2 13.9-32.5 44.9-18.6 69.1 3.3 5.6 7.5 10.5 12.5 14.5z"/><path class="st2" d="M591.7 472.6c0 28-22.7 50.7-50.7 50.7-28 0-50.7-22.7-50.7-50.7 0-28 22.7-50.7 50.7-50.7 28 0 50.7 22.7 50.7 50.7z"/><path class="st1" d="M561.5 512.5c0 2.3-.2 4.6-.7 6.8-12.7 5.4-27 5.4-39.7 0-.5-2.2-.7-4.5-.7-6.8 0-11.9 6.1-22 14.4-25.4-8-3.4-11.7-12.6-8.4-20.5 3.4-8 12.6-11.7 20.5-8.4 8 3.4 11.7 12.6 8.4 20.5-1.6 3.8-4.6 6.8-8.4 8.4 8.6 3.4 14.6 13.5 14.6 25.4zm-67.6-.2v.2c-.2 2.8-.6 5.7-1.2 8.5-5.9 2.5-11.9 2.3-18.7 2.4h-.7c-6.8 0-13.6-1.4-19.8-4 0-.2-.1-.4-.1-.6-.4-2-.6-4.1-.6-6.2 0-11.9 6.1-22 14.4-25.4-8-3.4-11.7-12.6-8.4-20.5 2.4-5.8 8.1-9.6 14.5-9.6 1.2 0 2.5.1 3.6.4-6.2 19.9.6 41.8 17 54.8zm-65.2.9c0 2.1-.2 4.1-.7 6.1-4.5 1.9-9.3 3.2-14.1 3.7-.4 0-.8.1-1.2.1-.4 0-.8.1-1.3.1-.7 0-1.4.1-2.1.1h-3.7c-5.9-.3-11.8-1.6-17.2-4v-.1c0-.2-.1-.4-.1-.5-.4-2-.6-4.1-.6-6.2 0-11.9 6.1-22 14.4-25.4-8-3.4-11.7-12.6-8.4-20.5 2.4-5.8 8.1-9.6 14.5-9.6.9 0 1.7.1 2.6.2-6.6 20.5.6 43 17.9 56z"/></svg>