<svg clip-rule="evenodd" fill-rule="evenodd" stroke-linejoin="round" stroke-miterlimit="2" viewBox="0 0 512 512" xmlns="http://www.w3.org/2000/svg"><g fill-rule="nonzero"><path d="m387.344 232.476h83.413v14.366h-83.413z" transform="matrix(5.15067 0 0 1 -1953.96 0)"/><path d="m509.397 227.476c-2.877-6.55-7.56-11.958-13.06-16.816l-.02-.02c-4.969-4.316-10.754-8.245-17.04-11.918v-71.016c0-4.378-1.786-8.367-4.652-11.244-2.878-2.878-6.856-4.663-11.264-4.663h-27.407c-10.019 0-19.12 5.877-23.294 14.968l-16.397 35.856c-19.897-7.164-45.793-14.938-80.035-20.958-35.192-6.142-79.159-10.489-134.584-10.489-61.108 0-106.034 14.041-136.156 34.662-15.06 10.296-26.406 22.224-34.007 34.886-7.603 12.651-11.481 26.007-11.481 38.894 0 12.673 3.734 25.917 11.092 38.508 11.04 18.897 30.151 36.406 57.496 49.18 18.315 8.53 40.344 14.938 66.2 18.265l11.703 32.732c4.684 13.142 17.132 21.897 31.09 21.897h88.301c15.662 0 29.172-10.99 32.355-26.346l7.387-35.723c15.478-2.439 29.468-5.193 41.988-8.091 19.202-4.428 35.15-9.244 48.476-13.774l16.57 36.263c4.174 9.102 13.276 14.958 23.294 14.958h27.407c4.387 0 8.408-1.765 11.275-4.663 2.856-2.856 4.622-6.866 4.642-11.234v-71.077c1.265-.745 2.541-1.49 3.766-2.224l-.316.173.316-.194c7.714-4.835 14.56-10.07 19.856-16.274v-.01c2.602-3.102 4.877-6.459 6.499-10.193 1.644-3.766 2.603-7.888 2.603-12.174 0-4.273-.959-8.386-2.603-12.141zm-81.035-93.525c1.357-3 4.347-4.876 7.591-4.876h26.05v63.71c-10.571-5.111-21.938-9.815-32.896-14.204-5.112-2.04-11.01-4.509-17.867-7.203zm-147.042 236.435c-1.489 7.325-7.958 12.59-15.437 12.56h-88.301c-6.663 0-12.601-4.173-14.846-10.468l-10.01-28.039c7.418.54 15.142.806 23.151.806 1.939 0 3.888-.03 5.868-.062 36.242-.57 67.72-2.764 95.014-5.978 3.847-.469 7.612-.918 11.296-1.408zm180.683-20.142h-26.05c-3.244 0-6.234-1.938-7.591-4.877l-17.193-37.63c6.867-2.623 12.826-5.031 17.938-7.082 10.958-4.407 22.325-9.091 32.896-14.244zm31.6-105.35c-1.418 3.224-4.316 6.907-8.633 10.694-2.448 2.152-5.356 4.315-8.58 6.458-4.286 2.796-9.153 5.612-14.387 8.326-1.204.623-2.439 1.244-3.704 1.878-10.754 5.346-22.785 10.376-34.518 15.06-5.398 2.163-11.53 4.632-18.601 7.305-4.173 1.572-8.693 3.255-13.57 4.918-13.03 4.479-28.733 9.264-47.865 13.703-11.672 2.694-24.6 5.265-38.987 7.581-4.398.694-8.907 1.388-13.591 2.041-30.294 4.245-66.414 7.245-109.616 7.938-1.918.041-3.826.062-5.674.062-10.009 0-19.498-.429-28.467-1.224-5.53-.5-10.806-1.164-15.938-1.939-33.651-5.03-59.211-15.713-77.474-28.671-12.816-9.122-22.019-19.346-27.998-29.611-6.01-10.264-8.744-20.519-8.744-29.794 0-9.408 2.826-19.733 9.01-29.998 9.254-15.407 26.091-30.692 51.66-42.13 25.57-11.468 59.854-19.049 103.719-19.049 72.73 0 124.819 7.55 162.878 16.713 18.947 4.55 34.406 9.52 47.283 14.183l.204.102c4.775 1.714 9.162 3.407 13.254 5.051 6.99 2.734 13.092 5.265 18.52 7.438 13.091 5.265 26.611 10.938 38.222 16.958 3.479 1.775 6.774 3.612 9.846 5.49.683.398 1.357.826 2.01 1.225 6.815 4.265 12.346 8.662 15.886 12.825 1.754 2.082 3.051 4.092 3.857 5.928.796 1.867 1.143 3.571 1.143 5.265-.002 1.732-.349 3.396-1.145 5.274z"/><path d="m190.07 357.887c-3.418 0-6.193 2.765-6.193 6.193 0 3.408 2.775 6.204 6.193 6.204 3.429 0 6.204-2.796 6.204-6.204 0-3.428-2.775-6.193-6.204-6.193z"/><path d="m221.712 357.887c-3.418 0-6.204 2.765-6.204 6.193 0 3.408 2.786 6.204 6.204 6.204s6.203-2.796 6.203-6.204c0-3.428-2.786-6.193-6.203-6.193z"/><path d="m253.352 357.887c-3.429 0-6.204 2.765-6.204 6.193 0 3.408 2.775 6.204 6.204 6.204 3.428 0 6.193-2.796 6.193-6.204 0-3.428-2.765-6.193-6.193-6.193z"/></g></svg>