<svg viewBox="0 0 1041.3 589" xmlns="http://www.w3.org/2000/svg"><linearGradient id="a" gradientTransform="matrix(1 0 0 -1 -79.34 461.82)" gradientUnits="userSpaceOnUse" x1="637.785" x2="637.785" y1="-131.075" y2="246.382"><stop offset="0" stop-color="gray" stop-opacity=".25"/><stop offset=".54" stop-color="gray" stop-opacity=".12"/><stop offset="1" stop-color="gray" stop-opacity=".1"/></linearGradient><g fill="#363636"><path d="M1020.6 206.2h-92.9v112.6h86.1c.2 1.2.4 2.3.7 3.5h-86.8v90.8l.4-.1c2.5-.9 4.9-1.8 7.3-2.7l1.6-.6c2.5-1 4.9-2.1 7.3-3.3.9-.4 1.7-.8 2.5-1.2 13.4-6.6 25.7-15.1 36.5-25.3.3-.3.6-.6.9-.8 1.5-1.4 2.9-2.9 4.4-4.4l1.6-1.7c1.7-1.8 3.3-3.7 4.8-5.6l.7-.8c6.3-7.7 11.6-16.2 15.7-25.3.1-.3.2-.6.4-.8 1.3-2.8 2.4-5.7 3.4-8.7.4-1.2.8-2.5 1.2-3.7.1-.4.2-.7.3-1.1 5.2-18 5.7-36.8 5.7-55.4v-6.5c0-7.5-.1-15.2-.3-22.7 0-2-.1-3.9-.1-5.9-.1-5-.3-10-.5-15-.1-1.4-.1-2.8-.2-4.2 0-.8-.1-1.6-.1-2.4-.2-2.9-.3-5.8-.6-8.7zM927.7 80.8h51c-8.4-11.6-17.4-22.7-27.1-33.2-7.6-8.3-15.5-6.5-23.9-14.3zm0 3.5v118.4h92.6c0-.3-.1-.7-.1-1-.1-.9-.2-1.9-.3-2.8s-.2-2.2-.3-3.3-.2-2.4-.4-3.5-.3-2.4-.4-3.6c-.2-1.2-.3-2.4-.5-3.5-.2-1.2-.3-2.4-.5-3.5-.1-1-.3-1.9-.4-2.9-.2-1.4-.4-2.8-.7-4.1 0-.2-.1-.4-.1-.6-1.7-10-3.9-20-6.8-29.7-3-10.3-6.9-20.4-11.5-30.2-5-10.3-10.8-20.2-17.3-29.6zM707.1 206.2v112.6h198.4V206.2zm0 116.1v76.3c23.1-7.4 49.5-4.4 73.5 1.7 18.5 4.7 36.6 11.1 55.1 15.7 8.3 2.1 16.7 3.7 25.1 4.7l2.1.2 3 .3 3 .2h2.2l1.6.1h.1c.8 0 1.6 0 2.4.1h6.5c.6 0 1.2 0 1.8-.1.9 0 1.9-.1 2.9-.2l1.8-.1 2.2-.2c1.5-.1 3-.3 4.6-.5.6-.1 1.2-.1 1.8-.2l.9-.1c1.5-.2 3-.4 4.6-.7 1.1-.2 2.2-.4 3.4-.6v-96.6zM854.7 80.8v3.5H707.1v118.5h198.4V84.3h-10v-3.5h10V29.4c-38.6-31.1-83.7-9.4-134-20.7-21.2-4.7-42.8 7.4-64.5 7.6v64.5zM401 80.1l.7.7h283.2V17.4c-50.4 4.2-70.6 7.4-119 2.9-26.1-2.4-56.4-9.7-77.8.6-11.2 5.6-23.5 8.7-36 9.3zm-2-61v33.7L426.4 26c-10.2-3.5-18.2-5.9-27.4-6.9zm-.9 423.9h.9v73.9c10.3-.8 20.6-1.8 30.9-3.2 45.8-5.9 90.7-17.5 133.6-34.6 4.6-1.8 9.2-3.8 13.7-5.7 3-1.3 6-2.7 9-4 4.5-2.1 8.9-4.2 13.4-6.4 19.6-9.6 38.4-20.6 56.5-32.8 1.1-.8 2.3-1.5 3.4-2.3 2.2-1.5 4.5-3.1 6.7-4.7l3.3-2.4 2.2-1.7c2.3-1.7 4.5-3.4 6.8-5.1 2.1-1.5 4.2-3 6.4-4.4v-87.3H457.3c.2-.5.3-1 .5-1.6-.2.5-.3 1-.5 1.6H399V443zm.9-358.7v118.4h285.9V84.3zm0 121.9v112.6h285.9V206.2zM341.9 22.5l34.9 34.1V18.9c-11.7.7-23.3 1.9-34.9 3.6zM98.7 206.2v112.6h278.1V206.2zm67.2 278.1c42.2 16 86.2 26.5 131.1 31.1h.2c8.5.9 17 1.6 25.5 2.1h.3c17.9 1 35.8 1.2 53.7.6V322.3h-278l1 129.7m-78-133.2h54.8V206.2H54.8c-2.3 4-4.4 7.9-6.5 12-1.1 2.1-2.2 4.3-3.2 6.5-14.3 29.6-23.4 62.2-23.4 94.1zm0 3.5c.4 22.9 5.6 45.3 16.9 66.1 9.4 17.2 22.5 32.3 37.9 45.5V322.3zm35.1-119.6h19.7v-29.3c-7.1 9.4-13.7 19.2-19.7 29.3zM180 80.8h190.2l.7-.7-1-1L316.4 27c-15.9 3.3-31.6 7.5-47 12.6-1.5.5-2.9 1-4.4 1.5-29.6 10-58.2 23.4-85 39.7zm-81.3 66.1v55.8h278.2V87.5l-3.9-3.2H174.4c-27.8 17.6-53.3 38.6-75.7 62.6z" opacity=".1"/><path d="M927.7 144v58.7h92.6c0-.3-.1-.7-.1-1-.1-.9-.2-1.9-.3-2.8s-.2-2.2-.3-3.3-.2-2.4-.4-3.5-.3-2.4-.4-3.6c-.2-1.2-.3-2.4-.5-3.5-.2-1.2-.3-2.4-.5-3.5-.1-1-.3-1.9-.4-2.9-.2-1.4-.4-2.8-.7-4.1 0-.2-.1-.4-.1-.6-1.7-10-3.9-20-6.8-29.7zm92.9 62.2h-92.9v112.6h86.1c.2 1.2.4 2.3.7 3.5h-86.8v90.8l.4-.1c2.5-.9 4.9-1.8 7.3-2.7l1.6-.6c2.5-1 4.9-2.1 7.3-3.3.9-.4 1.7-.8 2.5-1.2 13.4-6.6 25.7-15.1 36.5-25.3.3-.3.6-.6.9-.8 1.5-1.4 2.9-2.9 4.4-4.4l1.6-1.7c1.7-1.8 3.3-3.7 4.8-5.6l.7-.8c6.3-7.7 11.6-16.2 15.7-25.3.1-.3.2-.6.4-.8 1.3-2.8 2.4-5.7 3.4-8.7.4-1.2.8-2.5 1.2-3.7.1-.4.2-.7.3-1.1 5.2-18 5.7-36.8 5.7-55.4v-6.5c0-7.5-.1-15.2-.3-22.7 0-2-.1-3.9-.1-5.9-.1-5-.3-10-.5-15-.1-1.4-.1-2.8-.2-4.2 0-.8-.1-1.6-.1-2.4-.2-2.9-.3-5.8-.6-8.7zM835.7 101.3v101.4h69.8V101.3h-9.9V66.9h-40.9v34.4zm0 104.9h69.9v112.6h-69.9zm69.8 116.1h-69.8v93.6c8.3 2.1 16.7 3.7 25.1 4.7l2.1.2 3 .3 3 .2h.3c.4 0 .9 0 1.4.1h.5c.5 0 1.1 0 1.6.1.8 0 1.6 0 2.4.1h6.5l1.8-.1c.9 0 1.9-.1 2.8-.2l1.8-.1 2.2-.2c1.5-.1 3-.3 4.6-.5l1.8-.2.9-.1c1.5-.2 3-.4 4.6-.7 1.1-.2 2.2-.4 3.4-.6zM399 89.3h57.6v113.4H399zm0 116.9v112.6h285.9v-48.6H532.6v28.7h-76v-92.7zm-.9 236.9h.9V517c10.3-.8 20.6-1.8 30.9-3.2 45.8-5.9 90.7-17.6 133.7-34.7 12.3-4.9 24.3-10.3 36.1-16.1 19.6-9.6 38.4-20.6 56.5-32.8 4.5-3.1 8.9-6.2 13.3-9.4 3-2.2 6.1-4.5 9.1-6.7 2.1-1.5 4.2-3 6.4-4.5v-87.3H457.4c.2-.5.3-1 .5-1.5-.2.5-.3 1-.5 1.5H399V443zM248.8 80.8h37.5V70.4h-16.8V39.6c-1.5.5-2.9 1-4.4 1.5v29.4h-16.4v10.3zm-90.5 121.9h184.3-.1H376.8V89.3h-9.7v83.9h-44.3v-49.6h-36.6V84.3h-37.5v39.2h-36.6v49.6h-53.9v29.6zm0 3.5v112.6h218.5V206.2zm7.7 278.1c42.2 16 86.2 26.5 131.1 31.1h.2c8.5.9 17 1.6 25.5 2.1h.3c17.9 1 35.8 1.2 53.7.6V322.3H158.3v39.9H98.7l.3 89.1m-26.3-129h-51c.4 22.9 5.6 45.3 16.9 66.1 9.4 17.2 22.5 32.3 37.9 45.5v-71.6h-3.8zm-51-3.5h51v-94.1H45.1c-14.3 29.6-23.4 62.2-23.4 94.1z" opacity=".1"/><path d="M399 120.8h30.9v35.6H399zm0 73.7h30.9v8.2H399zm0 11.7h30.9v23.9H399zm0 62.1h30.9v35.6H399zm0 73.7h30.9v35.6H399zm0 101h-.9.9v8.3h30.9v-35.6H399zm0 46.4v27.5c10.3-.8 20.6-1.8 30.9-3.2v-24.3zm153.6-173.2h132.3v2.6H552.6zm0 6.1h132.3v10H552.6zm0 42.8h132.3v16.1H552.6zm0 49v16.1h103.5c4.5-3.1 8.9-6.2 13.3-9.4 3-2.2 6.1-4.5 9.1-6.7zm0 48.9v16.1h10.9c12.3-4.9 24.3-10.3 36.1-16.1zM297 217.1h26v23.2h-26zm563.7-107.9h26v23.2h-26zm0 53.8h26v23.2h-26zm0 53.8h26V240h-26zm0 53.8h26v23.2h-26zm0 53.8h26v23.2h-26zm0 53.7h26v23.2h-26zm-663.1-161h26v23.2h-26zm99.4 57.1h26v23.2h-26zm-99.4 0h26v23.2h-26zm99.4 57.1h26v23.2h-26zm-99.4 0h26v23.2h-26zm99.4 57.1h26v23.2h-26zm-99.4 0h26v23.2h-26zm99.4 57.1h26v23.2h-26zm-99.4 0h26v23.2h-26zm125.5 72.1v-15H297v12.8zm604.6-343.8V187h89.1v-13.2zm80.3.8h7.3v11.6h-7.3zm-8.9 0h7.3v11.6h-7.3zm-8.9 0h7.3v11.6h-7.3zm-8.8 0h7.3v11.6h-7.3zm-8.9 0h7.4v11.6h-7.3zm-8.9 0h7.3v11.6h-7.3zm-8.8 0h7.3v11.6h-7.3zm-8.9 0h7.3v11.6h-7.3zm-8.9 0h7.3v11.6H937zm-8.8 0h7.3v11.6h-7.3zm-.5 37.7v13.2h89.1v-13.2zm80.3.9h7.3v11.6h-7.3zm-8.9 0h7.3v11.6h-7.3zm-8.9 0h7.3v11.6h-7.3zm-8.8 0h7.3v11.6h-7.3zm-8.9 0h7.4v11.6h-7.3zm-8.9 0h7.3v11.6h-7.3zm-8.8 0h7.3v11.6h-7.3zm-8.9 0h7.3v11.6h-7.3zm-8.9 0h7.3v11.6H937zm-8.8 0h7.3v11.6h-7.3zm-.5 37.7v13.2h89.1v-13.2zm80.3.8h7.3v11.6h-7.3zm-8.9 0h7.3v11.6h-7.3zm-8.9 0h7.3v11.6h-7.3zm-8.8 0h7.3v11.6h-7.3zm-8.9 0h7.4v11.6h-7.3zm-8.9 0h7.3v11.6h-7.3zm-8.8 0h7.3v11.6h-7.3zm-8.9 0h7.3v11.6h-7.3zm-8.9 0h7.3v11.6H937zm-8.8 0h7.3v11.6h-7.3zm-.5 37.7v13.2h89.1v-13.2zm80.3.9h7.3v11.6h-7.3zm-8.9 0h7.3v11.6h-7.3zm-8.9 0h7.3v11.6h-7.3zm-8.8 0h7.3v11.6h-7.3zm-8.9 0h7.4v11.6h-7.3zm-8.9 0h7.3v11.6h-7.3zm-8.8 0h7.3v11.6h-7.3zm-8.9 0h7.3v11.6h-7.3zm-8.9 0h7.3v11.6H937zm-8.8 0h7.3v11.6h-7.3zm-.5 37.7v13.3h83.8c.1-.3.2-.6.4-.8h-3.9v-11.6h7.3v2.9c.4-1.2.8-2.5 1.2-3.7zm71.4.8h7.3v11.6h-7.3zm-8.9 0h7.3v11.6h-7.3zm-8.8 0h7.3v11.6h-7.3zm-8.9 0h7.4v11.6h-7.3zm-8.9 0h7.3v11.6h-7.3zm-8.8 0h7.3v11.6h-7.3zm-8.9 0h7.3v11.6h-7.3zm-8.9 0h7.3v11.6H937zm-8.8 0h7.3v11.6h-7.3zm-.5 37.7v13.2h55.7c.3-.3.6-.6.9-.8h-3v-11.5h7.3v7.2l1.6-1.7v-5.6h4.8c.2-.3.5-.6.7-.8zm44.8.8h7.4v11.6h-7.3zm-8.9 0h7.3v11.6h-7.3zm-8.8 0h7.3v11.6h-7.3zm-8.9 0h7.3v11.6h-7.3zm-8.9 0h7.3v11.6H937zm-8.8 0h7.3v11.6h-7.3zm-.5 37.8v8c.1 0 .3-.1.4-.2v-7.1h7.3v4.3l1.6-.6v-3.6h7.3v.4c.9-.4 1.7-.8 2.5-1.2zm-529.6 38h.9zm59.2-120.8c.2-.5.3-1 .5-1.6-.1.6-.3 1.1-.5 1.6zM854.7 80.8v3.5h40.9v-3.5zM398.1 443.1h.9zm59.2-120.8c.2-.5.3-1 .5-1.6-.1.6-.3 1.1-.5 1.6zm-59.2 120.8h.9zm59.2-120.8c.2-.5.3-1 .5-1.6-.1.6-.3 1.1-.5 1.6z" opacity=".1"/><path d="M903.1 574v13l-151.9 1.4h-1.6l-57.8.6h-1.4l-17.5.1h-.5l-107 1-175.6 1.7h-.2l-44.6.4h-.5L146.1 594v-15l46.7-28 93.6-.8h4.6l45-.4h4.6l14.4-.1h.4l35.5-.3h.3l277.4-2.4h7.5l5.2-.1 37.6-.3h4.8l11.8-.1 2.3-.1h3.1l9.7-.1 15.5-.1h6.1l74.7-.7z"/></g><path d="M903.1 574v13l-151.9 1.4h-1.6l-57.8.6h-1.4l-17.5.1h-.5l-107 1-175.6 1.7h-.2l-44.6.4h-.5L146.1 594v-15l46.7-28 93.6-.8h4.6l45-.4h4.6l14.4-.1h.4l35.5-.3h.3l277.4-2.4h7.5l5.2-.1 37.6-.3h4.8l11.8-.1 2.3-.1h3.1l9.7-.1 15.5-.1h6.1l74.7-.7z" opacity=".2"/><path d="M336.1 524v24.5c0 2.4-1.4 4.5-3.5 5.5-.8.4-1.6.6-2.5.6l-34.9.7c-.9 0-1.9-.2-2.7-.6-2.2-1-3.6-3.2-3.6-5.6V524z" fill="#363636"/><path d="M336.1 524v24.5c0 2.4-1.4 4.5-3.5 5.5-.8.4-1.6.6-2.5.6l-34.9.7c-.9 0-1.9-.2-2.7-.6-2.2-1-3.6-3.2-3.6-5.6V524z" opacity=".1"/><path d="M338.1 524v24.5c0 2.4-1.4 4.5-3.5 5.5-.8.4-1.6.6-2.5.6l-34.9.7c-.9 0-1.9-.2-2.7-.6-2.2-1-3.6-3.2-3.6-5.6V524zm382.8 0h47.2v31.5h-47.2z" fill="#363636"/><path d="M720.9 524h47.2v31.5h-47.2z" opacity=".1"/><path d="M718.9 524h47.2v31.5h-47.2z" fill="#363636"/><path d="M251.6 346.8h19v17.1h-19zM338.1 524v5l-47.2 1.2V524z" opacity=".1"/><path d="M421.4 352.7v168.2c0 2.1-1.7 3.9-3.9 4L225.9 530c-2.2 0-3.9-1.8-4-4V352.7c0-2.2 1.8-3.9 4-4h191.6c2.1.1 3.8 1.9 3.9 4z" fill="#363636"/><path d="M225.9 348.8V530c-2.2 0-3.9-1.8-4-4V352.7c0-2.1 1.7-3.9 4-3.9z" opacity=".1"/><path d="M234.6 359.5h177.5v148.3l-177.5 4z" fill="#d4dfec"/><path d="M762.9 346.8h19v17.4h-19zm3.2 177.2v6.4l-47.2-1.2V524z" opacity=".1"/><path d="M828.3 352.7V526c0 2.2-1.8 4-4 4l-191.7-5.1c-2.1-.1-3.8-1.8-3.8-4V352.7c0-2.2 1.8-3.9 3.9-4h191.6c2.2.1 4 1.8 4 4z" fill="#363636"/><path d="M828.3 352.7V526c0 2.2-1.8 4-4 4V348.8c2.2 0 4 1.7 4 3.9z" opacity=".1"/><path d="M815.6 359.5H638.1v148.3l177.5 4z" fill="#d4dfec"/><path d="M623.8 352.7v168.2c0 2.1-1.7 3.9-3.8 4L428.4 530c-2.2 0-4-1.8-4-4V352.7c0-2.2 1.8-3.9 4-4H620c2.1.1 3.8 1.9 3.8 4z" fill="#363636"/><path d="M437.1 359.5h177.5v148.3l-177.5 4z" fill="#d4dfec"/><path d="M903.1 574v13l-151.9 1.4h-1.6l-57.8.6h-1.4l-17.5.1h-.5l-107 1-175.6 1.7h-.2l-44.6.4h-.5L146.1 594v-15l202.5-1.3h.5l41-.3h.2l283-1.9H680.5l74.5-.5h5.4z" opacity=".1"/><circle cx="527.3" cy="312.5" fill="#fbbebe" r="51.3"/><path d="M344.4 592.5c0-.1.1-.2.1-.3 1-3.6 2.8-9.7 4.1-14.5.2-.6.3-1.2.5-1.8 1.5-5.5 4.3-18.3 5.9-26.3.6-2.8 1-5 1.1-6.1.2-1.7 3.2-8.9 6.6-17.2 2.4-5.8 5-12.2 6.9-17.6 1.3-3.2 2.2-6.5 2.9-9.8.1-.7.1-1.4 0-2.1-.3-1.1-.5-2.3-.5-3.5-.2-6.2 1.6-16 4.5-20.1 3.5-5 6-23.7 6-23.7s5.2.8 6-3.5c.1-.5.1-.9.1-1.4 0-.4 0-.7-.1-1.1-.9-6.2 14.7-12.9 23.5-14.3 1-.2 2-.3 3-.3 2.1-.2 4.2-.7 6.2-1.4.9-.3 1.9-.6 3-1 3.7-1.2 8.1-2.9 12.8-4.7 17.6-6.8 38.8-16 38.8-16 .2-.7.3-1.4.5-2.1 2.1-8.6 8.2-15.6 16.3-18.9v-2c0-3.5-.2-7-.3-10.5 0-.7-.1-1.4-.1-2.1v-.6-.5c0-.7-.1-1.4-.1-2.1l-.2-.1c-1.5-1.2-2.9-2.6-3.9-4.2-.6-.9-1.1-2-1.4-3-1.2-3.4-1.5-7.2-2.4-10.8l-.2-.7c-1.1-3.6-2.4-7.1-4-10.6-2.2-5.4-3.9-11-5.6-16.6-1-3.4-2.1-6.8-3.1-10.3l-1.6-5.2c-.3-1-.6-2-.8-3-.1-.5-.2-.9-.3-1.4-.3-1.5-.2-3.1.2-4.6.4-1 .8-2 1.3-3 .2-.4.4-.9.5-1.4 0-.1.1-.2.1-.3.1-.4.1-.7.1-1.1 0-1.3-.2-2.6-.5-3.9v-.3c-.2-1-.3-2-.4-3-.4-5.4.9-10.8 3.5-15.6l.2-.4c.6-1 1.2-1.9 1.8-2.8.3-.4.6-.8 1-1.2-1.4 1.3-3.7.8-5-.7-.2-.2-.4-.5-.5-.8-.1-.1-.2-.3-.2-.5 0-.1-.1-.2-.1-.4-.7-2.5.5-5.1 2.1-7s3.5-3.5 5.7-4.7c.1-.1.3-.1.4-.2.8-.4 1.7-.8 2.6-1.1.5-.2 1.1-.3 1.6-.4l-3.7-.3-1.5-.1c1.5-6.1 6.8-10.5 13-10.9h1.1c.5 0 1.1.1 1.6.1-1.7-.7-2.8-2.5-2.7-4.3 2.6 2 5.9 3.1 9.2 3.1h.4c-.2-1.1-.3-2.2-.3-3.3-.1-1.5-.1-3 0-4.5 1.8 1.7 4.3 2.5 6.8 2.3l-2.1-2.9c1.9 1.5 4.2 2.2 6.6 2h.5c.4 0 .8-.1 1.2-.2h.1c-.2-.2-.4-.5-.5-.8l-.1-.1c-.4-.7-.8-1.4-1-2.1-.1-.3-.2-.6-.2-.9-.4-1.8-.3-3.7.5-5.5 3.2 2.7 6.8 6.4 11 3.6s4.4-7.9 11-7.4c3.7.4 6.9 2.7 8.4 6.1 1.9-2.2 5-2.9 7.7-1.8 2.6 1.2 4.2 4 3.9 6.9 2.8-.7 5.7-1.4 8.3-.3 2.6 1 4.3 4.4 2.8 6.7 0 .1-.1.1-.1.2-1.2 1.6-3.9 2.5-3.7 4.5l.4.3 1.3.9c5.1 3.7 10.1 7.5 14.9 11.6 2.5 2.1 5.1 4.6 5.3 7.8 0 .8-.1 1.6-.2 2.4-.2.8-.4 1.6-.5 2.3-.4 2-.5 4-.3 6l.3 1.8c1.5 7.7 7.7 14.1 8.3 22v.6c0 .8 0 1.7-.1 2.5-.5 4.8-2.7 9.4-4.5 14-.1.3-.2.6-.3.8-3.5 9-5.5 18.6-7 28.2-.5 3.4-1.2 6.8-2 10.1-.9 3.8-2.7 7.4-5.1 10.4-1 1.2-2.1 2.2-3.4 3-.8.5-1.7 1-2.7 1.4v.1l.3 1.8c.1.3.1.6.2 1v.1c.8 4.7 1.8 9.4 2.8 13.8l.5 2.2c12.6 4.5 14.1 13.9 14.2 17.4v1.4s19 .5 26.5 6c1.4 1 2.9 1.7 4.5 2.3 3 1.1 6.1 2.1 9.2 2.9 1.6.4 3.3.8 5 1.2 3 .7 6.2 1.4 9.2 2 8.2 1.7 15.9 3 19.8 4 9.3 2.4 30.7 22.8 30.7 22.8s2.5 20.6 5 23.7 7 13.6 7 13.6l16.5 29.4 7 12.4h4.5c.6 0 1.8.9 3.2 2.1 1.2 1.1 2.5 2.4 3.7 3.6l1.9 2 1.2 1.3s7.3.2 9.2 5.9c5.9-.2 13.2.2 18.3 2.5.7.3 1.4.7 2 1.1 2.1 1.2 3.6 3.3 4.1 5.7.1.5.2 1 .2 1.4v1.7c-.4 7.6-5.3 13.9-9.8 18.1l.3.6s-.2.4-.4 1l-.3.6c-.6 1.3-1.5 3.2-2.8 5.4-2.6 4.8-5.8 9.2-9.6 13.2l-.3.3-57.7.5-.2-.2-11.2-13.4-5.6-6.6-.2-.2-.2 1.6-.5 5.3-1.3 12.8-.1.6v.2l-.2 1.5.1-1.5h-.3l-107 1-175.6 1.9v.8h-.1v-.8l-44.8.5z" fill="url(#a)"/><path d="M578.6 417.5s-99.5 12-90 0c3.4-4.3 4.4-17.2 4.2-31.8-.1-4.5-.2-9.1-.5-13.6-1.1-22-3.8-43.5-3.8-43.5s87-41 77-8.5c-4 13.1-2.7 31.6.3 48.9.9 5 1.9 10 3 14.7 2.8 11.4 6 22.7 9.8 33.8z" fill="#fbbebe"/><path d="M578.6 417.5s-99.5 12-90 0c3.4-4.3 4.4-17.2 4.2-31.8 15.2-6.5 34.5-1.7 34.5-1.7 20.3-4 33.3-3.3 41.7-.4 2.6 11.5 5.8 22.8 9.6 33.9z" opacity=".1"/><path d="M389.7 592.9v-.8l175.6-1.9 107-1h.3l-.1 1.5.2-1.5h.2v-.2l1.4-13.5.5-5.1.2-1.6.1-1.3 6.2-20.6 6.2-20.6 5.2-17.3 7.9-26.5s-4.5-10.5-7-13.5-5-23.5-5-23.5-21.3-20.3-30.7-22.7c-3.9-1-11.6-2.3-19.8-4-3.1-.6-6.2-1.3-9.2-2-1.7-.4-3.4-.8-5-1.2-3.1-.8-6.2-1.7-9.2-2.9-1.6-.6-3.1-1.3-4.5-2.3-7.3-5.4-25.8-6-26.5-6s0 0 0-.1v-.1-1.3c0-.4 0-.9-.1-1.4 0-.2 0-.3-.1-.5-.1-.4-.1-.7-.2-1.1 0-.2-.1-.4-.1-.5-.3-1.2-.7-2.4-1.2-3.5-.1-.2-.2-.3-.2-.5-.5-.9-1.1-1.8-1.7-2.6-.1-.2-.3-.3-.4-.5-.8-1-1.7-1.9-2.7-2.6-.3-.2-.5-.4-.8-.6-.2-.1-.3-.3-.5-.4l-.9-.6-.8-.5c-.7-.4-1.5-.8-2.3-1.2-.3-.1-.5-.2-.8-.3s-.7-.3-1.1-.4h-.1l-.7-.3c-.6-.2-1.2-.4-1.8-.5l-.9-.2-1-.2-1-.2c-1-.2-2.1-.4-3.2-.5l-1.1-.1-1.2-.1-1.2-.1-1.7-.1-2-.1c-8.8 0-17.6.9-26.2 2.8-6-1.3-12.1-1.9-18.3-1.7h-.9l-1 .1h-.6l-1.3.1c-.4 0-.9.1-1.3.2s-.9.1-1.3.2l-.7.1c-.7.1-1.3.2-2 .4-.2 0-.4.1-.7.2-.9.2-1.7.4-2.6.7-.4.1-.9.3-1.3.4-.2.1-.4.1-.6.2l-.6.2-.6.2-.8.3c-.4.2-.8.3-1.1.5l-.6.3-.6.3c-2.3 1.2-4.4 2.6-6.2 4.4l-.5.5-.5.5-.5.5c-.7.7-1.3 1.5-1.8 2.2-.2.2-.3.4-.5.6-.6.9-1.2 1.9-1.7 2.9-.1.2-.2.5-.4.7-.8 1.7-1.5 3.4-2 5.2-.2.7-.4 1.3-.5 2-.2 1-21.2 9.3-38.7 16.1-4.7 1.8-9.1 3.4-12.8 4.7-1.1.4-2.1.7-3 1-2 .7-4.1 1.2-6.2 1.4-1 0-2 .1-3 .3-8.1 1.3-21.9 7-23.4 12.7-.1.5-.2.9-.1 1.4v.1c1 7-6 6-6 6s-2.5 18.5-6 23.5c-2.5 3.6-4.3 11.6-4.5 17.7-.1 1.9 0 3.8.4 5.6v.1c.4 1.3-.6 5-2.2 9.7-1.8 5.2-4.4 11.5-6.8 17.6-3.7 9.1-7.3 17.4-7.5 19.2-.1.8-.4 2.3-.7 4.1-1.5 7.6-4.7 22.1-6.3 28-1.2 4.4-2.9 10.4-4.1 14.5 0 .1-.1.2-.1.3l44.8-.4z" fill="#363636"/><path d="M406.1 475s57 29.5 77.5 26zm116-12s55.5 18 74 20.5-74-20.5-74-20.5zm61.6-57.9c-29 5.3-83.6 4.2-107.2 3.4 8.7-31 50.8-20.5 50.8-20.5 52.2-10.4 56.2 11.2 56.4 17.1z" opacity=".1"/><path d="M583.7 403.1c-29 5.3-83.6 4.2-107.2 3.4 8.7-31 50.8-20.5 50.8-20.5 52.2-10.4 56.2 11.2 56.4 17.1z" fill="#363636"/><path d="M737.6 539.8s34.2-5.2 34.8 9.8S755 575 755 575z" fill="#fbbebe"/><path d="M565.9 368.9c-1.5.7-3 1.2-4.5 1.7-10.8 3.7-21.7 7.5-33 8.8-11.3 1.4-23.3.2-33.2-5.5-1-.6-2-1.2-3-2-1.1-22-3.8-43.5-3.8-43.5s87-41 77-8.5c-3.8 13.3-2.5 31.7.5 49z" opacity=".1"/><path d="M513.2 232.3c-2.9.8-6 .1-8.3-1.8l2.1 2.9c-2.5.3-5-.5-6.8-2.2-.2 2.6-.1 5.2.3 7.8-3.4.2-6.8-.9-9.6-3-.1 1.8.9 3.6 2.6 4.3-7.2-.9-13.8 3.7-15.6 10.7l5.2.5c-4.1.9-7.8 3.1-10.4 6.4-1.6 2-2.8 4.6-2.1 7s4.1 4 5.9 2.3c-5.3 6.3-7.5 14.7-6.1 22.8.5 1.7.6 3.5.5 5.3-.3 1.6-1.4 3.1-1.9 4.7-1 2.9 0 6.1.8 9l4.7 15.4c1.7 5.6 3.4 11.1 5.6 16.5 1.6 3.4 2.9 6.9 4 10.5 1.3 4.8 1.3 10.1 4 14.4 1.8 2.7 4.3 4.8 7.2 6.3 9.9 5.7 21.8 6.9 33.2 5.5s22.2-5.1 33-8.8c2.4-.7 4.7-1.7 6.8-3 7.5-4.9 9.1-14.9 10.5-23.6 1.6-9.8 3.6-19.6 7.3-28.8 2.2-5.5 5-11.1 4.5-16.9-.6-7.8-6.8-14.1-8.3-21.8-.5-2.6-.5-5.2.1-7.8.5-1.5.7-3.1.8-4.7-.2-3.2-2.8-5.7-5.3-7.8-5.4-4.5-10.9-8.7-16.7-12.7-.3-2 2.4-2.9 3.7-4.4 1.7-2.2-.1-5.8-2.7-6.8s-5.6-.4-8.3.3c.5-3.6-2.1-6.9-5.7-7.4-2.2-.3-4.4.6-5.8 2.3-1.5-3.4-4.7-5.7-8.4-6.1-6.6-.5-6.8 4.5-11 7.3s-7.7-.9-11-3.6c-1.4 2.9-.9 6.4 1.2 9zm249.7 337.5s-.9 2.1-2.5 5.2c-2.5 4.7-5.5 9.1-9 13.2l-.3.3h-1.6l-57.7.5h-1.4l-.2-.2-11.2-13.3-4.2-5-.2-.2-.4-.4-.2-.2-.3-.3-8.2-9.7 3-12.5 5.1-21.1.1-.5 1-4 .7-3 2.4-9.8 8.2-33.7 14.5 7.5 15.3 27 8.2 14.5h4.5c.8 0 2.8 1.6 4.8 3.5l2 2c1.8 1.8 3.2 3.4 3.2 3.4s7.3.2 9.2 5.9c.1.3.2.6.2.8.7 2.3 1.5 4.5 2.5 6.6 1.3 2.8 2.9 6 4.5 9.2 3.1 5.8 6.2 11.4 7.3 13.4l.1.2z" fill="#363636"/><path d="M677 524.6l-.1 1.4v.1l-.2 2.3-1.3 18.5-1.6 22.3-.5 6.3-1 13.4v.2l-107 1-175.6 1.9v.8h-.1v-1.1l.5-14.4.9-28.1.7-23.8.1-2.4c.2-5.8 5-10.4 10.8-10.2h.6c4.7.4 10.9.9 18.2 1.4l3 .2c42.3 2.9 120.6 6.7 199.5 2 1.7-.1 3.3-.2 5-.3 12.2-.8 24.5-1.8 36.6-3 5.8-.6 11 3.6 11.6 9.4 0 .8 0 1.5-.1 2.1z" opacity=".1"/><path d="M389.7 592.9v-.8l175.6-1.9 107-1h.3v-.2l1-13.4.4-6 1.6-22.6 1.4-18v-.4c.1-.8 0-1.7-.1-2.5v-.1c-.3-1.7-1-3.3-2-4.6-2.2-2.9-5.8-4.4-9.4-4-12.1 1.2-24.3 2.2-36.6 3-1.7.1-3.3.2-5 .3-78.9 4.7-157.2.9-199.5-2l-3-.2c-7.3-.5-13.5-1-18.2-1.4-5.4-.5-10.2 3.2-11.2 8.5-.1.5-.2 1.1-.2 1.6l-.7 22.2-.9 28.1-.4 14.4v.3z" fill="#363636"/><path d="M677.3 531.6l-1.2 15.3-1.8 22.8-.5 5.7-1 12.8-.1.6v.2l-.2 1.5.1-1.5h-.3l-107 1-175.6 1.9v-.3l.5-14.4 1-28.1.6-18.7c.1-2.2 1.2-4.1 3.1-5.2 1.1-.7 2.5-1 3.8-.9 2.1.2 4.7.4 7.7.6 4.9.4 10.9.8 17.9 1.2 13 .8 29.3 1.7 48 2.4 52 2 122.2 2.7 188.9-3.2 3-.3 6.1-.5 9.1-.8 1.2-.1 2.4.1 3.5.7.3.2.6.3.9.5.9.6 1.6 1.5 2 2.5.1.2.2.4.2.6.4 1.1.5 2 .4 2.8zm-339.2 13.7v3.2c0 2.4-1.4 4.5-3.5 5.5l-40.1.8c-2.2-1-3.6-3.2-3.6-5.6v-3z" opacity=".1"/><path d="M338.6 555.9l-52.2 1v-8.6l52.2-1z" fill="#363636"/><path d="M338.6 555.9l-52.2 1v-8.6l52.2-1z" opacity=".1"/><path d="M340.6 555.9l-52.2 1v-8.6l52.2-1z" fill="#363636"/><g opacity=".1"><path d="M513.6 229c-1-1.3-1.6-2.8-1.9-4.3-.2 1.5-.1 3.1.4 4.6zm-12.7 6.7c-.2-1.2-.3-2.5-.4-3.7v3.7zm81.5 33.3c.1-.9.2-1.8.4-2.6.5-1.5.7-3.1.8-4.7 0-.4-.1-.7-.2-1.1-.2.9-.4 1.8-.6 2.8-.4 1.8-.6 3.7-.4 5.6zm-20.8-30.9l1.1.8c.9-.7 1.8-1.4 2.6-2.2.8-1.1.9-2.4.4-3.6-.1.2-.2.4-.4.6-1.3 1.6-4 2.4-3.7 4.4zm-82.2 9.6c-.4.7-.7 1.5-.9 2.3 1.6-.9 3.2-1.5 5-1.9zm13.8-10.8c-.7-.4-1.3-.8-1.9-1.2 0 .4 0 .8.1 1.2.6-.1 1.2-.1 1.8 0zm97.8 58.9c-.4 4.9-2.7 9.5-4.5 14.1-3.7 9.2-5.7 19-7.3 28.8-1.4 8.8-3 18.8-10.5 23.6-2.1 1.3-4.4 2.3-6.8 3-10.8 3.7-21.7 7.5-33 8.8s-23.3.2-33.2-5.5c-2.9-1.5-5.3-3.7-7.2-6.3-2.7-4.2-2.7-9.5-4-14.4-1.1-3.6-2.4-7.1-4-10.5-2.2-5.4-3.9-11-5.6-16.5-1.6-5.1-3.1-10.3-4.7-15.4-.5-1.5-.9-3.1-1.1-4.8-.4 2.6.4 5.2 1.1 7.8 1.6 5.2 3.1 10.3 4.7 15.4 1.7 5.6 3.4 11.1 5.6 16.5 1.6 3.4 2.9 6.9 4 10.5 1.3 4.8 1.3 10.1 4 14.4 1.8 2.7 4.3 4.8 7.2 6.3 9.9 5.7 21.8 6.9 33.2 5.5s22.2-5.1 33-8.8c2.4-.7 4.7-1.7 6.8-3 7.4-4.9 9.1-14.9 10.5-23.6 1.5-9.8 3.6-19.6 7.3-28.8 2.2-5.5 5-11 4.5-16.9v-.2zm-119.7-3.9v-.1c.2-1.8 0-3.5-.5-5.2-.2-1.1-.3-2.2-.4-3.3-.1 2.1 0 4.2.4 6.3.2.7.4 1.5.5 2.3zm3-24.4c.8-1.3 1.6-2.5 2.6-3.7-1.8 1.8-5.2.2-5.9-2.2-.3 1-.3 2 0 3 .5 1.4 1.8 2.5 3.3 2.9z"/></g><path d="M724.1 524s3.2 11.5 0 21.5 0-21.5 0-21.5zm13.5 11.8s1.3 14.6-1.7 17.2 1.7-17.2 1.7-17.2z" opacity=".1"/><path d="M246.2 373.3l151.9-1m-151.9 13.4l151.9-1m-151.9 13.5l151.9-1m-151.9 14.1l151.9-1m-151.9 13.4l151.9-1m-151.9 13.5l151.9-1" fill="none" stroke="#363636" stroke-miterlimit="10" stroke-width="2"/></svg>