<svg enable-background="new 0 0 888 638" viewBox="0 0 888 638" xmlns="http://www.w3.org/2000/svg"><path d="m79.3 236.8s-10.3 22.5 39.5 139.1c29.8 69.7-22.7 126.1 46.2 157 117.8 52.9 289.7-26.3 406.1 18 65.9 25.1 108.2-103.5 166.1-132.4 83.5-41.6 82.6-120.2 82.6-120.2" fill="#ccc"/><path d="m77.6 218.1c1.1-.7 1.7-1.3 1.8-2.6.5-6.4 1-12.8 1.5-19.1.1-1.4.5-2.4 1.9-2.8 4.6-1.4 5.9-4.9 6.8-9.3 2-10.6 4.5-21.1 6.9-31.6 0-.2.2-.4.5-.9.6 1.7.4 3.2.4 4.6.4 11.3.7 22.5 1 33.8 0 .8.3 1.5 1 2 .3.2.5.5.8.7 3.9 2.1 4.9 5.2 4.2 9.6-.8 4.4-.8 9-1.2 13.5-.2 1.5.2 2.2 1.9 2.3 2.9.1 2.9.2 3.1-2.6.4-5.5.9-11.1 1.3-16.6.1-1.6.6-2.7 2.1-3.2 5.2-1.6 6.1-5.9 7-10.5 2-9.9 4.2-19.7 6.4-29.5.1-.5.1-1.1.9-1.5.1 3.9.2 7.7.3 11.4.2 8.9.3 17.7.4 26.6 0 .8.4 1.3.9 1.8 1.3 1.1 2.6 2.4 4 3.4s1.9 2.2 1.7 4c-.5 5.1-.9 10.2-1.2 15.3-.1 1-.8 2.3.3 2.8 1.3.6 2.9.8 4.4 0 1.2-.7 2.5-1.3 3.6-2.2 2-1.6 4.3-1.3 6.6-1.1 2.8.3 2.8.2 3-2.5 0-.4.1-.7.1-1.1 0-1.5.6-2.2 2.1-1.9 2.3.5 4.3.2 5.9-1.7.5-.6 1.3-.6 2-.6l7.2.6c1.4.1 1.8.7 1.6 2 0 .3-.1.6-.1.9.1 1.1-.8 2.5.3 3.2 1.2.8 2.8.5 4.2.5.7 0 .9-.5.9-1.1.1-.9.3-1.8.2-2.7-.2-2.4.9-3.9 3-4.9.7-.3.7-.9.8-1.5.2-2.5.7-5 .5-7.4-.1-2.2-1.5-4.4 1.6-5.8.5-.2.5-1.7.6-2.6.7-5.7 1.5-11.5 2.2-17.2.1-.9.3-1.9.9-3.2.1 3.4.1 6.2.2 9.1 0 4.5.1 8.9.1 13.4 0 .8.3 1.2.9 1.6 1.5 1.2 1.7 2.2.6 3.7-.4.6-.6 1.3-.6 2-.2 2.5-.4 5.1-.6 7.6-.1 1.1-.6 2.4 1.1 3 .5.2.3 1 .4 1.5.1 1.7.2 3.5.2 5.2 0 1.1.5 1.5 1.5 1.6s1.5-.3 1.7-1.3c.7-3.4 1.5-6.7 2.2-10.1.2-1.2.9-1.6 2-1.5 6.4.5 12.9 1 19.3 1.5 1 .1 1.6.6 1.9 1.6.8 2.8 1.8 5.6 2.5 8.5.5 2.1 1.5 2.9 3.6 2.9 1.4 0 2.9.1 4.3.3 1.6.2 2.2-.3 2.4-2 .7-8.9 1.5-17.8 2-26.7.2-2.8 1.2-4.6 3.3-6.4 5.4-4.3 10.5-8.9 15.7-13.3 2.2-1.8 2.9-1.7 4.7.5 4.4 5.3 8.7 10.6 13.2 15.9.8 1 1.2 2 1 3.3-.5 5.4-.8 10.7-1.3 16.1-.1 1.6.3 2.1 1.9 2.2 6.1.4 12.3.9 18.4 1.5 1.7.2 2.2-.3 2.3-2 1.2-15.8 2.5-31.5 3.7-47.3.1-1.7.7-3 1.8-4.2 4.3-5 8.5-10 12.8-15 .9-1 1.3-2.1 1.4-3.4.3-4.1.6-8.2 1-12.3.1-.9 0-1.7-.7-2.5-1-1.1-.3-6 .8-7 .8-.7 1.6-1.5 2.5-2.1 1.6-1 2.3-2.5 2.6-4.3 1.3-8.5 2.6-16.9 3.9-25.4 1.7-11 3.5-21.9 5.2-32.9.1-.5.1-1.1.8-1.6v6c-.2 8.6-.3 17.1-.5 25.7-.2 9.8-.3 19.7-.5 29.5 0 2 .7 3.7 2.1 5 2.3 2.2 2 4.9 1.6 7.6 0 .2-.1.6-.2.7-1.9 1-1.5 2.8-1.7 4.5-.3 3.7-.5 7.5-.9 11.2-.1 1.3.1 2.3.8 3.4 3.3 5.5 6.6 11 10 16.4.7 1.2 1 2.4.9 3.8-1.3 15.9-2.6 31.9-3.8 47.8-.1.8-.7 2 .7 2.5 1.3.4 2.1-.1 2.9-1.2 3.8-5.4 7.7-10.7 11.5-16.1.9-1.4 1.4-1.2 2.2.1 4.2 7.2 8.4 14.4 12.6 21.6.7 1.2 1.6 1.8 3 1.9 3.7.2 7.5.5 11.2.9 1.3.1 2.3-.3 3.2-1.3 2-2.2 4-4.3 6-6.6.8-.9 1.7-1.2 2.9-1.1 4.8.4 9.5.8 14.3 1.1 1.1.1 2 .4 2.6 1.3.1.1.3.3.3.4 3.2 6.5 9.2 6.3 15.2 6.6 1.1 0 1.5-.7 1.9-1.4 2.1-3.3 4.2-6.6 6.3-10 .5-.8.9-1.6 2.1-1.5 1.1.1 1.3 1 1.5 1.8 1.1 2.9 2.2 5.9 3.3 8.8.3.8.4 1.7 1.5 1.8 1 .1 1.3-.8 1.6-1.5 3.3-6.1 6.6-12.2 9.9-18.3.3-.6.6-1.2 1-1.7.4-.7.8-.6 1.2.1.2.4.4.9.6 1.3 2.5 6.1 5 12.2 7.4 18.3.5 1.2 1.1 1.8 2.5 1.9 1.7 0 3.5.2 5.2.4 1.5.2 2.1-.3 2.2-1.8.3-4.5.7-8.9 1-13.4.2-2.6.3-2.6 2.8-2.4l18.6 1.5c2.6.2 2.6.2 2.8-2.4.2-2.5.4-4.9.6-7.4.1-1.6.2-3.1-.4-4.8-.6-1.6-.6-3.8 1.3-4.9 2.8-1.7 3.6-4.3 4.1-7.3.3-2.1.9-4.2 1.5-6.3.8 2.1.7 4.3.7 6.5 0 3.2.7 5.9 3.1 8.1 1.7 1.5.8 3.5.4 5.3-.1.5-.4 1-.6 1.5-.4 1.5.1 2.3 1.8 2.4 4.6.2 3.9.8 4.3-3.6.5-5.4.9-10.7 1.3-16.1.1-1.3.5-2.4 1.6-3 4.2-2.4 5.6-6.4 6.5-10.9.9-4.8 2.2-9.5 3.4-14.3.7.4.6 1 .6 1.5.2 6.1.5 12.3.7 18.4 0 1.2.2 2.2 1.1 2.9 3.7 3.1 4.6 6.9 3.8 11.6-.8 4.6-.8 9.3-1.2 13.9-.1 1.5.3 2.1 1.8 2.1.9 0 1.8.1 2.7.2 2 .1 2.9-1 1.9-2.7-1-1.8-.4-3.5-.3-5.3 0-.7.5-1.1 1.1-1.4 2.9-1.3 3.8-3.9 4.3-6.8.3-2.1.9-4.1 1.6-6.1.6 1.5.3 3 .5 4.5.1.5 0 1.1 0 1.6-.2 3.1.4 5.8 2.9 8 1.2 1.1.8 5.3-.4 6.4-.7.6-1 1.3-1 2.2-.2 2.3-.3 4.6-.6 6.9-.2 1.4.3 1.9 1.8 2 5.4.4 10.8.8 16.2 1.3 3.6.3 7.2.5 10.8.9 1.6.2 2.1-.4 2.2-1.9 1.3-16.4 2.6-32.9 3.9-49.3.1-.7.1-1.4.2-2.2 1 .3.9 1.1 1.1 1.7.9 3 1.7 6 2.6 9 .5 1.7.9 3.4.6 5.1-.2 1 0 1.9 1.3 1.8 1.2-.1 2.9 1 3.4-1.2.4-2 .7-3.9 1-5.9 1.4-9.2 2.7-18.4 4.1-27.5 1.9-12.3 3.8-24.7 5.7-37 1.4-9.1 2.7-18.2 4.1-27.4 1.6-10.7 3.4-21.4 5-32.2 1.2-7.9 2.3-15.7 3.5-23.6h.4c.2 7.4-.1 14.7-.2 22.1-.1 9.9-.2 19.8-.3 29.7-.1 6-.2 11.9-.2 17.9-.1 8.6-.2 17.1-.3 25.7-.1 6-.2 11.9-.3 17.9-.1 8.6-.2 17.1-.3 25.7-.1 4.8-.2 9.6-.3 14.5-.1 3.5-.1 3.5 3.4 3.7h.4c1.5.3 1.9-.4 2.1-1.8.8-5.1 3.9-9.2 5.7-13.8.6.8.4 1.6.3 2.3-1.4 17.8-2.8 35.5-4.2 53.3-.2 2.8-.2 2.8 2.5 3 3.6.3 3.2.6 3.5-2.9.4-4.2.5-4.3 4.6-3.6 1.1.2 1.6.6 1.5 1.8-.1 1.3-.2 2.7-.3 4-.2 1.6.9 1.6 1.9 1.6s2 .5 2.3-1.2c.5-3.7.6-3.6 4.4-3.3 3.7.3 7.3.6 11 .9 1.5.1 2 .7 1.8 2.2-.3 2.4-.4 4.8-.6 7.2-.1 1.1.3 1.6 1.5 1.7 9.6.7 19.3 1.5 28.9 2.3 1.2.1 1.6-.4 1.7-1.5.3-2.7.3-2.7 2.9-2.5 5 .4 5 .4 5.4-4.7s.8-10.1 1.2-15.2c.2-2.3.3-2.4 2.7-2.2 6.3.5 12.6 1 19 1.5 2.2.2 2.3.4 2.2 2.6-.8 10.3-1.6 20.6-2.5 30.9 0 .5-.1 1-.1 1.4 0 .3-.2.8.3 1 .4.2.7-.2.9-.4 1.7-1.4 3.5-2.8 5.1-4.4 1.4-1.3 2.9-1.7 4.8-1.5 5.9.6 11.9.9 17.9 1.5 1.6.1 2.3-.3 2.4-2 .4-6.1 1-12.3 1.4-18.4.1-1.7.7-2.2 2.3-2 4 .3 4 .3 4.4-3.9 1-12.8 2-25.5 3-38.3.2-2.4.2-2.4 2.6-2.2 4 .3 8.1.7 12.1.9 1.9.1 2.3.8 2.1 2.6-1.7 20.8-3.3 41.5-5 62.3-.2 3-.2 3 2.7 3.2 3.1.2 6.1.4 9.2.7 1.3.1 1.9-.3 1.9-1.6 0-1 .1-2 .2-3.1.1-1.2.1-2.2 1.8-2.9 1-.4 1.8-1.5 3.1-1.8.5-.1.4-.9.5-1.5.2-1.8.3-3.6.4-5.4.1-1 .5-1.7 1.5-2 1.5-.5 3-1.1 4.4-1.6 2.1-.8 4.1-5.1 2.6-6.4-2.5-2.3-.9-4.7-1-7-.1-1.7.3-3.4.3-5.1.2-3.1.6-6 2.5-8.8 2.2-3.2 2.2-7.3 3-11.1 1.9-8.9 3.7-17.8 5.5-26.7 0-.2.2-.4.4-.9.6 1.4.4 2.7.4 3.8.4 10.5.6 21 .9 31.5.1 2.1.5 4.2 1.5 6.1.6 1.2.8 2.5.7 3.9-.4 4.3-.7 8.5-1.1 12.8-.1.9-.2 1.6-1.1 2.3-1.4 1-1 5.4.6 6.6 1.3 1 2.7 2 4.1 3 1 .7 1.4 1.5 1.3 2.8-.2 1.7-.3 3.4-.4 5.1-.1 1 .1 1.7 1.3 1.7.7 0 .8.7 1.1 1.1 2.3 2.8.9 5.9.7 8.9m-1 0c1.4.7 5.1 51.9 4.9 53.4s-.3 3-.4 4.5c-.1 1-.5 1.4-1.5 1.3-.6-.1-1.2-.1-1.8-.1-328.6-26.2-406.1-33.2-734.6-59.4-3.5-.3-3.2 0-2.9-3.5.1-1.6-1.7-7.5-1.7-9.1 0-1.5-.9-14.2.6-14m236.6-85.1c-.1.7-.1 1.3-.2 2-.2 3.9-.9 3.4 3.3 3.8 1.3.1 1.7-.4 1.8-1.6.1-1.9.3-3.8.4-5.8.2-3.9 1-3.5-3.5-3.8-.1 0-.1 0-.2 0-.9-.1-1.3.3-1.4 1.2 0 1.5-.1 2.9-.2 4.2z" fill="#ccc"/><circle cx="523.1" cy="44.5" fill="#ccc" r="20.3"/><g fill="#363636"><path d="m302.4 259.9h17.4v50.8h-17.4z" transform="matrix(.6538 -.7567 .7567 .6538 -108.1305 334.1609)"/><path d="m547.3 497h17.4v45h-17.4z" transform="matrix(.6538 -.7567 .7567 .6538 -200.5764 600.5323)"/><path d="m606.2 399.8v1c0 2.6-.1 5.1-.2 7.7-4.8 94.3-85.1 166.9-179.5 162.1-86.7-4.4-156.4-73.2-162-159.8-.2-3.6-.3-7.3-.3-10.9-.1-35.4 10.9-70 31.4-98.8 1.6-2.3 3.3-4.6 5.1-6.9 1.2-1.6 2.5-3.1 3.7-4.6 60-71.1 165.9-81.2 238.3-22.6 2.1 1.7 4.1 3.4 6.1 5.1 1.6 1.4 3.1 2.8 4.7 4.3 30.1 28.8 48.6 67.6 52.1 109.1.4 4.7.6 9.5.6 14.3z"/><path d="m435.2 592.3c-106.1 0-192.5-86.4-192.5-192.5-.1-48.6 18.3-95.3 51.4-130.9l4.3 4c-32.1 34.5-49.9 79.9-49.8 127 0 102.9 83.8 186.7 186.7 186.7 50.5.2 99-20.3 134-56.7l4.2 4c-36.2 37.5-86.2 58.6-138.3 58.4z"/><path d="m414.3 588.2h48.9v48.9h-48.9z"/></g><path d="m300.8 294.1c.1 0 .2.1.2.1.9.8-.2 2.2-.1 3.4.2 1.5 2.2 1.9 3.8 2 1.5.2 3.5 1.4 2.8 2.8-3.9 1.3-7.8 0-11.8-1.5-20.5 28.9-31.5 63.4-31.4 98.8 0 3.7.1 7.3.3 10.9.3.2.7.4 1.1.6 1.2.4 2.5.4 3.6 1 .8.5 1.4 1.4 2.3 1.8 2.4 1.3 5.8-1.2 8.1.4.6.5 1.1 1.1 1.7 1.7 2.1 1.8 5.5.6 8 2 1.6.9 2.4 2.6 3.2 4.2 2.1 4 5.5 7.8 9.9 8.2 1.4-.1 2.8 0 4.2.1 1.4.3 2.7 1.5 2.5 2.9-.4 2.4.8 5 .5 7.4-.6 4.4-6.7 6.3-7.3 10.6 0 1-.1 1.9-.2 2.9-.3 1.1-1.1 2.1-1.4 3.2-.6 2.2 1 4.3 2.7 5.7 1.7 1.5 3.7 2.7 4.7 4.7 1 2.2.5 4.7.8 7 .7 5.1 5.1 8.9 9.6 11.3 1.5.6 2.7 1.5 3.8 2.7 1.2 1.7 1 3.9 1.4 5.9 1 4.9 5.1 9 5.2 14 .1 3.6-1.9 6.8-3.1 10.2-1.2 3.5-1.6 7.3-1.1 11 6.6 5.6 13.7 10.7 21.1 15.3.4-.6.7-1.3.9-2 .3-1.6-.4-3.2-1.8-4 1.3-.5 2.4-1.2 3.3-2.1 1-1 1.2-2.5.6-3.7 2 .3 4.5.4 5.8-1.2 1.1-1.3 1-3.1.6-4.7-.6-1.5-1-3.2-1.2-4.8 4.7.2 9.5.1 14.2-.5-.7-2.3-2.2-4.2-4.3-5.4 2.1-.4 4.1-2.9 4.8-5 .6-2.1.6-4.3.1-6.4-.2-.5-.2-1.1-.1-1.7.3-.7.9-1.3 1.7-1.6 3.5-2 7.1-4.1 10.6-6.1.6-.3 1.2-.7 1.7-1.2 1.1-1.3.9-3.3.4-4.9s-1.5-3.1-1.7-4.8c-.7-5.1 4.8-8.7 6.6-13.5.6-1.9 1-3.9 1-5.9.2-2.2.2-4.7-1.5-6-1.6-1.3-4.1-1-5.7-2.3-1.5-1.1-2-3.3-3.7-4.3-1.5-.8-3.4-.3-5.1-.7-3-.7-4.8-4.1-7.8-4.4-1.7-.2-3.6.7-5-.3-1.2-.9-1.3-2.6-1.5-4.1-.8-4.7-4.6-8.5-9.3-9.3-1.8-.3-3.7-.2-5.2-1.1-1.5-1-2.2-2.8-3.4-4.2-1.9-2.2-4.9-3-7.8-3.6-3.8-.9-7.7-1.8-11.5-2.7-2-.5-4.7-.7-5.8 1-.3.7-.6 1.4-.7 2.2-.9 2.8-3.4 4.6-6.3 4.7-1-1.6-2.5-2.9-4.4-3.4-1.2-.2-2.4-.5-3.5-.8-2.5-1.2-3.5-4.2-2.3-6.6 0-.1.1-.2.1-.2 1.4-2.4.9-5.5-1.1-7.4-2-1.8-4.8-2.2-7.4-2-.7-1.5.5-3.2 1.7-4.3s2.7-2.2 3-3.8c.4-2.6-2.8-4.5-5.3-3.7s-4.1 3.2-5.1 5.5c-.5 1.4-1.2 2.7-2.1 3.9s-2.4 1.8-3.9 1.6c-2-.5-2.8-3-3.3-5-.7-2.7-1.1-5.6-1.1-8.4 0-2.9 1.2-5.6 3.2-7.6 3.4-3.1 8.6-2.8 13.2-2.3-1-1.4-.9-3.2.3-4.4 1.2-1.1 2.9-1.5 4.6-1.1 1.4.3 2.6 1 3.5 2.1 1.3 1.6 1.7 3.7 2.7 5.5s3.2 3.3 5 2.4c1.6-.8 1.8-3 1.4-4.7s-1.2-3.4-1.1-5.2c.3-3.4 3.8-5.4 6.9-6.8s6.6-3.3 7.1-6.6c0-.7.1-1.3.4-1.9.3-.5.8-1 1.4-1.3 9-5.9 18.1-12 28.4-15.2.5-.2.6 0 1.1-.1.8-.4.3-1.7-.5-2.2-.7-.5-1.7-.9-1.9-1.7-.1-.6.2-1.3.3-1.9.1-1.3-.9-2.4-2.2-2.5-.3 0-.6 0-.9.1-.8-1.1.8-2.4 2.1-2.7 4-1.1 8-1.8 12.2-2 .5-.1 1 0 1.4.2.6.6.7 1.6.1 2.3-.6.6-1.2 1.2-1.8 1.7-1.4 1.3-1.9 3.3-1.3 5.1 2.2 1.1 4.5 2.2 6.9 1.8s4.5-3.1 3.4-5.2c-1-2-4.2-2.4-4.7-4.6-.6-2.5 3-4.8 2.2-7.3-.3-1.1-1.4-1.7-2.3-2.5-2-2-2.6-5-1.5-7.6-2.8.5-5.6-.4-7.6-2.4-1.8-1.8-3.3-4.7-5.8-4.6-2.4.1-4.4 2.8-6.6 2-.5-.2-1.1-.6-1.6-.4-.3.2-.6.6-.6 1-.6 2.7.4 5.7-1.1 8.1-1.6 2.5-5.3 2.9-7.2 5.2-1 1.2-1.5 2.9-2.4 4.2s-3 2.1-4.2 1c1.2-2.4.5-5.3-1.6-7-1.1-.7-2.2-1.3-3.4-1.7-1.4-.6-2.6-1.3-3.9-2.1-.6-.4-1.1-.9-1.4-1.5-.3-.8-.2-1.6.1-2.4 1.2-3.4 4.2-5.9 7.8-6.4 1.5-.2 3.3-.1 4.4-1.3.5-.6.8-1.6 1.6-1.8.5-.1 1 0 1.5.2 1.9.7 3.8 1.3 5.7 2 .6.3 1.3.4 2 .3s1.2-.7 1.2-1.5c-.2-1-1.7-1.4-1.5-2.4.1-.3.2-.6.5-.8 4.2-4.5 10.2-6.8 16.3-6.4.7 1.2-.4 2.6-1.4 3.6s-1.7 2.8-.6 3.6c.5.2 1 .4 1.5.3 1.4.2 2.8.6 4.1 1.2 2 .9 3.9 1.8 5.9 2.8-.3-1.2-.2-2.5.1-3.8.4-1.2 1.7-2 3-1.6 1.1.4 1.7 2 2.9 2.1 1.6.2 2.3-2.2 1.6-3.7s-2-2.7-2.1-4.4c-.1-1.1.3-2.5-.5-3.1-.3-.2-.7-.3-1-.4-7.3-1.3-14.6-2.7-21.9-4-1.3-.2-3.2-.1-3.2 1.3 0 .7.6 1.5.3 2.2s-1.3.7-2.1.9c-1.1.5-1.8 1.7-1.6 3 .2 1.2.7 2.4 1.4 3.4-1.4-.6-3.6-.7-5-1.3-.2-1.7-.6-3.3-1.3-4.8-.1-.9-1-1.6-1.9-1.4-.1 0-.2 0-.3.1-1.9.3-3.8.6-5.7.9-.5 0-.9.2-1.3.5-.7.8 0 2 0 3.1-.1 1.2-1 2.2-2.2 2.5-1.2.2-2.4.2-3.6 0-2.6-.4-5.3-.8-7.9-1.2 2.3-.7 4.4-2.1 6-4 1-1.2 1.6-3.5.1-4.1-.4-.1-.9-.2-1.4-.1-3.6 0-6.4-3-9.8-4.2-1.1-.4-2.2-.6-3.3-.6z" fill="#f5f5f5"/><path d="m606 408.5c-.8 1.1-2.2 1.8-3.6 1.7-3.6-.3-5.2-5.6-8.8-6.2-.3-.1-.7 0-1 .1-.5.3-.6 1-.7 1.6-.2 3-.3 6.1.9 8.9 1.7 4 6.1 7.4 5.2 11.7-5-2.3-7.6-7.9-8.8-13.3s-1.4-11-3.5-16.1c-1.6 2.1-5 .4-6.5-1.8-1.4-2-2.3-4.4-3.6-6.5s-3.4-3.9-5.9-4c-2.6-.1-4.9 1.7-6.8 3.3-1.7 1.3-3.2 2.9-4.2 4.7-1.4 2.8-1 6.1-1.1 9.2-.1 3.3-.8 6.9-3.1 9.4s-6.5 3.3-9 1.1c-1.2-1.3-2.1-2.8-2.5-4.5-2.7-8-5-16.1-6.8-24.4-.4 1.9-2.1 4.3-3.7 3.2-.4-.3-.6-.7-.8-1.1-3-5-8.4-8-13.9-9.8s-11.3-2.6-16.8-4.6c-3.1-1.1-6-2.6-8.7-4.3-1.4 2.1-1.6 4.8-.4 7 1.3 2.2 3.8 3.3 6.3 2.6 1.2-.4 2.2-1.2 3.4-1.7 1.2-.4 2.8-.2 3.3 1 .5 1.1-.3 2.4.1 3.6.6 1.8 3.2 1.9 4.2 3.5.6 1.3.2 2.8-.9 3.7s-2.3 1.6-3.5 2.2c-3.9 2.2-6.7 5.9-10.1 8.8s-8.2 5-12.3 3.2c1-4.9-4.9-8.5-6-13.4-.4-1.6-.2-3.3-.7-4.9-.7-2.3-2.8-3.8-4.4-5.6-4.1-4.3-6.2-10-6-15.9.1-2 .5-4.1 0-6.1s-2.1-3.9-4.1-3.8c-4.6.2-10.4.6-12.9-3.4-.9-1.4-1.2-3.5 0-4.5 1-.6 2.2-.8 3.3-.6 3.5.3 6.9.7 10.4 1 2.4.2 5.1.4 7.2-.8s3-4.7 1.1-6.2c-1.4-1.1-3.9-1-4.4-2.8-.3-1.5 1.3-3.1.4-4.3-.6-.9-2-.6-2.9 0-.7.8-1.5 1.5-2.4 2.1-1.7.9-3.6 0-5.4-.5s-4.2-.6-5 1.1c-1 1.8.8 4.3-.1 6.2-1.3 2.5-5.6 1.1-7.4 3.2-2 2.4 1.4 6 .7 9.1-1.8.9-3.9.8-5.6-.3s-2.6-3.1-2.3-5.1c.2-1.4.9-2.8.4-4.1-.5-1-1.4-1.8-2.5-2.2-3.4-1.9-6.7-3.7-10.1-5.6-.9 1.7.2 3.9 1.7 5.2s3.3 2.3 4.3 4c1.3 2.5.4 5.5-2 7-.3.2-.7.3-1 .2-.3-.2-.6-.5-.7-.9-1.8-4.6-4.5-9.1-8.7-11.5-4.3-2.4-10.4-1.9-13.3 2.1-.7 1-1.1 2-1.7 3.1-3.1 5.4-9.7 7.9-15.9 7.7-.6 0-1.2-.1-1.7-.4-1-.7-1-2.2-.8-3.4.2-1.7.4-3.4.7-5.1 0-1 .4-2 1.1-2.8 1.2-.9 2.8-.3 4.3-.4 2.3-.1 4.2-1.6 4.9-3.8.6-2.2-.1-4.5-1.7-6-.7-.6-1.6-1.4-1.2-2.3.3-.5.8-.8 1.3-.9 2.6-.8 5.4-1 8-1.9s5.1-2.7 5.7-5.4c.2-.8.3-1.8 1-2.2.4-.1.8-.2 1.2-.2 2.9-.4 5-3 4.9-5.9 1.2-.9 3-.2 4.2.7s2.2 2.1 3.7 2.5c2.7.7 5.3-1.7 8.1-1.7 1.2 0 2.4.4 3.5 0s1.8-1.5 2.7-2.3 2.4-1.3 3.2-.4c-.2-1.7-.5-3.4-.7-5 2.8.7 5.7.2 8.1-1.5-2.9-1-5.9-2-8.8-3-.3-.1-.6-.2-.8-.4-.6-.7 0-1.8.5-2.5 1.2-1.9 1.5-5-.6-5.9-1.4-.6-3 .1-4.3.9-2.1 1.2-4.3 2.4-6.4 3.6-.2 1.2 1.3 1.9 2.2 2.7 1.5 1.4 1.7 3.7.3 5.2-.7.8-1.7 1.2-2.7 1.2.9 1.1 1.2 2.6.8 3.9-1.4.1-2.9.2-4.3.3-.5.1-1 0-1.4-.3-.5-.4-.4-1.1-.5-1.7-.4-1.5-1.6-2.6-3.2-2.8-1.5-.2-3 0-4.4.4-.6.2-1.3.2-1.9 0-.3-.2-.6-.6-.7-1-.5-1.6-.1-3.4 1-4.7 1.1-1.2 2.3-2.4 3.7-3.4 3-2.6 5.2-6.1 6.4-9.9 2.4-1 4.8-2.3 7.2-3.3 1.9-.9 3.9-1.6 6-2 1.9-.3 3.9-.4 5.9-.3 2.7 0 5.4.1 8 .2 2.4-.1 4.8.2 7 1 2.2.9 4.1 2.9 4.3 5.2.1.5-.1 1.1-.5 1.5-.3.2-.7.3-1 .2-2.2.1-3.2.6-5.4.7 1.4 1.5 3 3.1 5 3.3 3.6.5 6.2-3.3 7.9-6.5.1 1.7 1.6 3 3.3 2.9.9-.2 1.7-.5 2.5-1 7.2-3.9 15.2-6 23.3-6-.2-1.3.7-2.5 1.9-2.8 1.7-.3 3.2 1.1 4 2.6s1.3 3.2 2.6 4.3 3.7 1.1 4.2-.5c.5-1.5-1.1-2.9-2.5-3.8-1.3-.9-2.8-2.6-1.8-3.9 6.8-1.5 13.7-3 20.8-3.3 1.2 0 2.4-.2 3.5-.6 1.1-.5 1.8-1.7 1.6-2.9-3.1.7-6.4-.5-8.3-3.1 7.2-.6 14.7-1.1 21.7.5l6.1 5.1c-1.2 1.2-2.7 2.3-1.8 3.5.6.6 1.3.8 2.1.7 1.5 0 2.9.1 4.4.1 30.1 28.8 48.6 67.6 52.1 109.1-2.4-.1-4.7 3-4.4 5.7.4 3.1 2.6 5.6 4.2 8.3.3.4.5.9.7 1.4z" fill="#f5f5f5"/><path d="m397.4 162.7h93.1v38.5h-93.1z" fill="#fff"/><path d="m387.5 124.2h113v38.5h-113z"/><path d="m399.1 94.6h89.9v29.6h-89.9z" fill="#0072ce"/><path d="m445.8 76.6c-37.2-1-68.2 28.4-69.2 65.6s63.1 161.3 63.1 161.3 70.7-120.5 71.7-157.7-28.4-68.2-65.6-69.2zm-3.2 117.5c-26.8-.7-47.9-23-47.2-49.8s23-47.9 49.8-47.2 47.9 23 47.2 49.8c-.7 26.8-23 47.9-49.8 47.2z" fill="#606060"/></svg>