<svg enable-background="new 0 0 1007 889.1" viewBox="0 0 1007 889.1" xmlns="http://www.w3.org/2000/svg" xmlns:xlink="http://www.w3.org/1999/xlink"><linearGradient id="a" gradientTransform="matrix(.7625 .647 -.647 .7625 622.8097 -32.2897)" gradientUnits="userSpaceOnUse" x1="154.7657" x2="154.7657" y1="247.2473" y2="360.7069"><stop offset="0" stop-color="#808080" stop-opacity=".25"/><stop offset=".54" stop-color="#808080" stop-opacity=".12"/><stop offset="1" stop-color="#808080" stop-opacity=".1"/></linearGradient><path d="m855.2 822.4c15.9-14.1 19.8-30 29.3-45.2 13.6-21.5 38.8-41.7 72-57.9 6.9-3.3 14.1-6.5 19.2-10.5 17.8-13.6 5.2-29.9-9.1-42.6-36.6-32-80.6-60.9-131.6-86.2-16.7-8.3-39.9-16.6-64.1-11.5-11.6 2.5-20.3 7.6-30.9 11-27.2 8.8-60.7 5.4-88.7.7-33.9-5.6-66.5-12.4-97.8-20.2-31.5-8-67-17.3-103.4-10.7-23.1 4.2-41.3 14-55.3 24.3-46.3 33.5-69 78.1-140.6 97.7-30.1 8.2-64.4 10.5-94.5 18.8-43.5 12-71.6 35.3-83.3 58.5s-9.2 46.6-6.6 69.6c.9 7.6 2 15.6 10.4 21.5 8.8 6.2 24.1 9.2 38.7 11.8 66.3 12.3 135.7 24.7 209.9 20.8 36.9-1.9 73.3-7.9 109.9-12.4 79-9.8 163.2-15.5 238.5-6.2 61.3 7.6 140.4 2.3 178-31.3z" fill="#363636" opacity=".1"/><path d="m314.7 86.7-108.4 366.8s90.7 124.9 381.8-12.6c0 0 175.5-69 262.2 30.3l-39.4-299.5s-60.8-107-279.4-39.2c0 0-126.7 56.7-216.8-45.8z" fill="#5d76b7"/><path d="m491.2 183.4-7.8 20.9-20.3 1.6 14.3 9.4-7.6 18.6 17.8-13.5 12.8 9.2-3.2-17.7 15.7-13.6-18.3 2.6zm64.6-27.5-7.8 19.4-19.8 3.9 13.8 7.1-5.5 19 16-15.7 14.3 8.6-4.9-16.4 14.9-13-16.2 3.4zm61.1 1.7-5.3 17.5-20.7 5.2 14.6 5.8-5.3 17.5 17.2-12.8 15.1 8.8-6.2-17.2 17.8-12.6-20.6 3.7zm41.3 33.6-5.3 17.5-21.1 1.5 15.7 8.1-6 17.3 17.8-12.6 14.9 9.4-6.5-14.4 17.8-13.5-21.1 2.3zm13.7 52.5-5.3 17.5-21.1 1.6 15.7 8.1-6 17.3 17.8-12.6 14.9 9.4-6.5-14.4 18-13.3-21.1 2.3zm-13.2 52-5.3 17.5-21.1 1.6 15.7 8.1-5.8 17.3 17.8-12.6 14.9 9.4-6.5-14.4 18-13.3-21.1 2.3zm-58.3 51.2-5.5 19-25.3 7.6 18.1 5.3-4.5 16.9 17.3-14.9 18.8 6.2-7.8-15.9 16.5-14.3-18.5 4.7zm-66.5 38.3-7.6 18.6-23.2 7.8 17.5 5.3-6.2 18.1 18.1-16.2 16.9 4.5-6.4-14.3 18.1-15.6-19.9 5.2zm-66.4 1.3-8.4 20.1-23.5 4.2 13.8 7.1-6 17.5 17.8-13.5 16 5.2-3.6-14.7 18.1-16.2-20.1 6zm-44.2-27.4-9.3 19.9-20.9.2 12.8 9.9-7.3 15.9 17.7-11.2 15.7 8.8-2.6-16.9 14.9-13-16.9 1.9zm-10.7-59.5-8.4 19.3-23.5-2.3 15.2 13.8-10.5 18.5 20.7-12.3 15.4 11.7-4.1-17.7 20.9-15.2-23.2.6zm30.9-64.8-8.4 19.3-23.5-2.3 15.2 13.8-10.5 18.4 20.7-12.3 15.4 11.7-4.1-17.7 20.9-15.2-23.2.6z" fill="#ffd037"/><path d="m583.4 336.5-1.5-53.3c-.2-3.4-2.9-6.2-6.3-6l-3.9.2-.6-22.4c-.3-8.8-7.5-15.6-16.2-15.4l-26.1.6c-8.8.3-15.6 7.5-15.4 16.2l.6 22.4-3.9.2c-3.4.2-6.2 2.9-6 6.3l1.5 53.3c.2 3.4 2.9 6.2 6.3 6l65.5-1.8c3.4.1 6-2.7 6-6.3zm-64.4-76.1c-.3-8.8 6.6-16 15.4-16.2l14.7-.5c8.8-.3 16 6.6 16.2 15.4l.5 18.3-46.3 1.3zm27.6 53 .2 8.8c0 1.9-1.5 3.6-3.4 3.6s-3.6-1.5-3.6-3.4l-.3-9.1c-4.2-2.1-5.8-7.1-3.7-11.3s7.1-5.8 11.3-3.7 5.8 7.1 3.7 11.3c-.8 1.5-2.3 3-4.2 3.8z" fill="url(#a)"/><path d="m554.2 242.2-24.8.6c-8.3.2-14.7 7.1-14.6 15.4l.6 23.3 5.3-.2-.5-19.6c-.2-8.3 6.3-15.2 14.6-15.4l13.9-.3c8.3-.2 15.2 6.3 15.4 14.6l.5 19.6 5.3-.2-.6-23.3c0-8.2-6.8-14.6-15.1-14.5z" fill="#fff"/><path d="m573.8 277.9-62.2 1.8c-3.2.2-5.8 2.8-5.7 6l1.5 50.6c.2 3.2 2.8 5.8 6 5.7l62.2-1.8c3.2-.2 5.8-2.8 5.7-6l-1.5-50.6c0-3.1-2.6-5.7-6-5.7zm-27.4 34.3.2 8.3c.2 1.8-1.3 3.4-3.1 3.4-1.8.2-3.4-1.3-3.4-3.1v-.2l-.2-8.8c-3.9-1.9-5.5-6.8-3.6-10.7s6.8-5.5 10.7-3.6 5.5 6.8 3.6 10.7c-.8 1.9-2.2 3.2-4.2 4z" fill="#fff"/><path d="m319.7 68.7-222.6 743.1 22.8 9.4 223.5-744.4z" fill="#666"/></svg>