<svg id="e613b765-a21b-4502-9325-e6e5b4d66d88" xmlns="http://www.w3.org/2000/svg" viewBox="0 0 929.5 793.1"><style>.st0{opacity:.3;fill:#363636;enable-background:new}.st1{fill:#f2f2f2}.st2{fill:#363636}.st3{fill:#e6e6e6}.st4{fill:#f5f5f5}.st5{opacity:.1;fill:#363636;enable-background:new}</style><path transform="rotate(-82.813 543.065 340.323)" class="st0" d="M538.8 232.6H547.3V448.1H538.8z"/><path transform="rotate(-82.813 539.614 367.7)" class="st0" d="M535.3 259.9H543.8V475.4H535.3z"/><path transform="rotate(-82.813 536.164 395.077)" class="st0" d="M531.8 287.3H540.3V502.8H531.8z"/><path class="st1" d="M672.8 571l-258.1-32.5c-11.7-97.3 6-192.3 36.2-286.8L709 284.2c-39 92.7-50.4 188.3-36.2 286.8z"/><path transform="rotate(-82.813 564.77 304.405)" class="st2" d="M556.2 224.9H573.3000000000001V383.9H556.2z"/><path transform="rotate(-82.813 556.869 340.823)" class="st0" d="M552.6 233.1H561.1V448.6H552.6z"/><path transform="rotate(-82.813 553.418 368.2)" class="st0" d="M549.1 260.4H557.6V475.9H549.1z"/><path transform="rotate(-82.813 549.968 395.577)" class="st0" d="M545.7 287.8H554.2V503.3H545.7z"/><path transform="rotate(-82.813 546.518 422.954)" class="st0" d="M542.2 315.2H550.7V530.7H542.2z"/><path class="st3" d="M550.6 475.1l-241.5-96.8c13.3-97.1 54.4-184.5 107.5-268.3l241.5 96.8c-61.1 79.8-96.4 169.5-107.5 268.3z"/><path transform="rotate(-68.16 513.465 189.86)" class="st2" d="M504.9 110.4H522V269.4H504.9z"/><path transform="rotate(-68.16 496.606 223.091)" class="st0" d="M492.3 115.3H500.8V330.8H492.3z"/><path transform="rotate(-68.16 486.34 248.702)" class="st0" d="M482.1 141H490.6V356.5H482.1z"/><path transform="rotate(-68.16 476.074 274.313)" class="st0" d="M471.8 166.6H480.3V382.1H471.8z"/><path transform="rotate(-68.16 465.808 299.924)" class="st0" d="M461.5 192.2H470V407.7H461.5z"/><path transform="rotate(-68.16 455.543 325.535)" class="st0" d="M451.3 217.8H459.8V433.3H451.3z"/><path transform="rotate(-68.16 445.277 351.146)" class="st0" d="M441 243.4H449.5V458.9H441z"/><path transform="rotate(-68.16 435.011 376.757)" class="st0" d="M430.7 269H439.2V484.5H430.7z"/><path class="st1" d="M490.9 498.4H230.7c-23.8-95.1-18.1-191.5 0-289.1h260.2c-27.1 96.9-26.5 193.2 0 289.1z"/><path class="st2" d="M270.8 238.9H429.8V256H270.8z"/><path class="st0" d="M239.3 280.3H454.8V288.8H239.3z"/><path class="st0" d="M239.3 307.9H454.8V316.4H239.3z"/><path class="st0" d="M239.3 335.5H454.8V344H239.3z"/><path class="st0" d="M239.3 363.1H454.8V371.6H239.3z"/><path class="st0" d="M239.3 390.7H454.8V399.2H239.3z"/><path class="st0" d="M239.3 418.3H454.8V426.8H239.3z"/><path class="st0" d="M239.3 335.8H454.8V344.3H239.3z"/><path class="st2" d="M315.5 330.7L225.9 261c-1.8-3.2-5.2-5.1-8.9-5.1h-48.4c-5.7 0-10.2 4.6-10.2 10.2V693c0 18.3 14.9 33.2 33.2 33.2h496.6c18.3 0 33.2-14.9 33.2-33.2V360.9c0-16.7-13.5-30.2-30.2-30.2H315.5z"/><path d="M614.4 429.7H704.5V461.2H614.4z"/><path class="st4" d="M439.9 551.3c-20.5 0-37.1-15.9-38.6-36L373 493.4c-3.7 4.7-7.2 9.6-9.9 15-1.3 2.5-1.3 5.4 0 7.9 14.7 28.6 43.7 47.9 76.9 47.9 7.3 0 14.3-1.1 21-2.8l-14-10.9c-2.4.6-4.8.8-7.1.8zm84.8 15.7l-29.9-23.1c9.1-7.6 16.5-17 22-27.6 1.3-2.5 1.3-5.4 0-7.9-14.7-28.6-43.7-47.9-76.9-47.9a82.7 82.7 0 0 0-39.8 10.2l-34.4-26.6c-1.9-1.5-4.6-1.1-6.1.8l-5.3 6.8c-1.5 1.9-1.1 4.6.8 6.1l159 122.9c1.9 1.5 4.6 1.1 6.1-.8l5.3-6.8c1.4-1.9 1.1-4.6-.8-6.1zM475 528.6l-10.6-8.2c.9-2.6 1.4-5.3 1.4-8 .2-14.1-11.1-25.8-25.3-25.9-2.5 0-5.1.3-7.5 1 1.6 2.2 2.5 4.9 2.5 7.6 0 .9-.2 1.8-.4 2.7l-19.9-15.4c6.9-5.8 15.6-8.9 24.6-8.9 21.5 0 38.9 17.4 38.9 38.9.1 5.8-1.3 11.3-3.7 16.2z"/><ellipse class="st5" cx="439.9" cy="733.2" rx="402.5" ry="25.3"/></svg>