<svg id="a594ac37-6d44-4297-8862-1cbd9c01c0b7" xmlns="http://www.w3.org/2000/svg" viewBox="0 0 1126.2 855"><style>.st0{fill:#f2f2f2}.st1{fill:#363636}.st2{opacity:.1;enable-background:new}.st3{fill:#f5f5f5}</style><path class="st0" d="M544.9 755.9C302.5 737.5 13.4 549.7 28.1 356.3S322.8-17.1 565.2 1.3s381.9 379.9 367.2 573.3c-14.7 193.3-145.1 199.8-387.5 181.3z"/><ellipse class="st1" cx="565.2" cy="756" rx="506" ry="31"/><ellipse class="st2" cx="565.2" cy="755.5" rx="431" ry="20.5"/><path class="st1" d="M196.2 162H948.2V752H196.2z"/><path class="st0" d="M563.6 242.6H378.1c-1.2 0-2.3-1-2.3-2.2s1-2.3 2.2-2.3h185.5c1.2 0 2.2 1 2.2 2.3.2 1.2-.8 2.2-2.1 2.2zm203.1 24.8H474.9c-1.2 0-2.3-1-2.3-2.3s1-2.3 2.3-2.3h291.8c1.2 0 2.3 1 2.3 2.3s-1 2.3-2.3 2.3zm-202.2 24.8H379c-1.2 0-2.3-1-2.3-2.3s1-2.3 2.3-2.3h185.5c1.2 0 2.3 1 2.3 2.3s-1 2.3-2.3 2.3zm202.2.4H581.2c-1.2 0-2.3-1-2.3-2.3s1-2.3 2.3-2.3h185.5c1.2 0 2.3 1 2.3 2.3s-1 2.3-2.3 2.3zM565 316.9H379.5c-1.2 0-2.3-1-2.3-2.3s1-2.3 2.3-2.3H565c1.2 0 2.3 1 2.3 2.3s-1.1 2.3-2.3 2.3zm.4 24.8H379.9c-1.2 0-2.3-1-2.3-2.3s1-2.3 2.3-2.3h185.5c1.2 0 2.3 1 2.3 2.3s-1 2.3-2.3 2.3zm84.2-98.6h-53.1c-1.2 0-2.3-1-2.3-2.3s1-2.3 2.3-2.3h53.1c1.2 0 2.3 1 2.3 2.3s-1 2.3-2.3 2.3zm0 73.8h-53.1c-1.2 0-2.3-1-2.3-2.3s1-2.3 2.3-2.3h53.1c1.2 0 2.3 1 2.3 2.3s-1 2.3-2.3 2.3zm0 24.3h-53.1c-1.2 0-2.3-1-2.3-2.2s1-2.3 2.2-2.3h53.1c1.2 0 2.3 1 2.3 2.2s-.9 2.3-2.2 2.3c.1 0 0 0 0 0zm89.2 0h-53.1c-1.2 0-2.2-1-2.2-2.3 0-1.2 1-2.2 2.2-2.2h53.1c1.2 0 2.3 1 2.3 2.2s-1 2.3-2.3 2.3zm-308-73.8h-53.1c-1.2 0-2.3-1-2.3-2.3s1-2.3 2.3-2.3h53.1c1.2 0 2.3 1 2.3 2.3s-1.1 2.3-2.3 2.3zm133.1 340H378.3c-1.2 0-2.3-1-2.3-2.3 0-1.2 1-2.3 2.3-2.3h185.5c1.2 0 2.3 1 2.3 2.3 0 1.3-1 2.3-2.2 2.3zm-.9 49.5H377.4c-1.2 0-2.3-1-2.3-2.3 0-1.2 1-2.3 2.3-2.3H563c1.2 0 2.3 1 2.3 2.3-.1 1.3-1.1 2.3-2.3 2.3zm.4 24.8H377.9c-1.2 0-2.3-1-2.3-2.3 0-1.2 1-2.3 2.3-2.3h185.5c1.2 0 2.3 1 2.3 2.3 0 1.2-1 2.3-2.3 2.3zm79.3-24.4h-53.1c-1.2 0-2.3-1-2.3-2.3 0-1.2 1-2.3 2.3-2.3h53.1c1.2 0 2.3 1 2.3 2.3-.1 1.3-1.1 2.3-2.3 2.3zm0 24.4h-53.1c-1.2 0-2.3-1-2.3-2.3 0-1.2 1-2.3 2.3-2.3h53.1c1.2 0 2.3 1 2.3 2.3-.1 1.2-1.1 2.3-2.3 2.3zm89.1-24.4h-53.1c-1.2 0-2.3-1-2.3-2.3 0-1.2 1-2.3 2.3-2.3h53.1c1.2 0 2.3 1 2.3 2.3 0 1.3-1 2.3-2.3 2.3zm35.1-25.2H475.2c-1.2 0-2.3-1-2.3-2.3 0-1.2 1-2.3 2.3-2.3H767c1.2 0 2.3 1 2.3 2.3-.1 1.3-1.1 2.3-2.4 2.3zm-335.9 0h-53.1c-1.2 0-2.3-1-2.3-2.3 0-1.2 1-2.3 2.3-2.3H431c1.2 0 2.3 1 2.3 2.3 0 1.3-1 2.3-2.3 2.3zm335.9 74.8H475.2c-1.2 0-2.3-1-2.3-2.3 0-1.2 1-2.3 2.3-2.3H767c1.2 0 2.3 1 2.3 2.3-.1 1.3-1.1 2.3-2.4 2.3zm-335.9 0h-53.1c-1.2 0-2.3-1-2.3-2.3 0-1.2 1-2.3 2.3-2.3H431c1.2 0 2.3 1 2.3 2.3 0 1.3-1 2.3-2.3 2.3z"/><path class="st3" d="M519.1 401.1L447 472.3 519.1 543.4 535.3 527.2 480.8 472.7 535.7 417.8z"/><path class="st3" d="M625.3 401.1L697.4 472.3 625.3 543.4 609.1 527.2 663.6 472.7 608.7 417.8z"/><circle class="st3" cx="216.2" cy="177" r="9"/><circle class="st3" cx="240.2" cy="177" r="9"/><circle class="st3" cx="264.2" cy="177" r="9"/><path class="st2" d="M196.2 192H948.2V195H196.2z"/><path class="st0" d="M1126.2 607.5c0 63.8-37.9 86-84.7 86s-84.7-22.3-84.7-86 84.7-144.9 84.7-144.9 84.7 81.1 84.7 144.9z"/><path class="st1" d="M1038.4 683.7L1039.3 630.4 1075.4 564.3 1039.4 622 1039.8 598 1064.7 550.2 1039.9 591.6 1039.9 591.6 1040.6 548.5 1067.3 510.5 1040.7 541.7 1041.2 462.6 1038.4 567.3 1038.7 563 1011.6 521.6 1038.2 571.3 1035.7 619.5 1035.6 618.2 1004.4 574.6 1035.5 622.7 1035.2 628.8 1035.2 628.9 1035.2 629.4 1028.8 751.7 1037.3 751.7 1038.4 688.5 1069.4 640.5z"/></svg>