<svg enable-background="new 0 0 1144 617.3" viewBox="0 0 1144 617.3" xmlns="http://www.w3.org/2000/svg"><g fill="#363636"><path d="m1144 396.2c0 16.8-2.3 33.5-6.8 49.6-4.4 15.6-10.9 30.5-19.3 44.3 0 50.1-33.8 93.4-82.9 114-20.5 8.5-42.5 12.9-64.7 12.8h-753.1c-40.2 0-77.6-10.9-108.1-29.4-8.8-5.3-17.1-11.3-24.8-17.9-34-29.2-55.1-69.6-55.1-114.2-19.2-29.3-29.3-63.6-29.2-98.7 0-73.4 43.4-136.4 105.6-164.3 8.3-3.7 16.8-6.7 25.5-9.1 3.1-.8 6.2-1.6 9.4-2.3 8.4-1.8 16.9-3 25.5-3.5 3.1-.2 6.2-.3 9.4-.3h1.7c3.5 0 6.9.1 10.3.3l1.1-1.9c1.4-2.3 2.8-4.6 4.2-6.8 2.6-4.1 5.3-8.1 8.2-12.1 3-4.2 6.1-8.3 9.4-12.4l.8-1c1.8-2.3 3.7-4.6 5.6-6.8 6-7 12.3-13.8 19-20.4 72.1-70.6 185-116.1 312-116.1 98.8 0 189.2 27.6 258.3 73.1 26.2-14.8 55.8-22.6 85.9-22.6 97.7 0 177 80.4 177 179.5 0 6.3-.3 12.5-1 18.8 47.9 33.9 76.3 88.9 76.1 147.4z" opacity=".1"/><path d="m235.7 116.2v20.4h-19c5.9-7.1 12.2-13.8 19-20.4zm9.3-5.2h25.5v25.5h-25.5zm34.9 0h25.5v25.5h-25.5zm34.9 0h25.5v25.5h-25.5zm34.8 0h25.5v25.5h-25.5zm34.9 0h25.5v25.5h-25.5z" opacity=".2"/><path d="m419.4 111h25.5v25.5h-25.5z"/><path d="m454.2 111h25.5v25.5h-25.5zm34.9 0h25.5v25.5h-25.5zm34.8 0h25.5v25.5h-25.5z" opacity=".2"/><path d="m558.8 111h25.5v25.5h-25.5z"/><path d="m593.7 111h25.5v25.5h-25.5zm34.8 0h25.5v25.5h-25.5zm34.9 0h25.5v25.5h-25.5zm34.9 0h25.5v25.5h-25.5zm34.8 0h25.5v25.5h-25.5zm34.9 0h25.5v25.5h-25.5z" opacity=".2"/><path d="m802.9 111h25.5v25.5h-25.5zm34.8 0h25.5v25.5h-25.5z"/><path d="m872.6 111h25.5v25.5h-25.5zm34.9 0h25.5v25.5h-25.5z" opacity=".2"/><path d="m942.3 111h25.5v25.5h-25.5zm34.9 0h25.5v25.5h-25.5zm-776.4 45.7v12.1h-8.2c2.6-4.1 5.3-8.1 8.2-12.1z"/><path d="m210.1 143.3h25.5v25.5h-25.5z" opacity=".2"/><path d="m245 143.3h25.5v25.5h-25.5z"/><path d="m279.9 143.3h25.5v25.5h-25.5z" opacity=".2"/><path d="m314.8 143.3h25.5v25.5h-25.5z" opacity=".7"/><path d="m349.6 143.3h25.5v25.5h-25.5z" opacity=".2"/><path d="m384.5 143.3h25.5v25.5h-25.5z" opacity=".4"/><path d="m419.4 143.3h25.5v25.5h-25.5z"/><path d="m454.2 143.3h25.5v25.5h-25.5z" opacity=".4"/><path d="m489.1 143.3h25.5v25.5h-25.5z" opacity=".2"/><path d="m523.9 143.3h25.5v25.5h-25.5z" opacity=".4"/><path d="m558.8 143.3h25.5v25.5h-25.5z"/><path d="m593.7 143.3h25.5v25.5h-25.5zm34.8 0h25.5v25.5h-25.5z" opacity=".4"/><path d="m663.4 143.3h25.5v25.5h-25.5z" opacity=".2"/><path d="m698.3 143.3h25.5v25.5h-25.5zm34.8 0h25.5v25.5h-25.5z" opacity=".4"/><path d="m768 143.3h25.5v25.5h-25.5zm34.9 0h25.5v25.5h-25.5z" opacity=".2"/><path d="m837.7 143.3h25.5v25.5h-25.5z" opacity=".4"/><path d="m872.6 143.3h25.5v25.5h-25.5z" opacity=".2"/><path d="m907.5 143.3h25.5v25.5h-25.5zm34.8 0h25.5v25.5h-25.5zm34.9 0h25.5v25.5h-25.5z"/><path d="m131.1 183.3v17.8h-25.5v-8.7c8.2-3.6 16.7-6.7 25.5-9.1zm34.8-5.7v23.6h-25.5v-20.1z" opacity=".2"/><path d="m175.3 175.6h25.5v25.5h-25.5z"/><path d="m210.1 175.6h25.5v25.5h-25.5z" opacity=".7"/><path d="m245 175.6h25.5v25.5h-25.5z"/><path d="m279.9 175.6h25.5v25.5h-25.5zm34.9 0h25.5v25.5h-25.5z" opacity=".7"/><path d="m349.6 175.6h25.5v25.5h-25.5z" opacity=".2"/><path d="m384.5 175.6h25.5v25.5h-25.5zm34.9 0h25.5v25.5h-25.5z" opacity=".4"/><path d="m454.2 175.6h25.5v25.5h-25.5z"/><path d="m489.1 175.6h25.5v25.5h-25.5z" opacity=".2"/><path d="m523.9 175.6h25.5v25.5h-25.5z" opacity=".4"/><path d="m558.8 175.6h25.5v25.5h-25.5z"/><path d="m593.7 175.6h25.5v25.5h-25.5z" opacity=".2"/><path d="m628.5 175.6h25.5v25.5h-25.5z" opacity=".4"/><path d="m663.4 175.6h25.5v25.5h-25.5z" opacity=".2"/><path d="m698.3 175.6h25.5v25.5h-25.5z"/><path d="m733.1 175.6h25.5v25.5h-25.5z" opacity=".2"/><path d="m768 175.6h25.5v25.5h-25.5zm34.9 0h25.5v25.5h-25.5z" opacity=".7"/><path d="m837.7 175.6h25.5v25.5h-25.5z" opacity=".4"/><path d="m872.6 175.6h25.5v25.5h-25.5z" opacity=".2"/><path d="m907.5 175.6h25.5v25.5h-25.5zm34.8 0h25.5v25.5h-25.5zm34.9 0h25.5v25.5h-25.5z"/><path d="m105.6 208h25.5v25.5h-25.5zm34.8 0h25.5v25.5h-25.5zm34.9 0h25.5v25.5h-25.5zm34.8 0h25.5v25.5h-25.5z" opacity=".2"/><path d="m245 208h25.5v25.5h-25.5z"/><path d="m279.9 208h25.5v25.5h-25.5zm34.9 0h25.5v25.5h-25.5z" opacity=".7"/><path d="m349.6 208h25.5v25.5h-25.5zm34.9 0h25.5v25.5h-25.5z" opacity=".2"/><path d="m419.4 208h25.5v25.5h-25.5zm34.8 0h25.5v25.5h-25.5z" opacity=".4"/><path d="m489.1 208h25.5v25.5h-25.5z"/><path d="m523.9 208h25.5v25.5h-25.5z" opacity=".2"/><path d="m558.8 208h25.5v25.5h-25.5zm34.9 0h25.5v25.5h-25.5zm34.8 0h25.5v25.5h-25.5zm34.9 0h25.5v25.5h-25.5z" opacity=".4"/><path d="m698.3 208h25.5v25.5h-25.5zm34.8 0h25.5v25.5h-25.5zm34.9 0h25.5v25.5h-25.5zm34.9 0h25.5v25.5h-25.5z" opacity=".2"/><path d="m837.7 208h25.5v25.5h-25.5zm34.9 0h25.5v25.5h-25.5z" opacity=".7"/><path d="m907.5 208h25.5v25.5h-25.5z" opacity=".4"/><path d="m942.3 208h25.5v25.5h-25.5z" opacity=".2"/><path d="m977.2 208h25.5v25.5h-25.5z"/><path d="m105.6 240.3h25.5v25.5h-25.5zm34.8 0h25.5v25.5h-25.5z" opacity=".2"/><path d="m175.3 240.3h25.5v25.5h-25.5z" opacity=".4"/><path d="m210.1 240.3h25.5v25.5h-25.5zm34.9 0h25.5v25.5h-25.5z" opacity=".2"/><path d="m279.9 240.3h25.5v25.5h-25.5zm34.9 0h25.5v25.5h-25.5z" opacity=".7"/><path d="m349.6 240.3h25.5v25.5h-25.5zm34.9 0h25.5v25.5h-25.5z" opacity=".2"/><path d="m419.4 240.3h25.5v25.5h-25.5z" opacity=".4"/><path d="m454.2 240.3h25.5v25.5h-25.5z"/><path d="m489.1 240.3h25.5v25.5h-25.5z" opacity=".2"/><path d="m523.9 240.3h25.5v25.5h-25.5zm34.9 0h25.5v25.5h-25.5zm34.9 0h25.5v25.5h-25.5z"/><path d="m628.5 240.3h25.5v25.5h-25.5z" opacity=".2"/><path d="m663.4 240.3h25.5v25.5h-25.5z"/><path d="m698.3 240.3h25.5v25.5h-25.5zm34.8 0h25.5v25.5h-25.5zm34.9 0h25.5v25.5h-25.5zm34.9 0h25.5v25.5h-25.5zm34.8 0h25.5v25.5h-25.5z" opacity=".2"/><path d="m872.6 240.3h25.5v25.5h-25.5z" opacity=".7"/><path d="m907.5 240.3h25.5v25.5h-25.5zm34.8 0h25.5v25.5h-25.5z" opacity=".2"/><path d="m977.2 240.3h25.5v25.5h-25.5z"/><path d="m105.6 272.6h25.5v25.5h-25.5zm34.8 0h25.5v25.5h-25.5zm34.9 0h25.5v25.5h-25.5z" opacity=".2"/><path d="m210.1 272.6h25.5v25.5h-25.5z" opacity=".4"/><path d="m245 272.6h25.5v25.5h-25.5zm34.9 0h25.5v25.5h-25.5z" opacity=".2"/><path d="m314.8 272.6h25.5v25.5h-25.5z" opacity=".7"/><path d="m349.6 272.6h25.5v25.5h-25.5zm34.9 0h25.5v25.5h-25.5zm34.9 0h25.5v25.5h-25.5z" opacity=".2"/><path d="m454.2 272.6h25.5v25.5h-25.5z"/><path d="m489.1 272.6h25.5v25.5h-25.5z" opacity=".2"/><path d="m523.9 272.6h25.5v25.5h-25.5zm34.9 0h25.5v25.5h-25.5z"/><path d="m593.7 272.6h25.5v25.5h-25.5zm34.8 0h25.5v25.5h-25.5zm34.9 0h25.5v25.5h-25.5zm34.9 0h25.5v25.5h-25.5zm34.8 0h25.5v25.5h-25.5zm34.9 0h25.5v25.5h-25.5zm34.9 0h25.5v25.5h-25.5zm34.8 0h25.5v25.5h-25.5zm34.9 0h25.5v25.5h-25.5zm34.9 0h25.5v25.5h-25.5z" opacity=".2"/><path d="m942.3 272.6h25.5v25.5h-25.5z" opacity=".4"/><path d="m977.2 272.6h25.5v25.5h-25.5z"/><path d="m105.6 304.9h25.5v25.5h-25.5zm34.8 0h25.5v25.5h-25.5zm34.9 0h25.5v25.5h-25.5zm34.8 0h25.5v25.5h-25.5zm34.9 0h25.5v25.5h-25.5z" opacity=".7"/><path d="m279.9 304.9h25.5v25.5h-25.5zm34.9 0h25.5v25.5h-25.5zm34.8 0h25.5v25.5h-25.5zm34.9 0h25.5v25.5h-25.5zm34.9 0h25.5v25.5h-25.5zm34.8 0h25.5v25.5h-25.5z" opacity=".2"/><path d="m489.1 304.9h25.5v25.5h-25.5z"/><path d="m523.9 304.9h25.5v25.5h-25.5zm34.9 0h25.5v25.5h-25.5zm34.9 0h25.5v25.5h-25.5z" opacity=".2"/><path d="m628.5 304.9h25.5v25.5h-25.5z"/><path d="m663.4 304.9h25.5v25.5h-25.5zm34.9 0h25.5v25.5h-25.5zm34.8 0h25.5v25.5h-25.5zm34.9 0h25.5v25.5h-25.5zm34.9 0h25.5v25.5h-25.5zm34.8 0h25.5v25.5h-25.5zm34.9 0h25.5v25.5h-25.5zm34.9 0h25.5v25.5h-25.5zm34.8 0h25.5v25.5h-25.5z" opacity=".2"/><path d="m977.2 304.9h25.5v25.5h-25.5z"/><path d="m1035 574.2v29.9c-20.5 8.5-42.5 12.9-64.7 12.8h-269.7l-.4.4-3.2-.4h-479.8c-40.2 0-77.6-10.9-108.1-29.4v-45.7l230.7-26.6h.2l134.4 11.4 34.8 3 18.1 1.5 37.4 3.2 19.2 1.6 28 2.4 3.9.3 20.2 1.7 27.4 2.2 38.5 3.3 64.2 5.4 45.2 3.8 74.1 6.3 14.1 1.2 1.5.1 1.3.1 18.6 1.6 20.4 1.7 2.4.2z"/></g><path d="m764 573.1-289.1-49.3-11.3 56.7 132.6 15.8 40.8 5.1 112.3-22.1z" fill="#9c9ca1"/><path d="m614.3 598.6 144.9-27.2c2.7-.5 5.3 1.3 5.9 4 .1.3.1.6.1 1 0 2.4-1.7 4.5-4.1 4.9l-141.5 26.5z" fill="#9c9ca1"/><path d="m302 375.7 54.4 200.9c1.4 5 5.7 8.7 10.9 9.2l244.7 23.6c6.9.7 13-4.4 13.7-11.3.1-1.4 0-2.8-.3-4.2l-59.5-242.4c-1.5-5.9-7-10-13.1-9.5l-239.6 17.9c-6.9.5-12.1 6.6-11.5 13.5 0 .8.1 1.6.3 2.3z" fill="#9c9ca1"/><path d="m818.1 347.9-4.1-6.8" opacity=".1" stroke="#4c4981" stroke-miterlimit="10"/></svg>