<svg enable-background="new 0 0 895.7 517.5" viewBox="0 0 895.7 517.5" xmlns="http://www.w3.org/2000/svg" xmlns:xlink="http://www.w3.org/1999/xlink"><linearGradient id="a"><stop offset="0" stop-color="#808080" stop-opacity=".25"/><stop offset=".54" stop-color="#808080" stop-opacity=".12"/><stop offset="1" stop-color="#808080" stop-opacity=".1"/></linearGradient><linearGradient id="b" gradientTransform="matrix(.9887 .1502 .1502 -.9887 -133.0539 153.6803)" gradientUnits="userSpaceOnUse" x1="765.9988" x2="765.9988" xlink:href="#a" y1="-182.6595" y2="193.3405"/><linearGradient id="c" gradientTransform="matrix(.9887 .1502 .1502 -.9887 -133.0528 153.6763)" gradientUnits="userSpaceOnUse" x1="761.0338" x2="761.0338" xlink:href="#a" y1="11.9605" y2="136.1904"/><linearGradient id="d" gradientTransform="matrix(.9887 .1502 .1502 -.9887 -133.0583 153.6686)" gradientUnits="userSpaceOnUse" x1="635.9838" x2="635.9838" xlink:href="#a" y1="-60.0895" y2="-36.0695"/><linearGradient id="e" gradientTransform="matrix(.9759 -.2181 -.2181 -.9759 -140.1024 515.9508)" gradientUnits="userSpaceOnUse" x1="485.4359" x2="485.4359" xlink:href="#a" y1="-8.1592" y2="361.8408"/><linearGradient id="f" gradientTransform="matrix(.9759 -.2181 -.2181 -.9759 -140.1015 515.965)" gradientUnits="userSpaceOnUse" x1="480.1459" x2="480.1459" xlink:href="#a" y1="183.3608" y2="305.6108"/><linearGradient id="g" gradientTransform="matrix(.9759 -.2181 -.2181 -.9759 -140.0958 515.9653)" gradientUnits="userSpaceOnUse" x1="347.0059" x2="347.0059" xlink:href="#a" y1="112.4708" y2="136.1008"/><linearGradient id="h" gradientTransform="matrix(1 0 0 -1 0 518)" gradientUnits="userSpaceOnUse" x1="455.07" x2="455.07" xlink:href="#a" y1="53.52" y2="507.52"/><linearGradient id="i" gradientTransform="matrix(1 0 0 -1 0 518)" gradientUnits="userSpaceOnUse" x1="449.07" x2="449.07" xlink:href="#a" y1="288.52" y2="438.52"/><linearGradient id="j" gradientTransform="matrix(1 0 0 -1 0 518)" gradientUnits="userSpaceOnUse" x1="298.07" x2="298.07" xlink:href="#a" y1="201.52" y2="230.52"/><linearGradient id="k" gradientTransform="matrix(1 0 0 -1 0 518)" gradientUnits="userSpaceOnUse" x1="457.07" x2="457.07" xlink:href="#a" y1=".52" y2="153.52"/><linearGradient id="l" gradientTransform="matrix(1 0 0 -1 -152.16 326.74)" gradientUnits="userSpaceOnUse" x1="611.235" x2="611.235" xlink:href="#a" y1="-46.74" y2="53.26"/><linearGradient id="m" gradientTransform="matrix(1 0 0 -1 -152.16 326.74)" gradientUnits="userSpaceOnUse" x1="611.2402" x2="611.2402" xlink:href="#a" y1="-142.736" y2="-84.6802"/><path d="m640.1-141.3h19.9v470.4h-19.9z" fill="#f5f5f5" transform="matrix(.1502 -.9887 .9887 .1502 459.5586 722.3762)"/><path d="m354.4 412.5 56.5-371.7 484.8 73.6-56.5 371.8z" fill="url(#b)"/><path d="m451.3 38h342.9v470.4h-342.9z" fill="#f5f5f5" transform="matrix(.1502 -.9887 .9887 .1502 259.1166 847.8016)"/><ellipse cx="428.8" cy="60.2" fill="#ff5252" rx="4.9" ry="4.9" transform="matrix(.1502 -.9887 .9887 .1502 304.8336 475.1449)"/><ellipse cx="442" cy="62.2" fill="#ff0" rx="4.9" ry="4.9" transform="matrix(.1502 -.9887 .9887 .1502 314.0814 489.9078)"/><ellipse cx="455.2" cy="64.3" fill="#69f0ae" rx="4.9" ry="4.9" transform="matrix(.1502 -.9887 .9887 .1502 323.3192 504.6792)"/><path d="m412.3 224.5 18.7-122.9 417.6 63.5-18.7 122.8z" fill="url(#c)"/><path d="m573.3-11.4h115.1v413.3h-115.1z" fill="#363636" transform="matrix(.1502 -.9887 .9887 .1502 343.0525 789.5964)"/><path d="m472.8 306.5 3.6-23.7 27.8 4.2-3.6 23.7z" fill="url(#d)"/><path d="m479 283.1h19.9v26.5h-19.9z" fill="#363636" transform="matrix(.1502 -.9887 .9887 .1502 122.4896 735.3078)"/><path d="m473.9 316.7h19.9v26.5h-19.9z" fill="#ff5252" transform="matrix(.1502 -.9887 .9887 .1502 84.9525 758.7789)"/><path d="m468.8 350.3h19.9v26.5h-19.9z" fill="#ff9800" transform="matrix(.1502 -.9887 .9887 .1502 47.4308 782.2708)"/><path d="m645.3 214.2h11.6v213.7h-11.6z" fill="#363636" opacity=".4" transform="matrix(.1502 -.9887 .9887 .1502 235.9005 916.5118)"/><path d="m640.2 247.8h11.6v213.7h-11.6z" fill="#363636" opacity=".4" transform="matrix(.1502 -.9887 .9887 .1502 198.3704 939.994)"/><path d="m635.1 281.3h11.6v213.7h-11.6z" fill="#363636" opacity=".4" transform="matrix(.1502 -.9887 .9887 .1502 160.8487 963.486)"/><path d="m7 63.3h500.8v19.6h-500.8z" fill="#f5f5f5" transform="matrix(.9759 -.2181 .2181 .9759 -9.7318 57.9109)"/><path d="m0 113.9 509.4-113.9 80.7 361.1-509.4 113.9z" fill="url(#e)"/><path d="m45.9 78.5h500.8v337.4h-500.8z" fill="#f5f5f5" transform="matrix(.9759 -.2181 .2181 .9759 -46.7931 70.5985)"/><ellipse cx="25" cy="125" fill="#363636" rx="5.2" ry="4.8" transform="matrix(.9759 -.2181 .2181 .9759 -26.6644 8.4533)"/><ellipse cx="38.8" cy="121.9" fill="#363636" rx="5.2" ry="4.8" transform="matrix(.9759 -.2181 .2181 .9759 -25.6547 11.4086)"/><ellipse cx="52.7" cy="118.8" fill="#363636" rx="5.2" ry="4.8" transform="matrix(.9759 -.2181 .2181 .9759 -24.6435 14.3616)"/><path d="m42.4 162 438.8-98.1 26.7 119.3-438.9 98.1z" fill="url(#f)"/><path d="m55.7 116.3h440v113.3h-440z" fill="#363636" transform="matrix(.9759 -.2181 .2181 .9759 -31.0826 64.3)"/><path d="m154.2 310.7 29.3-6.5 5.1 23-29.2 6.6z" fill="url(#g)"/><path d="m159.9 310.1h28.3v19.6h-28.3z" fill="#363636" transform="matrix(.9757 -.219 .219 .9757 -65.8567 45.8921)"/><path d="m174.6 375.6h28.3v19.6h-28.3z" fill="#ff9800" transform="matrix(.9757 -.219 .219 .9757 -79.8359 50.7162)"/><path d="m228.4 274.7h227.5v11.4h-227.5z" fill="#363636" opacity=".4" transform="matrix(.9759 -.2181 .2181 .9759 -52.9259 81.3924)"/><path d="m235.7 307.3h227.5v11.4h-227.5z" fill="#363636" opacity=".4" transform="matrix(.9759 -.2181 .2181 .9759 -59.865 83.7677)"/><path d="m243 339.9h227.5v11.4h-227.5z" fill="#363636" opacity=".4" transform="matrix(.9759 -.2181 .2181 .9759 -66.8019 86.1428)"/><path d="m170.1 18.5h568v24h-568z" fill="#f5f5f5"/><path d="m159.1 10.5h592v454h-592z" fill="url(#h)"/><path d="m170.1 42.5h568v414h-568z" fill="#fff"/><circle cx="183.9" cy="30.5" fill="#363636" r="5.9"/><circle cx="200.1" cy="30.5" fill="#363636" r="5.9"/><circle cx="216.2" cy="30.5" fill="#363636" r="5.9"/><path d="m194.1 79.5h510v150h-510z" fill="url(#i)"/><path d="m200.1 85.5h499v139h-499z" fill="#363636"/><path d="m281.1 287.5h34v29h-34z" fill="url(#j)"/><path d="m282.6 289.5h32v24h-32z" fill="#363636"/><path d="m282.6 330.5h32v24h-32z" fill="#363636"/><path d="m282.6 371.5h32v24h-32z"/><path d="m367.6 294.5h258v14h-258z" fill="#363636" opacity=".4"/><path d="m367.6 335.5h258v14h-258z" fill="#363636" opacity=".4"/><path d="m367.6 376.5h258v14h-258z" fill="#363636" opacity=".4"/><path d="m364.1 364.5h186v153h-186z" fill="url(#k)"/><path d="m407 340.1c0-28.8 23.3-52.1 52.1-52.1s52.1 23.3 52.1 52.1v33.3h14.6v-33.3c.5-36.8-29-67-65.8-67.5s-67 29-67.5 65.8v1.6 33.3h14.5z" fill="url(#l)"/><g fill="#363636"><path d="m409.1 339.5c0-27.6 22.4-50 50-50s50 22.4 50 50v32h14v-32c0-35.3-28.7-64-64-64s-64 28.7-64 64v32h14z"/><path d="m372.1 369.5h174v142h-174z"/><path d="m372.1 369.5h174v142h-174z"/><path d="m372.1 397.5h174v86h-174z"/></g><path d="m471.8 424.2c0-7-5.7-12.8-12.7-12.8s-12.8 5.7-12.8 12.7c0 3.3 1.2 6.5 3.5 8.9v27.2c0 5.1 4.2 9.3 9.3 9.3s9.3-4.2 9.3-9.3v-27.2c2.2-2.4 3.5-5.5 3.4-8.8z" fill="url(#m)"/><path d="m470.1 426.5c0-6.1-4.9-11-11-11s-11 4.9-11 11c0 2.8 1.1 5.5 3 7.6v23.5c0 4.4 3.6 8 8 8s8-3.6 8-8v-23.6c1.9-2 3-4.7 3-7.5z" fill="#f5f5f5" opacity=".2"/></svg>