<svg id="Layer_1" xmlns="http://www.w3.org/2000/svg" viewBox="0 0 1145.6 819.9"><style>.st0{opacity:.1;fill:#363636;enable-background:new}.st1{fill:url(#SVGID_1_)}.st2,.st3{fill:#fff}.st3{opacity:4.000000e-02;enable-background:new}.st4{fill:#363636}.st5,.st6{enable-background:new}.st5{fill:#363636;opacity:.2}.st6{opacity:.1}.st7{fill:#535461}.st8{fill:#9d9cb5}.st9{fill:none;stroke:#535461;stroke-width:2;stroke-miterlimit:10}</style><path class="st0" d="M1127.4 551.2c-26.6 54.8-80.5 91.5-136.4 115.6-75.3 32.5-158.2 45.5-239.9 40-14.3-1-28.6-2.5-42.8-4.6-49.5-7.2-97.7-21.3-143.3-41.7-13.2-5.9-26.1-12.4-38.7-19.4-21.1-11.7-41.3-24.9-60.5-39.5-4.8-3.7-9.6-7.5-14.3-11.3-3.2-2.7-6.5-5.4-9.7-8.1-6.9-5.6-14-10.9-21.9-14.9-2.4-1.2-4.8-2.3-7.3-3.2-25.1-9.5-54-5.9-80.1 1.5-19.9 5.7-39.2 13.4-59.1 18.9-8.8 2.5-17.8 4.4-26.9 5.7-20.3 2.6-40.9.8-60.5-5.3l-1.7-.5c-2.8-.9-5.6-1.8-8.3-2.9l-1.7-.6c-2.7-1-5.3-2.1-7.8-3.3l-1.7-.8c-2.7-1.2-5.3-2.5-7.8-3.9l-2.7-1.5c-14.5-8.1-27.7-18.4-39.2-30.5-.3-.3-.6-.7-1-1-1.6-1.7-3.2-3.5-4.7-5.3-.6-.7-1.1-1.3-1.7-2-1.8-2.2-3.5-4.4-5.2-6.7-.2-.3-.5-.7-.7-1-6.8-9.4-12.5-19.7-16.9-30.5-.1-.3-.3-.7-.4-1-1.3-3.4-2.6-6.9-3.7-10.5-.4-1.5-.9-3-1.3-4.5-.1-.4-.2-.9-.4-1.3-5.5-21.7-6.2-44.3-6.2-66.8v-7.9c.2-36.3.7-73.3 6.1-109.1 0-.2.1-.5.1-.7 1.8-12.1 4.2-24 7.3-35.8 3.2-12.4 7.3-24.5 12.3-36.3 12.3-29 30.3-55.4 50.2-79.8C199.4 79.1 265.1 27.5 342.1 8.1c82.9-20.8 175.1-.9 242.1 52.4 20.4 16.2 38.7 35.5 61.6 47.9 20 10.8 43.4 15.3 64.8 6.8 17.7-7.1 29.2-10.6 49.1-9.5 41.2 2.3 81.7 10.8 120.4 25.2 1.6.6 3.1 1.2 4.7 1.8C985.5 171.2 1072 247.8 1117 346.2c1.2 2.6 2.3 5.2 3.5 7.9 26.8 62.6 36.5 136 6.9 197.1z"/><ellipse class="st0" cx="120.3" cy="728.8" rx="88.3" ry="14.2"/><linearGradient id="SVGID_1_" gradientUnits="userSpaceOnUse" x1="591.305" y1="173.92" x2="591.305" y2="712.25" gradientTransform="matrix(1 0 0 -1 0 820)"><stop offset="0" stop-color="#808080" stop-opacity="0.25"/><stop offset=".54" stop-color="#808080" stop-opacity="0.12"/><stop offset="1" stop-color="#808080" stop-opacity="0.1"/></linearGradient><path class="st1" d="M128.6 107.8H1054c6.9 0 12.5 5.6 12.5 12.5v513.4c0 6.9-5.6 12.5-12.5 12.5H128.6c-6.9 0-12.5-5.6-12.5-12.5V120.2c0-6.9 5.6-12.4 12.5-12.4z"/><path class="st2" d="M130.1 115.3h922.4c6.9 0 12.5 5.6 12.5 12.5v504c0 6.9-5.6 12.5-12.5 12.5H130.1c-6.9 0-12.5-5.6-12.5-12.5v-504c.1-6.9 5.6-12.5 12.5-12.5z"/><path class="st2" d="M130.1 115.3h922.4c6.9 0 12.5 5.6 12.5 12.5v504c0 6.9-5.6 12.5-12.5 12.5H130.1c-6.9 0-12.5-5.6-12.5-12.5v-504c.1-6.9 5.6-12.5 12.5-12.5z"/><path class="st3" d="M130.1 115.3h922.4c6.9 0 12.5 5.6 12.5 12.5v504c0 6.9-5.6 12.5-12.5 12.5H130.1c-6.9 0-12.5-5.6-12.5-12.5v-504c.1-6.9 5.6-12.5 12.5-12.5z"/><path class="st4" d="M1060.3 109.2H122.5c-2.7 0-4.8 2.2-4.8 4.8v20.3H1065V114c0-2.6-2.1-4.7-4.7-4.8z"/><circle class="st2" cx="136.6" cy="121.8" r="6.5"/><circle class="st2" cx="154.1" cy="121.8" r="6.5"/><circle class="st2" cx="171.6" cy="121.8" r="6.5"/><path class="st5" d="M195.7 181.7h254.2v21.6H195.7v-21.6z"/><path class="st0" d="M195.7 268.2H987v332H195.7v-332z"/><path class="st6" d="M659 289.9h-13.5v-26.3c0-29.7-23.7-54.4-53.4-54.8-30-.3-54.5 23.7-54.8 53.7v27.4h-13.5c-12.4 0-22.5 10.1-22.5 22.5v108.2c0 12.4 10.1 22.5 22.5 22.5H659c12.4 0 22.5-10.1 22.5-22.5V312.4c0-12.4-10-22.5-22.5-22.5zm-59.7 70.3V399c0 4.3-3.3 7.8-7.5 8.1-4.4.2-8.1-3.2-8.3-7.5v-39.4c-8.9-4.4-12.6-15.1-8.3-24.1 4.4-8.9 15.1-12.6 24.1-8.3s12.6 15.1 8.3 24.1c-1.8 3.6-4.7 6.5-8.3 8.3zm30.4-70.3H553v-27.1c0-21.2 17.2-38.3 38.3-38.3s38.3 17.2 38.3 38.3l.1 27.1z"/><path class="st4" d="M659 287.9h-13.5v-26.3c0-29.7-23.7-54.4-53.4-54.8-30-.3-54.5 23.7-54.8 53.7v27.4h-13.5c-12.4 0-22.5 10.1-22.5 22.5v108.2c0 12.4 10.1 22.5 22.5 22.5H659c12.4 0 22.5-10.1 22.5-22.5V310.4c0-12.4-10-22.5-22.5-22.5zm-59.7 70.3V397c0 4.3-3.3 7.8-7.5 8.1-4.4.2-8.1-3.2-8.3-7.5v-39.4c-8.9-4.4-12.6-15.1-8.3-24.1 4.4-8.9 15.1-12.6 24.1-8.3s12.6 15.1 8.3 24.1c-1.8 3.6-4.7 6.5-8.3 8.3zm30.4-70.3H553v-27.1c0-21.2 17.2-38.3 38.3-38.3s38.3 17.2 38.3 38.3l.1 27.1z"/><path class="st0" d="M906.9 236.2H987v18.9h-80.1v-18.9z"/><path class="st7" d="M117.5 457.2h5.7v127.9h-5.7V457.2z"/><path class="st4" d="M158.8 584.7l-.4 5.8-.5 8.1-.2 3.4-.5 8.1-.2 3.4-.5 8.1-5.7 92.5c-.5 8.3-7.4 14.7-15.6 14.7h-29.8c-8.3 0-15.1-6.4-15.6-14.7L84 621.6l-.5-8.1-.2-3.4-.5-8.2-.2-3.4-.5-8.1-.4-5.8c-.3-4.5 3.1-8.3 7.6-8.6h61.4c4.5 0 8.1 3.6 8.1 8.1.1.2.1.4 0 .6z"/><path class="st8" d="M158.5 590.5l-.5 8.1H82.6l-.5-8.1h76.4zm-.7 11.5l-.5 8.1h-74l-.5-8.1h75zm-.7 11.5l-.5 8.1H84.1l-.5-8.1h73.5z"/><path class="st4" d="M73.4 505.1c33.1 23.9 46.9 61.4 46.9 61.4s-39.9-1.4-73-25.3S.4 479.8.4 479.8s39.9 1.4 73 25.3z"/><path class="st9" d="M.5 479.8s41.4 23 54.7 42c13.3 19 65.2 44.7 65.2 44.7"/><path class="st4" d="M94.8 457c18 13 25.5 33.4 25.5 33.4s-21.7-.7-39.7-13.8-25.5-33.4-25.5-33.4 21.7.7 39.7 13.8z"/><path class="st9" d="M55.1 443.1s22.5 12.5 29.7 22.9 35.5 24.3 35.5 24.3"/><path class="st4" d="M146.5 489.3c-20.7 22.7-25.1 52.4-25.1 52.4s29.2-7.2 49.8-29.9 25.1-52.4 25.1-52.4-29.2 7.1-49.8 29.9z"/><path class="st9" d="M196.3 459.4s-26.9 23.3-33.8 39.4-41.1 43-41.1 43"/></svg>