<svg enable-background="new 0 0 1166.2 805.1" viewBox="0 0 1166.2 805.1" xmlns="http://www.w3.org/2000/svg"><path d="m659.6 109.6c-74.8.1-146.7-21.1-215.5-44.6s-137.1-49.9-210.5-61.1c-47.2-7.2-100.8-6.5-137.7 19.6-35.5 25-45.8 66.5-50.7 104.9-3.7 28.9-5.5 59.1 8.5 85.5 9.7 18.3 26.3 33.4 38 50.9 40.8 60.7 16.3 138.3-23.4 200.5-18.6 29.2-40.4 57.1-54.5 87.9s-19.8 65.8-5.5 96.2c14.2 30.2 46.3 52 80.8 67 70 30.4 151.5 36.9 230.8 39.5 175.6 5.6 351.5-5.8 526.9-17.2 64.9-4.2 130.1-8.4 193.7-20.6 35.3-6.8 71.7-16.8 96.7-38.7 31.8-27.9 38.3-73.4 15.2-106.1-38.8-54.9-141-65.2-168.8-124.6-15.3-32.7-2.1-70.2 17.4-101.7 41.8-67.6 113.6-128.2 114.8-203.8.8-51.9-36.6-102.6-92.4-125.2-58.5-23.6-138.3-17.5-179.3 26.5-42.2 45.4-118.5 65-184.5 65.1z" fill="#363636" opacity=".1"/><path d="m160.9 212.3h786v345.6h-786z" opacity=".05"/><path d="m59.7 168.1h988.4v431.6h-988.4z" fill="#363636"/><path d="m249.1 251.1c-69.9 0-126.4 56.6-126.4 126.4s56.6 126.4 126.4 126.4 126.4-56.6 126.4-126.4-56.6-126.4-126.4-126.4zm50.5 226.3c0 5.6-.5 11.4-1.7 16.7-31.2 13.3-66.4 13.3-97.6 0-1.3-5.4-1.7-11.1-1.7-16.7 0-29.2 14.9-54 35.4-62.4-19.7-8.3-28.7-30.9-20.7-50.4 8.3-19.7 30.9-28.7 50.4-20.7 19.7 8.3 28.7 30.9 20.7 50.4-4 9.3-11.4 16.7-20.7 20.7 21.2 8.4 35.9 33.1 35.9 62.4z" fill="#fff"/><path d="m463.5 380.6h-14.7l13.2-12.9c.5-.5.5-1.3 0-1.8s-1.3-.5-1.8 0l-13.2 12.9v-14.7c0-.8-.5-1.3-1.3-1.3s-1.3.5-1.3 1.3v14.7l-12.9-13.2c-.5-.5-1.3-.5-1.8 0s-.5 1.3 0 1.8l13.2 12.9h-14.7c-.8 0-1.3.5-1.3 1.3s.5 1.3 1.3 1.3h14.7l-13.2 12.9c-.5.5-.5 1.3 0 1.8s1.3.5 1.8 0l12.9-12.9v14.7c0 .8.5 1.3 1.3 1.3s1.3-.5 1.3-1.3v-14.7l13.2 12.9c.5.5 1.3.5 1.8 0s.5-1.3 0-1.8l-13.2-12.9h14.7c.8 0 1.3-.5 1.3-1.3-.1-.5-.8-1-1.3-1zm53.2 0h-14.7l13.2-12.9c.5-.5.5-1.3 0-1.8s-1.3-.5-1.8 0l-13.2 12.9v-14.7c0-.8-.5-1.3-1.3-1.3s-1.3.5-1.3 1.3v14.7l-12.9-13.2c-.5-.5-1.3-.5-1.8 0s-.5 1.3 0 1.8l13.2 12.9h-14.7c-.8 0-1.3.5-1.3 1.3s.5 1.3 1.3 1.3h14.7l-13.1 12.9c-.5.5-.5 1.3 0 1.8s1.3.5 1.8 0l12.9-12.9v14.7c0 .8.5 1.3 1.3 1.3s1.3-.5 1.3-1.3v-14.7l13.2 12.9c.5.5 1.3.5 1.8 0s.5-1.3 0-1.8l-13.3-12.9h14.7c.8 0 1.3-.5 1.3-1.3 0-.5-.8-1-1.3-1zm53.3 0h-14.7l13.2-12.9c.5-.5.5-1.3 0-1.8s-1.3-.5-1.8 0l-13.2 12.9v-14.7c0-.8-.5-1.3-1.3-1.3s-1.3.5-1.3 1.3v14.7l-12.9-13.2c-.5-.5-1.3-.5-1.8 0s-.5 1.3 0 1.8l13.2 12.9h-14.7c-.8 0-1.3.5-1.3 1.3s.5 1.3 1.3 1.3h14.7l-13.2 12.9c-.5.5-.5 1.3 0 1.8s1.3.5 1.8 0l12.9-12.9v14.7c0 .8.5 1.3 1.3 1.3s1.3-.5 1.3-1.3v-14.7l13.2 12.9c.5.5 1.3.5 1.8 0s.5-1.3 0-1.8l-13.2-12.9h14.7c.8 0 1.3-.5 1.3-1.3 0-.5-.8-1-1.3-1zm53.2 0h-14.7l13.2-12.9c.5-.5.5-1.3 0-1.8s-1.3-.5-1.8 0l-13.2 12.9v-14.7c0-.8-.5-1.3-1.3-1.3s-1.3.5-1.3 1.3v14.7l-12.9-13.2c-.5-.5-1.3-.5-1.8 0s-.5 1.3 0 1.8l13.2 12.9h-14.6c-.8 0-1.3.5-1.3 1.3s.5 1.3 1.3 1.3h14.7l-13.2 12.9c-.5.5-.5 1.3 0 1.8s1.3.5 1.8 0l12.9-12.9v14.7c0 .8.5 1.3 1.3 1.3s1.3-.5 1.3-1.3v-14.7l13.2 12.9c.5.5 1.3.5 1.8 0s.5-1.3 0-1.8l-13.2-12.9h14.7c.8 0 1.3-.5 1.3-1.3-.1-.5-.8-1-1.4-1zm53.3 0h-14.7l13.2-12.9c.5-.5.5-1.3 0-1.8s-1.3-.5-1.8 0l-13.2 12.9v-14.7c0-.8-.5-1.3-1.3-1.3s-1.3.5-1.3 1.3v14.7l-12.9-13.2c-.5-.5-1.3-.5-1.8 0s-.5 1.3 0 1.8l13.2 12.9h-14.7c-.8 0-1.3.5-1.3 1.3s.5 1.3 1.3 1.3h14.8l-13.2 12.9c-.5.5-.5 1.3 0 1.8s1.3.5 1.8 0l12.9-12.9v14.7c0 .8.5 1.3 1.3 1.3s1.3-.5 1.3-1.3v-14.7l13.2 12.9c.5.5 1.3.5 1.8 0s.5-1.3 0-1.8l-13.2-12.9h14.7c.8 0 1.3-.5 1.3-1.3-.1-.5-.9-1-1.4-1zm53.3 0h-14.7l13.2-12.9c.5-.5.5-1.3 0-1.8s-1.3-.5-1.8 0l-13.2 12.9v-14.7c0-.8-.5-1.3-1.3-1.3s-1.3.5-1.3 1.3v14.7l-12.9-13.2c-.5-.5-1.3-.5-1.8 0s-.5 1.3 0 1.8l13.2 12.9h-14.7c-.8 0-1.3.5-1.3 1.3s.5 1.3 1.3 1.3h14.7l-13.2 12.9c-.5.5-.5 1.3 0 1.8s1.3.5 1.8 0l12.9-12.9v14.7c0 .8.5 1.3 1.3 1.3s1.3-.5 1.3-1.3v-14.7l13.2 12.9c.5.5 1.3.5 1.8 0s.5-1.3 0-1.8l-13.2-12.9h14.7c.8 0 1.3-.5 1.3-1.3-.1-.5-.8-1-1.3-1zm53.2 0h-14.7l13.2-12.9c.5-.5.5-1.3 0-1.8s-1.3-.5-1.8 0l-13.2 12.9v-14.7c0-.8-.5-1.3-1.3-1.3s-1.3.5-1.3 1.3v14.7l-12.9-13.2c-.5-.5-1.3-.5-1.8 0s-.5 1.3 0 1.8l13.2 12.9h-14.7c-.8 0-1.3.5-1.3 1.3s.5 1.3 1.3 1.3h14.7l-13.2 12.9c-.5.5-.5 1.3 0 1.8s1.3.5 1.8 0l12.9-12.9v14.7c0 .8.5 1.3 1.3 1.3s1.3-.5 1.3-1.3v-14.7l13.2 12.9c.5.5 1.3.5 1.8 0s.5-1.3 0-1.8l-13.2-12.9h14.7c.8 0 1.3-.5 1.3-1.3 0-.5-.8-1-1.3-1zm53.3 0h-14.7l13.2-12.9c.5-.5.5-1.3 0-1.8s-1.3-.5-1.8 0l-13.2 12.9v-14.7c0-.8-.5-1.3-1.3-1.3s-1.3.5-1.3 1.3v14.7l-12.9-13.2c-.5-.5-1.3-.5-1.8 0s-.5 1.3 0 1.8l13.2 12.9h-14.7c-.8 0-1.3.5-1.3 1.3s.5 1.3 1.3 1.3h14.7l-13.2 12.9c-.5.5-.5 1.3 0 1.8s1.3.5 1.8 0l12.9-12.9v14.7c0 .8.5 1.3 1.3 1.3s1.3-.5 1.3-1.3v-14.7l13.2 12.9c.5.5 1.3.5 1.8 0s.5-1.3 0-1.8l-13.2-12.9h14.7c.8 0 1.3-.5 1.3-1.3 0-.5-.8-1-1.3-1zm53.3 0h-14.7l13.2-12.9c.5-.5.5-1.3 0-1.8s-1.3-.5-1.8 0l-13.2 12.9v-14.7c0-.8-.5-1.3-1.3-1.3s-1.3.5-1.3 1.3v14.7l-12.9-13.2c-.5-.5-1.3-.5-1.8 0s-.5 1.3 0 1.8l13.2 12.9h-14.7c-.8 0-1.3.5-1.3 1.3s.5 1.3 1.3 1.3h14.7l-13.2 12.9c-.5.5-.5 1.3 0 1.8s1.3.5 1.8 0l12.9-12.9v14.7c0 .8.5 1.3 1.3 1.3s1.3-.5 1.3-1.3v-14.7l13.2 12.9c.5.5 1.3.5 1.8 0s.5-1.3 0-1.8l-13.2-12.9h14.7c.8 0 1.3-.5 1.3-1.3-.1-.5-.8-1-1.3-1zm53.2 0h-14.7l13.2-12.9c.5-.5.5-1.3 0-1.8s-1.3-.5-1.8 0l-13.2 12.9v-14.7c0-.8-.5-1.3-1.3-1.3s-1.3.5-1.3 1.3v14.7l-12.9-13.2c-.5-.5-1.3-.5-1.8 0s-.5 1.3 0 1.8l13.2 12.9h-14.7c-.8 0-1.3.5-1.3 1.3s.5 1.3 1.3 1.3h14.7l-13.2 12.9c-.5.5-.5 1.3 0 1.8s1.3.5 1.8 0l12.9-12.9v14.7c0 .8.5 1.3 1.3 1.3s1.3-.5 1.3-1.3v-14.7l13.2 12.9c.5.5 1.3.5 1.8 0s.5-1.3 0-1.8l-13.2-12.9h14.7c.8 0 1.3-.5 1.3-1.3 0-.5-.8-1-1.3-1zm53.3 0h-14.7l13.2-12.9c.5-.5.5-1.3 0-1.8s-1.3-.5-1.8 0l-13.2 12.9v-14.7c0-.8-.5-1.3-1.3-1.3s-1.3.5-1.3 1.3v14.7l-12.9-13.2c-.5-.5-1.3-.5-1.8 0s-.5 1.3 0 1.8l13.2 12.9h-14.7c-.8 0-1.3.5-1.3 1.3s.5 1.3 1.3 1.3h14.7l-13.2 12.9c-.5.5-.5 1.3 0 1.8s1.3.5 1.8 0l12.9-12.9v14.7c0 .8.5 1.3 1.3 1.3s1.3-.5 1.3-1.3v-14.7l13.2 12.9c.5.5 1.3.5 1.8 0s.5-1.3 0-1.8l-13.2-12.9h14.7c.8 0 1.3-.5 1.3-1.3 0-.5-.8-1-1.3-1z" fill="#f5f5f5"/></svg>