<svg enable-background="new 0 0 888 638" viewBox="0 0 888 638" xmlns="http://www.w3.org/2000/svg"><circle cx="174" cy="76.1" fill="#2f2e41" r="31"/><path d="m79.6 449.3 19-66 6.5 2s-7.7 49.4-19.9 62z" fill="#2f2e41"/><path d="m152.1 94.8s2.4 25.9-3.2 33.2c-5.7 7.3 3.6 21.5 3.6 21.5l17 20.3 25.1-11.3 3.6-21.1-2.4-14.6s-8.5-8.5-4.9-23.9-38.8-4.1-38.8-4.1z" fill="#f9dcdc"/><path d="m152.1 94.8s2.4 25.9-3.2 33.2c-5.7 7.3 3.6 21.5 3.6 21.5l17 20.3 25.1-11.3 3.6-21.1-2.4-14.6s-8.5-8.5-4.9-23.9-38.8-4.1-38.8-4.1z" opacity=".1"/><path d="m166.7 579.8v16.6l22.3 4.4-2-27.5z" fill="#f9dcdc"/><path d="m233.6 573.3-4.9 23.1 9.7 6.9 17.1-12.6-2.1-19.8z" fill="#f9dcdc"/><path d="m191 598.8s-8.5-14.4-24.3-5.4c0 0-2.8 15.9-5.7 17.1s-18.6 24.3 0 26.3 28-4.1 28-4.1-3.6 3.1 2 1.5 3.2-10.5 3.2-10.5z"/><path d="m246.6 589.1s-12.6 8.9-14.6 4.9-5.3-3.6-5.3-3.6-11.3 42.8-4.1 44.8c4.7 1.2 9.6.9 14.2-.7 0 0 9.7-6.8 9.7-1.5s27.1 4.9 38.5 4.5 5.3-8.9 5.3-8.9l-15-14.6-17-24.7c0-.2-7.7-7.1-11.7-.2z"/><path d="m127 318 17 163.3s9.3 99.7 10.9 101.3 12.2 6.9 35.3 0l-5.2-130.5 9.7-81 22.3 55.9s5.3 150.3 8.9 150.3 25.9 7.3 31.2-1.6 4.5-104.9 4.5-104.9-2.4-151.5-20.3-156.4-114.3 3.6-114.3 3.6z"/><circle cx="174" cy="81.8" fill="#f9dcdc" r="28"/><path d="m175.6 159.6s-2.8-17.4-2.8-20.7-12.6-5.3-12.6-5.3-9.7-10.9-11.8-9.3-32.8 22.3-37.7 25.1-10.1 15-9.7 15.8 25.5 53.5 25.5 53.5 10.9 32.4 3.2 49.4-17.4 50.6-3.2 57.5 83.1 21.9 95.6 8.9c12.6-13 21.5-16.6 24.7-16.6s-13.4-56.3-9.7-61.6c3.6-5.3-1.6-38.1-1.6-38.1l18.6-52.3s-1.6-29.2-38.5-35.7l-22.1-10.7z" fill="#363636"/><path d="m99.9 325.3s-2 19.4-2 25.1-9.7 38.9 4.5 42.9 13-44.2 13-44.2v-24.7z" fill="#f9dcdc"/><path d="m268 307.1s2.4 18.6 1.2 22.7 11.8 39.3-5.7 41.3-13-42.1-13-42.1v-21.9z" fill="#f9dcdc"/><path d="m96.2 442.8 11.8-62.4h3.6c5.2 6.7 6.6 15.6 3.6 23.5-4.9 13.8-8.9 38.9-8.9 38.9z" fill="#2f2e41"/><path d="m107.2 160.4-6.1 4.9s-8.1 128.8-6.1 138.6-7.3 23.5.8 24.7 17.8 6.5 22.3 3.2 5.3-15 6.9-17.8 4.5-36.5 4.5-36.5 8.5-33.6 3.2-58.8-10.1-50.6-10.1-50.6z" fill="#363636"/><path d="m235.6 150.3 18.6 15.8 14.2 82.7s8.9 64.4 2 65.2-17.4-1.2-21.9 0-8.1-2-8.1-2-4.9-25.9-4.9-26.3-3.2-30-3.2-30l-4.1-33.2 6.1-36.5z" fill="#363636"/><path d="m147.7 532.8s-2.6 7.6-6.3 17.9c-1.7 4.8-3.6 10.2-5.5 15.7-1.3 3.5-2.5 7.1-3.8 10.7-2 5.6-4 11-5.7 15.6-2.3 6.1-4.1 10.9-5.1 13.1-4.5 10.1-85.9-6.1-92.4-10.1s-8.1-17.8-8.9-37.3c0-.1 0-.2 0-.3-.1-3.9.9-9.8 2.6-16.6.8-3.4 1.8-7.1 3-10.9 1.5-5.1 3.2-10.5 5-15.8 7.6-23 16.6-45.4 16.6-45.4s15.8-10.9 21.5-18.2 36.9-13 36.9-13c8.9.4 29.2 34.8 37.3 45.4s4.8 49.2 4.8 49.2z" fill="#363636"/><circle cx="102.3" cy="467.5" fill="#fff" r="3.6" stroke="#fff" stroke-miterlimit="10"/><circle cx="108" cy="471.6" fill="#2f2e41" r="2"/><path d="m141.4 550.6c-1.7 4.8-3.6 10.2-5.5 15.7l-110.3-35.9c1.5-5.1 3.2-10.5 5-15.8z" fill="#f2f2f2"/><path d="m132.1 577c-2 5.6-4 11-5.7 15.6l-106.4-34.6c-.1-3.9.9-9.8 2.6-16.6z" fill="#f2f2f2"/><path d="m102.3 468.4s8.1 35.7 3.2 67.3 12.2 61.2 12.2 61.2" fill="#fff" stroke="#fff" stroke-miterlimit="10" stroke-width="3"/><path d="m108 471.2s-15.8 57.5-16.2 65.6-6.9 66-15 72.1" fill="#fff" stroke="#fff" stroke-miterlimit="10" stroke-width="3"/><path d="m152.6 64.7s-6.3-16.5 2.8-21.8l2.5 7.3s23.1-13.9 29.1-10.8l-5.7 7.6s26.9 0 28.8 10.4l-9.5.3s10.1 6.6 10.4 17.4l-20.3 1.3 9.8 5.7s-36.7 5.1-45.6-9.5z" fill="#2f2e41"/><path d="m147.1 65.4s7.3 14.6 17 10.9 0-17 0-17l-6.5-3.2z" fill="#2f2e41"/><path d="m319.2 343.7s-7.6 16.6 29.1 102.4c21.9 51.3-16.7 92.9 34 115.6 86.8 39 213.4-19.4 299.1 13.3 48.5 18.5 79.7-76.2 122.3-97.5 61.5-30.6 60.8-88.5 60.8-88.5" fill="#ccc"/><path d="m318 329.9c.8-.5 1.3-1 1.3-1.9.4-4.7.7-9.4 1.1-14.1.1-1 .4-1.8 1.4-2.1 3.4-1 4.3-3.6 5-6.8 1.5-7.8 3.3-15.5 5.1-23.3 0-.1.1-.3.4-.7.4 1.3.3 2.4.3 3.4.3 8.3.5 16.6.7 24.9 0 .6.2 1.1.7 1.5.2.1.4.4.6.5 2.9 1.5 3.6 3.8 3.1 7.1-.6 3.2-.6 6.6-.9 9.9-.1 1.1.1 1.6 1.4 1.7 2.1.1 2.1.1 2.3-1.9.3-4.1.7-8.2 1-12.2.1-1.2.4-2 1.5-2.4 3.8-1.2 4.5-4.3 5.2-7.7 1.5-7.3 3.1-14.5 4.7-21.7.1-.4.1-.8.7-1.1.1 2.9.1 5.7.2 8.4.1 6.6.2 13 .3 19.6 0 .6.3 1 .7 1.3 1 .8 1.9 1.8 2.9 2.5s1.4 1.6 1.3 2.9c-.4 3.8-.7 7.5-.9 11.3-.1.7-.6 1.7.2 2.1 1 .4 2.1.6 3.2 0 .9-.5 1.8-1 2.7-1.6 1.5-1.2 3.2-1 4.9-.8 2.1.2 2.1.1 2.2-1.8 0-.3.1-.5.1-.8 0-1.1.4-1.6 1.5-1.4 1.7.4 3.2.1 4.3-1.3.4-.4 1-.4 1.5-.4l5.3.4c1 .1 1.3.5 1.2 1.5 0 .2-.1.4-.1.7.1.8-.6 1.8.2 2.4.9.6 2.1.4 3.1.4.5 0 .7-.4.7-.8.1-.7.2-1.3.1-2-.1-1.8.7-2.9 2.2-3.6.5-.2.5-.7.6-1.1.1-1.8.5-3.7.4-5.5-.1-1.6-1.1-3.2 1.2-4.3.4-.1.4-1.3.4-1.9.5-4.2 1.1-8.5 1.6-12.7.1-.7.2-1.4.7-2.4.1 2.5.1 4.6.1 6.7 0 3.3.1 6.6.1 9.9 0 .6.2.9.7 1.2 1.1.9 1.3 1.6.4 2.7-.3.4-.4 1-.4 1.5-.1 1.8-.3 3.8-.4 5.6-.1.8-.4 1.8.8 2.2.4.1.2.7.3 1.1.1 1.3.1 2.6.1 3.8 0 .8.4 1.1 1.1 1.2s1.1-.2 1.3-1c.5-2.5 1.1-4.9 1.6-7.4.1-.9.7-1.2 1.5-1.1 4.7.4 9.5.7 14.2 1.1.7.1 1.2.4 1.4 1.2.6 2.1 1.3 4.1 1.8 6.3.4 1.5 1.1 2.1 2.7 2.1 1 0 2.1.1 3.2.2 1.2.1 1.6-.2 1.8-1.5.5-6.6 1.1-13.1 1.5-19.7.1-2.1.9-3.4 2.4-4.7 4-3.2 7.7-6.6 11.6-9.8 1.6-1.3 2.1-1.3 3.5.4 3.2 3.9 6.4 7.8 9.7 11.7.6.7.9 1.5.7 2.4-.4 4-.6 7.9-1 11.9-.1 1.2.2 1.5 1.4 1.6 4.5.3 9.1.7 13.6 1.1 1.3.1 1.6-.2 1.7-1.5.9-11.6 1.8-23.2 2.7-34.8.1-1.3.5-2.2 1.3-3.1 3.2-3.7 6.3-7.4 9.4-11 .7-.7 1-1.5 1-2.5.2-3 .4-6 .7-9.1.1-.7 0-1.3-.5-1.8-.7-.8-.2-4.4.6-5.2.6-.5 1.2-1.1 1.8-1.5 1.2-.7 1.7-1.8 1.9-3.2 1-6.3 1.9-12.4 2.9-18.7 1.3-8.1 2.6-16.1 3.8-24.2.1-.4.1-.8.6-1.2v4.4c-.1 6.3-.2 12.6-.4 18.9-.1 7.2-.2 14.5-.4 21.7 0 1.5.5 2.7 1.5 3.7 1.7 1.6 1.5 3.6 1.2 5.6 0 .1-.1.4-.1.5-1.4.7-1.1 2.1-1.3 3.3-.2 2.7-.4 5.5-.7 8.2-.1 1 .1 1.7.6 2.5 2.4 4.1 4.9 8.1 7.4 12.1.5.9.7 1.8.7 2.8-1 11.7-1.9 23.5-2.8 35.2-.1.6-.5 1.5.5 1.8s1.5-.1 2.1-.9c2.8-4 5.7-7.9 8.5-11.9.7-1 1-.9 1.6.1 3.1 5.3 6.2 10.6 9.3 15.9.5.9 1.2 1.3 2.2 1.4 2.7.1 5.5.4 8.2.7 1 .1 1.7-.2 2.4-1 1.5-1.6 2.9-3.2 4.4-4.9.6-.7 1.3-.9 2.1-.8 3.5.3 7 .6 10.5.8.8.1 1.5.3 1.9 1 .1.1.2.2.2.3 2.4 4.8 6.8 4.6 11.2 4.9.8 0 1.1-.5 1.4-1 1.5-2.4 3.1-4.9 4.6-7.4.4-.6.7-1.2 1.5-1.1s1 .7 1.1 1.3c.8 2.1 1.6 4.3 2.4 6.5.2.6.3 1.3 1.1 1.3.7.1 1-.6 1.2-1.1 2.4-4.5 4.9-9 7.3-13.5.2-.4.4-.9.7-1.3.3-.5.6-.4.9.1.1.3.3.7.4 1 1.8 4.5 3.7 9 5.5 13.5.4.9.8 1.3 1.8 1.4 1.3 0 2.6.1 3.8.3 1.1.1 1.5-.2 1.6-1.3.2-3.3.5-6.6.7-9.9.1-1.9.2-1.9 2.1-1.8l13.7 1.1c1.9.1 1.9.1 2.1-1.8.1-1.8.3-3.6.4-5.5.1-1.2.1-2.3-.3-3.5s-.4-2.8 1-3.6c2.1-1.3 2.7-3.2 3-5.4.2-1.5.7-3.1 1.1-4.6.6 1.5.5 3.2.5 4.8 0 2.4.5 4.3 2.3 6 1.3 1.1.6 2.6.3 3.9-.1.4-.3.7-.4 1.1-.3 1.1.1 1.7 1.3 1.8 3.4.1 2.9.6 3.2-2.7.4-4 .7-7.9 1-11.9.1-1 .4-1.8 1.2-2.2 3.1-1.8 4.1-4.7 4.8-8 .7-3.5 1.6-7 2.5-10.5.5.3.4.7.4 1.1.1 4.5.4 9.1.5 13.6 0 .9.1 1.6.8 2.1 2.7 2.3 3.4 5.1 2.8 8.5s-.6 6.8-.9 10.2c-.1 1.1.2 1.5 1.3 1.5.7 0 1.3.1 2 .1 1.5.1 2.1-.7 1.4-2s-.3-2.6-.2-3.9c0-.5.4-.8.8-1 2.1-1 2.8-2.9 3.2-5 .2-1.5.7-3 1.2-4.5.4 1.1.2 2.2.4 3.3.1.4 0 .8 0 1.2-.1 2.3.3 4.3 2.1 5.9.9.8.6 3.9-.3 4.7-.5.4-.7 1-.7 1.6-.1 1.7-.2 3.4-.4 5.1-.1 1 .2 1.4 1.3 1.5 4 .3 8 .6 11.9 1 2.7.2 5.3.4 8 .7 1.2.1 1.5-.3 1.6-1.4 1-12.1 1.9-24.2 2.9-36.3.1-.5.1-1 .1-1.6.7.2.7.8.8 1.3.7 2.2 1.3 4.4 1.9 6.6.4 1.3.7 2.5.4 3.8-.1.7 0 1.4 1 1.3.9-.1 2.1.7 2.5-.9.3-1.5.5-2.9.7-4.3 1-6.8 2-13.6 3-20.3 1.4-9.1 2.8-18.2 4.2-27.3 1-6.7 2-13.4 3-20.2 1.2-7.9 2.5-15.8 3.7-23.7.9-5.8 1.7-11.6 2.6-17.4h.3c.1 5.5-.1 10.8-.1 16.3-.1 7.3-.1 14.6-.2 21.9-.1 4.4-.1 8.8-.1 13.2-.1 6.3-.1 12.6-.2 18.9-.1 4.4-.1 8.8-.2 13.2-.1 6.3-.1 12.6-.2 18.9-.1 3.5-.1 7.1-.2 10.7-.1 2.6-.1 2.6 2.5 2.7h.3c1.1.2 1.4-.3 1.5-1.3.6-3.8 2.9-6.8 4.2-10.2.4.6.3 1.2.2 1.7-1 13.1-2.1 26.1-3.1 39.3-.1 2.1-.1 2.1 1.8 2.2 2.7.2 2.4.4 2.6-2.1.3-3.1.4-3.2 3.4-2.7.8.1 1.2.4 1.1 1.3-.1 1-.1 2-.2 2.9-.1 1.2.7 1.2 1.4 1.2s1.5.4 1.7-.9c.4-2.7.4-2.7 3.2-2.4 2.7.2 5.4.4 8.1.7 1.1.1 1.5.5 1.3 1.6-.2 1.8-.3 3.5-.4 5.3-.1.8.2 1.2 1.1 1.3 7.1.5 14.2 1.1 21.3 1.7.9.1 1.2-.3 1.3-1.1.2-2 .2-2 2.1-1.8 3.7.3 3.7.3 4-3.5s.6-7.4.9-11.2c.1-1.7.2-1.8 2-1.6 4.6.4 9.3.7 14 1.1 1.6.1 1.7.3 1.6 1.9-.6 7.6-1.2 15.2-1.8 22.8 0 .4-.1.7-.1 1 0 .2-.1.6.2.7s.5-.1.7-.3c1.3-1 2.6-2.1 3.8-3.2 1-1 2.1-1.3 3.5-1.1 4.3.4 8.8.7 13.2 1.1 1.2.1 1.7-.2 1.8-1.5.3-4.5.7-9.1 1-13.6.1-1.3.5-1.6 1.7-1.5 2.9.2 2.9.2 3.2-2.9.7-9.4 1.5-18.8 2.2-28.2.1-1.8.1-1.8 1.9-1.6 2.9.2 6 .5 8.9.7 1.4.1 1.7.6 1.5 1.9-1.3 15.3-2.4 30.6-3.7 45.9-.1 2.2-.1 2.2 2 2.4 2.3.1 4.5.3 6.8.5 1 .1 1.4-.2 1.4-1.2 0-.7.1-1.5.1-2.3.1-.9.1-1.6 1.3-2.1.7-.3 1.3-1.1 2.3-1.3.4-.1.3-.7.4-1.1.1-1.3.2-2.7.3-4 .1-.7.4-1.3 1.1-1.5 1.1-.4 2.2-.8 3.2-1.2 1.5-.6 3-3.8 1.9-4.7-1.8-1.7-.7-3.5-.7-5.2-.1-1.3.2-2.5.2-3.8.1-2.3.4-4.4 1.8-6.5 1.6-2.4 1.6-5.4 2.2-8.2 1.4-6.6 2.7-13.1 4.1-19.7 0-.1.1-.3.3-.7.4 1 .3 2 .3 2.8.3 7.7.4 15.5.7 23.2.1 1.5.4 3.1 1.1 4.5.4.9.6 1.8.5 2.9-.3 3.2-.5 6.3-.8 9.4-.1.7-.1 1.2-.8 1.7-1 .7-.7 4 .4 4.9 1 .7 2 1.5 3 2.2.7.5 1 1.1 1 2.1-.1 1.3-.2 2.5-.3 3.8-.1.7.1 1.3 1 1.3.5 0 .6.5.8.8 1.7 2.1.7 4.3.5 6.6m-.5.1c1 .5 3.8 38.2 3.6 39.3-.1 1.1-.2 2.2-.3 3.3-.1.7-.4 1-1.1 1-.4-.1-.9-.1-1.3-.1-242-19.3-299.1-24.5-541-43.7-2.6-.2-2.4 0-2.1-2.6.1-1.2-1.3-5.5-1.3-6.7 0-1.1-.7-10.5.4-10.3m174.2-62.7c-.1.5-.1 1-.1 1.5-.1 2.9-.7 2.5 2.4 2.8 1 .1 1.3-.3 1.3-1.2.1-1.4.2-2.8.3-4.3.1-2.9.7-2.6-2.6-2.8-.1 0-.1 0-.1 0-.7-.1-1 .2-1 .9 0 1.1-.1 2.2-.2 3.1z" fill="#ccc"/><circle cx="646.1" cy="202" fill="#ccc" r="15"/><g fill="#363636"><path d="m471.6 372 8.4-9.7 28.3 24.5-8.4 9.7z"/><path d="m653.6 545.9 8.4-9.7 25.1 21.7-8.4 9.7z"/><path d="m707.3 463.7v.7c0 1.9-.1 3.8-.1 5.7-3.5 69.5-62.7 122.9-132.2 119.4-63.9-3.2-115.2-53.9-119.3-117.7-.1-2.7-.2-5.4-.2-8-.1-26.1 8-51.6 23.1-72.8 1.2-1.7 2.4-3.4 3.8-5.1.9-1.2 1.8-2.3 2.7-3.4 44.2-52.4 122.2-59.8 175.5-16.6 1.5 1.3 3 2.5 4.5 3.8 1.2 1 2.3 2.1 3.5 3.2 22.2 21.2 35.8 49.8 38.4 80.4.2 3.4.3 6.9.3 10.4z"/><path d="m581.4 605.5c-78.1 0-141.8-63.6-141.8-141.8-.1-35.8 13.5-70.2 37.9-96.4l3.2 2.9c-23.6 25.4-36.8 58.8-36.7 93.5 0 75.8 61.7 137.5 137.5 137.5 37.2.1 72.9-15 98.7-41.8l3.1 2.9c-26.7 27.8-63.6 43.4-101.9 43.2z"/><path d="m566 602.5h36v36h-36z"/></g><path d="m482.4 385.9c.1 0 .1.1.1.1.7.6-.1 1.6-.1 2.5.1 1.1 1.6 1.4 2.8 1.5 1.1.1 2.6 1 2.1 2.1-2.9 1-5.7 0-8.7-1.1-15.1 21.3-23.2 46.7-23.1 72.8 0 2.7.1 5.4.2 8 .2.1.5.3.8.4.9.3 1.8.3 2.7.7.6.4 1 1 1.7 1.3 1.8 1 4.3-.9 6 .3l1.3 1.3c1.5 1.3 4.1.4 5.9 1.5 1.2.7 1.8 1.9 2.4 3.1 1.5 2.9 4.1 5.7 7.3 6 1-.1 2.1 0 3.1.1 1 .2 2 1.1 1.8 2.1-.3 1.8.6 3.7.4 5.5-.4 3.2-4.9 4.6-5.4 7.8 0 .7-.1 1.4-.1 2.1-.2.8-.8 1.5-1 2.4-.4 1.6.7 3.2 2 4.2 1.3 1.1 2.7 2 3.5 3.5.7 1.6.4 3.5.6 5.2.5 3.8 3.8 6.6 7.1 8.3 1.1.4 2 1.1 2.8 2 .9 1.3.7 2.9 1 4.3.7 3.6 3.8 6.6 3.8 10.3.1 2.7-1.4 5-2.3 7.5-.9 2.6-1.2 5.4-.8 8.1 4.9 4.1 10.1 7.9 15.5 11.3.3-.4.5-1 .7-1.5.2-1.2-.3-2.4-1.3-2.9 1-.4 1.8-.9 2.4-1.5.7-.7.9-1.8.4-2.7 1.5.2 3.3.3 4.3-.9.8-1 .7-2.3.4-3.5-.4-1.1-.7-2.4-.9-3.5 3.5.1 7 .1 10.5-.4-.5-1.7-1.6-3.1-3.2-4 1.5-.3 3-2.1 3.5-3.7.4-1.5.4-3.2.1-4.7-.1-.4-.1-.8-.1-1.3.2-.5.7-1 1.3-1.2l7.8-4.5c.4-.2.9-.5 1.3-.9.8-1 .7-2.4.3-3.6s-1.1-2.3-1.3-3.5c-.5-3.8 3.5-6.4 4.9-9.9.4-1.4.7-2.9.7-4.3.1-1.6.1-3.5-1.1-4.4-1.2-1-3-.7-4.2-1.7-1.1-.8-1.5-2.4-2.7-3.2-1.1-.6-2.5-.2-3.8-.5-2.2-.5-3.5-3-5.7-3.2-1.3-.1-2.7.5-3.7-.2-.9-.7-1-1.9-1.1-3-.6-3.5-3.4-6.3-6.8-6.8-1.3-.2-2.7-.1-3.8-.8s-1.6-2.1-2.5-3.1c-1.4-1.6-3.6-2.2-5.7-2.7-2.8-.7-5.7-1.3-8.5-2-1.5-.4-3.5-.5-4.3.7-.2.5-.4 1-.5 1.6-.7 2.1-2.5 3.4-4.6 3.5-.7-1.2-1.8-2.1-3.2-2.5-.9-.1-1.8-.4-2.6-.6-1.8-.9-2.6-3.1-1.7-4.9 0-.1.1-.1.1-.1 1-1.8.7-4.1-.8-5.5-1.5-1.3-3.5-1.6-5.5-1.5-.5-1.1.4-2.4 1.3-3.2s2-1.6 2.2-2.8c.3-1.9-2.1-3.3-3.9-2.7s-3 2.4-3.8 4.1c-.4 1-.9 2-1.5 2.9-.7.9-1.8 1.3-2.9 1.2-1.5-.4-2.1-2.2-2.4-3.7-.5-2-.8-4.1-.8-6.2s.9-4.1 2.4-5.6c2.5-2.3 6.3-2.1 9.7-1.7-.7-1-.7-2.4.2-3.2s2.1-1.1 3.4-.8c1 .2 1.9.7 2.6 1.5 1 1.2 1.3 2.7 2 4.1.7 1.3 2.4 2.4 3.7 1.8 1.2-.6 1.3-2.2 1-3.5s-.9-2.5-.8-3.8c.2-2.5 2.8-4 5.1-5s4.9-2.4 5.2-4.9c0-.5.1-1 .3-1.4s.6-.7 1-1c6.6-4.3 13.3-8.8 20.9-11.2.4-.1.4 0 .8-.1.6-.3.2-1.3-.4-1.6-.5-.4-1.3-.7-1.4-1.3-.1-.4.1-1 .2-1.4.1-1-.7-1.8-1.6-1.8-.2 0-.4 0-.7.1-.6-.8.6-1.8 1.5-2 2.9-.8 5.9-1.3 9-1.5.4-.1.7 0 1 .1.4.4.5 1.2.1 1.7-.4.4-.9.9-1.3 1.3-1 1-1.4 2.4-1 3.8 1.6.8 3.3 1.6 5.1 1.3s3.3-2.3 2.5-3.8c-.7-1.5-3.1-1.8-3.5-3.4-.4-1.8 2.2-3.5 1.6-5.4-.2-.8-1-1.3-1.7-1.8-1.5-1.5-1.9-3.7-1.1-5.6-2.1.4-4.1-.3-5.6-1.8-1.3-1.3-2.4-3.5-4.3-3.4-1.8.1-3.2 2.1-4.9 1.5-.4-.1-.8-.4-1.2-.3-.2.1-.4.4-.4.7-.4 2 .3 4.2-.8 6-1.2 1.8-3.9 2.1-5.3 3.8-.7.9-1.1 2.1-1.8 3.1s-2.2 1.5-3.1.7c.9-1.8.4-3.9-1.2-5.2-.8-.5-1.6-1-2.5-1.3-1-.4-1.9-1-2.9-1.5-.4-.3-.8-.7-1-1.1-.2-.6-.1-1.2.1-1.8.9-2.5 3.1-4.3 5.7-4.7 1.1-.1 2.4-.1 3.2-1 .4-.4.6-1.2 1.2-1.3.4-.1.7 0 1.1.1l4.2 1.5c.4.2 1 .3 1.5.2s.9-.5.9-1.1c-.1-.7-1.3-1-1.1-1.8.1-.2.1-.4.4-.6 3.1-3.3 7.5-5 12-4.7.5.9-.3 1.9-1 2.7-.7.7-1.3 2.1-.4 2.7.4.1.7.3 1.1.2 1 .1 2.1.4 3 .9 1.5.7 2.9 1.3 4.3 2.1-.2-.9-.1-1.8.1-2.8.3-.9 1.3-1.5 2.2-1.2.8.3 1.3 1.5 2.1 1.5 1.2.1 1.7-1.6 1.2-2.7s-1.5-2-1.5-3.2c-.1-.8.2-1.8-.4-2.3-.2-.1-.5-.2-.7-.3-5.4-1-10.8-2-16.1-2.9-1-.1-2.4-.1-2.4 1 0 .5.4 1.1.2 1.6s-1 .5-1.5.7c-.8.4-1.3 1.3-1.2 2.2s.5 1.8 1 2.5c-1-.4-2.7-.5-3.7-1-.1-1.3-.4-2.4-1-3.5-.1-.7-.7-1.2-1.4-1-.1 0-.1 0-.2.1-1.4.2-2.8.4-4.2.7-.4 0-.7.1-1 .4-.5.6 0 1.5 0 2.3-.1.9-.7 1.6-1.6 1.8-.9.1-1.8.1-2.7 0-1.9-.3-3.9-.6-5.8-.9 1.7-.5 3.2-1.5 4.4-2.9.7-.9 1.2-2.6.1-3-.3-.1-.7-.1-1-.1-2.7 0-4.7-2.2-7.2-3.1-.8-.3-1.6-.4-2.4-.4z" fill="#f5f5f5"/><path d="m707.2 470.1c-.6.8-1.6 1.3-2.7 1.3-2.7-.2-3.8-4.1-6.5-4.6-.2-.1-.5 0-.7.1-.4.2-.4.7-.5 1.2-.1 2.2-.2 4.5.7 6.6 1.3 2.9 4.5 5.5 3.8 8.6-3.7-1.7-5.6-5.8-6.5-9.8s-1-8.1-2.6-11.9c-1.2 1.5-3.7.3-4.8-1.3-1-1.5-1.7-3.2-2.7-4.8s-2.5-2.9-4.3-2.9c-1.9-.1-3.6 1.3-5 2.4-1.3 1-2.4 2.1-3.1 3.5-1 2.1-.7 4.5-.8 6.8-.1 2.4-.6 5.1-2.3 6.9s-4.8 2.4-6.6.8c-.9-1-1.5-2.1-1.8-3.3-2-5.9-3.7-11.9-5-18-.3 1.4-1.5 3.2-2.7 2.4-.3-.2-.4-.5-.6-.8-2.2-3.7-6.2-5.9-10.2-7.2s-8.3-1.9-12.4-3.4c-2.3-.8-4.4-1.9-6.4-3.2-1 1.5-1.2 3.5-.3 5.2 1 1.6 2.8 2.4 4.6 1.9.9-.3 1.6-.9 2.5-1.3.9-.3 2.1-.1 2.4.7.4.8-.2 1.8.1 2.7.4 1.3 2.4 1.4 3.1 2.6.4 1 .1 2.1-.7 2.7-.8.7-1.7 1.2-2.6 1.6-2.9 1.6-4.9 4.3-7.4 6.5-2.5 2.1-6 3.7-9.1 2.4.7-3.6-3.6-6.3-4.4-9.9-.3-1.2-.1-2.4-.5-3.6-.5-1.7-2.1-2.8-3.2-4.1-3-3.2-4.6-7.4-4.4-11.7.1-1.5.4-3 0-4.5s-1.5-2.9-3-2.8c-3.4.1-7.7.4-9.5-2.5-.7-1-.9-2.6 0-3.3.7-.4 1.6-.6 2.4-.4 2.6.2 5.1.5 7.7.7 1.8.1 3.8.3 5.3-.6s2.2-3.5.8-4.6c-1-.8-2.9-.7-3.2-2.1-.2-1.1 1-2.3.3-3.2-.4-.7-1.5-.4-2.1 0-.5.6-1.1 1.1-1.8 1.5-1.3.7-2.7 0-4-.4s-3.1-.4-3.7.8c-.7 1.3.6 3.2-.1 4.6-1 1.8-4.1.8-5.5 2.4-1.5 1.8 1 4.4.5 6.7-1.3.7-2.9.6-4.1-.2s-1.9-2.3-1.7-3.8c.1-1 .7-2.1.3-3-.4-.7-1-1.3-1.8-1.6-2.5-1.4-4.9-2.7-7.4-4.1-.7 1.3.1 2.9 1.3 3.8s2.4 1.7 3.2 2.9c1 1.8.3 4.1-1.5 5.2-.2.1-.5.2-.7.1s-.4-.4-.5-.7c-1.3-3.4-3.3-6.7-6.4-8.5-3.2-1.8-7.7-1.4-9.8 1.5-.5.7-.8 1.5-1.3 2.3-2.3 4-7.1 5.8-11.7 5.7-.4 0-.9-.1-1.3-.3-.7-.5-.7-1.6-.6-2.5.1-1.3.3-2.5.5-3.8 0-.7.3-1.5.8-2.1.9-.7 2.1-.2 3.2-.3 1.7-.1 3.1-1.2 3.6-2.8.4-1.6-.1-3.3-1.3-4.4-.5-.4-1.2-1-.9-1.7.2-.4.6-.6 1-.7 1.9-.6 4-.7 5.9-1.4s3.8-2 4.2-4c.1-.6.2-1.3.7-1.6.3-.1.6-.1.9-.1 2.1-.3 3.7-2.2 3.6-4.3.9-.7 2.2-.1 3.1.5.9.7 1.6 1.5 2.7 1.8 2 .5 3.9-1.3 6-1.3.9 0 1.8.3 2.6 0s1.3-1.1 2-1.7 1.8-1 2.4-.3c-.1-1.3-.4-2.5-.5-3.7 2.1.5 4.2.1 6-1.1-2.1-.7-4.3-1.5-6.5-2.2-.2-.1-.4-.1-.6-.3-.4-.5 0-1.3.4-1.8.9-1.4 1.1-3.7-.4-4.3-1-.4-2.2.1-3.2.7-1.5.9-3.2 1.8-4.7 2.7-.1.9 1 1.4 1.6 2 1.1 1 1.3 2.7.2 3.8-.5.6-1.3.9-2 .9.7.8.9 1.9.6 2.9-1 .1-2.1.1-3.2.2-.4.1-.7 0-1-.2-.4-.3-.3-.8-.4-1.3-.3-1.1-1.2-1.9-2.4-2.1-1.1-.1-2.2 0-3.2.3-.4.1-1 .1-1.4 0-.2-.1-.4-.4-.5-.7-.4-1.2-.1-2.5.7-3.5.8-.9 1.7-1.8 2.7-2.5 2.2-1.9 3.8-4.5 4.7-7.3 1.8-.7 3.5-1.7 5.3-2.4 1.4-.7 2.9-1.2 4.4-1.5 1.4-.2 2.9-.3 4.3-.2 2 0 4 .1 5.9.1 1.8-.1 3.5.1 5.2.7 1.6.7 3 2.1 3.2 3.8.1.4-.1.8-.4 1.1-.2.1-.5.2-.7.1-1.6.1-2.4.4-4 .5 1 1.1 2.2 2.3 3.7 2.4 2.7.4 4.6-2.4 5.8-4.8.1 1.3 1.2 2.2 2.4 2.1.7-.1 1.3-.4 1.8-.7 5.3-2.9 11.2-4.4 17.2-4.4-.1-1 .5-1.8 1.4-2.1 1.3-.2 2.4.8 2.9 1.9.6 1.1 1 2.4 1.9 3.2 1 .8 2.7.8 3.1-.4.4-1.1-.8-2.1-1.8-2.8s-2.1-1.9-1.3-2.9c5-1.1 10.1-2.2 15.3-2.4.9 0 1.8-.1 2.6-.4.8-.4 1.3-1.3 1.2-2.1-2.3.5-4.7-.4-6.1-2.3 5.3-.4 10.8-.8 16 .4l4.5 3.8c-.9.9-2 1.7-1.3 2.6.4.4 1 .6 1.5.5 1.1 0 2.1.1 3.2.1 22.2 21.2 35.8 49.8 38.4 80.4-1.8-.1-3.5 2.2-3.2 4.2.3 2.3 1.9 4.1 3.1 6.1.2.3.4.7.5 1z" fill="#f5f5f5"/><path d="m553.5 289.1h68.6v28.4h-68.6z" fill="#fff"/><path d="m546.2 260.7h83.2v28.4h-83.2z"/><path d="m554.8 238.9h66.2v21.8h-66.2z" fill="#0072ce"/><path d="m589.2 225.7c-27.4-.7-50.2 20.9-51 48.3s46.5 118.8 46.5 118.8 52.1-88.8 52.8-116.1-20.9-50.3-48.3-51zm-2.4 86.5c-19.7-.5-35.3-16.9-34.8-36.7s16.9-35.3 36.7-34.8c19.7.5 35.3 16.9 34.8 36.7s-17 35.3-36.7 34.8z" fill="#606060"/></svg>