<svg enable-background="new 0 0 859.4 767.8" viewBox="0 0 859.4 767.8" xmlns="http://www.w3.org/2000/svg" xmlns:xlink="http://www.w3.org/1999/xlink"><linearGradient id="a" gradientTransform="matrix(1 0 0 -1 0 768)" gradientUnits="userSpaceOnUse" x1="344.921" x2="505.399" y1="398.603" y2="398.603"><stop offset="0" stop-color="#808080" stop-opacity=".25"/><stop offset=".5351" stop-color="#808080" stop-opacity=".12"/><stop offset="1" stop-color="#808080" stop-opacity=".1"/></linearGradient><path d="m431.4 10.7-269.7 166s0 342.3 269.7 529c269.7-186.7 269.7-529 269.7-529z" fill="#363636"/><path d="m433 10.7-4.6 2.8v688.9c1.5 1.1 3.1 2.2 4.6 3.2 269.7-186.7 269.7-529 269.7-529z" fill="#363636" opacity=".04"/><path d="m366.1 347.1 50.8 46.6 63.1-90.9 25.4 21.1-88.5 112.1-72-80.5z" fill="url(#a)" opacity=".7"/><path d="m378.1 349.9 41.2 37.8 58.5-85.9 20.6 17.1-79.1 103.1-58.4-65.3z" fill="#f5f5f5"/><g fill="#363636"><path d="m165.3 48c-1.7-.7-2.6-2.7-2-4.4 0-.1.1-.3.1-.4.1-1-.7-1.9-1.7-2-.6 0-1.2.2-1.6.7-.1.1-.2.2-.2.4-.7 1.7-2.7 2.6-4.4 2-.1 0-.3-.1-.4-.1-1-.1-1.9.7-2 1.7 0 .6.2 1.2.7 1.6.1.1.2.2.4.2 1.7.7 2.6 2.7 2 4.4 0 .1-.1.3-.1.4-.1 1 .7 1.9 1.7 2 .6 0 1.2-.2 1.6-.7.1-.1.2-.2.2-.4.7-1.7 2.7-2.6 4.4-2 .1 0 .3.1.4.1 1 .1 1.9-.7 2-1.7 0-.6-.2-1.2-.7-1.6-.2-.1-.3-.2-.4-.2z" opacity=".5"/><path d="m19.3 373c-1.7-.7-2.6-2.7-2-4.4 0-.1.1-.3.1-.4.1-1-.7-1.9-1.7-2-.6 0-1.2.2-1.6.7-.1.1-.2.2-.2.4-.7 1.7-2.7 2.6-4.4 2-.1 0-.3-.1-.4-.1-1-.1-1.9.7-2 1.7 0 .6.2 1.2.7 1.6.1.1.2.2.4.2 1.7.7 2.6 2.7 2 4.4 0 .1-.1.3-.1.4-.1 1 .7 1.9 1.7 2 .6 0 1.2-.2 1.6-.7.1-.1.2-.2.2-.4.7-1.7 2.7-2.6 4.4-2 .1 0 .3.1.4.1 1 .1 1.9-.7 2-1.7 0-.6-.2-1.2-.7-1.6-.2-.1-.3-.2-.4-.2z" opacity=".5"/><circle cx="748.4" cy="254" opacity=".5" r="6"/><circle cx="121.4" cy="683" opacity=".5" r="6"/><circle cx="850.4" cy="485" opacity=".5" r="6"/><path d="m704.3 77c-1.7-.7-2.6-2.7-2-4.4 0-.1.1-.3.1-.4.1-1-.7-1.9-1.7-2-.6 0-1.2.2-1.6.7-.1.1-.2.2-.2.4-.7 1.7-2.7 2.6-4.4 2-.1 0-.3-.1-.4-.1-1-.1-1.9.7-2 1.7 0 .6.2 1.2.7 1.6.1.1.2.2.4.2 1.7.7 2.6 2.7 2 4.4 0 .1-.1.3-.1.4-.1 1 .7 1.9 1.7 2 .6 0 1.2-.2 1.6-.7.1-.1.2-.2.2-.4.7-1.7 2.7-2.6 4.4-2 .1 0 .3.1.4.1 1 .1 1.9-.7 2-1.7 0-.6-.2-1.2-.7-1.6-.2-.1-.3-.2-.4-.2z" opacity=".5"/><path d="m804.3 705c-1.7-.7-2.6-2.7-2-4.4 0-.1.1-.3.1-.4.1-1-.7-1.9-1.7-2-.6 0-1.2.2-1.6.7-.1.1-.2.2-.2.4-.7 1.7-2.7 2.6-4.4 2-.1 0-.3-.1-.4-.1-1-.1-1.9.7-2 1.7 0 .6.2 1.2.7 1.6.1.1.2.2.4.2 1.7.7 2.6 2.7 2 4.4 0 .1-.1.3-.1.4-.1 1 .7 1.9 1.7 2 .6 0 1.2-.2 1.6-.7.1-.1.2-.2.2-.4.7-1.7 2.7-2.6 4.4-2 .1 0 .3.1.4.1 1 .1 1.9-.7 2-1.7 0-.6-.2-1.2-.7-1.6-.2-.1-.3-.2-.4-.2z" opacity=".5"/><path d="m12.3 183c-1.7-.7-2.6-2.7-2-4.4 0-.1.1-.3.1-.4.1-1-.7-1.9-1.7-2-.6 0-1.2.2-1.6.7-.1.1-.2.2-.2.4-.7 1.7-2.7 2.6-4.4 2-.1 0-.3-.1-.4-.1-1-.1-1.9.7-2 1.7 0 .6.2 1.2.7 1.6.1.1.2.2.4.2 1.7.7 2.6 2.7 2 4.4 0 .1-.1.3-.1.4-.1 1 .7 1.9 1.7 2 .6 0 1.2-.2 1.6-.7.1-.1.2-.2.2-.4.7-1.7 2.7-2.6 4.4-2 .1 0 .3.1.4.1 1 .1 1.9-.7 2-1.7 0-.6-.2-1.2-.7-1.6-.2-.1-.3-.2-.4-.2z" opacity=".5"/><circle cx="79.4" cy="284" opacity=".5" r="6"/><circle cx="853.4" cy="332" opacity=".5" r="6"/><g opacity=".5"><path d="m583.4 0h3v17h-3z"/><path d="m576.4 7h17v3h-17z"/></g><g opacity=".5"><path d="m594.4 666h3v17h-3z"/><path d="m587.4 673h17v3h-17z"/></g><g opacity=".5"><path d="m26.4 702h3v17h-3z"/><path d="m19.4 709h17v3h-17z"/></g><g opacity=".5"><path d="m709.4 396h3v17h-3z"/><path d="m702.4 403h17v3h-17z"/></g><path d="m795.6 123 6.4 5.9 9.2-13.4 3.2 2.7-12.4 16.1-9.1-10.2z" opacity=".5"/></g></svg>