<svg id="fe93ff64-a18b-49f4-bb52-e425cf20d0d6" xmlns="http://www.w3.org/2000/svg" viewBox="0 0 1050 594"><style>.st0{opacity:.1;fill:#363636;enable-background:new}.st1{fill:#d0d2d5}.st2{opacity:.1;enable-background:new}.st3{fill:#363636}.st4{fill:#fff}</style><ellipse class="st0" cx="525" cy="561" rx="525" ry="33"/><path class="st1" d="M497.1 550L318.9 547.7 319.4 543.1 328 467.8 484.5 467.8 496 543.1 496.9 548.8z"/><path class="st2" d="M496.9 548.8L408 548.8 318.9 547.7 319.4 543.1 496 543.1z"/><path class="st1" d="M289.2 544.3H525.7V550H289.2z"/><path class="st3" d="M751.2 14.9c0-8.2-6.6-14.9-14.8-14.9H76.1c-8.2 0-14.8 6.7-14.8 14.9v400.3h689.9V14.9z"/><path class="st1" d="M61.3 411.2v46.9c0 8.2 6.6 14.8 14.8 14.8h660.3c8.2 0 14.8-6.6 14.8-14.8v-46.9H61.3z"/><path class="st4" d="M89.9 25.1H726.1V384.90000000000003H89.9z"/><path class="st2" d="M425.1 472.9L496.2 544.3 485.3 472.9z"/><path class="st0" d="M634.9 211.1v-.2c-.2-5-1.1-9.9-2.7-14.6-.1-.3-.2-.5-.3-.8-3.9-11.4-11.4-21.2-21.3-28-23-15.7-54.2-11.8-72.7 9-.9-5.3-2.4-10.5-4.4-15.5-14.6 1.8-29.3 2.4-44 1.6 9 4.2 18.3 7.5 27.9 10.1l-.3 1.3c-10.7-2.9-21.2-6.8-31.2-11.7l-3-1.5 3.4.2c15.6 1 31.3.6 46.8-1.4-3.4-8-8-15.4-13.8-21.9-25.2-2.5-50.2-7.8-73.5-18.3l.5-1.2c22.7 10.2 47 15.5 71.6 18-29.6-31.8-79.4-33.5-111.1-3.9-5.4 5-10.1 10.8-13.9 17.2-2.4-22.5-11.8-43.8-26.8-60.7-13.4 5.4-27.3 9.6-41.5 12.6-21.3 4.5-43.1 6.2-64.8 5.1 9 4.2 18.3 7.5 27.9 10.1l-.3 1.3c-10.7-2.9-21.2-6.8-31.2-11.7l-3-1.5 3.4.2c37 2.4 74.1-3.4 108.6-17.2-1.3-1.4-2.6-2.8-4-4.2-43.1.9-90 .4-132.4-15-32 19.7-51.4 54.6-51.4 92.2 0 20.3 5.6 48.3 15.3 76.3 4.3 12.5 9.4 24.8 15.3 36.8 3 6 6.1 11.9 9.4 17.5 4 6.8 8.4 13.4 13.2 19.7.9 1.1 1.7 2.2 2.6 3.3 4.9 6.2 10.4 11.9 16.4 17 1.2 1 2.4 2 3.7 2.9 3.3 2.5 6.8 4.6 10.5 6.5 6.1 3.2 12.9 5 19.8 5.4h1.6v.2h294v-.2h.2c1.7 0 3.4-.3 5-.9 10.4-3.7 20-18.5 27.9-37.2 1.8-4.1 3.4-8.5 5-13 1.4-3.9 2.8-8 4-12 3.7-11.9 6.8-23.9 9.2-36.1 2.8-13.9 4.3-26 4.3-33.7.2-.4.2-1.3.1-2.1z"/><path class="st0" d="M359.9 82.5c-35-33.4-88-39.4-129.6-14.6 41.5 14.9 87.4 15.4 129.6 14.6zm240.8 241.6l-45.4-78.6c-.4-.7-1.3-.9-2-.5-.2.1-.4.3-.5.5l-45.4 78.6c-.4.7-.2 1.6.5 2 .2.1.5.2.7.2h13.5c.8 0 1.4.6 1.5 1.4v16.8c0 .8.6 1.4 1.4 1.4h17.7c.8 0 1.5-.6 1.5-1.5v-8.1c0-.8.6-1.4 1.4-1.4h16.8c.8 0 1.5.6 1.5 1.5v8.1c0 .8.6 1.5 1.5 1.5H583c.6 0 1.2-.4 1.4-1 .1-.1.1-.3.1-.5v-16.8c0-.8.7-1.4 1.5-1.4h13.5c.8 0 1.5-.6 1.5-1.4-.1-.4-.1-.6-.3-.8zm-63.2 8.7c-.3.3-.6.4-1 .4h-6.4c-.8 0-1.5-.6-1.5-1.5 0-.8.7-1.4 1.5-1.5h6.4c.8 0 1.5.6 1.5 1.4-.1.5-.3.9-.5 1.2zm41.6 0c-.3.3-.6.4-1 .4h-6.4c-.8 0-1.4-.7-1.4-1.5 0-.4.2-.7.4-1 .3-.3.6-.4 1-.4h6.4c.8 0 1.5.6 1.5 1.5 0 .3-.2.7-.5 1zm-258.8-8l-45.4-78.6c-.4-.7-1.3-.9-2-.5-.2.1-.4.3-.5.5L233.2 314c4.9 6.2 10.4 11.9 16.4 17h6.4c.8 0 1.5.6 1.5 1.4 0 .8-.7 1.4-1.5 1.5h-2.7c3.3 2.5 6.8 4.7 10.5 6.5V337c0-.8.6-1.4 1.4-1.4H282c.8 0 1.4.6 1.4 1.4v8.1c0 .2 0 .4.1.6.2.5.8.8 1.3.8h17.7c.5 0 .9-.2 1.1-.6.2-.3.3-.6.3-.9v-16.7c0-.8.6-1.5 1.4-1.5H319c.8 0 1.5-.6 1.5-1.4 0-.2-.1-.4-.2-.6zm-30 6.6c.3-.3.6-.4 1-.4h6.4c.8 0 1.5.6 1.5 1.5 0 .8-.6 1.5-1.4 1.5h-6.4c-.8 0-1.5-.6-1.5-1.4-.1-.6.1-.9.4-1.2zm-28.5-29.1c-.8 0-1.4-.6-1.4-1.4v-11c0-.8.6-1.4 1.4-1.5h23.7c.8 0 1.4.7 1.4 1.5v11c0 .8-.6 1.4-1.4 1.5h-23.7zm237.8-118.7h-56.2v-12.1c0-1.6-1.3-2.9-2.9-2.9H424v-12.9c0-1-.8-1.8-1.8-1.8H401c-1 0-1.8.8-1.8 1.8v12.9h-19.4c-1.6 0-2.9 1.3-2.9 2.9v12.1h-53.5c-.3 0-.6.2-.6.6v161.2c0 .3.2.6.6.6H359c.3 0 .6-.2.6-.6v-21.7c0-.3.3-.6.6-.6h15c.3 0 .6.3.6.6v21.7c0 .3.2.6.6.6h70.3c.3 0 .6-.3.6-.6v-21.7c0-.3.3-.6.6-.6h15c.3 0 .6.3.6.6v21.7c0 .3.3.6.6.6h35.6c.3 0 .6-.3.6-.6V184.2c-.1-.4-.3-.6-.7-.6zm-146.4 132c0 .3-.2.6-.6.6h-22c-.3 0-.6-.2-.6-.6v-7.5c0-.3.3-.6.6-.6h22c.3 0 .6.3.6.6v7.5zm0-19.4c0 .3-.3.6-.6.6h-22c-.3 0-.6-.3-.6-.6v-7.5c0-.3.3-.6.6-.6h22c.3 0 .6.3.6.6v7.5zm0-19.4c0 .3-.2.6-.6.6h-22c-.3 0-.6-.2-.6-.6v-7.5c0-.3.2-.6.6-.6h22c.3 0 .6.2.6.6v7.5zm0-19.4c0 .3-.2.6-.6.6h-22c-.3 0-.6-.2-.6-.6v-7.5c0-.3.2-.6.6-.6h22c.3 0 .6.2.6.6v7.5zm0-19.4c0 .3-.3.6-.6.6h-22c-.3 0-.6-.3-.6-.6v-7.5c0-.3.3-.6.6-.6h22c.3 0 .6.3.6.6v7.5zm0-19.4c0 .3-.2.6-.6.6h-22c-.3 0-.6-.2-.6-.6v-7.5c0-.3.2-.6.6-.6h22c.3 0 .6.2.6.6v7.5zm0-19.4c0 .3-.2.6-.6.6h-22c-.3 0-.6-.2-.6-.6v-7.5c0-.3.2-.6.6-.6h22c.3 0 .6.2.6.6v7.5zm52.1 116.4c0 .3-.2.6-.6.6h-22c-.3 0-.6-.2-.6-.6v-7.5c0-.3.3-.6.6-.6h22c.3 0 .6.3.6.6v7.5zm0-19.4c0 .3-.3.6-.6.6h-22c-.3 0-.6-.3-.6-.6v-7.5c0-.3.3-.6.6-.6h22c.3 0 .6.3.6.6v7.5zm0-19.4c0 .3-.2.6-.6.6h-22c-.3 0-.6-.2-.6-.6v-7.5c0-.3.2-.6.6-.6h22c.3 0 .6.2.6.6v7.5zm0-19.4c0 .3-.2.6-.6.6h-22c-.3 0-.6-.2-.6-.6v-7.5c0-.3.2-.6.6-.6h22c.3 0 .6.2.6.6v7.5zm0-19.4c0 .3-.3.6-.6.6h-22c-.3 0-.6-.3-.6-.6v-7.5c0-.3.3-.6.6-.6h22c.3 0 .6.3.6.6v7.5zm0-19.4c0 .3-.2.6-.6.6h-22c-.3 0-.6-.2-.6-.6v-7.5c0-.3.2-.6.6-.6h22c.3 0 .6.2.6.6v7.5zm0-19.4c0 .3-.2.6-.6.6h-22c-.3 0-.6-.2-.6-.6v-7.5c0-.3.2-.6.6-.6h22c.3 0 .6.2.6.6v7.5zm35.6 116.4c0 .3-.3.6-.6.6h-22c-.3 0-.6-.3-.6-.6v-7.5c0-.3.3-.6.6-.6h22c.3 0 .6.3.6.6v7.5zm0-19.4c0 .3-.3.6-.6.6h-22c-.3 0-.6-.3-.6-.6v-7.5c0-.3.3-.6.6-.6h22c.3 0 .6.3.6.6v7.5zm0-19.4c0 .3-.3.6-.6.6h-22c-.3 0-.6-.3-.6-.6v-7.5c0-.3.3-.6.6-.6h22c.3 0 .6.3.6.6v7.5zm0-19.4c0 .3-.3.6-.6.6h-22c-.3 0-.6-.3-.6-.6v-7.5c0-.3.3-.6.6-.6h22c.3 0 .6.3.6.6v7.5zm0-19.4c0 .3-.3.6-.6.6h-22c-.3 0-.6-.3-.6-.6v-7.5c0-.3.3-.6.6-.6h22c.3 0 .6.3.6.6v7.5zm0-19.4c0 .3-.3.6-.6.6h-22c-.3 0-.6-.3-.6-.6v-7.5c0-.3.3-.6.6-.6h22c.3 0 .6.3.6.6v7.5zm0-19.4c0 .3-.3.6-.6.6h-22c-.3 0-.6-.3-.6-.6v-7.5c0-.3.3-.6.6-.6h22c.3 0 .6.3.6.6v7.5zM493 315.6c0 .3-.3.6-.6.6h-22c-.3 0-.6-.2-.6-.6v-7.5c0-.3.3-.6.6-.6h22c.3 0 .6.3.6.6v7.5zm0-19.4c0 .3-.3.6-.6.6h-22c-.3 0-.6-.3-.6-.6v-7.5c0-.3.3-.6.6-.6h22c.3 0 .6.3.6.6v7.5zm0-19.4c0 .3-.3.6-.6.6h-22c-.3 0-.6-.2-.6-.6v-7.5c0-.3.2-.6.6-.6h22c.3 0 .6.3.6.6v7.5zm0-19.4c0 .3-.3.6-.6.6h-22c-.3 0-.6-.2-.6-.6v-7.5c0-.3.2-.6.6-.6h22c.3 0 .6.3.6.6v7.5zm0-19.4c0 .3-.3.6-.6.6h-22c-.3 0-.6-.3-.6-.6v-7.5c0-.3.3-.6.6-.6h22c.3 0 .6.3.6.6v7.5zm0-19.4c0 .3-.3.6-.6.6h-22c-.3 0-.6-.2-.6-.6v-7.5c0-.3.2-.6.6-.6h22c.3 0 .6.3.6.6v7.5zm0-19.4c0 .3-.3.6-.6.6h-22c-.3 0-.6-.2-.6-.6v-7.5c0-.3.2-.6.6-.6h22c.3 0 .6.3.6.6v7.5zm-153.3-59.3c-2.5-.5-5-.2-7.3.8-2.8 1.3-6 1.3-8.8 0-3.3-1.5-7.1-1.4-10.4.2-.9.5-2 .8-3 .8-4.2 0-7.7-4.2-8.4-9.8.8-.6 1.5-1.4 2.1-2.3 2.5-4 6.3-6.5 10.6-6.5s8.1 2.5 10.5 6.4c1.5 2.4 4.2 3.9 7 3.8h.1c3.3 0 6.2 2.7 7.6 6.6z"/><path class="st0" d="M352.5 122.4l-6.8 4.3 4.1-7.5c-1.2-.9-2.6-1.4-4.1-1.5h-.1c-.5 0-.9 0-1.4-.1l-2.3 1.5 1-1.8c-1.6-.6-3-1.6-4-3l-4.1 2.6 2.6-4.7c-2.2-2.9-5.6-4.6-9.2-4.7-4.3 0-8.1 2.5-10.6 6.5-1.5 2.4-4.2 3.9-7 3.8h-.2c-4.7 0-8.6 5.4-8.6 12s3.8 12 8.6 12c1 0 2.1-.3 3-.7 3.3-1.6 7-1.7 10.4-.2 2.8 1.2 6 1.2 8.8 0 3.3-1.4 7-1.4 10.3.2.9.5 2 .7 3 .7 4.7 0 8.6-5.4 8.6-12-.1-2.7-.8-5.2-2-7.4z"/><path class="st3" d="M525.3 103h331.9c10.9 0 19.8 8.9 19.8 19.8v407.8c0 10.9-8.9 19.8-19.8 19.8H525.3c-10.9 0-19.8-8.9-19.8-19.8V122.8c0-11 8.8-19.8 19.8-19.8z"/><path class="st4" d="M522 148.1H858V505.29999999999995H522z"/><circle class="st4" cx="691.2" cy="528.8" r="13.1"/><path class="st0" d="M824.2 333.3v-.1c-.1-2.9-.7-5.7-1.5-8.5l-.2-.5c-2.3-6.6-6.6-12.3-12.4-16.2-13.4-9.1-31.5-6.9-42.2 5.2-.6-3.1-1.4-6.1-2.6-9-8.5 1.1-17 1.4-25.6 1 5.2 2.4 10.7 4.3 16.2 5.8l-.2.7c-6.2-1.7-12.3-3.9-18.1-6.7l-1.8-.9 2 .1c9.1.6 18.2.3 27.2-.8-2-4.7-4.7-9-8-12.7-14.6-1.5-29.2-4.5-42.7-10.6l.3-.7c13.2 5.9 27.3 9 41.6 10.5-17.2-18.5-46.1-19.5-64.6-2.3-3.1 2.9-5.9 6.3-8.1 10-1.4-13.1-6.8-25.5-15.6-35.3-7.8 3.1-15.9 5.6-24.1 7.3-12.4 2.6-25 3.6-37.7 3 5.2 2.4 10.7 4.4 16.2 5.9l-.2.7c-6.2-1.7-12.3-4-18.1-6.8l-1.8-.9 2 .1c21.5 1.4 43.1-2 63.2-10-.8-.8-1.5-1.6-2.3-2.4-25 .5-52.3.3-77-8.7-18.6 11.5-29.9 31.8-29.9 53.6 0 11.8 3.2 28.1 8.9 44.4 2.5 7.3 5.4 14.4 8.8 21.3 1.7 3.5 3.5 6.9 5.5 10.2 2.3 4 4.9 7.8 7.7 11.5.5.7 1 1.3 1.5 1.9 2.8 3.6 6 6.9 9.5 9.9.7.6 1.4 1.2 2.1 1.7 1.9 1.4 4 2.7 6.1 3.8 3.6 1.9 7.5 3 11.6 3.2h1v.1h170.9v-.1h.1c1 0 2-.2 2.9-.5 6-2.2 11.6-10.8 16.2-21.6 1-2.4 2-4.9 2.9-7.5.8-2.3 1.6-4.6 2.3-7 2.1-6.9 3.9-13.9 5.4-21 1.4-6.4 2.3-13 2.5-19.6.1-.5.1-1 .1-1.5z"/><path class="st0" d="M664.3 258.5c-20.4-19.4-51.1-22.9-75.3-8.5 24.1 8.7 50.8 9 75.3 8.5zm140 140.5l-26.4-45.7c-.2-.4-.7-.5-1.1-.3l-.3.3-26.4 45.7c-.2.4-.1.9.3 1.1.1.1.3.1.4.1h7.9c.5 0 .8.4.8.8v9.8c0 .5.4.8.8.8h10.3c.5 0 .8-.4.8-.8v-4.7c0-.5.4-.8.8-.8h9.8c.5 0 .8.4.8.8v4.7c0 .5.4.8.8.8H794c.4 0 .7-.2.8-.6V400.9c0-.5.4-.8.8-.8h7.9c.5 0 .9-.3.9-.8 0 0 0-.1-.1-.3zm-36.8 5c-.2.2-.4.2-.6.2h-3.7c-.5 0-.8-.4-.8-.8 0-.2.1-.4.2-.6.2-.2.4-.2.6-.2h3.7c.5 0 .8.4.8.8.1.2 0 .5-.2.6zm24.3 0c-.2.2-.4.2-.6.2h-3.7c-.5-.1-.8-.5-.8-.9s.4-.7.8-.8h3.7c.5 0 .8.4.8.8 0 .3-.1.6-.2.7zm-150.5-4.6l-26.4-45.7c-.2-.4-.7-.5-1.1-.3l-.3.3-22.8 39.5c2.8 3.6 6 6.9 9.5 9.9h3.7c.5 0 .8.4.8.8 0 .2-.1.4-.2.6-.2.2-.4.3-.6.2h-1.6c1.9 1.4 4 2.7 6.1 3.8v-2c0-.5.4-.8.8-.8h9.8c.5 0 .8.4.8.8v4.7c0 .1 0 .2.1.3.1.3.4.5.8.5H631c.3 0 .5-.1.7-.3.1-.1.2-.3.2-.5v-9.8c0-.5.4-.8.8-.8h7.9c.5 0 .8-.4.8-.9 0-.1-.1-.2-.1-.3zm-17.5 3.8c.2-.2.4-.2.6-.2h3.7c.5 0 .8.4.8.8 0 .2-.1.5-.3.6-.2.2-.4.3-.6.2h-3.7c-.5 0-.8-.4-.8-.8l.3-.6zm-16.5-16.9c-.5 0-.8-.4-.8-.8v-6.4c0-.5.4-.8.8-.8h13.8c.5 0 .8.4.8.8v6.4c0 .5-.4.8-.8.8h-13.8zm138.2-69h-32.6v-7c0-.9-.8-1.7-1.7-1.7h-9.6V301c0-.6-.5-1.1-1.1-1.1h-12.3c-.6 0-1.1.5-1.1 1v7.5h-11.3c-.9 0-1.7.8-1.7 1.7v7H643c-.2 0-.3.2-.3.3v93.7c0 .2.2.3.3.3h20.7c.2 0 .3-.2.3-.3v-12.6c0-.2.2-.3.3-.3h8.7c.2 0 .3.2.3.3v12.6c0 .2.2.3.3.3h40.9c.2 0 .3-.2.3-.3v-12.6c0-.2.2-.3.3-.3h8.7c.2 0 .3.2.3.3v12.6c0 .2.2.3.3.3h20.7c.2 0 .3-.2.3-.3v-93.7c.5.1.3-.1.1-.1zM660.4 394c0 .2-.2.3-.3.3h-12.8c-.2 0-.3-.2-.3-.3v-4.4c0-.2.2-.3.3-.3h12.8c.2 0 .3.2.3.3v4.4zm0-11.3c0 .2-.2.3-.3.3h-12.8c-.2 0-.3-.2-.3-.3v-4.4c0-.2.2-.3.3-.3h12.8c.2 0 .3.2.3.3v4.4zm0-11.2c0 .2-.2.3-.3.3h-12.8c-.2 0-.3-.2-.3-.3v-4.4c0-.2.2-.3.3-.3h12.8c.2 0 .3.2.3.3v4.4zm0-11.3c0 .2-.2.3-.3.3h-12.8c-.2 0-.3-.2-.3-.3v-4.4c0-.2.2-.3.3-.3h12.8c.2 0 .3.2.3.3v4.4zm0-11.3c0 .2-.2.3-.3.3h-12.8c-.2 0-.3-.2-.3-.3v-4.4c0-.2.2-.3.3-.3h12.8c.2 0 .3.2.3.3v4.4zm0-11.3c0 .2-.2.3-.3.3h-12.8c-.2 0-.3-.2-.3-.3v-4.4c0-.2.2-.3.3-.3h12.8c.2 0 .3.2.3.3v4.4zm0-11.2c0 .2-.2.3-.3.3h-12.8c-.2 0-.3-.2-.3-.3V322c0-.2.2-.3.3-.3h12.8c.2 0 .3.2.3.3v4.4zm30.3 67.6c0 .2-.2.3-.3.3h-12.8c-.2 0-.3-.2-.3-.3v-4.4c0-.2.2-.3.3-.3h12.8c.2 0 .3.2.3.3v4.4zm0-11.3c0 .2-.2.3-.3.3h-12.8c-.2 0-.3-.2-.3-.3v-4.4c0-.2.2-.3.3-.3h12.8c.2 0 .3.2.3.3v4.4zm0-11.2c0 .2-.2.3-.3.3h-12.8c-.2 0-.3-.2-.3-.3v-4.4c0-.2.2-.3.3-.3h12.8c.2 0 .3.2.3.3v4.4zm0-11.3c0 .2-.2.3-.3.3h-12.8c-.2 0-.3-.2-.3-.3v-4.4c0-.2.2-.3.3-.3h12.8c.2 0 .3.2.3.3v4.4zm0-11.3c0 .2-.2.3-.3.3h-12.8c-.2 0-.3-.2-.3-.3v-4.4c0-.2.2-.3.3-.3h12.8c.2 0 .3.2.3.3v4.4zm0-11.3c0 .2-.2.3-.3.3h-12.8c-.2 0-.3-.2-.3-.3v-4.4c0-.2.2-.3.3-.3h12.8c.2 0 .3.2.3.3v4.4zm0-11.2c0 .2-.2.3-.3.3h-12.8c-.2 0-.3-.2-.3-.3V322c0-.2.2-.3.3-.3h12.8c.2 0 .3.2.3.3v4.4zm20.7 67.6c0 .2-.2.3-.3.3h-12.8c-.2 0-.3-.2-.3-.3v-4.4c0-.2.2-.3.3-.3H711c.2 0 .3.2.3.3l.1 4.4zm0-11.3c0 .2-.2.3-.3.3h-12.8c-.2 0-.3-.2-.3-.3v-4.4c0-.2.2-.3.3-.3H711c.2 0 .3.2.3.3l.1 4.4zm0-11.2c0 .2-.2.3-.3.3h-12.8c-.2 0-.3-.2-.3-.3v-4.4c0-.2.2-.3.3-.3H711c.2 0 .3.2.3.3l.1 4.4zm0-11.3c0 .2-.2.3-.3.3h-12.8c-.2 0-.3-.2-.3-.3v-4.4c0-.2.2-.3.3-.3H711c.2 0 .3.2.3.3l.1 4.4zm0-11.3c0 .2-.2.3-.3.3h-12.8c-.2 0-.3-.2-.3-.3v-4.4c0-.2.2-.3.3-.3H711c.2 0 .3.2.3.3l.1 4.4zm0-11.3c0 .2-.2.3-.3.3h-12.8c-.2 0-.3-.2-.3-.3v-4.4c0-.2.2-.3.3-.3H711c.2 0 .3.2.3.3l.1 4.4zm0-11.2c0 .2-.2.3-.3.3h-12.8c-.2 0-.3-.2-.3-.3V322c0-.2.2-.3.3-.3H711c.2 0 .3.2.3.3l.1 4.4zm30.3 67.6c0 .2-.2.3-.3.3h-12.8c-.2 0-.3-.2-.3-.3v-4.4c0-.2.2-.3.3-.3h12.8c.2 0 .3.2.3.3v4.4zm0-11.3c0 .2-.2.3-.3.3h-12.8c-.2 0-.3-.2-.3-.3v-4.4c0-.2.2-.3.3-.3h12.8c.2 0 .3.2.3.3v4.4zm0-11.2c0 .2-.2.3-.3.3h-12.8c-.2 0-.3-.2-.3-.3v-4.4c0-.2.2-.3.3-.3h12.8c.2 0 .3.2.3.3v4.4zm0-11.3c0 .2-.2.3-.3.3h-12.8c-.2 0-.3-.2-.3-.3v-4.4c0-.2.2-.3.3-.3h12.8c.2 0 .3.2.3.3v4.4zm0-11.3c0 .2-.2.3-.3.3h-12.8c-.2 0-.3-.2-.3-.3v-4.4c0-.2.2-.3.3-.3h12.8c.2 0 .3.2.3.3v4.4zm0-11.3c0 .2-.2.3-.3.3h-12.8c-.2 0-.3-.2-.3-.3v-4.4c0-.2.2-.3.3-.3h12.8c.2 0 .3.2.3.3v4.4zm0-11.2c0 .2-.2.3-.3.3h-12.8c-.2 0-.3-.2-.3-.3V322c0-.2.2-.3.3-.3h12.8c.2 0 .3.2.3.3v4.4zm-89.1-34.5c-1.4-.3-2.9-.1-4.3.5-.8.4-1.7.5-2.5.5-.9 0-1.8-.2-2.6-.5-1.9-.8-4.1-.8-6 .1-.5.3-1.1.4-1.7.4-2.4 0-4.5-2.5-4.9-5.7.5-.4.9-.8 1.2-1.3 1.7-3.4 5.8-4.7 9.2-3 1.3.7 2.4 1.7 3 3 .9 1.4 2.4 2.2 4 2.2h.1c2 0 3.6 1.5 4.5 3.8z"/><path class="st0" d="M660 281.7l-4 2.5 2.4-4.4c-.7-.5-1.5-.8-2.4-.8-.3 0-.5 0-.8-.1l-1.3.8.6-1c-.9-.3-1.8-.9-2.3-1.8l-2.4 1.5 1.5-2.8c-1.3-1.7-3.3-2.7-5.4-2.7-2.6.1-4.9 1.5-6.1 3.8-.9 1.4-2.4 2.2-4.1 2.2h-.1c-2.8 0-5 3.1-5 7s2.2 7 5 7c.6 0 1.2-.2 1.7-.4 1.9-.9 4.1-1 6-.1.8.4 1.7.5 2.6.5.9 0 1.7-.2 2.5-.5 1.9-.8 4.1-.8 6 .1.5.3 1.1.4 1.7.4 2.8 0 5-3.1 5-7 0-1.4-.4-2.8-1.1-4.2z"/><path class="st3" d="M990.9 269.2h.8c1.3 0 2.3 1 2.3 2.3v39.6c0 1.3-1 2.3-2.3 2.3h-.8c-1.3 0-2.3-1-2.3-2.3v-39.6c0-1.3 1.1-2.3 2.3-2.3zM812 234.6c.8 0 1.5.7 1.5 1.5v11.5c0 .8-.7 1.5-1.5 1.5s-1.5-.7-1.5-1.5v-11.5c0-.9.7-1.5 1.5-1.5zm.1 26.6c.9 0 1.7.8 1.7 1.7v21.9c0 .9-.8 1.7-1.7 1.7-.9 0-1.7-.8-1.7-1.7v-21.9c0-1 .8-1.7 1.7-1.7zm0 34.2c.9 0 1.6.7 1.6 1.6v22.3c0 .9-.7 1.6-1.6 1.6-.9 0-1.6-.7-1.6-1.6V297c0-.9.7-1.6 1.6-1.6z"/><path class="st3" d="M830.8 186.5H973c10.2 0 18.5 8.3 18.5 18.5v327.3c0 10.2-8.3 18.5-18.5 18.5H830.8c-10.2 0-18.5-8.3-18.5-18.5V205c-.1-10.2 8.3-18.5 18.5-18.5z"/><path class="st4" d="M856.8 196h-19.2c-7.9 0-14.2 6.4-14.2 14.2v316.9c0 7.9 6.4 14.2 14.2 14.2h128.7c7.9 0 14.2-6.4 14.2-14.2V210.2c0-7.9-6.4-14.2-14.2-14.2h-20.5"/><path class="st0" d="M962.2 371.7c-.1-1.3-.3-2.6-.7-3.8 0-.1 0-.1-.1-.2-2.6-7.6-10.9-11.7-18.5-9.1-2.4.8-4.5 2.2-6.2 4.1-.2-1.4-.6-2.8-1.2-4.1-3.8.5-7.7.6-11.5.4 2.4 1.1 4.8 2 7.3 2.7l-.1.3c-2.8-.8-5.6-1.8-8.2-3.1l-.8-.4.9.1c4.1.3 8.2.2 12.3-.4-.9-2.1-2.1-4-3.6-5.8-6.6-.5-13.1-2.2-19.3-4.8l.1-.3c6 2.6 12.3 4.2 18.8 4.7-7.8-8.3-20.8-8.8-29.2-1-1.4 1.3-2.6 2.8-3.6 4.5-.6-5.9-3.1-11.5-7-15.9-8.8 3.5-18.4 5.1-27.9 4.6 2.4 1.1 4.8 2 7.3 2.7l-.1.3c-2.8-.8-5.6-1.8-8.2-3.1l-.8-.4.9.1c9.7.6 19.4-.9 28.5-4.5-.3-.4-.7-.7-1-1.1-11.3.2-23.6.1-34.7-3.9-8.4 5.2-13.5 14.3-13.5 24.2 0 5.3 1.5 12.7 4 20 1.1 3.3 2.5 6.5 4 9.6.8 1.6 1.6 3.1 2.5 4.6 1 1.8 2.2 3.5 3.5 5.2l.7.9c1.3 1.6 2.7 3.1 4.3 4.5.3.3.6.5 1 .8.9.7 1.8 1.2 2.8 1.7 1.6.8 3.4 1.3 5.2 1.4h77.6c.4 0 .9-.1 1.3-.2 2.7-1 5.2-4.8 7.3-9.8.5-1.1.9-2.2 1.3-3.4s.7-2.1 1.1-3.2c1-3.2 1.8-6.5 2.4-9.5.6-2.9 1-5.9 1.1-8.8v-.6z"/><path class="st0" d="M890.1 338c-9.2-8.8-23.1-10.3-34-3.8 10.9 3.8 22.9 4 34 3.8zm63.1 63.3l-11.9-20.6c-.1-.2-.3-.2-.5-.1-.1 0-.1.1-.1.1l-11.9 20.6c-.1.2 0 .4.1.5.1 0 .1.1.2.1h3.5c.2 0 .4.2.4.4v4.4c0 .2.2.4.4.4h4.6c.2 0 .4-.2.4-.4v-2.1c0-.2.2-.4.4-.4h4.4c.2 0 .4.2.4.4v2.1c0 .2.2.4.4.4h4.6c.2 0 .3-.1.4-.3v-4.5c0-.2.2-.4.4-.4h3.6c.2 0 .4-.1.4-.3-.1-.1-.1-.2-.2-.3zm-16.6 2.3c-.1.1-.2.1-.3.1h-1.7c-.2 0-.4-.2-.4-.4 0-.1 0-.2.1-.3.1-.1.2-.1.3-.1h1.7c.2 0 .4.2.4.4.1.1 0 .2-.1.3zm11 0c-.1.1-.2.1-.3.1h-1.7c-.2 0-.4-.2-.4-.4 0-.1 0-.2.1-.3.1-.1.2-.1.3-.1h1.7c.2 0 .4.2.4.4 0 .1-.1.2-.1.3zm-67.9-2.1l-11.9-20.6c-.1-.2-.3-.2-.5-.1-.1 0-.1.1-.1.1l-10.3 17.8c1.3 1.6 2.7 3.1 4.3 4.5h1.7c.2 0 .4.1.4.3 0 .2-.1.4-.3.4H862.2c.9.7 1.8 1.2 2.8 1.7v-.9c0-.2.2-.4.4-.4h4.4c.2 0 .4.2.4.4v2.1c0 .2.2.4.4.4h4.6c.1 0 .2-.1.3-.2 0-.1.1-.1.1-.2v-4.4c0-.2.2-.4.4-.4h3.5c.2 0 .4-.2.4-.4-.2 0-.2-.1-.2-.1zm-7.9 1.7c.1-.1.2-.1.3-.1h1.7c.2 0 .4.1.4.3 0 .2-.1.4-.3.4h-1.8c-.2 0-.4-.2-.4-.4 0 0 0-.1.1-.2zm-7.5-7.6c-.2 0-.4-.2-.4-.4v-2.9c0-.2.2-.4.4-.4h6.2c.2 0 .4.2.4.4v2.9c0 .2-.2.4-.4.4h-6.2zm62.4-31.1H912v-3.2c0-.4-.3-.8-.8-.8h-4.3v-3.4c0-.3-.2-.5-.5-.5h-5.6c-.3 0-.5.2-.5.5v3.4h-5.1c-.4 0-.8.3-.8.8v3.2h-14c-.1 0-.2.1-.2.1v42.3c0 .1.1.2.2.2h9.3c.1 0 .2-.1.2-.2v-5.7c0-.1.1-.2.1-.2h3.9c.1 0 .2.1.2.2v5.7c0 .1.1.2.2.2h18.4c.1 0 .2-.1.2-.2v-5.7c0-.1.1-.2.1-.2h3.9c.1 0 .2.1.2.2v5.7c0 .1.1.2.2.2h9.3c.1 0 .2-.1.2-.2v-42.3c.1-.1 0-.1-.1-.1.1 0 0 0 0 0zm-38.4 34.6c0 .1-.1.2-.2.2h-5.8c-.1 0-.2-.1-.2-.2v-2c0-.1.1-.2.2-.2h5.8c.1 0 .2.1.2.2v2zm0-5.1c0 .1-.1.2-.2.2h-5.8c-.1 0-.2-.1-.2-.2v-2c0-.1.1-.2.2-.2h5.8c.1 0 .2.1.2.2v2zm0-5.1c0 .1-.1.2-.2.2h-5.8c-.1 0-.2-.1-.2-.2v-2c0-.1.1-.2.2-.2h5.8c.1 0 .2.1.2.2v2zm0-5.1c0 .1-.1.2-.2.2h-5.8c-.1 0-.2-.1-.2-.2v-2c0-.1.1-.2.2-.2h5.8c.1 0 .2.1.2.2v2zm0-5.1c0 .1-.1.2-.2.2h-5.8c-.1 0-.2-.1-.2-.2v-2c0-.1.1-.2.2-.2h5.8c.1 0 .2.1.2.2v2zm0-5.1c0 .1-.1.2-.2.2h-5.8c-.1 0-.2-.1-.2-.2v-2c0-.1.1-.2.2-.2h5.8c.1 0 .2.1.2.2v2zm0-5c0 .1-.1.2-.2.2h-5.8c-.1 0-.2-.1-.2-.2v-2c0-.1.1-.2.2-.2h5.8c.1 0 .2.1.2.2v2zm13.7 30.5c0 .1-.1.2-.2.2H896c-.1 0-.2-.1-.2-.2v-2c0-.1.1-.2.1-.2h5.8c.1 0 .2.1.2.1v2.1zm0-5.1c0 .1-.1.2-.1.2h-5.8c-.1 0-.2-.1-.2-.1v-2c0-.1.1-.2.2-.2h5.8c.1 0 .2.1.2.2v1.9zm0-5.1c0 .1-.1.2-.2.2H896c-.1 0-.2-.1-.2-.2v-2c0-.1.1-.2.1-.2h5.8c.1 0 .2.1.2.1v2.1zm0-5.1c0 .1-.1.2-.2.2H896c-.1 0-.2-.1-.2-.2v-2c0-.1.1-.2.2-.2h5.8c.1 0 .2.1.2.2v2zm0-5.1c0 .1-.1.2-.1.2h-5.8c-.1 0-.2-.1-.2-.1v-2c0-.1.1-.2.1-.2h5.8c.1 0 .2.1.2.1v2zm0-5.1c0 .1-.1.2-.2.2H896c-.1 0-.2-.1-.2-.2v-2c0-.1.1-.2.1-.2h5.8c.1 0 .2.1.2.1v2.1zm0-5c0 .1-.1.2-.1.2h-5.8c-.1 0-.2-.1-.2-.1v-2c0-.1.1-.2.2-.2h5.8c.1 0 .2.1.2.2v1.9zm9.3 30.5c0 .1-.1.2-.2.2h-5.8c-.1 0-.2-.1-.2-.2v-2c0-.1.1-.2.2-.2h5.8c.1 0 .2.1.2.2v2zm0-5.1c0 .1-.1.2-.2.2h-5.8c-.1 0-.2-.1-.2-.2v-2c0-.1.1-.2.2-.2h5.8c.1 0 .2.1.2.2v2zm0-5.1c0 .1-.1.2-.2.2h-5.8c-.1 0-.2-.1-.2-.2v-2c0-.1.1-.2.2-.2h5.8c.1 0 .2.1.2.2v2zm0-5.1c0 .1-.1.2-.2.2h-5.8c-.1 0-.2-.1-.2-.2v-2c0-.1.1-.2.2-.2h5.8c.1 0 .2.1.2.2v2zm0-5.1c0 .1-.1.2-.2.2h-5.8c-.1 0-.2-.1-.2-.2v-2c0-.1.1-.2.2-.2h5.8c.1 0 .2.1.2.2v2zm0-5.1c0 .1-.1.2-.2.2h-5.8c-.1 0-.2-.1-.2-.2v-2c0-.1.1-.2.2-.2h5.8c.1 0 .2.1.2.2v2zm0-5c0 .1-.1.2-.2.2h-5.8c-.1 0-.2-.1-.2-.2v-2c0-.1.1-.2.2-.2h5.8c.1 0 .2.1.2.2v2zm13.7 30.5c0 .1-.1.2-.2.2H919c-.1 0-.2-.1-.2-.2v-2c0-.1.1-.2.1-.2h5.8c.1 0 .2.1.2.1v2.1zm0-5.1c0 .1-.1.2-.1.2h-5.8c-.1 0-.2-.1-.2-.1v-2c0-.1.1-.2.2-.2h5.8c.1 0 .2.1.2.2v1.9zm0-5.1c0 .1-.1.2-.2.2H919c-.1 0-.2-.1-.2-.2v-2c0-.1.1-.2.1-.2h5.8c.1 0 .2.1.2.1v2.1zm0-5.1c0 .1-.1.2-.2.2H919c-.1 0-.2-.1-.2-.2v-2c0-.1.1-.2.2-.2h5.8c.1 0 .2.1.2.2v2zm0-5.1c0 .1-.1.2-.1.2h-5.8c-.1 0-.2-.1-.2-.1v-2c0-.1.1-.2.1-.2h5.8c.1 0 .2.1.2.1v2zm0-5.1c0 .1-.1.2-.2.2H919c-.1 0-.2-.1-.2-.2v-2c0-.1.1-.2.1-.2h5.8c.1 0 .2.1.2.1v2.1zm0-5c0 .1-.1.2-.1.2h-5.8c-.1 0-.2-.1-.2-.1v-2c0-.1.1-.2.2-.2h5.8c.1 0 .2.1.2.2v1.9zM884.8 353c-.6-.1-1.3 0-1.9.2-.4.2-.8.2-1.2.2-.4 0-.8-.1-1.2-.2-.9-.4-1.9-.4-2.7.1-.2.1-.5.2-.8.2-1.1 0-2-1.1-2.2-2.6.2-.2.4-.4.5-.6.8-1.5 2.6-2.1 4.2-1.4.6.3 1.1.8 1.4 1.4.4.6 1.1 1 1.8 1 1 .1 1.8.8 2.1 1.7z"/><path class="st0" d="M888.1 348.4l-1.8 1.1 1.1-2c-.3-.2-.7-.4-1.1-.4h-.4l-.6.4.3-.5c-.4-.2-.8-.4-1-.8l-1.1.7.7-1.2c-.6-.7-1.5-1.2-2.4-1.2-1.2.1-2.2.7-2.8 1.7-.4.6-1.1 1-1.8 1h-.1c-1.2 0-2.2 1.4-2.2 3.1 0 1.7 1 3.1 2.2 3.1.3 0 .5-.1.8-.2.9-.4 1.9-.4 2.7 0 .7.3 1.6.3 2.3 0 .9-.4 1.8-.4 2.7 0 .2.1.5.2.8.2 1.2 0 2.2-1.4 2.2-3.1 0-.6-.1-1.3-.5-1.9z"/></svg>